  0
SECTION
  2
HEADER
  9
$ANGBASE
  50
0.0
  9
$ANGDIR
  70
1
  9
$MEASUREMENT
  70
0
  0
ENDSEC
  0
SECTION
  2
TABLES
  0
TABLE
  2
LTYPE
  70
4
  0
LTYPE
  5
40F
  2
CONTINUOUS
  70
0
  3
Solid line
  72
65
  73
0
  40
0.0
  0
LTYPE
  5
410
  2
DASHDOT
 70
0
  3
Dash Dot ____ _ ____ _
 72
65
 73
4
 40
2.0
 49
1.25
 49
-0.25
 49
0.25
 49
-0.25
  0
LTYPE
  5
411
  2
DASHED
 70
0
  3
Dashed __ __ __ __ __
 72
65
 73
2
 40
0.75
 49
0.5
 49
-0.25
  0
LTYPE
  5
43B
  2
DOTTED
 70
0
  3
Dotted .  .  .  .
 72
65
 73
2
 40
0.2
 49
0.0
 49
-0.2
  0
ENDTAB
  0
TABLE
  2
STYLE
  70
4
  0
STYLE
  2
KICAD
  70
0
  40
0
  41
1
  42
1
  50
0
  71
0
  3
isocp.shx
  0
STYLE
  2
KICADB
  70
0
  40
0
  41
1
  42
1
  50
0
  71
0
  3
isocp.shx
  0
STYLE
  2
KICADI
  70
0
  40
0
  41
1
  42
1
  50
15
  71
0
  3
isocp.shx
  0
STYLE
  2
KICADBI
  70
0
  40
0
  41
1
  42
1
  50
15
  71
0
  3
isocp.shx
  0
ENDTAB
  0
TABLE
  2
LAYER
  70
1
  0
LAYER
  2
BLACK
  70
0
  62
7
  6
CONTINUOUS
  0
ENDTAB
  0
ENDSEC
  0
SECTION
  2
ENTITIES
0
LINE
8
BLACK
6
CONTINUOUS
10
2.60139
20
-2.89328
11
2.60139
21
-2.90453
0
LINE
8
BLACK
6
CONTINUOUS
10
2.60139
20
-2.90453
11
2.61264
21
-2.90566
0
LINE
8
BLACK
6
CONTINUOUS
10
2.61264
20
-2.90566
11
2.61152
21
-2.90453
0
LINE
8
BLACK
6
CONTINUOUS
10
2.61152
20
-2.90453
11
2.61039
21
-2.90228
0
LINE
8
BLACK
6
CONTINUOUS
10
2.61039
20
-2.90228
11
2.61039
21
-2.89666
0
LINE
8
BLACK
6
CONTINUOUS
10
2.61039
20
-2.89666
11
2.61152
21
-2.89441
0
LINE
8
BLACK
6
CONTINUOUS
10
2.61152
20
-2.89441
11
2.61264
21
-2.89328
0
LINE
8
BLACK
6
CONTINUOUS
10
2.61264
20
-2.89328
11
2.61489
21
-2.89216
0
LINE
8
BLACK
6
CONTINUOUS
10
2.61489
20
-2.89216
11
2.62052
21
-2.89216
0
LINE
8
BLACK
6
CONTINUOUS
10
2.62052
20
-2.89216
11
2.62277
21
-2.89328
0
LINE
8
BLACK
6
CONTINUOUS
10
2.62277
20
-2.89328
11
2.62389
21
-2.89441
0
LINE
8
BLACK
6
CONTINUOUS
10
2.62389
20
-2.89441
11
2.62502
21
-2.89666
0
LINE
8
BLACK
6
CONTINUOUS
10
2.62502
20
-2.89666
11
2.62502
21
-2.90228
0
LINE
8
BLACK
6
CONTINUOUS
10
2.62502
20
-2.90228
11
2.62389
21
-2.90453
0
LINE
8
BLACK
6
CONTINUOUS
10
2.62389
20
-2.90453
11
2.62277
21
-2.90566
0
LINE
8
BLACK
6
CONTINUOUS
10
2.60139
20
-2.87191
11
2.60139
21
-2.87641
0
LINE
8
BLACK
6
CONTINUOUS
10
2.60139
20
-2.87641
11
2.60252
21
-2.87866
0
LINE
8
BLACK
6
CONTINUOUS
10
2.60252
20
-2.87866
11
2.60364
21
-2.87979
0
LINE
8
BLACK
6
CONTINUOUS
10
2.60364
20
-2.87979
11
2.60702
21
-2.88204
0
LINE
8
BLACK
6
CONTINUOUS
10
2.60702
20
-2.88204
11
2.61152
21
-2.88316
0
LINE
8
BLACK
6
CONTINUOUS
10
2.61152
20
-2.88316
11
2.62052
21
-2.88316
0
LINE
8
BLACK
6
CONTINUOUS
10
2.62052
20
-2.88316
11
2.62277
21
-2.88204
0
LINE
8
BLACK
6
CONTINUOUS
10
2.62277
20
-2.88204
11
2.62389
21
-2.88091
0
LINE
8
BLACK
6
CONTINUOUS
10
2.62389
20
-2.88091
11
2.62502
21
-2.87866
0
LINE
8
BLACK
6
CONTINUOUS
10
2.62502
20
-2.87866
11
2.62502
21
-2.87416
0
LINE
8
BLACK
6
CONTINUOUS
10
2.62502
20
-2.87416
11
2.62389
21
-2.87191
0
LINE
8
BLACK
6
CONTINUOUS
10
2.62389
20
-2.87191
11
2.62277
21
-2.87079
0
LINE
8
BLACK
6
CONTINUOUS
10
2.62277
20
-2.87079
11
2.62052
21
-2.86966
0
LINE
8
BLACK
6
CONTINUOUS
10
2.62052
20
-2.86966
11
2.61489
21
-2.86966
0
LINE
8
BLACK
6
CONTINUOUS
10
2.61489
20
-2.86966
11
2.61264
21
-2.87079
0
LINE
8
BLACK
6
CONTINUOUS
10
2.61264
20
-2.87079
11
2.61152
21
-2.87191
0
LINE
8
BLACK
6
CONTINUOUS
10
2.61152
20
-2.87191
11
2.61039
21
-2.87416
0
LINE
8
BLACK
6
CONTINUOUS
10
2.61039
20
-2.87416
11
2.61039
21
-2.87866
0
LINE
8
BLACK
6
CONTINUOUS
10
2.61039
20
-2.87866
11
2.61152
21
-2.88091
0
LINE
8
BLACK
6
CONTINUOUS
10
2.61152
20
-2.88091
11
2.61264
21
-2.88204
0
LINE
8
BLACK
6
CONTINUOUS
10
2.61264
20
-2.88204
11
2.61489
21
-2.88316
0
LINE
8
BLACK
6
CONTINUOUS
10
2.62389
20
-2.85841
11
2.62502
21
-2.85841
0
LINE
8
BLACK
6
CONTINUOUS
10
2.62502
20
-2.85841
11
2.62727
21
-2.85954
0
LINE
8
BLACK
6
CONTINUOUS
10
2.62727
20
-2.85954
11
2.62839
21
-2.86066
0
LINE
8
BLACK
6
CONTINUOUS
10
2.60139
20
-2.84379
11
2.60139
21
-2.84154
0
LINE
8
BLACK
6
CONTINUOUS
10
2.60139
20
-2.84154
11
2.60252
21
-2.83929
0
LINE
8
BLACK
6
CONTINUOUS
10
2.60252
20
-2.83929
11
2.60364
21
-2.83817
0
LINE
8
BLACK
6
CONTINUOUS
10
2.60364
20
-2.83817
11
2.60589
21
-2.83704
0
LINE
8
BLACK
6
CONTINUOUS
10
2.60589
20
-2.83704
11
2.61039
21
-2.83592
0
LINE
8
BLACK
6
CONTINUOUS
10
2.61039
20
-2.83592
11
2.61602
21
-2.83592
0
LINE
8
BLACK
6
CONTINUOUS
10
2.61602
20
-2.83592
11
2.62052
21
-2.83704
0
LINE
8
BLACK
6
CONTINUOUS
10
2.62052
20
-2.83704
11
2.62277
21
-2.83817
0
LINE
8
BLACK
6
CONTINUOUS
10
2.62277
20
-2.83817
11
2.62389
21
-2.83929
0
LINE
8
BLACK
6
CONTINUOUS
10
2.62389
20
-2.83929
11
2.62502
21
-2.84154
0
LINE
8
BLACK
6
CONTINUOUS
10
2.62502
20
-2.84154
11
2.62502
21
-2.84379
0
LINE
8
BLACK
6
CONTINUOUS
10
2.62502
20
-2.84379
11
2.62389
21
-2.84604
0
LINE
8
BLACK
6
CONTINUOUS
10
2.62389
20
-2.84604
11
2.62277
21
-2.84717
0
LINE
8
BLACK
6
CONTINUOUS
10
2.62277
20
-2.84717
11
2.62052
21
-2.84829
0
LINE
8
BLACK
6
CONTINUOUS
10
2.62052
20
-2.84829
11
2.61602
21
-2.84942
0
LINE
8
BLACK
6
CONTINUOUS
10
2.61602
20
-2.84942
11
2.61039
21
-2.84942
0
LINE
8
BLACK
6
CONTINUOUS
10
2.61039
20
-2.84942
11
2.60589
21
-2.84829
0
LINE
8
BLACK
6
CONTINUOUS
10
2.60589
20
-2.84829
11
2.60364
21
-2.84717
0
LINE
8
BLACK
6
CONTINUOUS
10
2.60364
20
-2.84717
11
2.60252
21
-2.84604
0
LINE
8
BLACK
6
CONTINUOUS
10
2.60252
20
-2.84604
11
2.60139
21
-2.84379
0
LINE
8
BLACK
6
CONTINUOUS
10
2.60139
20
-2.82129
11
2.60139
21
-2.81904
0
LINE
8
BLACK
6
CONTINUOUS
10
2.60139
20
-2.81904
11
2.60252
21
-2.81679
0
LINE
8
BLACK
6
CONTINUOUS
10
2.60252
20
-2.81679
11
2.60364
21
-2.81567
0
LINE
8
BLACK
6
CONTINUOUS
10
2.60364
20
-2.81567
11
2.60589
21
-2.81454
0
LINE
8
BLACK
6
CONTINUOUS
10
2.60589
20
-2.81454
11
2.61039
21
-2.81342
0
LINE
8
BLACK
6
CONTINUOUS
10
2.61039
20
-2.81342
11
2.61602
21
-2.81342
0
LINE
8
BLACK
6
CONTINUOUS
10
2.61602
20
-2.81342
11
2.62052
21
-2.81454
0
LINE
8
BLACK
6
CONTINUOUS
10
2.62052
20
-2.81454
11
2.62277
21
-2.81567
0
LINE
8
BLACK
6
CONTINUOUS
10
2.62277
20
-2.81567
11
2.62389
21
-2.81679
0
LINE
8
BLACK
6
CONTINUOUS
10
2.62389
20
-2.81679
11
2.62502
21
-2.81904
0
LINE
8
BLACK
6
CONTINUOUS
10
2.62502
20
-2.81904
11
2.62502
21
-2.82129
0
LINE
8
BLACK
6
CONTINUOUS
10
2.62502
20
-2.82129
11
2.62389
21
-2.82354
0
LINE
8
BLACK
6
CONTINUOUS
10
2.62389
20
-2.82354
11
2.62277
21
-2.82467
0
LINE
8
BLACK
6
CONTINUOUS
10
2.62277
20
-2.82467
11
2.62052
21
-2.82579
0
LINE
8
BLACK
6
CONTINUOUS
10
2.62052
20
-2.82579
11
2.61602
21
-2.82692
0
LINE
8
BLACK
6
CONTINUOUS
10
2.61602
20
-2.82692
11
2.61039
21
-2.82692
0
LINE
8
BLACK
6
CONTINUOUS
10
2.61039
20
-2.82692
11
2.60589
21
-2.82579
0
LINE
8
BLACK
6
CONTINUOUS
10
2.60589
20
-2.82579
11
2.60364
21
-2.82467
0
LINE
8
BLACK
6
CONTINUOUS
10
2.60364
20
-2.82467
11
2.60252
21
-2.82354
0
LINE
8
BLACK
6
CONTINUOUS
10
2.60252
20
-2.82354
11
2.60139
21
-2.82129
0
LINE
8
BLACK
6
CONTINUOUS
10
2.60139
20
-2.7988
11
2.60139
21
-2.79655
0
LINE
8
BLACK
6
CONTINUOUS
10
2.60139
20
-2.79655
11
2.60252
21
-2.7943
0
LINE
8
BLACK
6
CONTINUOUS
10
2.60252
20
-2.7943
11
2.60364
21
-2.79317
0
LINE
8
BLACK
6
CONTINUOUS
10
2.60364
20
-2.79317
11
2.60589
21
-2.79205
0
LINE
8
BLACK
6
CONTINUOUS
10
2.60589
20
-2.79205
11
2.61039
21
-2.79092
0
LINE
8
BLACK
6
CONTINUOUS
10
2.61039
20
-2.79092
11
2.61602
21
-2.79092
0
LINE
8
BLACK
6
CONTINUOUS
10
2.61602
20
-2.79092
11
2.62052
21
-2.79205
0
LINE
8
BLACK
6
CONTINUOUS
10
2.62052
20
-2.79205
11
2.62277
21
-2.79317
0
LINE
8
BLACK
6
CONTINUOUS
10
2.62277
20
-2.79317
11
2.62389
21
-2.7943
0
LINE
8
BLACK
6
CONTINUOUS
10
2.62389
20
-2.7943
11
2.62502
21
-2.79655
0
LINE
8
BLACK
6
CONTINUOUS
10
2.62502
20
-2.79655
11
2.62502
21
-2.7988
0
LINE
8
BLACK
6
CONTINUOUS
10
2.62502
20
-2.7988
11
2.62389
21
-2.80105
0
LINE
8
BLACK
6
CONTINUOUS
10
2.62389
20
-2.80105
11
2.62277
21
-2.80217
0
LINE
8
BLACK
6
CONTINUOUS
10
2.62277
20
-2.80217
11
2.62052
21
-2.8033
0
LINE
8
BLACK
6
CONTINUOUS
10
2.62052
20
-2.8033
11
2.61602
21
-2.80442
0
LINE
8
BLACK
6
CONTINUOUS
10
2.61602
20
-2.80442
11
2.61039
21
-2.80442
0
LINE
8
BLACK
6
CONTINUOUS
10
2.61039
20
-2.80442
11
2.60589
21
-2.8033
0
LINE
8
BLACK
6
CONTINUOUS
10
2.60589
20
-2.8033
11
2.60364
21
-2.80217
0
LINE
8
BLACK
6
CONTINUOUS
10
2.60364
20
-2.80217
11
2.60252
21
-2.80105
0
LINE
8
BLACK
6
CONTINUOUS
10
2.60252
20
-2.80105
11
2.60139
21
-2.7988
0
LINE
8
BLACK
6
CONTINUOUS
10
2.60139
20
-2.7763
11
2.60139
21
-2.77405
0
LINE
8
BLACK
6
CONTINUOUS
10
2.60139
20
-2.77405
11
2.60252
21
-2.7718
0
LINE
8
BLACK
6
CONTINUOUS
10
2.60252
20
-2.7718
11
2.60364
21
-2.77067
0
LINE
8
BLACK
6
CONTINUOUS
10
2.60364
20
-2.77067
11
2.60589
21
-2.76955
0
LINE
8
BLACK
6
CONTINUOUS
10
2.60589
20
-2.76955
11
2.61039
21
-2.76843
0
LINE
8
BLACK
6
CONTINUOUS
10
2.61039
20
-2.76843
11
2.61602
21
-2.76843
0
LINE
8
BLACK
6
CONTINUOUS
10
2.61602
20
-2.76843
11
2.62052
21
-2.76955
0
LINE
8
BLACK
6
CONTINUOUS
10
2.62052
20
-2.76955
11
2.62277
21
-2.77067
0
LINE
8
BLACK
6
CONTINUOUS
10
2.62277
20
-2.77067
11
2.62389
21
-2.7718
0
LINE
8
BLACK
6
CONTINUOUS
10
2.62389
20
-2.7718
11
2.62502
21
-2.77405
0
LINE
8
BLACK
6
CONTINUOUS
10
2.62502
20
-2.77405
11
2.62502
21
-2.7763
0
LINE
8
BLACK
6
CONTINUOUS
10
2.62502
20
-2.7763
11
2.62389
21
-2.77855
0
LINE
8
BLACK
6
CONTINUOUS
10
2.62389
20
-2.77855
11
2.62277
21
-2.77967
0
LINE
8
BLACK
6
CONTINUOUS
10
2.62277
20
-2.77967
11
2.62052
21
-2.7808
0
LINE
8
BLACK
6
CONTINUOUS
10
2.62052
20
-2.7808
11
2.61602
21
-2.78192
0
LINE
8
BLACK
6
CONTINUOUS
10
2.61602
20
-2.78192
11
2.61039
21
-2.78192
0
LINE
8
BLACK
6
CONTINUOUS
10
2.61039
20
-2.78192
11
2.60589
21
-2.7808
0
LINE
8
BLACK
6
CONTINUOUS
10
2.60589
20
-2.7808
11
2.60364
21
-2.77967
0
LINE
8
BLACK
6
CONTINUOUS
10
2.60364
20
-2.77967
11
2.60252
21
-2.77855
0
LINE
8
BLACK
6
CONTINUOUS
10
2.60252
20
-2.77855
11
2.60139
21
-2.7763
0
LINE
8
BLACK
6
CONTINUOUS
10
2.62502
20
-2.7403
11
2.60927
21
-2.7403
0
LINE
8
BLACK
6
CONTINUOUS
10
2.60927
20
-2.7403
11
2.62164
21
-2.73355
0
LINE
8
BLACK
6
CONTINUOUS
10
2.62164
20
-2.73355
11
2.60927
21
-2.72681
0
LINE
8
BLACK
6
CONTINUOUS
10
2.60927
20
-2.72681
11
2.62502
21
-2.72681
0
LINE
8
BLACK
6
CONTINUOUS
10
2.62502
20
-2.71556
11
2.60927
21
-2.71556
0
LINE
8
BLACK
6
CONTINUOUS
10
2.60927
20
-2.71556
11
2.62164
21
-2.70881
0
LINE
8
BLACK
6
CONTINUOUS
10
2.62164
20
-2.70881
11
2.60927
21
-2.70206
0
LINE
8
BLACK
6
CONTINUOUS
10
2.60927
20
-2.70206
11
2.62502
21
-2.70206
0
LINE
8
BLACK
6
CONTINUOUS
10
3.30252
20
-1.70093
11
2.61801
21
-1.70093
0
LINE
8
BLACK
6
CONTINUOUS
10
2.61801
20
-3.90566
11
3.33008
21
-3.90566
0
LINE
8
BLACK
6
CONTINUOUS
10
2.6411
20
-1.70093
11
2.6411
21
-3.90566
0
LINE
8
BLACK
6
CONTINUOUS
10
2.6411
20
-1.70093
11
2.6411
21
-3.90566
0
LINE
8
BLACK
6
CONTINUOUS
10
2.6411
20
-1.70093
11
2.61801
21
-1.74528
0
LINE
8
BLACK
6
CONTINUOUS
10
2.6411
20
-1.70093
11
2.66419
21
-1.74528
0
LINE
8
BLACK
6
CONTINUOUS
10
2.6411
20
-3.90566
11
2.66419
21
-3.86131
0
LINE
8
BLACK
6
CONTINUOUS
10
2.6411
20
-3.90566
11
2.61801
21
-3.86131
0
LINE
8
BLACK
6
CONTINUOUS
10
4.86918
20
-4.24927
11
4.87368
21
-4.24927
0
LINE
8
BLACK
6
CONTINUOUS
10
4.87368
20
-4.24927
11
4.87593
21
-4.24814
0
LINE
8
BLACK
6
CONTINUOUS
10
4.87593
20
-4.24814
11
4.87705
21
-4.24702
0
LINE
8
BLACK
6
CONTINUOUS
10
4.87705
20
-4.24702
11
4.8793
21
-4.24364
0
LINE
8
BLACK
6
CONTINUOUS
10
4.8793
20
-4.24364
11
4.88043
21
-4.23915
0
LINE
8
BLACK
6
CONTINUOUS
10
4.88043
20
-4.23915
11
4.88043
21
-4.23015
0
LINE
8
BLACK
6
CONTINUOUS
10
4.88043
20
-4.23015
11
4.8793
21
-4.2279
0
LINE
8
BLACK
6
CONTINUOUS
10
4.8793
20
-4.2279
11
4.87818
21
-4.22677
0
LINE
8
BLACK
6
CONTINUOUS
10
4.87818
20
-4.22677
11
4.87593
21
-4.22565
0
LINE
8
BLACK
6
CONTINUOUS
10
4.87593
20
-4.22565
11
4.87143
21
-4.22565
0
LINE
8
BLACK
6
CONTINUOUS
10
4.87143
20
-4.22565
11
4.86918
21
-4.22677
0
LINE
8
BLACK
6
CONTINUOUS
10
4.86918
20
-4.22677
11
4.86805
21
-4.2279
0
LINE
8
BLACK
6
CONTINUOUS
10
4.86805
20
-4.2279
11
4.86693
21
-4.23015
0
LINE
8
BLACK
6
CONTINUOUS
10
4.86693
20
-4.23015
11
4.86693
21
-4.23577
0
LINE
8
BLACK
6
CONTINUOUS
10
4.86693
20
-4.23577
11
4.86805
21
-4.23802
0
LINE
8
BLACK
6
CONTINUOUS
10
4.86805
20
-4.23802
11
4.86918
21
-4.23915
0
LINE
8
BLACK
6
CONTINUOUS
10
4.86918
20
-4.23915
11
4.87143
21
-4.24027
0
LINE
8
BLACK
6
CONTINUOUS
10
4.87143
20
-4.24027
11
4.87593
21
-4.24027
0
LINE
8
BLACK
6
CONTINUOUS
10
4.87593
20
-4.24027
11
4.87818
21
-4.23915
0
LINE
8
BLACK
6
CONTINUOUS
10
4.87818
20
-4.23915
11
4.8793
21
-4.23802
0
LINE
8
BLACK
6
CONTINUOUS
10
4.8793
20
-4.23802
11
4.88043
21
-4.23577
0
LINE
8
BLACK
6
CONTINUOUS
10
4.89168
20
-4.24927
11
4.89618
21
-4.24927
0
LINE
8
BLACK
6
CONTINUOUS
10
4.89618
20
-4.24927
11
4.89843
21
-4.24814
0
LINE
8
BLACK
6
CONTINUOUS
10
4.89843
20
-4.24814
11
4.89955
21
-4.24702
0
LINE
8
BLACK
6
CONTINUOUS
10
4.89955
20
-4.24702
11
4.9018
21
-4.24364
0
LINE
8
BLACK
6
CONTINUOUS
10
4.9018
20
-4.24364
11
4.90292
21
-4.23915
0
LINE
8
BLACK
6
CONTINUOUS
10
4.90292
20
-4.23915
11
4.90292
21
-4.23015
0
LINE
8
BLACK
6
CONTINUOUS
10
4.90292
20
-4.23015
11
4.9018
21
-4.2279
0
LINE
8
BLACK
6
CONTINUOUS
10
4.9018
20
-4.2279
11
4.90067
21
-4.22677
0
LINE
8
BLACK
6
CONTINUOUS
10
4.90067
20
-4.22677
11
4.89843
21
-4.22565
0
LINE
8
BLACK
6
CONTINUOUS
10
4.89843
20
-4.22565
11
4.89393
21
-4.22565
0
LINE
8
BLACK
6
CONTINUOUS
10
4.89393
20
-4.22565
11
4.89168
21
-4.22677
0
LINE
8
BLACK
6
CONTINUOUS
10
4.89168
20
-4.22677
11
4.89055
21
-4.2279
0
LINE
8
BLACK
6
CONTINUOUS
10
4.89055
20
-4.2279
11
4.88943
21
-4.23015
0
LINE
8
BLACK
6
CONTINUOUS
10
4.88943
20
-4.23015
11
4.88943
21
-4.23577
0
LINE
8
BLACK
6
CONTINUOUS
10
4.88943
20
-4.23577
11
4.89055
21
-4.23802
0
LINE
8
BLACK
6
CONTINUOUS
10
4.89055
20
-4.23802
11
4.89168
21
-4.23915
0
LINE
8
BLACK
6
CONTINUOUS
10
4.89168
20
-4.23915
11
4.89393
21
-4.24027
0
LINE
8
BLACK
6
CONTINUOUS
10
4.89393
20
-4.24027
11
4.89843
21
-4.24027
0
LINE
8
BLACK
6
CONTINUOUS
10
4.89843
20
-4.24027
11
4.90067
21
-4.23915
0
LINE
8
BLACK
6
CONTINUOUS
10
4.90067
20
-4.23915
11
4.9018
21
-4.23802
0
LINE
8
BLACK
6
CONTINUOUS
10
4.9018
20
-4.23802
11
4.90292
21
-4.23577
0
LINE
8
BLACK
6
CONTINUOUS
10
4.91417
20
-4.24814
11
4.91417
21
-4.24927
0
LINE
8
BLACK
6
CONTINUOUS
10
4.91417
20
-4.24927
11
4.91305
21
-4.25152
0
LINE
8
BLACK
6
CONTINUOUS
10
4.91305
20
-4.25152
11
4.91192
21
-4.25264
0
LINE
8
BLACK
6
CONTINUOUS
10
4.93555
20
-4.22565
11
4.9243
21
-4.22565
0
LINE
8
BLACK
6
CONTINUOUS
10
4.9243
20
-4.22565
11
4.92317
21
-4.2369
0
LINE
8
BLACK
6
CONTINUOUS
10
4.92317
20
-4.2369
11
4.9243
21
-4.23577
0
LINE
8
BLACK
6
CONTINUOUS
10
4.9243
20
-4.23577
11
4.92655
21
-4.23465
0
LINE
8
BLACK
6
CONTINUOUS
10
4.92655
20
-4.23465
11
4.93217
21
-4.23465
0
LINE
8
BLACK
6
CONTINUOUS
10
4.93217
20
-4.23465
11
4.93442
21
-4.23577
0
LINE
8
BLACK
6
CONTINUOUS
10
4.93442
20
-4.23577
11
4.93555
21
-4.2369
0
LINE
8
BLACK
6
CONTINUOUS
10
4.93555
20
-4.2369
11
4.93667
21
-4.23915
0
LINE
8
BLACK
6
CONTINUOUS
10
4.93667
20
-4.23915
11
4.93667
21
-4.24477
0
LINE
8
BLACK
6
CONTINUOUS
10
4.93667
20
-4.24477
11
4.93555
21
-4.24702
0
LINE
8
BLACK
6
CONTINUOUS
10
4.93555
20
-4.24702
11
4.93442
21
-4.24814
0
LINE
8
BLACK
6
CONTINUOUS
10
4.93442
20
-4.24814
11
4.93217
21
-4.24927
0
LINE
8
BLACK
6
CONTINUOUS
10
4.93217
20
-4.24927
11
4.92655
21
-4.24927
0
LINE
8
BLACK
6
CONTINUOUS
10
4.92655
20
-4.24927
11
4.9243
21
-4.24814
0
LINE
8
BLACK
6
CONTINUOUS
10
4.9243
20
-4.24814
11
4.92317
21
-4.24702
0
LINE
8
BLACK
6
CONTINUOUS
10
4.95129
20
-4.22565
11
4.95354
21
-4.22565
0
LINE
8
BLACK
6
CONTINUOUS
10
4.95354
20
-4.22565
11
4.95579
21
-4.22677
0
LINE
8
BLACK
6
CONTINUOUS
10
4.95579
20
-4.22677
11
4.95692
21
-4.2279
0
LINE
8
BLACK
6
CONTINUOUS
10
4.95692
20
-4.2279
11
4.95804
21
-4.23015
0
LINE
8
BLACK
6
CONTINUOUS
10
4.95804
20
-4.23015
11
4.95917
21
-4.23465
0
LINE
8
BLACK
6
CONTINUOUS
10
4.95917
20
-4.23465
11
4.95917
21
-4.24027
0
LINE
8
BLACK
6
CONTINUOUS
10
4.95917
20
-4.24027
11
4.95804
21
-4.24477
0
LINE
8
BLACK
6
CONTINUOUS
10
4.95804
20
-4.24477
11
4.95692
21
-4.24702
0
LINE
8
BLACK
6
CONTINUOUS
10
4.95692
20
-4.24702
11
4.95579
21
-4.24814
0
LINE
8
BLACK
6
CONTINUOUS
10
4.95579
20
-4.24814
11
4.95354
21
-4.24927
0
LINE
8
BLACK
6
CONTINUOUS
10
4.95354
20
-4.24927
11
4.95129
21
-4.24927
0
LINE
8
BLACK
6
CONTINUOUS
10
4.95129
20
-4.24927
11
4.94904
21
-4.24814
0
LINE
8
BLACK
6
CONTINUOUS
10
4.94904
20
-4.24814
11
4.94792
21
-4.24702
0
LINE
8
BLACK
6
CONTINUOUS
10
4.94792
20
-4.24702
11
4.94679
21
-4.24477
0
LINE
8
BLACK
6
CONTINUOUS
10
4.94679
20
-4.24477
11
4.94567
21
-4.24027
0
LINE
8
BLACK
6
CONTINUOUS
10
4.94567
20
-4.24027
11
4.94567
21
-4.23465
0
LINE
8
BLACK
6
CONTINUOUS
10
4.94567
20
-4.23465
11
4.94679
21
-4.23015
0
LINE
8
BLACK
6
CONTINUOUS
10
4.94679
20
-4.23015
11
4.94792
21
-4.2279
0
LINE
8
BLACK
6
CONTINUOUS
10
4.94792
20
-4.2279
11
4.94904
21
-4.22677
0
LINE
8
BLACK
6
CONTINUOUS
10
4.94904
20
-4.22677
11
4.95129
21
-4.22565
0
LINE
8
BLACK
6
CONTINUOUS
10
4.97379
20
-4.22565
11
4.97604
21
-4.22565
0
LINE
8
BLACK
6
CONTINUOUS
10
4.97604
20
-4.22565
11
4.97829
21
-4.22677
0
LINE
8
BLACK
6
CONTINUOUS
10
4.97829
20
-4.22677
11
4.97942
21
-4.2279
0
LINE
8
BLACK
6
CONTINUOUS
10
4.97942
20
-4.2279
11
4.98054
21
-4.23015
0
LINE
8
BLACK
6
CONTINUOUS
10
4.98054
20
-4.23015
11
4.98166
21
-4.23465
0
LINE
8
BLACK
6
CONTINUOUS
10
4.98166
20
-4.23465
11
4.98166
21
-4.24027
0
LINE
8
BLACK
6
CONTINUOUS
10
4.98166
20
-4.24027
11
4.98054
21
-4.24477
0
LINE
8
BLACK
6
CONTINUOUS
10
4.98054
20
-4.24477
11
4.97942
21
-4.24702
0
LINE
8
BLACK
6
CONTINUOUS
10
4.97942
20
-4.24702
11
4.97829
21
-4.24814
0
LINE
8
BLACK
6
CONTINUOUS
10
4.97829
20
-4.24814
11
4.97604
21
-4.24927
0
LINE
8
BLACK
6
CONTINUOUS
10
4.97604
20
-4.24927
11
4.97379
21
-4.24927
0
LINE
8
BLACK
6
CONTINUOUS
10
4.97379
20
-4.24927
11
4.97154
21
-4.24814
0
LINE
8
BLACK
6
CONTINUOUS
10
4.97154
20
-4.24814
11
4.97042
21
-4.24702
0
LINE
8
BLACK
6
CONTINUOUS
10
4.97042
20
-4.24702
11
4.96929
21
-4.24477
0
LINE
8
BLACK
6
CONTINUOUS
10
4.96929
20
-4.24477
11
4.96817
21
-4.24027
0
LINE
8
BLACK
6
CONTINUOUS
10
4.96817
20
-4.24027
11
4.96817
21
-4.23465
0
LINE
8
BLACK
6
CONTINUOUS
10
4.96817
20
-4.23465
11
4.96929
21
-4.23015
0
LINE
8
BLACK
6
CONTINUOUS
10
4.96929
20
-4.23015
11
4.97042
21
-4.2279
0
LINE
8
BLACK
6
CONTINUOUS
10
4.97042
20
-4.2279
11
4.97154
21
-4.22677
0
LINE
8
BLACK
6
CONTINUOUS
10
4.97154
20
-4.22677
11
4.97379
21
-4.22565
0
LINE
8
BLACK
6
CONTINUOUS
10
4.99629
20
-4.22565
11
4.99854
21
-4.22565
0
LINE
8
BLACK
6
CONTINUOUS
10
4.99854
20
-4.22565
11
5.00079
21
-4.22677
0
LINE
8
BLACK
6
CONTINUOUS
10
5.00079
20
-4.22677
11
5.00191
21
-4.2279
0
LINE
8
BLACK
6
CONTINUOUS
10
5.00191
20
-4.2279
11
5.00304
21
-4.23015
0
LINE
8
BLACK
6
CONTINUOUS
10
5.00304
20
-4.23015
11
5.00416
21
-4.23465
0
LINE
8
BLACK
6
CONTINUOUS
10
5.00416
20
-4.23465
11
5.00416
21
-4.24027
0
LINE
8
BLACK
6
CONTINUOUS
10
5.00416
20
-4.24027
11
5.00304
21
-4.24477
0
LINE
8
BLACK
6
CONTINUOUS
10
5.00304
20
-4.24477
11
5.00191
21
-4.24702
0
LINE
8
BLACK
6
CONTINUOUS
10
5.00191
20
-4.24702
11
5.00079
21
-4.24814
0
LINE
8
BLACK
6
CONTINUOUS
10
5.00079
20
-4.24814
11
4.99854
21
-4.24927
0
LINE
8
BLACK
6
CONTINUOUS
10
4.99854
20
-4.24927
11
4.99629
21
-4.24927
0
LINE
8
BLACK
6
CONTINUOUS
10
4.99629
20
-4.24927
11
4.99404
21
-4.24814
0
LINE
8
BLACK
6
CONTINUOUS
10
4.99404
20
-4.24814
11
4.99291
21
-4.24702
0
LINE
8
BLACK
6
CONTINUOUS
10
4.99291
20
-4.24702
11
4.99179
21
-4.24477
0
LINE
8
BLACK
6
CONTINUOUS
10
4.99179
20
-4.24477
11
4.99066
21
-4.24027
0
LINE
8
BLACK
6
CONTINUOUS
10
4.99066
20
-4.24027
11
4.99066
21
-4.23465
0
LINE
8
BLACK
6
CONTINUOUS
10
4.99066
20
-4.23465
11
4.99179
21
-4.23015
0
LINE
8
BLACK
6
CONTINUOUS
10
4.99179
20
-4.23015
11
4.99291
21
-4.2279
0
LINE
8
BLACK
6
CONTINUOUS
10
4.99291
20
-4.2279
11
4.99404
21
-4.22677
0
LINE
8
BLACK
6
CONTINUOUS
10
4.99404
20
-4.22677
11
4.99629
21
-4.22565
0
LINE
8
BLACK
6
CONTINUOUS
10
5.03228
20
-4.24927
11
5.03228
21
-4.23352
0
LINE
8
BLACK
6
CONTINUOUS
10
5.03228
20
-4.23352
11
5.03903
21
-4.24589
0
LINE
8
BLACK
6
CONTINUOUS
10
5.03903
20
-4.24589
11
5.04578
21
-4.23352
0
LINE
8
BLACK
6
CONTINUOUS
10
5.04578
20
-4.23352
11
5.04578
21
-4.24927
0
LINE
8
BLACK
6
CONTINUOUS
10
5.05703
20
-4.24927
11
5.05703
21
-4.23352
0
LINE
8
BLACK
6
CONTINUOUS
10
5.05703
20
-4.23352
11
5.06378
21
-4.24589
0
LINE
8
BLACK
6
CONTINUOUS
10
5.06378
20
-4.24589
11
5.07053
21
-4.23352
0
LINE
8
BLACK
6
CONTINUOUS
10
5.07053
20
-4.23352
11
5.07053
21
-4.24927
0
LINE
8
BLACK
6
CONTINUOUS
10
3.01063
20
-3.64331
11
3.01063
21
-4.28844
0
LINE
8
BLACK
6
CONTINUOUS
10
6.92795
20
-4.28844
11
6.92795
21
-3.65472
0
LINE
8
BLACK
6
CONTINUOUS
10
3.01063
20
-4.26535
11
6.92795
21
-4.26535
0
LINE
8
BLACK
6
CONTINUOUS
10
3.01063
20
-4.26535
11
6.92795
21
-4.26535
0
LINE
8
BLACK
6
CONTINUOUS
10
3.01063
20
-4.26535
11
3.05498
21
-4.28844
0
LINE
8
BLACK
6
CONTINUOUS
10
3.01063
20
-4.26535
11
3.05498
21
-4.24227
0
LINE
8
BLACK
6
CONTINUOUS
10
6.92795
20
-4.26535
11
6.8836
21
-4.24227
0
LINE
8
BLACK
6
CONTINUOUS
10
6.92795
20
-4.26535
11
6.8836
21
-4.28844
  0
ENDSEC
  0
EOF
