<?xml version="1.0" encoding="UTF-8"?>
<!-- 2022-11-16 12:46:09 Generated by QCAD 3.27.8 SVG Exporter -->
<svg width="110mm" height="60mm" viewBox="0 -100 110 60" version="1.1" xmlns="http://www.w3.org/2000/svg" style="stroke-linecap:round;stroke-linejoin:round;fill:none">
    <g transform="scale(1,-1)">
        <!-- Линия -->
        <path d="M5,100 L105,100 " style="stroke:#000000;stroke-width:0.25;"/>
        <!-- Линия -->
        <path d="M110,95 L110,45 " style="stroke:#000000;stroke-width:0.25;"/>
        <!-- Линия -->
        <path d="M105,40 L5,40 " style="stroke:#000000;stroke-width:0.25;"/>
        <!-- Линия -->
        <path d="M0,45 L0,95 " style="stroke:#000000;stroke-width:0.25;"/>
        <!-- Дуга -->
        <path d="M5,100 A5,5 0 0,1 0,95" style="stroke:#000000;stroke-width:0.25;"/>
        <!-- Дуга -->
        <path d="M0,45 A5,5 0 0,1 5,40" style="stroke:#000000;stroke-width:0.25;"/>
        <!-- Дуга -->
        <path d="M105,100 A5,5 0 0,0 110,95" style="stroke:#000000;stroke-width:0.25;"/>
        <!-- Дуга -->
        <path d="M105,40 A5,5 0 0,1 110,45" style="stroke:#000000;stroke-width:0.25;"/>
        <!-- Текст: QCAD.org
Trial Version
Random lines added -->
        <g>
            <path d="M54.136,70.4253 C54.1587,70.4097 54.1796,70.3982 54.1988,70.391 L54.1844,70.357 C54.1579,70.3665 54.1314,70.3817 54.105,70.4024 C54.0776,70.3871 54.0473,70.3794 54.0142,70.3794 C53.9807,70.3794 53.9504,70.3875 53.9232,70.4036 C53.8959,70.4198 53.8749,70.4425 53.8602,70.4717 C53.8455,70.501 53.8382,70.5339 53.8382,70.5706 C53.8382,70.6071 53.8456,70.6403 53.8604,70.6702 C53.8752,70.7001 53.8962,70.7229 53.9235,70.7385 C53.9509,70.7542 53.9814,70.762 54.0152,70.762 C54.0493,70.762 54.0801,70.7539 54.1075,70.7376 C54.1349,70.7214 54.1558,70.6987 54.1702,70.6696 C54.1846,70.6404 54.1917,70.6075 54.1917,70.5708 C54.1917,70.5404 54.1871,70.513 54.1779,70.4887 C54.1686,70.4644 54.1547,70.4433 54.136,70.4253 M54.0283,70.4878 C54.0566,70.4799 54.0799,70.4682 54.0982,70.4525 C54.1269,70.4788 54.1413,70.5182 54.1413,70.5708 C54.1413,70.6007 54.1362,70.6269 54.126,70.6493 C54.1159,70.6716 54.101,70.689 54.0814,70.7013 C54.0618,70.7137 54.0398,70.7199 54.0155,70.7199 C53.979,70.7199 53.9487,70.7074 53.9247,70.6824 C53.9006,70.6574 53.8886,70.6202 53.8886,70.5706 C53.8886,70.5225 53.9005,70.4856 53.9243,70.4599 C53.9481,70.4341 53.9785,70.4213 54.0155,70.4213 C54.0329,70.4213 54.0494,70.4245 54.0649,70.4311 C54.0496,70.441 54.0335,70.4481 54.0165,70.4523 Z M54.5196,70.5153 L54.5685,70.503 C54.5583,70.4628 54.5398,70.4322 54.5132,70.4111 C54.4865,70.39 54.454,70.3794 54.4155,70.3794 C54.3756,70.3794 54.3432,70.3875 54.3182,70.4037 C54.2933,70.42 54.2743,70.4435 54.2612,70.4742 C54.2482,70.505 54.2417,70.538 54.2417,70.5733 C54.2417,70.6118 54.249,70.6454 54.2638,70.6741 C54.2785,70.7028 54.2994,70.7245 54.3266,70.7394 C54.3537,70.7543 54.3836,70.7617 54.4162,70.7617 C54.4532,70.7617 54.4843,70.7523 54.5095,70.7335 C54.5347,70.7147 54.5523,70.6882 54.5622,70.654 L54.5141,70.6427 C54.5055,70.6696 54.493,70.6892 54.4767,70.7015 C54.4604,70.7137 54.4399,70.7199 54.4152,70.7199 C54.3868,70.7199 54.363,70.7131 54.344,70.6994 C54.3249,70.6858 54.3115,70.6675 54.3037,70.6446 C54.296,70.6216 54.2921,70.598 54.2921,70.5736 C54.2921,70.5422 54.2967,70.5147 54.3059,70.4913 C54.315,70.4678 54.3293,70.4503 54.3486,70.4387 C54.368,70.4271 54.3889,70.4213 54.4114,70.4213 C54.4388,70.4213 54.462,70.4292 54.481,70.445 C54.5,70.4608 54.5129,70.4842 54.5196,70.5153 M54.588,70.3857 L54.73,70.7554 L54.7827,70.7554 L54.934,70.3857 L54.8783,70.3857 L54.8352,70.4977 L54.6806,70.4977 L54.64,70.3857 Z M54.6947,70.5375 L54.82,70.5375 L54.7815,70.6399 C54.7697,70.671 54.7609,70.6966 54.7552,70.7166 C54.7505,70.6929 54.7439,70.6693 54.7353,70.646 Z M54.9742,70.3857 L54.9742,70.7554 L55.1016,70.7554 C55.1304,70.7554 55.1523,70.7537 55.1674,70.7501 C55.1886,70.7453 55.2067,70.7364 55.2216,70.7236 C55.2411,70.7072 55.2557,70.6861 55.2654,70.6605 C55.2751,70.6348 55.2799,70.6055 55.2799,70.5726 C55.2799,70.5445 55.2766,70.5196 55.2701,70.4979 C55.2635,70.4762 55.2551,70.4583 55.2448,70.4441 C55.2346,70.4299 55.2234,70.4187 55.2112,70.4106 C55.199,70.4024 55.1843,70.3962 55.167,70.392 C55.1498,70.3878 55.13,70.3857 55.1077,70.3857 Z M55.0232,70.4293 L55.1021,70.4293 C55.1265,70.4293 55.1456,70.4316 55.1595,70.4361 C55.1734,70.4407 55.1844,70.4471 55.1926,70.4553 C55.2042,70.4669 55.2133,70.4825 55.2198,70.5021 C55.2262,70.5217 55.2295,70.5454 55.2295,70.5733 C55.2295,70.612 55.2231,70.6417 55.2104,70.6625 C55.1977,70.6833 55.1823,70.6972 55.1641,70.7042 C55.151,70.7093 55.1299,70.7118 55.1008,70.7118 L55.0232,70.7118 Z M55.3541,70.3857 L55.3541,70.4374 L55.4058,70.4374 L55.4058,70.3857 Z M55.468,70.5196 C55.468,70.5692 55.4818,70.606 55.5094,70.6298 C55.5324,70.6497 55.5605,70.6596 55.5936,70.6596 C55.6305,70.6596 55.6605,70.6475 55.6839,70.6234 C55.7073,70.5993 55.719,70.5659 55.719,70.5234 C55.719,70.4889 55.7138,70.4618 55.7035,70.4421 C55.6931,70.4223 55.6781,70.407 55.6583,70.3961 C55.6386,70.3851 55.617,70.3797 55.5936,70.3797 C55.5561,70.3797 55.5258,70.3917 55.5027,70.4157 C55.4796,70.4398 55.468,70.4744 55.468,70.5196 M55.5147,70.5196 C55.5147,70.4853 55.5222,70.4596 55.5371,70.4426 C55.5521,70.4255 55.5709,70.417 55.5936,70.417 C55.6162,70.417 55.6349,70.4256 55.6499,70.4427 C55.6648,70.4599 55.6723,70.486 55.6723,70.5211 C55.6723,70.5543 55.6648,70.5794 55.6497,70.5964 C55.6347,70.6135 55.616,70.622 55.5936,70.622 C55.5709,70.622 55.5521,70.6135 55.5371,70.5965 C55.5222,70.5796 55.5147,70.5539 55.5147,70.5196 M55.7718,70.3857 L55.7718,70.6535 L55.8127,70.6535 L55.8127,70.6129 C55.8231,70.6319 55.8327,70.6445 55.8415,70.6505 C55.8504,70.6566 55.8601,70.6596 55.8707,70.6596 C55.886,70.6596 55.9015,70.6547 55.9173,70.645 L55.9017,70.6028 C55.8906,70.6094 55.8795,70.6127 55.8684,70.6127 C55.8585,70.6127 55.8496,70.6097 55.8417,70.6037 C55.8338,70.5978 55.8281,70.5895 55.8248,70.5789 C55.8197,70.5628 55.8172,70.5451 55.8172,70.5259 L55.8172,70.3857 Z M55.9349,70.3635 L55.979,70.357 C55.9808,70.3433 55.986,70.3334 55.9944,70.3272 C56.0056,70.3188 56.021,70.3146 56.0405,70.3146 C56.0615,70.3146 56.0778,70.3188 56.0892,70.3272 C56.1006,70.3356 56.1084,70.3474 56.1124,70.3625 C56.1148,70.3718 56.1158,70.3912 56.1157,70.4208 C56.0958,70.3974 56.0711,70.3857 56.0415,70.3857 C56.0047,70.3857 55.9762,70.399 55.956,70.4256 C55.9359,70.4521 55.9258,70.484 55.9258,70.5211 C55.9258,70.5467 55.9304,70.5703 55.9396,70.5919 C55.9489,70.6135 55.9623,70.6302 55.9799,70.6419 C55.9974,70.6537 56.0181,70.6596 56.0418,70.6596 C56.0734,70.6596 56.0995,70.6468 56.12,70.6213 L56.12,70.6535 L56.1618,70.6535 L56.1618,70.422 C56.1618,70.3803 56.1576,70.3508 56.1491,70.3334 C56.1406,70.316 56.1272,70.3022 56.1087,70.2921 C56.0903,70.2821 56.0677,70.277 56.0408,70.277 C56.0088,70.277 55.983,70.2842 55.9634,70.2986 C55.9437,70.313 55.9342,70.3346 55.9349,70.3635 M55.9724,70.5244 C55.9724,70.4893 55.9794,70.4636 55.9934,70.4475 C56.0073,70.4314 56.0248,70.4233 56.0458,70.4233 C56.0667,70.4233 56.0842,70.4313 56.0983,70.4474 C56.1124,70.4634 56.1195,70.4886 56.1195,70.5229 C56.1195,70.5557 56.1122,70.5804 56.0976,70.597 C56.0831,70.6137 56.0656,70.622 56.0451,70.622 C56.0249,70.622 56.0077,70.6138 55.9936,70.5974 C55.9795,70.581 55.9724,70.5567 55.9724,70.5244" style="fill:#dd0000;fill-rule:evenodd;"/>
            <path d="M53.7166,69.8149 L53.7166,70.141 L53.5948,70.141 L53.5948,70.1846 L53.8879,70.1846 L53.8879,70.141 L53.7655,70.141 L53.7655,69.8149 Z M53.9114,69.8149 L53.9114,70.0827 L53.9522,70.0827 L53.9522,70.0421 C53.9627,70.0611 53.9723,70.0736 53.9811,70.0797 C53.9899,70.0857 53.9996,70.0888 54.0102,70.0888 C54.0255,70.0888 54.0411,70.0839 54.0569,70.0741 L54.0413,70.032 C54.0302,70.0386 54.0191,70.0419 54.008,70.0419 C53.998,70.0419 53.9891,70.0389 53.9812,70.0329 C53.9733,70.0269 53.9677,70.0187 53.9643,70.0081 C53.9593,69.9919 53.9568,69.9743 53.9568,69.9551 L53.9568,69.8149 Z M54.083,70.1324 L54.083,70.1846 L54.1284,70.1846 L54.1284,70.1324 Z M54.083,69.8149 L54.083,70.0827 L54.1284,70.0827 L54.1284,69.8149 Z M54.374,69.8479 C54.3572,69.8336 54.341,69.8235 54.3255,69.8177 C54.3099,69.8118 54.2932,69.8088 54.2754,69.8088 C54.246,69.8088 54.2234,69.816 54.2076,69.8304 C54.1918,69.8448 54.1839,69.8631 54.1839,69.8855 C54.1839,69.8986 54.1869,69.9106 54.1928,69.9214 C54.1988,69.9323 54.2066,69.941 54.2163,69.9475 C54.2259,69.9541 54.2368,69.9591 54.2489,69.9624 C54.2578,69.9648 54.2713,69.967 54.2893,69.9692 C54.3259,69.9736 54.3529,69.9788 54.3702,69.9849 C54.3704,69.9911 54.3705,69.995 54.3705,69.9967 C54.3705,70.0152 54.3662,70.0282 54.3576,70.0358 C54.346,70.0461 54.3288,70.0512 54.3059,70.0512 C54.2846,70.0512 54.2688,70.0475 54.2586,70.04 C54.2485,70.0325 54.2409,70.0193 54.2361,70.0003 L54.1917,70.0063 C54.1957,70.0253 54.2024,70.0406 54.2116,70.0523 C54.2209,70.064 54.2342,70.073 54.2517,70.0793 C54.2692,70.0856 54.2895,70.0888 54.3125,70.0888 C54.3354,70.0888 54.3539,70.0861 54.3682,70.0807 C54.3825,70.0753 54.393,70.0686 54.3997,70.0604 C54.4065,70.0522 54.4112,70.0419 54.4139,70.0295 C54.4154,70.0218 54.4161,70.0078 54.4161,69.9876 L54.4161,69.9271 C54.4161,69.8849 54.4171,69.8582 54.419,69.847 C54.421,69.8359 54.4248,69.8251 54.4305,69.8149 L54.3831,69.8149 C54.3784,69.8243 54.3754,69.8353 54.374,69.8479 M54.3702,69.9493 C54.3538,69.9426 54.329,69.9369 54.2961,69.9322 C54.2774,69.9295 54.2642,69.9264 54.2565,69.9231 C54.2488,69.9197 54.2428,69.9148 54.2386,69.9083 C54.2344,69.9019 54.2323,69.8947 54.2323,69.8868 C54.2323,69.8747 54.2369,69.8646 54.246,69.8565 C54.2552,69.8484 54.2686,69.8444 54.2863,69.8444 C54.3037,69.8444 54.3193,69.8482 54.3329,69.8559 C54.3465,69.8635 54.3565,69.874 54.3629,69.8873 C54.3678,69.8975 54.3702,69.9127 54.3702,69.9327 Z M54.4856,69.8149 L54.4856,70.1846 L54.531,70.1846 L54.531,69.8149 Z M54.8583,69.8149 L54.715,70.1846 L54.768,70.1846 L54.8641,69.916 C54.8718,69.8945 54.8783,69.8743 54.8835,69.8555 C54.8892,69.8757 54.8959,69.8958 54.9034,69.916 L55.0033,70.1846 L55.0532,70.1846 L54.9085,69.8149 Z M55.2486,69.9011 L55.2955,69.8953 C55.2881,69.8679 55.2744,69.8467 55.2544,69.8315 C55.2344,69.8164 55.2088,69.8088 55.1777,69.8088 C55.1386,69.8088 55.1075,69.8209 55.0845,69.845 C55.0616,69.8692 55.0501,69.903 55.0501,69.9465 C55.0501,69.9916 55.0617,70.0266 55.0849,70.0514 C55.1081,70.0763 55.1382,70.0888 55.1752,70.0888 C55.211,70.0888 55.2403,70.0766 55.263,70.0522 C55.2857,70.0278 55.297,69.9935 55.297,69.9493 C55.297,69.9466 55.2969,69.9426 55.2968,69.9372 L55.097,69.9372 C55.0987,69.9078 55.107,69.8853 55.122,69.8696 C55.137,69.854 55.1556,69.8462 55.178,69.8462 C55.1946,69.8462 55.2088,69.8505 55.2206,69.8593 C55.2324,69.868 55.2417,69.882 55.2486,69.9011 M55.0996,69.9745 L55.2491,69.9745 C55.2471,69.9971 55.2414,70.014 55.232,70.0252 C55.2175,70.0427 55.1987,70.0514 55.1757,70.0514 C55.1549,70.0514 55.1373,70.0445 55.1231,70.0305 C55.1089,70.0166 55.1011,69.9979 55.0996,69.9745 M55.3521,69.8149 L55.3521,70.0827 L55.393,70.0827 L55.393,70.0421 C55.4034,70.0611 55.413,70.0736 55.4219,70.0797 C55.4307,70.0857 55.4404,70.0888 55.451,70.0888 C55.4663,70.0888 55.4818,70.0839 55.4976,70.0741 L55.482,70.032 C55.4709,70.0386 55.4598,70.0419 55.4487,70.0419 C55.4388,70.0419 55.4299,70.0389 55.422,70.0329 C55.4141,70.0269 55.4084,70.0187 55.4051,70.0081 C55.4,69.9919 55.3975,69.9743 55.3975,69.9551 L55.3975,69.8149 Z M55.5053,69.8948 L55.5502,69.9019 C55.5527,69.8839 55.5598,69.8701 55.5713,69.8605 C55.5828,69.851 55.5989,69.8462 55.6196,69.8462 C55.6404,69.8462 55.6559,69.8504 55.666,69.8589 C55.6761,69.8674 55.6811,69.8773 55.6811,69.8888 C55.6811,69.899 55.6767,69.9071 55.6677,69.913 C55.6615,69.917 55.6461,69.9222 55.6213,69.9284 C55.5881,69.9368 55.565,69.9441 55.5521,69.9502 C55.5393,69.9563 55.5295,69.9648 55.5229,69.9757 C55.5162,69.9865 55.5129,69.9985 55.5129,70.0116 C55.5129,70.0235 55.5156,70.0346 55.5211,70.0448 C55.5266,70.0549 55.534,70.0634 55.5434,70.0701 C55.5505,70.0753 55.5601,70.0797 55.5723,70.0834 C55.5845,70.087 55.5976,70.0888 55.6115,70.0888 C55.6325,70.0888 55.651,70.0857 55.6669,70.0797 C55.6828,70.0736 55.6945,70.0654 55.702,70.0551 C55.7096,70.0448 55.7148,70.0309 55.7177,70.0136 L55.6733,70.0076 C55.6713,70.0214 55.6654,70.0321 55.6558,70.0398 C55.6461,70.0476 55.6324,70.0514 55.6148,70.0514 C55.5939,70.0514 55.5791,70.048 55.5701,70.0411 C55.5612,70.0342 55.5568,70.0261 55.5568,70.0169 C55.5568,70.011 55.5586,70.0057 55.5623,70.001 C55.566,69.9961 55.5718,69.9921 55.5797,69.9889 C55.5843,69.9872 55.5976,69.9834 55.6198,69.9773 C55.6519,69.9687 55.6743,69.9617 55.687,69.9562 C55.6997,69.9508 55.7097,69.9428 55.7169,69.9324 C55.7242,69.922 55.7278,69.909 55.7278,69.8936 C55.7278,69.8784 55.7234,69.8642 55.7145,69.8508 C55.7057,69.8375 55.693,69.8271 55.6763,69.8198 C55.6597,69.8125 55.6408,69.8088 55.6198,69.8088 C55.585,69.8088 55.5585,69.8161 55.5403,69.8305 C55.522,69.845 55.5104,69.8664 55.5053,69.8948 M55.7839,70.1324 L55.7839,70.1846 L55.8293,70.1846 L55.8293,70.1324 Z M55.7839,69.8149 L55.7839,70.0827 L55.8293,70.0827 L55.8293,69.8149 Z M55.8833,69.9488 C55.8833,69.9984 55.8971,70.0351 55.9246,70.059 C55.9477,70.0789 55.9758,70.0888 56.0089,70.0888 C56.0457,70.0888 56.0758,70.0767 56.0992,70.0526 C56.1225,70.0285 56.1342,69.9951 56.1342,69.9526 C56.1342,69.9181 56.129,69.891 56.1187,69.8713 C56.1084,69.8515 56.0933,69.8362 56.0736,69.8252 C56.0538,69.8143 56.0322,69.8088 56.0089,69.8088 C55.9714,69.8088 55.9411,69.8209 55.918,69.8449 C55.8948,69.8689 55.8833,69.9036 55.8833,69.9488 M55.9299,69.9488 C55.9299,69.9145 55.9374,69.8888 55.9524,69.8718 C55.9674,69.8547 55.9862,69.8462 56.0089,69.8462 C56.0314,69.8462 56.0502,69.8547 56.0651,69.8719 C56.0801,69.889 56.0876,69.9152 56.0876,69.9503 C56.0876,69.9834 56.08,70.0085 56.065,70.0256 C56.0499,70.0427 56.0312,70.0512 56.0089,70.0512 C55.9862,70.0512 55.9674,70.0427 55.9524,70.0257 C55.9374,70.0087 55.9299,69.9831 55.9299,69.9488 M56.1876,69.8149 L56.1876,70.0827 L56.2284,70.0827 L56.2284,70.0446 C56.2481,70.0741 56.2765,70.0888 56.3137,70.0888 C56.3298,70.0888 56.3446,70.0859 56.3582,70.0801 C56.3717,70.0743 56.3818,70.0667 56.3886,70.0572 C56.3953,70.0478 56.4,70.0367 56.4027,70.0237 C56.4044,70.0153 56.4052,70.0006 56.4052,69.9796 L56.4052,69.8149 L56.3598,69.8149 L56.3598,69.9778 C56.3598,69.9963 56.358,70.0101 56.3545,70.0193 C56.351,70.0285 56.3447,70.0358 56.3357,70.0412 C56.3267,70.0467 56.3162,70.0494 56.3041,70.0494 C56.2847,70.0494 56.268,70.0433 56.254,70.031 C56.24,70.0187 56.233,69.9955 56.233,69.9612 L56.233,69.8149 Z" style="fill:#dd0000;fill-rule:evenodd;"/>
            <path d="M52.6663,69.2441 L52.6663,69.6138 L52.8302,69.6138 C52.8631,69.6138 52.8882,69.6105 52.9053,69.6038 C52.9225,69.5972 52.9362,69.5855 52.9465,69.5686 C52.9567,69.5518 52.9618,69.5333 52.9618,69.5129 C52.9618,69.4867 52.9533,69.4646 52.9364,69.4466 C52.9194,69.4286 52.8932,69.4172 52.8577,69.4123 C52.8706,69.4061 52.8805,69.3999 52.8872,69.3939 C52.9015,69.3808 52.915,69.3644 52.9278,69.3447 L52.9921,69.2441 L52.9306,69.2441 L52.8816,69.321 C52.8673,69.3432 52.8556,69.3602 52.8463,69.3719 C52.8371,69.3837 52.8288,69.3919 52.8215,69.3966 C52.8142,69.4014 52.8067,69.4046 52.7992,69.4065 C52.7936,69.4077 52.7845,69.4082 52.7719,69.4082 L52.7152,69.4082 L52.7152,69.2441 Z M52.7152,69.4506 L52.8204,69.4506 C52.8427,69.4506 52.8602,69.4529 52.8728,69.4576 C52.8854,69.4622 52.895,69.4696 52.9016,69.4797 C52.9081,69.4899 52.9114,69.501 52.9114,69.5129 C52.9114,69.5304 52.9051,69.5448 52.8924,69.556 C52.8797,69.5673 52.8596,69.5729 52.8322,69.5729 L52.7152,69.5729 Z M53.2073,69.2771 C53.1905,69.2628 53.1743,69.2527 53.1587,69.2468 C53.1432,69.241 53.1265,69.238 53.1087,69.238 C53.0793,69.238 53.0566,69.2452 53.0408,69.2596 C53.025,69.274 53.0171,69.2923 53.0171,69.3147 C53.0171,69.3278 53.0201,69.3398 53.0261,69.3506 C53.0321,69.3615 53.0399,69.3702 53.0495,69.3767 C53.0592,69.3833 53.0701,69.3882 53.0822,69.3916 C53.0911,69.394 53.1046,69.3962 53.1225,69.3984 C53.1592,69.4028 53.1862,69.408 53.2035,69.414 C53.2037,69.4203 53.2038,69.4242 53.2038,69.4259 C53.2038,69.4444 53.1995,69.4574 53.1909,69.465 C53.1793,69.4752 53.1621,69.4804 53.1392,69.4804 C53.1178,69.4804 53.1021,69.4766 53.0919,69.4692 C53.0817,69.4617 53.0742,69.4484 53.0693,69.4294 L53.025,69.4355 C53.029,69.4545 53.0356,69.4698 53.0449,69.4815 C53.0541,69.4932 53.0675,69.5022 53.085,69.5085 C53.1025,69.5148 53.1227,69.518 53.1458,69.518 C53.1686,69.518 53.1872,69.5153 53.2015,69.5099 C53.2158,69.5045 53.2263,69.4977 53.233,69.4896 C53.2397,69.4814 53.2444,69.4711 53.2471,69.4587 C53.2486,69.451 53.2494,69.437 53.2494,69.4168 L53.2494,69.3563 C53.2494,69.3141 53.2504,69.2874 53.2523,69.2762 C53.2542,69.265 53.2581,69.2543 53.2638,69.2441 L53.2164,69.2441 C53.2117,69.2535 53.2086,69.2645 53.2073,69.2771 M53.2035,69.3785 C53.187,69.3718 53.1623,69.366 53.1294,69.3613 C53.1107,69.3586 53.0975,69.3556 53.0898,69.3523 C53.082,69.3489 53.0761,69.344 53.0719,69.3375 C53.0677,69.331 53.0656,69.3238 53.0656,69.3159 C53.0656,69.3038 53.0701,69.2938 53.0793,69.2857 C53.0885,69.2776 53.1019,69.2736 53.1195,69.2736 C53.137,69.2736 53.1526,69.2774 53.1662,69.2851 C53.1798,69.2927 53.1898,69.3032 53.1962,69.3164 C53.2011,69.3267 53.2035,69.3418 53.2035,69.3618 Z M53.3199,69.2441 L53.3199,69.5119 L53.3607,69.5119 L53.3607,69.4738 C53.3804,69.5032 53.4088,69.518 53.446,69.518 C53.4621,69.518 53.477,69.5151 53.4905,69.5093 C53.504,69.5035 53.5142,69.4958 53.5209,69.4864 C53.5276,69.477 53.5323,69.4658 53.535,69.4529 C53.5367,69.4445 53.5375,69.4298 53.5375,69.4088 L53.5375,69.2441 L53.4921,69.2441 L53.4921,69.407 C53.4921,69.4255 53.4904,69.4393 53.4868,69.4485 C53.4833,69.4576 53.477,69.4649 53.4681,69.4704 C53.4591,69.4759 53.4485,69.4786 53.4364,69.4786 C53.4171,69.4786 53.4004,69.4725 53.3863,69.4602 C53.3723,69.4479 53.3653,69.4246 53.3653,69.3903 L53.3653,69.2441 Z M53.781,69.2441 L53.781,69.2779 C53.764,69.2513 53.7391,69.238 53.7061,69.238 C53.6848,69.238 53.6651,69.2439 53.6472,69.2557 C53.6293,69.2674 53.6155,69.2839 53.6056,69.305 C53.5958,69.3261 53.5909,69.3503 53.5909,69.3777 C53.5909,69.4045 53.5953,69.4287 53.6042,69.4505 C53.6131,69.4723 53.6265,69.4889 53.6443,69.5006 C53.6622,69.5122 53.6821,69.518 53.7041,69.518 C53.7202,69.518 53.7346,69.5145 53.7472,69.5077 C53.7598,69.5009 53.7701,69.4921 53.778,69.4811 L53.778,69.6138 L53.8231,69.6138 L53.8231,69.2441 Z M53.6375,69.3777 C53.6375,69.3434 53.6448,69.3178 53.6592,69.3008 C53.6737,69.2838 53.6907,69.2753 53.7104,69.2753 C53.7302,69.2753 53.7471,69.2835 53.761,69.2997 C53.7748,69.3159 53.7818,69.3407 53.7818,69.3739 C53.7818,69.4106 53.7747,69.4375 53.7606,69.4547 C53.7465,69.4718 53.7291,69.4804 53.7084,69.4804 C53.6882,69.4804 53.6714,69.4721 53.6578,69.4557 C53.6443,69.4392 53.6375,69.4132 53.6375,69.3777 M53.8777,69.378 C53.8777,69.4276 53.8915,69.4643 53.9191,69.4882 C53.9421,69.508 53.9702,69.518 54.0033,69.518 C54.0401,69.518 54.0702,69.5059 54.0936,69.4818 C54.117,69.4576 54.1287,69.4243 54.1287,69.3818 C54.1287,69.3473 54.1235,69.3202 54.1132,69.3004 C54.1028,69.2807 54.0878,69.2653 54.068,69.2544 C54.0483,69.2435 54.0267,69.238 54.0033,69.238 C53.9658,69.238 53.9355,69.25 53.9124,69.2741 C53.8893,69.2981 53.8777,69.3328 53.8777,69.378 M53.9244,69.378 C53.9244,69.3437 53.9319,69.318 53.9468,69.3009 C53.9618,69.2839 53.9806,69.2753 54.0033,69.2753 C54.0259,69.2753 54.0446,69.2839 54.0596,69.3011 C54.0745,69.3182 54.082,69.3444 54.082,69.3795 C54.082,69.4126 54.0745,69.4377 54.0594,69.4548 C54.0444,69.4718 54.0257,69.4804 54.0033,69.4804 C53.9806,69.4804 53.9618,69.4719 53.9468,69.4549 C53.9319,69.4379 53.9244,69.4123 53.9244,69.378 M54.182,69.2441 L54.182,69.5119 L54.2226,69.5119 L54.2226,69.4743 C54.231,69.4874 54.2422,69.498 54.2561,69.506 C54.2701,69.514 54.286,69.518 54.3038,69.518 C54.3237,69.518 54.3399,69.5138 54.3526,69.5056 C54.3653,69.4974 54.3743,69.4858 54.3795,69.471 C54.4007,69.5023 54.4282,69.518 54.4622,69.518 C54.4888,69.518 54.5092,69.5106 54.5235,69.4959 C54.5378,69.4812 54.5449,69.4585 54.5449,69.4279 L54.5449,69.2441 L54.4998,69.2441 L54.4998,69.4128 C54.4998,69.4309 54.4983,69.444 54.4954,69.452 C54.4924,69.46 54.4871,69.4664 54.4793,69.4713 C54.4716,69.4762 54.4625,69.4786 54.4521,69.4786 C54.4333,69.4786 54.4176,69.4723 54.4052,69.4598 C54.3928,69.4473 54.3865,69.4272 54.3865,69.3997 L54.3865,69.2441 L54.3411,69.2441 L54.3411,69.4181 C54.3411,69.4383 54.3374,69.4534 54.33,69.4635 C54.3226,69.4736 54.3105,69.4786 54.2937,69.4786 C54.2809,69.4786 54.2691,69.4752 54.2583,69.4685 C54.2474,69.4618 54.2396,69.452 54.2347,69.439 C54.2298,69.4261 54.2274,69.4074 54.2274,69.383 L54.2274,69.2441 Z M54.7557,69.2441 L54.7557,69.6138 L54.8011,69.6138 L54.8011,69.2441 Z M54.8735,69.5616 L54.8735,69.6138 L54.9189,69.6138 L54.9189,69.5616 Z M54.8735,69.2441 L54.8735,69.5119 L54.9189,69.5119 L54.9189,69.2441 Z M54.9898,69.2441 L54.9898,69.5119 L55.0306,69.5119 L55.0306,69.4738 C55.0503,69.5032 55.0787,69.518 55.1158,69.518 C55.132,69.518 55.1468,69.5151 55.1604,69.5093 C55.1739,69.5035 55.184,69.4958 55.1907,69.4864 C55.1975,69.477 55.2022,69.4658 55.2049,69.4529 C55.2066,69.4445 55.2074,69.4298 55.2074,69.4088 L55.2074,69.2441 L55.162,69.2441 L55.162,69.407 C55.162,69.4255 55.1602,69.4393 55.1567,69.4485 C55.1532,69.4576 55.1469,69.4649 55.1379,69.4704 C55.1289,69.4759 55.1184,69.4786 55.1063,69.4786 C55.0869,69.4786 55.0702,69.4725 55.0562,69.4602 C55.0422,69.4479 55.0351,69.4246 55.0351,69.3903 L55.0351,69.2441 Z M55.4605,69.3303 L55.5074,69.3245 C55.5,69.2971 55.4863,69.2758 55.4663,69.2607 C55.4463,69.2456 55.4207,69.238 55.3896,69.238 C55.3504,69.238 55.3194,69.2501 55.2964,69.2742 C55.2735,69.2983 55.262,69.3322 55.262,69.3757 C55.262,69.4208 55.2736,69.4557 55.2968,69.4806 C55.32,69.5055 55.3501,69.518 55.3871,69.518 C55.4229,69.518 55.4521,69.5058 55.4748,69.4814 C55.4975,69.457 55.5089,69.4227 55.5089,69.3785 C55.5089,69.3758 55.5088,69.3718 55.5086,69.3664 L55.3089,69.3664 C55.3106,69.337 55.3189,69.3144 55.3339,69.2988 C55.3488,69.2832 55.3675,69.2753 55.3899,69.2753 C55.4065,69.2753 55.4207,69.2797 55.4325,69.2885 C55.4442,69.2972 55.4536,69.3112 55.4605,69.3303 M55.3114,69.4037 L55.461,69.4037 C55.459,69.4262 55.4532,69.4431 55.4438,69.4544 C55.4294,69.4719 55.4106,69.4806 55.3876,69.4806 C55.3667,69.4806 55.3492,69.4736 55.335,69.4597 C55.3208,69.4457 55.3129,69.4271 55.3114,69.4037 M55.5463,69.324 L55.5912,69.3311 C55.5937,69.3131 55.6008,69.2993 55.6123,69.2897 C55.6238,69.2801 55.6399,69.2753 55.6606,69.2753 C55.6814,69.2753 55.6969,69.2796 55.707,69.2881 C55.7171,69.2966 55.7221,69.3065 55.7221,69.318 C55.7221,69.3282 55.7177,69.3363 55.7087,69.3422 C55.7025,69.3462 55.6871,69.3513 55.6623,69.3576 C55.6291,69.366 55.606,69.3732 55.5931,69.3794 C55.5803,69.3855 55.5705,69.394 55.5639,69.4048 C55.5572,69.4157 55.5539,69.4277 55.5539,69.4408 C55.5539,69.4527 55.5566,69.4638 55.5621,69.4739 C55.5676,69.4841 55.575,69.4926 55.5844,69.4993 C55.5915,69.5045 55.6011,69.5089 55.6133,69.5125 C55.6255,69.5161 55.6386,69.518 55.6525,69.518 C55.6735,69.518 55.692,69.5149 55.7079,69.5089 C55.7238,69.5028 55.7355,69.4946 55.743,69.4843 C55.7506,69.4739 55.7558,69.4601 55.7587,69.4428 L55.7143,69.4367 C55.7123,69.4505 55.7064,69.4613 55.6968,69.469 C55.6871,69.4768 55.6734,69.4806 55.6558,69.4806 C55.6349,69.4806 55.6201,69.4772 55.6112,69.4703 C55.6022,69.4634 55.5978,69.4553 55.5978,69.4461 C55.5978,69.4402 55.5996,69.4349 55.6033,69.4302 C55.607,69.4253 55.6128,69.4213 55.6207,69.4181 C55.6253,69.4164 55.6386,69.4125 55.6608,69.4065 C55.6929,69.3979 55.7153,69.3909 55.728,69.3854 C55.7407,69.38 55.7507,69.372 55.7579,69.3616 C55.7652,69.3512 55.7688,69.3382 55.7688,69.3228 C55.7688,69.3076 55.7644,69.2934 55.7555,69.28 C55.7467,69.2666 55.734,69.2563 55.7173,69.249 C55.7007,69.2417 55.6818,69.238 55.6608,69.238 C55.626,69.238 55.5995,69.2452 55.5813,69.2597 C55.563,69.2742 55.5514,69.2956 55.5463,69.324 M56.1431,69.2771 C56.1263,69.2628 56.1101,69.2527 56.0946,69.2468 C56.079,69.241 56.0624,69.238 56.0445,69.238 C56.0151,69.238 55.9925,69.2452 55.9767,69.2596 C55.9609,69.274 55.953,69.2923 55.953,69.3147 C55.953,69.3278 55.956,69.3398 55.9619,69.3506 C55.9679,69.3615 55.9757,69.3702 55.9854,69.3767 C55.9951,69.3833 56.0059,69.3882 56.0181,69.3916 C56.027,69.394 56.0404,69.3962 56.0584,69.3984 C56.0951,69.4028 56.122,69.408 56.1394,69.414 C56.1395,69.4203 56.1396,69.4242 56.1396,69.4259 C56.1396,69.4444 56.1353,69.4574 56.1267,69.465 C56.1151,69.4752 56.0979,69.4804 56.075,69.4804 C56.0537,69.4804 56.0379,69.4766 56.0278,69.4692 C56.0176,69.4617 56.0101,69.4484 56.0052,69.4294 L55.9608,69.4355 C55.9648,69.4545 55.9715,69.4698 55.9807,69.4815 C55.99,69.4932 56.0033,69.5022 56.0208,69.5085 C56.0383,69.5148 56.0586,69.518 56.0816,69.518 C56.1045,69.518 56.123,69.5153 56.1373,69.5099 C56.1516,69.5045 56.1621,69.4977 56.1689,69.4896 C56.1756,69.4814 56.1803,69.4711 56.183,69.4587 C56.1845,69.451 56.1853,69.437 56.1853,69.4168 L56.1853,69.3563 C56.1853,69.3141 56.1862,69.2874 56.1882,69.2762 C56.1901,69.265 56.1939,69.2543 56.1996,69.2441 L56.1522,69.2441 C56.1475,69.2535 56.1445,69.2645 56.1431,69.2771 M56.1394,69.3785 C56.1229,69.3718 56.0982,69.366 56.0652,69.3613 C56.0465,69.3586 56.0334,69.3556 56.0256,69.3523 C56.0179,69.3489 56.0119,69.344 56.0077,69.3375 C56.0035,69.331 56.0014,69.3238 56.0014,69.3159 C56.0014,69.3038 56.006,69.2938 56.0152,69.2857 C56.0243,69.2776 56.0377,69.2736 56.0554,69.2736 C56.0729,69.2736 56.0884,69.2774 56.102,69.2851 C56.1156,69.2927 56.1257,69.3032 56.132,69.3164 C56.1369,69.3267 56.1394,69.3418 56.1394,69.3618 Z M56.4295,69.2441 L56.4295,69.2779 C56.4125,69.2513 56.3876,69.238 56.3546,69.238 C56.3332,69.238 56.3136,69.2439 56.2957,69.2557 C56.2778,69.2674 56.2639,69.2839 56.2541,69.305 C56.2443,69.3261 56.2393,69.3503 56.2393,69.3777 C56.2393,69.4045 56.2438,69.4287 56.2527,69.4505 C56.2616,69.4723 56.275,69.4889 56.2928,69.5006 C56.3106,69.5122 56.3306,69.518 56.3526,69.518 C56.3687,69.518 56.3831,69.5145 56.3957,69.5077 C56.4083,69.5009 56.4186,69.4921 56.4265,69.4811 L56.4265,69.6138 L56.4716,69.6138 L56.4716,69.2441 Z M56.286,69.3777 C56.286,69.3434 56.2932,69.3178 56.3077,69.3008 C56.3222,69.2838 56.3392,69.2753 56.3589,69.2753 C56.3787,69.2753 56.3956,69.2835 56.4095,69.2997 C56.4233,69.3159 56.4303,69.3407 56.4303,69.3739 C56.4303,69.4106 56.4232,69.4375 56.4091,69.4547 C56.395,69.4718 56.3776,69.4804 56.3569,69.4804 C56.3367,69.4804 56.3198,69.4721 56.3063,69.4557 C56.2928,69.4392 56.286,69.4132 56.286,69.3777 M56.7169,69.2441 L56.7169,69.2779 C56.6999,69.2513 56.6749,69.238 56.642,69.238 C56.6206,69.238 56.601,69.2439 56.5831,69.2557 C56.5652,69.2674 56.5513,69.2839 56.5415,69.305 C56.5316,69.3261 56.5267,69.3503 56.5267,69.3777 C56.5267,69.4045 56.5312,69.4287 56.5401,69.4505 C56.549,69.4723 56.5624,69.4889 56.5802,69.5006 C56.598,69.5122 56.6179,69.518 56.64,69.518 C56.6561,69.518 56.6705,69.5145 56.6831,69.5077 C56.6957,69.5009 56.7059,69.4921 56.7138,69.4811 L56.7138,69.6138 L56.759,69.6138 L56.759,69.2441 Z M56.5734,69.3777 C56.5734,69.3434 56.5806,69.3178 56.5951,69.3008 C56.6095,69.2838 56.6266,69.2753 56.6463,69.2753 C56.6661,69.2753 56.683,69.2835 56.6968,69.2997 C56.7107,69.3159 56.7176,69.3407 56.7176,69.3739 C56.7176,69.4106 56.7106,69.4375 56.6964,69.4547 C56.6823,69.4718 56.6649,69.4804 56.6442,69.4804 C56.6241,69.4804 56.6072,69.4721 56.5937,69.4557 C56.5801,69.4392 56.5734,69.4132 56.5734,69.3777 M57.0138,69.3303 L57.0607,69.3245 C57.0533,69.2971 57.0396,69.2758 57.0196,69.2607 C56.9996,69.2456 56.9741,69.238 56.943,69.238 C56.9038,69.238 56.8727,69.2501 56.8498,69.2742 C56.8268,69.2983 56.8154,69.3322 56.8154,69.3757 C56.8154,69.4208 56.827,69.4557 56.8502,69.4806 C56.8734,69.5055 56.9035,69.518 56.9404,69.518 C56.9763,69.518 57.0055,69.5058 57.0282,69.4814 C57.0509,69.457 57.0623,69.4227 57.0623,69.3785 C57.0623,69.3758 57.0622,69.3718 57.062,69.3664 L56.8623,69.3664 C56.8639,69.337 56.8723,69.3144 56.8872,69.2988 C56.9022,69.2832 56.9209,69.2753 56.9432,69.2753 C56.9599,69.2753 56.9741,69.2797 56.9858,69.2885 C56.9976,69.2972 57.0069,69.3112 57.0138,69.3303 M56.8648,69.4037 L57.0143,69.4037 C57.0123,69.4262 57.0066,69.4431 56.9972,69.4544 C56.9827,69.4719 56.964,69.4806 56.9409,69.4806 C56.9201,69.4806 56.9026,69.4736 56.8884,69.4597 C56.8742,69.4457 56.8663,69.4271 56.8648,69.4037 M57.2916,69.2441 L57.2916,69.2779 C57.2746,69.2513 57.2497,69.238 57.2167,69.238 C57.1954,69.238 57.1757,69.2439 57.1578,69.2557 C57.1399,69.2674 57.1261,69.2839 57.1162,69.305 C57.1064,69.3261 57.1015,69.3503 57.1015,69.3777 C57.1015,69.4045 57.1059,69.4287 57.1148,69.4505 C57.1237,69.4723 57.1371,69.4889 57.1549,69.5006 C57.1728,69.5122 57.1927,69.518 57.2147,69.518 C57.2308,69.518 57.2452,69.5145 57.2578,69.5077 C57.2704,69.5009 57.2807,69.4921 57.2886,69.4811 L57.2886,69.6138 L57.3337,69.6138 L57.3337,69.2441 Z M57.1481,69.3777 C57.1481,69.3434 57.1553,69.3178 57.1698,69.3008 C57.1843,69.2838 57.2013,69.2753 57.221,69.2753 C57.2408,69.2753 57.2577,69.2835 57.2716,69.2997 C57.2854,69.3159 57.2924,69.3407 57.2924,69.3739 C57.2924,69.4106 57.2853,69.4375 57.2712,69.4547 C57.2571,69.4718 57.2397,69.4804 57.219,69.4804 C57.1988,69.4804 57.182,69.4721 57.1684,69.4557 C57.1549,69.4392 57.1481,69.4132 57.1481,69.3777" style="fill:#dd0000;fill-rule:evenodd;"/>
        </g>
        <!-- Линия -->
        <path d="M44.1476,84.9229 L103.343,40.3442 " style="stroke:#000000;stroke-width:0.25;"/>
        <!-- Линия -->
        <path d="M11.9239,57.1709 L82.2275,95.229 " style="stroke:#000000;stroke-width:0.25;"/>
        <!-- Линия -->
        <path d="M107.2923,95.8734 L77.5825,99.8336 " style="stroke:#000000;stroke-width:0.25;"/>
        <!-- Текст: QCAD.org
Trial Version
Random lines added -->
        <g>
            <path d="M54.136,70.4253 C54.1587,70.4097 54.1796,70.3982 54.1988,70.391 L54.1844,70.357 C54.1579,70.3665 54.1314,70.3817 54.105,70.4024 C54.0776,70.3871 54.0473,70.3794 54.0142,70.3794 C53.9807,70.3794 53.9504,70.3875 53.9232,70.4036 C53.8959,70.4198 53.8749,70.4425 53.8602,70.4717 C53.8455,70.501 53.8382,70.5339 53.8382,70.5706 C53.8382,70.6071 53.8456,70.6403 53.8604,70.6702 C53.8752,70.7001 53.8962,70.7229 53.9235,70.7385 C53.9509,70.7542 53.9814,70.762 54.0152,70.762 C54.0493,70.762 54.0801,70.7539 54.1075,70.7376 C54.1349,70.7214 54.1558,70.6987 54.1702,70.6696 C54.1846,70.6404 54.1917,70.6075 54.1917,70.5708 C54.1917,70.5404 54.1871,70.513 54.1779,70.4887 C54.1686,70.4644 54.1547,70.4433 54.136,70.4253 M54.0283,70.4878 C54.0566,70.4799 54.0799,70.4682 54.0982,70.4525 C54.1269,70.4788 54.1413,70.5182 54.1413,70.5708 C54.1413,70.6007 54.1362,70.6269 54.126,70.6493 C54.1159,70.6716 54.101,70.689 54.0814,70.7013 C54.0618,70.7137 54.0398,70.7199 54.0155,70.7199 C53.979,70.7199 53.9487,70.7074 53.9247,70.6824 C53.9006,70.6574 53.8886,70.6202 53.8886,70.5706 C53.8886,70.5225 53.9005,70.4856 53.9243,70.4599 C53.9481,70.4341 53.9785,70.4213 54.0155,70.4213 C54.0329,70.4213 54.0494,70.4245 54.0649,70.4311 C54.0496,70.441 54.0335,70.4481 54.0165,70.4523 Z M54.5196,70.5153 L54.5685,70.503 C54.5583,70.4628 54.5398,70.4322 54.5132,70.4111 C54.4865,70.39 54.454,70.3794 54.4155,70.3794 C54.3756,70.3794 54.3432,70.3875 54.3182,70.4037 C54.2933,70.42 54.2743,70.4435 54.2612,70.4742 C54.2482,70.505 54.2417,70.538 54.2417,70.5733 C54.2417,70.6118 54.249,70.6454 54.2638,70.6741 C54.2785,70.7028 54.2994,70.7245 54.3266,70.7394 C54.3537,70.7543 54.3836,70.7617 54.4162,70.7617 C54.4532,70.7617 54.4843,70.7523 54.5095,70.7335 C54.5347,70.7147 54.5523,70.6882 54.5622,70.654 L54.5141,70.6427 C54.5055,70.6696 54.493,70.6892 54.4767,70.7015 C54.4604,70.7137 54.4399,70.7199 54.4152,70.7199 C54.3868,70.7199 54.363,70.7131 54.344,70.6994 C54.3249,70.6858 54.3115,70.6675 54.3037,70.6446 C54.296,70.6216 54.2921,70.598 54.2921,70.5736 C54.2921,70.5422 54.2967,70.5147 54.3059,70.4913 C54.315,70.4678 54.3293,70.4503 54.3486,70.4387 C54.368,70.4271 54.3889,70.4213 54.4114,70.4213 C54.4388,70.4213 54.462,70.4292 54.481,70.445 C54.5,70.4608 54.5129,70.4842 54.5196,70.5153 M54.588,70.3857 L54.73,70.7554 L54.7827,70.7554 L54.934,70.3857 L54.8783,70.3857 L54.8352,70.4977 L54.6806,70.4977 L54.64,70.3857 Z M54.6947,70.5375 L54.82,70.5375 L54.7815,70.6399 C54.7697,70.671 54.7609,70.6966 54.7552,70.7166 C54.7505,70.6929 54.7439,70.6693 54.7353,70.646 Z M54.9742,70.3857 L54.9742,70.7554 L55.1016,70.7554 C55.1304,70.7554 55.1523,70.7537 55.1674,70.7501 C55.1886,70.7453 55.2067,70.7364 55.2216,70.7236 C55.2411,70.7072 55.2557,70.6861 55.2654,70.6605 C55.2751,70.6348 55.2799,70.6055 55.2799,70.5726 C55.2799,70.5445 55.2766,70.5196 55.2701,70.4979 C55.2635,70.4762 55.2551,70.4583 55.2448,70.4441 C55.2346,70.4299 55.2234,70.4187 55.2112,70.4106 C55.199,70.4024 55.1843,70.3962 55.167,70.392 C55.1498,70.3878 55.13,70.3857 55.1077,70.3857 Z M55.0232,70.4293 L55.1021,70.4293 C55.1265,70.4293 55.1456,70.4316 55.1595,70.4361 C55.1734,70.4407 55.1844,70.4471 55.1926,70.4553 C55.2042,70.4669 55.2133,70.4825 55.2198,70.5021 C55.2262,70.5217 55.2295,70.5454 55.2295,70.5733 C55.2295,70.612 55.2231,70.6417 55.2104,70.6625 C55.1977,70.6833 55.1823,70.6972 55.1641,70.7042 C55.151,70.7093 55.1299,70.7118 55.1008,70.7118 L55.0232,70.7118 Z M55.3541,70.3857 L55.3541,70.4374 L55.4058,70.4374 L55.4058,70.3857 Z M55.468,70.5196 C55.468,70.5692 55.4818,70.606 55.5094,70.6298 C55.5324,70.6497 55.5605,70.6596 55.5936,70.6596 C55.6305,70.6596 55.6605,70.6475 55.6839,70.6234 C55.7073,70.5993 55.719,70.5659 55.719,70.5234 C55.719,70.4889 55.7138,70.4618 55.7035,70.4421 C55.6931,70.4223 55.6781,70.407 55.6583,70.3961 C55.6386,70.3851 55.617,70.3797 55.5936,70.3797 C55.5561,70.3797 55.5258,70.3917 55.5027,70.4157 C55.4796,70.4398 55.468,70.4744 55.468,70.5196 M55.5147,70.5196 C55.5147,70.4853 55.5222,70.4596 55.5371,70.4426 C55.5521,70.4255 55.5709,70.417 55.5936,70.417 C55.6162,70.417 55.6349,70.4256 55.6499,70.4427 C55.6648,70.4599 55.6723,70.486 55.6723,70.5211 C55.6723,70.5543 55.6648,70.5794 55.6497,70.5964 C55.6347,70.6135 55.616,70.622 55.5936,70.622 C55.5709,70.622 55.5521,70.6135 55.5371,70.5965 C55.5222,70.5796 55.5147,70.5539 55.5147,70.5196 M55.7718,70.3857 L55.7718,70.6535 L55.8127,70.6535 L55.8127,70.6129 C55.8231,70.6319 55.8327,70.6445 55.8415,70.6505 C55.8504,70.6566 55.8601,70.6596 55.8707,70.6596 C55.886,70.6596 55.9015,70.6547 55.9173,70.645 L55.9017,70.6028 C55.8906,70.6094 55.8795,70.6127 55.8684,70.6127 C55.8585,70.6127 55.8496,70.6097 55.8417,70.6037 C55.8338,70.5978 55.8281,70.5895 55.8248,70.5789 C55.8197,70.5628 55.8172,70.5451 55.8172,70.5259 L55.8172,70.3857 Z M55.9349,70.3635 L55.979,70.357 C55.9808,70.3433 55.986,70.3334 55.9944,70.3272 C56.0056,70.3188 56.021,70.3146 56.0405,70.3146 C56.0615,70.3146 56.0778,70.3188 56.0892,70.3272 C56.1006,70.3356 56.1084,70.3474 56.1124,70.3625 C56.1148,70.3718 56.1158,70.3912 56.1157,70.4208 C56.0958,70.3974 56.0711,70.3857 56.0415,70.3857 C56.0047,70.3857 55.9762,70.399 55.956,70.4256 C55.9359,70.4521 55.9258,70.484 55.9258,70.5211 C55.9258,70.5467 55.9304,70.5703 55.9396,70.5919 C55.9489,70.6135 55.9623,70.6302 55.9799,70.6419 C55.9974,70.6537 56.0181,70.6596 56.0418,70.6596 C56.0734,70.6596 56.0995,70.6468 56.12,70.6213 L56.12,70.6535 L56.1618,70.6535 L56.1618,70.422 C56.1618,70.3803 56.1576,70.3508 56.1491,70.3334 C56.1406,70.316 56.1272,70.3022 56.1087,70.2921 C56.0903,70.2821 56.0677,70.277 56.0408,70.277 C56.0088,70.277 55.983,70.2842 55.9634,70.2986 C55.9437,70.313 55.9342,70.3346 55.9349,70.3635 M55.9724,70.5244 C55.9724,70.4893 55.9794,70.4636 55.9934,70.4475 C56.0073,70.4314 56.0248,70.4233 56.0458,70.4233 C56.0667,70.4233 56.0842,70.4313 56.0983,70.4474 C56.1124,70.4634 56.1195,70.4886 56.1195,70.5229 C56.1195,70.5557 56.1122,70.5804 56.0976,70.597 C56.0831,70.6137 56.0656,70.622 56.0451,70.622 C56.0249,70.622 56.0077,70.6138 55.9936,70.5974 C55.9795,70.581 55.9724,70.5567 55.9724,70.5244" style="fill:#dd0000;fill-rule:evenodd;"/>
            <path d="M53.7166,69.8149 L53.7166,70.141 L53.5948,70.141 L53.5948,70.1846 L53.8879,70.1846 L53.8879,70.141 L53.7655,70.141 L53.7655,69.8149 Z M53.9114,69.8149 L53.9114,70.0827 L53.9522,70.0827 L53.9522,70.0421 C53.9627,70.0611 53.9723,70.0736 53.9811,70.0797 C53.9899,70.0857 53.9996,70.0888 54.0102,70.0888 C54.0255,70.0888 54.0411,70.0839 54.0569,70.0741 L54.0413,70.032 C54.0302,70.0386 54.0191,70.0419 54.008,70.0419 C53.998,70.0419 53.9891,70.0389 53.9812,70.0329 C53.9733,70.0269 53.9677,70.0187 53.9643,70.0081 C53.9593,69.9919 53.9568,69.9743 53.9568,69.9551 L53.9568,69.8149 Z M54.083,70.1324 L54.083,70.1846 L54.1284,70.1846 L54.1284,70.1324 Z M54.083,69.8149 L54.083,70.0827 L54.1284,70.0827 L54.1284,69.8149 Z M54.374,69.8479 C54.3572,69.8336 54.341,69.8235 54.3255,69.8177 C54.3099,69.8118 54.2932,69.8088 54.2754,69.8088 C54.246,69.8088 54.2234,69.816 54.2076,69.8304 C54.1918,69.8448 54.1839,69.8631 54.1839,69.8855 C54.1839,69.8986 54.1869,69.9106 54.1928,69.9214 C54.1988,69.9323 54.2066,69.941 54.2163,69.9475 C54.2259,69.9541 54.2368,69.9591 54.2489,69.9624 C54.2578,69.9648 54.2713,69.967 54.2893,69.9692 C54.3259,69.9736 54.3529,69.9788 54.3702,69.9849 C54.3704,69.9911 54.3705,69.995 54.3705,69.9967 C54.3705,70.0152 54.3662,70.0282 54.3576,70.0358 C54.346,70.0461 54.3288,70.0512 54.3059,70.0512 C54.2846,70.0512 54.2688,70.0475 54.2586,70.04 C54.2485,70.0325 54.2409,70.0193 54.2361,70.0003 L54.1917,70.0063 C54.1957,70.0253 54.2024,70.0406 54.2116,70.0523 C54.2209,70.064 54.2342,70.073 54.2517,70.0793 C54.2692,70.0856 54.2895,70.0888 54.3125,70.0888 C54.3354,70.0888 54.3539,70.0861 54.3682,70.0807 C54.3825,70.0753 54.393,70.0686 54.3997,70.0604 C54.4065,70.0522 54.4112,70.0419 54.4139,70.0295 C54.4154,70.0218 54.4161,70.0078 54.4161,69.9876 L54.4161,69.9271 C54.4161,69.8849 54.4171,69.8582 54.419,69.847 C54.421,69.8359 54.4248,69.8251 54.4305,69.8149 L54.3831,69.8149 C54.3784,69.8243 54.3754,69.8353 54.374,69.8479 M54.3702,69.9493 C54.3538,69.9426 54.329,69.9369 54.2961,69.9322 C54.2774,69.9295 54.2642,69.9264 54.2565,69.9231 C54.2488,69.9197 54.2428,69.9148 54.2386,69.9083 C54.2344,69.9019 54.2323,69.8947 54.2323,69.8868 C54.2323,69.8747 54.2369,69.8646 54.246,69.8565 C54.2552,69.8484 54.2686,69.8444 54.2863,69.8444 C54.3037,69.8444 54.3193,69.8482 54.3329,69.8559 C54.3465,69.8635 54.3565,69.874 54.3629,69.8873 C54.3678,69.8975 54.3702,69.9127 54.3702,69.9327 Z M54.4856,69.8149 L54.4856,70.1846 L54.531,70.1846 L54.531,69.8149 Z M54.8583,69.8149 L54.715,70.1846 L54.768,70.1846 L54.8641,69.916 C54.8718,69.8945 54.8783,69.8743 54.8835,69.8555 C54.8892,69.8757 54.8959,69.8958 54.9034,69.916 L55.0033,70.1846 L55.0532,70.1846 L54.9085,69.8149 Z M55.2486,69.9011 L55.2955,69.8953 C55.2881,69.8679 55.2744,69.8467 55.2544,69.8315 C55.2344,69.8164 55.2088,69.8088 55.1777,69.8088 C55.1386,69.8088 55.1075,69.8209 55.0845,69.845 C55.0616,69.8692 55.0501,69.903 55.0501,69.9465 C55.0501,69.9916 55.0617,70.0266 55.0849,70.0514 C55.1081,70.0763 55.1382,70.0888 55.1752,70.0888 C55.211,70.0888 55.2403,70.0766 55.263,70.0522 C55.2857,70.0278 55.297,69.9935 55.297,69.9493 C55.297,69.9466 55.2969,69.9426 55.2968,69.9372 L55.097,69.9372 C55.0987,69.9078 55.107,69.8853 55.122,69.8696 C55.137,69.854 55.1556,69.8462 55.178,69.8462 C55.1946,69.8462 55.2088,69.8505 55.2206,69.8593 C55.2324,69.868 55.2417,69.882 55.2486,69.9011 M55.0996,69.9745 L55.2491,69.9745 C55.2471,69.9971 55.2414,70.014 55.232,70.0252 C55.2175,70.0427 55.1987,70.0514 55.1757,70.0514 C55.1549,70.0514 55.1373,70.0445 55.1231,70.0305 C55.1089,70.0166 55.1011,69.9979 55.0996,69.9745 M55.3521,69.8149 L55.3521,70.0827 L55.393,70.0827 L55.393,70.0421 C55.4034,70.0611 55.413,70.0736 55.4219,70.0797 C55.4307,70.0857 55.4404,70.0888 55.451,70.0888 C55.4663,70.0888 55.4818,70.0839 55.4976,70.0741 L55.482,70.032 C55.4709,70.0386 55.4598,70.0419 55.4487,70.0419 C55.4388,70.0419 55.4299,70.0389 55.422,70.0329 C55.4141,70.0269 55.4084,70.0187 55.4051,70.0081 C55.4,69.9919 55.3975,69.9743 55.3975,69.9551 L55.3975,69.8149 Z M55.5053,69.8948 L55.5502,69.9019 C55.5527,69.8839 55.5598,69.8701 55.5713,69.8605 C55.5828,69.851 55.5989,69.8462 55.6196,69.8462 C55.6404,69.8462 55.6559,69.8504 55.666,69.8589 C55.6761,69.8674 55.6811,69.8773 55.6811,69.8888 C55.6811,69.899 55.6767,69.9071 55.6677,69.913 C55.6615,69.917 55.6461,69.9222 55.6213,69.9284 C55.5881,69.9368 55.565,69.9441 55.5521,69.9502 C55.5393,69.9563 55.5295,69.9648 55.5229,69.9757 C55.5162,69.9865 55.5129,69.9985 55.5129,70.0116 C55.5129,70.0235 55.5156,70.0346 55.5211,70.0448 C55.5266,70.0549 55.534,70.0634 55.5434,70.0701 C55.5505,70.0753 55.5601,70.0797 55.5723,70.0834 C55.5845,70.087 55.5976,70.0888 55.6115,70.0888 C55.6325,70.0888 55.651,70.0857 55.6669,70.0797 C55.6828,70.0736 55.6945,70.0654 55.702,70.0551 C55.7096,70.0448 55.7148,70.0309 55.7177,70.0136 L55.6733,70.0076 C55.6713,70.0214 55.6654,70.0321 55.6558,70.0398 C55.6461,70.0476 55.6324,70.0514 55.6148,70.0514 C55.5939,70.0514 55.5791,70.048 55.5701,70.0411 C55.5612,70.0342 55.5568,70.0261 55.5568,70.0169 C55.5568,70.011 55.5586,70.0057 55.5623,70.001 C55.566,69.9961 55.5718,69.9921 55.5797,69.9889 C55.5843,69.9872 55.5976,69.9834 55.6198,69.9773 C55.6519,69.9687 55.6743,69.9617 55.687,69.9562 C55.6997,69.9508 55.7097,69.9428 55.7169,69.9324 C55.7242,69.922 55.7278,69.909 55.7278,69.8936 C55.7278,69.8784 55.7234,69.8642 55.7145,69.8508 C55.7057,69.8375 55.693,69.8271 55.6763,69.8198 C55.6597,69.8125 55.6408,69.8088 55.6198,69.8088 C55.585,69.8088 55.5585,69.8161 55.5403,69.8305 C55.522,69.845 55.5104,69.8664 55.5053,69.8948 M55.7839,70.1324 L55.7839,70.1846 L55.8293,70.1846 L55.8293,70.1324 Z M55.7839,69.8149 L55.7839,70.0827 L55.8293,70.0827 L55.8293,69.8149 Z M55.8833,69.9488 C55.8833,69.9984 55.8971,70.0351 55.9246,70.059 C55.9477,70.0789 55.9758,70.0888 56.0089,70.0888 C56.0457,70.0888 56.0758,70.0767 56.0992,70.0526 C56.1225,70.0285 56.1342,69.9951 56.1342,69.9526 C56.1342,69.9181 56.129,69.891 56.1187,69.8713 C56.1084,69.8515 56.0933,69.8362 56.0736,69.8252 C56.0538,69.8143 56.0322,69.8088 56.0089,69.8088 C55.9714,69.8088 55.9411,69.8209 55.918,69.8449 C55.8948,69.8689 55.8833,69.9036 55.8833,69.9488 M55.9299,69.9488 C55.9299,69.9145 55.9374,69.8888 55.9524,69.8718 C55.9674,69.8547 55.9862,69.8462 56.0089,69.8462 C56.0314,69.8462 56.0502,69.8547 56.0651,69.8719 C56.0801,69.889 56.0876,69.9152 56.0876,69.9503 C56.0876,69.9834 56.08,70.0085 56.065,70.0256 C56.0499,70.0427 56.0312,70.0512 56.0089,70.0512 C55.9862,70.0512 55.9674,70.0427 55.9524,70.0257 C55.9374,70.0087 55.9299,69.9831 55.9299,69.9488 M56.1876,69.8149 L56.1876,70.0827 L56.2284,70.0827 L56.2284,70.0446 C56.2481,70.0741 56.2765,70.0888 56.3137,70.0888 C56.3298,70.0888 56.3446,70.0859 56.3582,70.0801 C56.3717,70.0743 56.3818,70.0667 56.3886,70.0572 C56.3953,70.0478 56.4,70.0367 56.4027,70.0237 C56.4044,70.0153 56.4052,70.0006 56.4052,69.9796 L56.4052,69.8149 L56.3598,69.8149 L56.3598,69.9778 C56.3598,69.9963 56.358,70.0101 56.3545,70.0193 C56.351,70.0285 56.3447,70.0358 56.3357,70.0412 C56.3267,70.0467 56.3162,70.0494 56.3041,70.0494 C56.2847,70.0494 56.268,70.0433 56.254,70.031 C56.24,70.0187 56.233,69.9955 56.233,69.9612 L56.233,69.8149 Z" style="fill:#dd0000;fill-rule:evenodd;"/>
            <path d="M52.6663,69.2441 L52.6663,69.6138 L52.8302,69.6138 C52.8631,69.6138 52.8882,69.6105 52.9053,69.6038 C52.9225,69.5972 52.9362,69.5855 52.9465,69.5686 C52.9567,69.5518 52.9618,69.5333 52.9618,69.5129 C52.9618,69.4867 52.9533,69.4646 52.9364,69.4466 C52.9194,69.4286 52.8932,69.4172 52.8577,69.4123 C52.8706,69.4061 52.8805,69.3999 52.8872,69.3939 C52.9015,69.3808 52.915,69.3644 52.9278,69.3447 L52.9921,69.2441 L52.9306,69.2441 L52.8816,69.321 C52.8673,69.3432 52.8556,69.3602 52.8463,69.3719 C52.8371,69.3837 52.8288,69.3919 52.8215,69.3966 C52.8142,69.4014 52.8067,69.4046 52.7992,69.4065 C52.7936,69.4077 52.7845,69.4082 52.7719,69.4082 L52.7152,69.4082 L52.7152,69.2441 Z M52.7152,69.4506 L52.8204,69.4506 C52.8427,69.4506 52.8602,69.4529 52.8728,69.4576 C52.8854,69.4622 52.895,69.4696 52.9016,69.4797 C52.9081,69.4899 52.9114,69.501 52.9114,69.5129 C52.9114,69.5304 52.9051,69.5448 52.8924,69.556 C52.8797,69.5673 52.8596,69.5729 52.8322,69.5729 L52.7152,69.5729 Z M53.2073,69.2771 C53.1905,69.2628 53.1743,69.2527 53.1587,69.2468 C53.1432,69.241 53.1265,69.238 53.1087,69.238 C53.0793,69.238 53.0566,69.2452 53.0408,69.2596 C53.025,69.274 53.0171,69.2923 53.0171,69.3147 C53.0171,69.3278 53.0201,69.3398 53.0261,69.3506 C53.0321,69.3615 53.0399,69.3702 53.0495,69.3767 C53.0592,69.3833 53.0701,69.3882 53.0822,69.3916 C53.0911,69.394 53.1046,69.3962 53.1225,69.3984 C53.1592,69.4028 53.1862,69.408 53.2035,69.414 C53.2037,69.4203 53.2038,69.4242 53.2038,69.4259 C53.2038,69.4444 53.1995,69.4574 53.1909,69.465 C53.1793,69.4752 53.1621,69.4804 53.1392,69.4804 C53.1178,69.4804 53.1021,69.4766 53.0919,69.4692 C53.0817,69.4617 53.0742,69.4484 53.0693,69.4294 L53.025,69.4355 C53.029,69.4545 53.0356,69.4698 53.0449,69.4815 C53.0541,69.4932 53.0675,69.5022 53.085,69.5085 C53.1025,69.5148 53.1227,69.518 53.1458,69.518 C53.1686,69.518 53.1872,69.5153 53.2015,69.5099 C53.2158,69.5045 53.2263,69.4977 53.233,69.4896 C53.2397,69.4814 53.2444,69.4711 53.2471,69.4587 C53.2486,69.451 53.2494,69.437 53.2494,69.4168 L53.2494,69.3563 C53.2494,69.3141 53.2504,69.2874 53.2523,69.2762 C53.2542,69.265 53.2581,69.2543 53.2638,69.2441 L53.2164,69.2441 C53.2117,69.2535 53.2086,69.2645 53.2073,69.2771 M53.2035,69.3785 C53.187,69.3718 53.1623,69.366 53.1294,69.3613 C53.1107,69.3586 53.0975,69.3556 53.0898,69.3523 C53.082,69.3489 53.0761,69.344 53.0719,69.3375 C53.0677,69.331 53.0656,69.3238 53.0656,69.3159 C53.0656,69.3038 53.0701,69.2938 53.0793,69.2857 C53.0885,69.2776 53.1019,69.2736 53.1195,69.2736 C53.137,69.2736 53.1526,69.2774 53.1662,69.2851 C53.1798,69.2927 53.1898,69.3032 53.1962,69.3164 C53.2011,69.3267 53.2035,69.3418 53.2035,69.3618 Z M53.3199,69.2441 L53.3199,69.5119 L53.3607,69.5119 L53.3607,69.4738 C53.3804,69.5032 53.4088,69.518 53.446,69.518 C53.4621,69.518 53.477,69.5151 53.4905,69.5093 C53.504,69.5035 53.5142,69.4958 53.5209,69.4864 C53.5276,69.477 53.5323,69.4658 53.535,69.4529 C53.5367,69.4445 53.5375,69.4298 53.5375,69.4088 L53.5375,69.2441 L53.4921,69.2441 L53.4921,69.407 C53.4921,69.4255 53.4904,69.4393 53.4868,69.4485 C53.4833,69.4576 53.477,69.4649 53.4681,69.4704 C53.4591,69.4759 53.4485,69.4786 53.4364,69.4786 C53.4171,69.4786 53.4004,69.4725 53.3863,69.4602 C53.3723,69.4479 53.3653,69.4246 53.3653,69.3903 L53.3653,69.2441 Z M53.781,69.2441 L53.781,69.2779 C53.764,69.2513 53.7391,69.238 53.7061,69.238 C53.6848,69.238 53.6651,69.2439 53.6472,69.2557 C53.6293,69.2674 53.6155,69.2839 53.6056,69.305 C53.5958,69.3261 53.5909,69.3503 53.5909,69.3777 C53.5909,69.4045 53.5953,69.4287 53.6042,69.4505 C53.6131,69.4723 53.6265,69.4889 53.6443,69.5006 C53.6622,69.5122 53.6821,69.518 53.7041,69.518 C53.7202,69.518 53.7346,69.5145 53.7472,69.5077 C53.7598,69.5009 53.7701,69.4921 53.778,69.4811 L53.778,69.6138 L53.8231,69.6138 L53.8231,69.2441 Z M53.6375,69.3777 C53.6375,69.3434 53.6448,69.3178 53.6592,69.3008 C53.6737,69.2838 53.6907,69.2753 53.7104,69.2753 C53.7302,69.2753 53.7471,69.2835 53.761,69.2997 C53.7748,69.3159 53.7818,69.3407 53.7818,69.3739 C53.7818,69.4106 53.7747,69.4375 53.7606,69.4547 C53.7465,69.4718 53.7291,69.4804 53.7084,69.4804 C53.6882,69.4804 53.6714,69.4721 53.6578,69.4557 C53.6443,69.4392 53.6375,69.4132 53.6375,69.3777 M53.8777,69.378 C53.8777,69.4276 53.8915,69.4643 53.9191,69.4882 C53.9421,69.508 53.9702,69.518 54.0033,69.518 C54.0401,69.518 54.0702,69.5059 54.0936,69.4818 C54.117,69.4576 54.1287,69.4243 54.1287,69.3818 C54.1287,69.3473 54.1235,69.3202 54.1132,69.3004 C54.1028,69.2807 54.0878,69.2653 54.068,69.2544 C54.0483,69.2435 54.0267,69.238 54.0033,69.238 C53.9658,69.238 53.9355,69.25 53.9124,69.2741 C53.8893,69.2981 53.8777,69.3328 53.8777,69.378 M53.9244,69.378 C53.9244,69.3437 53.9319,69.318 53.9468,69.3009 C53.9618,69.2839 53.9806,69.2753 54.0033,69.2753 C54.0259,69.2753 54.0446,69.2839 54.0596,69.3011 C54.0745,69.3182 54.082,69.3444 54.082,69.3795 C54.082,69.4126 54.0745,69.4377 54.0594,69.4548 C54.0444,69.4718 54.0257,69.4804 54.0033,69.4804 C53.9806,69.4804 53.9618,69.4719 53.9468,69.4549 C53.9319,69.4379 53.9244,69.4123 53.9244,69.378 M54.182,69.2441 L54.182,69.5119 L54.2226,69.5119 L54.2226,69.4743 C54.231,69.4874 54.2422,69.498 54.2561,69.506 C54.2701,69.514 54.286,69.518 54.3038,69.518 C54.3237,69.518 54.3399,69.5138 54.3526,69.5056 C54.3653,69.4974 54.3743,69.4858 54.3795,69.471 C54.4007,69.5023 54.4282,69.518 54.4622,69.518 C54.4888,69.518 54.5092,69.5106 54.5235,69.4959 C54.5378,69.4812 54.5449,69.4585 54.5449,69.4279 L54.5449,69.2441 L54.4998,69.2441 L54.4998,69.4128 C54.4998,69.4309 54.4983,69.444 54.4954,69.452 C54.4924,69.46 54.4871,69.4664 54.4793,69.4713 C54.4716,69.4762 54.4625,69.4786 54.4521,69.4786 C54.4333,69.4786 54.4176,69.4723 54.4052,69.4598 C54.3928,69.4473 54.3865,69.4272 54.3865,69.3997 L54.3865,69.2441 L54.3411,69.2441 L54.3411,69.4181 C54.3411,69.4383 54.3374,69.4534 54.33,69.4635 C54.3226,69.4736 54.3105,69.4786 54.2937,69.4786 C54.2809,69.4786 54.2691,69.4752 54.2583,69.4685 C54.2474,69.4618 54.2396,69.452 54.2347,69.439 C54.2298,69.4261 54.2274,69.4074 54.2274,69.383 L54.2274,69.2441 Z M54.7557,69.2441 L54.7557,69.6138 L54.8011,69.6138 L54.8011,69.2441 Z M54.8735,69.5616 L54.8735,69.6138 L54.9189,69.6138 L54.9189,69.5616 Z M54.8735,69.2441 L54.8735,69.5119 L54.9189,69.5119 L54.9189,69.2441 Z M54.9898,69.2441 L54.9898,69.5119 L55.0306,69.5119 L55.0306,69.4738 C55.0503,69.5032 55.0787,69.518 55.1158,69.518 C55.132,69.518 55.1468,69.5151 55.1604,69.5093 C55.1739,69.5035 55.184,69.4958 55.1907,69.4864 C55.1975,69.477 55.2022,69.4658 55.2049,69.4529 C55.2066,69.4445 55.2074,69.4298 55.2074,69.4088 L55.2074,69.2441 L55.162,69.2441 L55.162,69.407 C55.162,69.4255 55.1602,69.4393 55.1567,69.4485 C55.1532,69.4576 55.1469,69.4649 55.1379,69.4704 C55.1289,69.4759 55.1184,69.4786 55.1063,69.4786 C55.0869,69.4786 55.0702,69.4725 55.0562,69.4602 C55.0422,69.4479 55.0351,69.4246 55.0351,69.3903 L55.0351,69.2441 Z M55.4605,69.3303 L55.5074,69.3245 C55.5,69.2971 55.4863,69.2758 55.4663,69.2607 C55.4463,69.2456 55.4207,69.238 55.3896,69.238 C55.3504,69.238 55.3194,69.2501 55.2964,69.2742 C55.2735,69.2983 55.262,69.3322 55.262,69.3757 C55.262,69.4208 55.2736,69.4557 55.2968,69.4806 C55.32,69.5055 55.3501,69.518 55.3871,69.518 C55.4229,69.518 55.4521,69.5058 55.4748,69.4814 C55.4975,69.457 55.5089,69.4227 55.5089,69.3785 C55.5089,69.3758 55.5088,69.3718 55.5086,69.3664 L55.3089,69.3664 C55.3106,69.337 55.3189,69.3144 55.3339,69.2988 C55.3488,69.2832 55.3675,69.2753 55.3899,69.2753 C55.4065,69.2753 55.4207,69.2797 55.4325,69.2885 C55.4442,69.2972 55.4536,69.3112 55.4605,69.3303 M55.3114,69.4037 L55.461,69.4037 C55.459,69.4262 55.4532,69.4431 55.4438,69.4544 C55.4294,69.4719 55.4106,69.4806 55.3876,69.4806 C55.3667,69.4806 55.3492,69.4736 55.335,69.4597 C55.3208,69.4457 55.3129,69.4271 55.3114,69.4037 M55.5463,69.324 L55.5912,69.3311 C55.5937,69.3131 55.6008,69.2993 55.6123,69.2897 C55.6238,69.2801 55.6399,69.2753 55.6606,69.2753 C55.6814,69.2753 55.6969,69.2796 55.707,69.2881 C55.7171,69.2966 55.7221,69.3065 55.7221,69.318 C55.7221,69.3282 55.7177,69.3363 55.7087,69.3422 C55.7025,69.3462 55.6871,69.3513 55.6623,69.3576 C55.6291,69.366 55.606,69.3732 55.5931,69.3794 C55.5803,69.3855 55.5705,69.394 55.5639,69.4048 C55.5572,69.4157 55.5539,69.4277 55.5539,69.4408 C55.5539,69.4527 55.5566,69.4638 55.5621,69.4739 C55.5676,69.4841 55.575,69.4926 55.5844,69.4993 C55.5915,69.5045 55.6011,69.5089 55.6133,69.5125 C55.6255,69.5161 55.6386,69.518 55.6525,69.518 C55.6735,69.518 55.692,69.5149 55.7079,69.5089 C55.7238,69.5028 55.7355,69.4946 55.743,69.4843 C55.7506,69.4739 55.7558,69.4601 55.7587,69.4428 L55.7143,69.4367 C55.7123,69.4505 55.7064,69.4613 55.6968,69.469 C55.6871,69.4768 55.6734,69.4806 55.6558,69.4806 C55.6349,69.4806 55.6201,69.4772 55.6112,69.4703 C55.6022,69.4634 55.5978,69.4553 55.5978,69.4461 C55.5978,69.4402 55.5996,69.4349 55.6033,69.4302 C55.607,69.4253 55.6128,69.4213 55.6207,69.4181 C55.6253,69.4164 55.6386,69.4125 55.6608,69.4065 C55.6929,69.3979 55.7153,69.3909 55.728,69.3854 C55.7407,69.38 55.7507,69.372 55.7579,69.3616 C55.7652,69.3512 55.7688,69.3382 55.7688,69.3228 C55.7688,69.3076 55.7644,69.2934 55.7555,69.28 C55.7467,69.2666 55.734,69.2563 55.7173,69.249 C55.7007,69.2417 55.6818,69.238 55.6608,69.238 C55.626,69.238 55.5995,69.2452 55.5813,69.2597 C55.563,69.2742 55.5514,69.2956 55.5463,69.324 M56.1431,69.2771 C56.1263,69.2628 56.1101,69.2527 56.0946,69.2468 C56.079,69.241 56.0624,69.238 56.0445,69.238 C56.0151,69.238 55.9925,69.2452 55.9767,69.2596 C55.9609,69.274 55.953,69.2923 55.953,69.3147 C55.953,69.3278 55.956,69.3398 55.9619,69.3506 C55.9679,69.3615 55.9757,69.3702 55.9854,69.3767 C55.9951,69.3833 56.0059,69.3882 56.0181,69.3916 C56.027,69.394 56.0404,69.3962 56.0584,69.3984 C56.0951,69.4028 56.122,69.408 56.1394,69.414 C56.1395,69.4203 56.1396,69.4242 56.1396,69.4259 C56.1396,69.4444 56.1353,69.4574 56.1267,69.465 C56.1151,69.4752 56.0979,69.4804 56.075,69.4804 C56.0537,69.4804 56.0379,69.4766 56.0278,69.4692 C56.0176,69.4617 56.0101,69.4484 56.0052,69.4294 L55.9608,69.4355 C55.9648,69.4545 55.9715,69.4698 55.9807,69.4815 C55.99,69.4932 56.0033,69.5022 56.0208,69.5085 C56.0383,69.5148 56.0586,69.518 56.0816,69.518 C56.1045,69.518 56.123,69.5153 56.1373,69.5099 C56.1516,69.5045 56.1621,69.4977 56.1689,69.4896 C56.1756,69.4814 56.1803,69.4711 56.183,69.4587 C56.1845,69.451 56.1853,69.437 56.1853,69.4168 L56.1853,69.3563 C56.1853,69.3141 56.1862,69.2874 56.1882,69.2762 C56.1901,69.265 56.1939,69.2543 56.1996,69.2441 L56.1522,69.2441 C56.1475,69.2535 56.1445,69.2645 56.1431,69.2771 M56.1394,69.3785 C56.1229,69.3718 56.0982,69.366 56.0652,69.3613 C56.0465,69.3586 56.0334,69.3556 56.0256,69.3523 C56.0179,69.3489 56.0119,69.344 56.0077,69.3375 C56.0035,69.331 56.0014,69.3238 56.0014,69.3159 C56.0014,69.3038 56.006,69.2938 56.0152,69.2857 C56.0243,69.2776 56.0377,69.2736 56.0554,69.2736 C56.0729,69.2736 56.0884,69.2774 56.102,69.2851 C56.1156,69.2927 56.1257,69.3032 56.132,69.3164 C56.1369,69.3267 56.1394,69.3418 56.1394,69.3618 Z M56.4295,69.2441 L56.4295,69.2779 C56.4125,69.2513 56.3876,69.238 56.3546,69.238 C56.3332,69.238 56.3136,69.2439 56.2957,69.2557 C56.2778,69.2674 56.2639,69.2839 56.2541,69.305 C56.2443,69.3261 56.2393,69.3503 56.2393,69.3777 C56.2393,69.4045 56.2438,69.4287 56.2527,69.4505 C56.2616,69.4723 56.275,69.4889 56.2928,69.5006 C56.3106,69.5122 56.3306,69.518 56.3526,69.518 C56.3687,69.518 56.3831,69.5145 56.3957,69.5077 C56.4083,69.5009 56.4186,69.4921 56.4265,69.4811 L56.4265,69.6138 L56.4716,69.6138 L56.4716,69.2441 Z M56.286,69.3777 C56.286,69.3434 56.2932,69.3178 56.3077,69.3008 C56.3222,69.2838 56.3392,69.2753 56.3589,69.2753 C56.3787,69.2753 56.3956,69.2835 56.4095,69.2997 C56.4233,69.3159 56.4303,69.3407 56.4303,69.3739 C56.4303,69.4106 56.4232,69.4375 56.4091,69.4547 C56.395,69.4718 56.3776,69.4804 56.3569,69.4804 C56.3367,69.4804 56.3198,69.4721 56.3063,69.4557 C56.2928,69.4392 56.286,69.4132 56.286,69.3777 M56.7169,69.2441 L56.7169,69.2779 C56.6999,69.2513 56.6749,69.238 56.642,69.238 C56.6206,69.238 56.601,69.2439 56.5831,69.2557 C56.5652,69.2674 56.5513,69.2839 56.5415,69.305 C56.5316,69.3261 56.5267,69.3503 56.5267,69.3777 C56.5267,69.4045 56.5312,69.4287 56.5401,69.4505 C56.549,69.4723 56.5624,69.4889 56.5802,69.5006 C56.598,69.5122 56.6179,69.518 56.64,69.518 C56.6561,69.518 56.6705,69.5145 56.6831,69.5077 C56.6957,69.5009 56.7059,69.4921 56.7138,69.4811 L56.7138,69.6138 L56.759,69.6138 L56.759,69.2441 Z M56.5734,69.3777 C56.5734,69.3434 56.5806,69.3178 56.5951,69.3008 C56.6095,69.2838 56.6266,69.2753 56.6463,69.2753 C56.6661,69.2753 56.683,69.2835 56.6968,69.2997 C56.7107,69.3159 56.7176,69.3407 56.7176,69.3739 C56.7176,69.4106 56.7106,69.4375 56.6964,69.4547 C56.6823,69.4718 56.6649,69.4804 56.6442,69.4804 C56.6241,69.4804 56.6072,69.4721 56.5937,69.4557 C56.5801,69.4392 56.5734,69.4132 56.5734,69.3777 M57.0138,69.3303 L57.0607,69.3245 C57.0533,69.2971 57.0396,69.2758 57.0196,69.2607 C56.9996,69.2456 56.9741,69.238 56.943,69.238 C56.9038,69.238 56.8727,69.2501 56.8498,69.2742 C56.8268,69.2983 56.8154,69.3322 56.8154,69.3757 C56.8154,69.4208 56.827,69.4557 56.8502,69.4806 C56.8734,69.5055 56.9035,69.518 56.9404,69.518 C56.9763,69.518 57.0055,69.5058 57.0282,69.4814 C57.0509,69.457 57.0623,69.4227 57.0623,69.3785 C57.0623,69.3758 57.0622,69.3718 57.062,69.3664 L56.8623,69.3664 C56.8639,69.337 56.8723,69.3144 56.8872,69.2988 C56.9022,69.2832 56.9209,69.2753 56.9432,69.2753 C56.9599,69.2753 56.9741,69.2797 56.9858,69.2885 C56.9976,69.2972 57.0069,69.3112 57.0138,69.3303 M56.8648,69.4037 L57.0143,69.4037 C57.0123,69.4262 57.0066,69.4431 56.9972,69.4544 C56.9827,69.4719 56.964,69.4806 56.9409,69.4806 C56.9201,69.4806 56.9026,69.4736 56.8884,69.4597 C56.8742,69.4457 56.8663,69.4271 56.8648,69.4037 M57.2916,69.2441 L57.2916,69.2779 C57.2746,69.2513 57.2497,69.238 57.2167,69.238 C57.1954,69.238 57.1757,69.2439 57.1578,69.2557 C57.1399,69.2674 57.1261,69.2839 57.1162,69.305 C57.1064,69.3261 57.1015,69.3503 57.1015,69.3777 C57.1015,69.4045 57.1059,69.4287 57.1148,69.4505 C57.1237,69.4723 57.1371,69.4889 57.1549,69.5006 C57.1728,69.5122 57.1927,69.518 57.2147,69.518 C57.2308,69.518 57.2452,69.5145 57.2578,69.5077 C57.2704,69.5009 57.2807,69.4921 57.2886,69.4811 L57.2886,69.6138 L57.3337,69.6138 L57.3337,69.2441 Z M57.1481,69.3777 C57.1481,69.3434 57.1553,69.3178 57.1698,69.3008 C57.1843,69.2838 57.2013,69.2753 57.221,69.2753 C57.2408,69.2753 57.2577,69.2835 57.2716,69.2997 C57.2854,69.3159 57.2924,69.3407 57.2924,69.3739 C57.2924,69.4106 57.2853,69.4375 57.2712,69.4547 C57.2571,69.4718 57.2397,69.4804 57.219,69.4804 C57.1988,69.4804 57.182,69.4721 57.1684,69.4557 C57.1549,69.4392 57.1481,69.4132 57.1481,69.3777" style="fill:#dd0000;fill-rule:evenodd;"/>
        </g>
        <!-- Линия -->
        <path d="M108.457,68.3698 L70.8654,51.0246 " style="stroke:#000000;stroke-width:0.25;"/>
        <!-- Линия -->
        <path d="M92.6834,40.2077 L83.913,72.3762 " style="stroke:#000000;stroke-width:0.25;"/>
        <!-- Линия -->
        <path d="M77.6069,80.8625 L32.0358,55.0232 " style="stroke:#000000;stroke-width:0.25;"/>
    </g>
</svg>
