%TF.GenerationSoftware,KiCad,Pcbnew,(6.0.4)*%
%TF.CreationDate,2023-04-20T20:53:16+03:00*%
%TF.ProjectId,mp3_test_board,6d70335f-7465-4737-945f-626f6172642e,rev?*%
%TF.SameCoordinates,Original*%
%TF.FileFunction,Copper,L2,Inr*%
%TF.FilePolarity,Positive*%
%FSLAX46Y46*%
G04 Gerber Fmt 4.6, Leading zero omitted, Abs format (unit mm)*
G04 Created by KiCad (PCBNEW (6.0.4)) date 2023-04-20 20:53:16*
%MOMM*%
%LPD*%
G01*
G04 APERTURE LIST*
%TA.AperFunction,Profile*%
%ADD10C,0.250000*%
%TD*%
%TA.AperFunction,ComponentPad*%
%ADD11C,1.000000*%
%TD*%
%TA.AperFunction,ComponentPad*%
%ADD12C,0.800000*%
%TD*%
%TA.AperFunction,ComponentPad*%
%ADD13C,5.000000*%
%TD*%
%TA.AperFunction,ComponentPad*%
%ADD14O,1.500000X2.500000*%
%TD*%
%TA.AperFunction,ComponentPad*%
%ADD15O,2.500000X1.500000*%
%TD*%
%TA.AperFunction,ComponentPad*%
%ADD16O,1.600000X1.000000*%
%TD*%
%TA.AperFunction,ComponentPad*%
%ADD17O,2.100000X1.000000*%
%TD*%
%TA.AperFunction,ViaPad*%
%ADD18C,0.685800*%
%TD*%
%TA.AperFunction,ViaPad*%
%ADD19C,0.800000*%
%TD*%
%TA.AperFunction,Conductor*%
%ADD20C,1.016000*%
%TD*%
%TA.AperFunction,Conductor*%
%ADD21C,1.000000*%
%TD*%
%TA.AperFunction,Conductor*%
%ADD22C,0.800000*%
%TD*%
%TA.AperFunction,Conductor*%
%ADD23C,0.508000*%
%TD*%
%TA.AperFunction,Conductor*%
%ADD24C,0.127000*%
%TD*%
%TA.AperFunction,Conductor*%
%ADD25C,0.762000*%
%TD*%
%TA.AperFunction,Conductor*%
%ADD26C,0.250000*%
%TD*%
G04 APERTURE END LIST*
D10*
X173467769Y-99232295D02*
G75*
G03*
X175960000Y-96750000I-93569J2586195D01*
G01*
X175960001Y-45750000D02*
G75*
G03*
X173467767Y-43232233I-2528101J-10100D01*
G01*
X78967767Y-43232167D02*
G75*
G03*
X76467767Y-45732233I33J-2500033D01*
G01*
X76467767Y-45732233D02*
X76467767Y-96732233D01*
X78967767Y-99232233D02*
X173467767Y-99232233D01*
X175960000Y-96750000D02*
X175960000Y-45750000D01*
X173467767Y-43232233D02*
X78967767Y-43232233D01*
X76467767Y-96732233D02*
G75*
G03*
X78967767Y-99232233I2500033J33D01*
G01*
D11*
%TO.N,*%
%TO.C,SW7*%
X110150000Y-97852500D03*
X107850000Y-97852500D03*
%TD*%
%TO.N,*%
%TO.C,SW6*%
X100550000Y-97780000D03*
X98250000Y-97780000D03*
%TD*%
D12*
%TO.N,N/C*%
%TO.C,H4*%
X172400000Y-44825000D03*
X171074175Y-48025825D03*
X173725825Y-45374175D03*
X171074175Y-45374175D03*
D13*
X172400000Y-46700000D03*
D12*
X174275000Y-46700000D03*
X172400000Y-48575000D03*
X173725825Y-48025825D03*
X170525000Y-46700000D03*
%TD*%
%TO.N,N/C*%
%TO.C,H2*%
X79900000Y-44825000D03*
X81225825Y-45374175D03*
X81225825Y-48025825D03*
D13*
X79900000Y-46700000D03*
D12*
X79900000Y-48575000D03*
X78574175Y-45374175D03*
X78574175Y-48025825D03*
X81775000Y-46700000D03*
X78025000Y-46700000D03*
%TD*%
%TO.N,N/C*%
%TO.C,H1*%
X78574175Y-97025825D03*
X78025000Y-95700000D03*
X78574175Y-94374175D03*
D13*
X79900000Y-95700000D03*
D12*
X81225825Y-97025825D03*
X81775000Y-95700000D03*
X79900000Y-93825000D03*
X81225825Y-94374175D03*
X79900000Y-97575000D03*
%TD*%
D11*
%TO.N,*%
%TO.C,SW8*%
X88350000Y-97780000D03*
X90650000Y-97780000D03*
%TD*%
D12*
%TO.N,N/C*%
%TO.C,H3*%
X171074175Y-94374175D03*
X171074175Y-97025825D03*
X173725825Y-97025825D03*
X173725825Y-94374175D03*
X172400000Y-93825000D03*
X174275000Y-95700000D03*
X170525000Y-95700000D03*
X172400000Y-97575000D03*
D13*
X172400000Y-95700000D03*
%TD*%
D14*
%TO.N,GND*%
%TO.C,J2*%
X163395000Y-87100000D03*
D15*
%TO.N,unconnected-(J2-Pad2)*%
X164295000Y-84450000D03*
%TO.N,Net-(D10-Pad2)*%
X172295000Y-83900000D03*
X172295000Y-90300000D03*
%TO.N,Net-(D9-Pad2)*%
X164295000Y-89750000D03*
%TD*%
D16*
%TO.N,GND*%
%TO.C,P2*%
X174505000Y-50750000D03*
D17*
X170325000Y-50750000D03*
X170325000Y-59390000D03*
D16*
X174505000Y-59390000D03*
%TD*%
D18*
%TO.N,+3V3*%
X133961747Y-88173555D03*
X107042700Y-64123938D03*
X94301140Y-90939455D03*
X84800000Y-51400000D03*
X154722700Y-50803938D03*
X83641747Y-92880055D03*
X152550000Y-50800000D03*
X103721408Y-80873216D03*
X139200000Y-48100000D03*
X102800000Y-64200000D03*
X112946020Y-52603980D03*
X94190000Y-81420000D03*
X91780000Y-60500000D03*
X96371564Y-61171564D03*
X101862358Y-80364166D03*
X119011747Y-85198555D03*
X153689132Y-50800000D03*
X115741747Y-85189949D03*
X110363806Y-63391630D03*
X88461747Y-81043555D03*
X153689132Y-50800000D03*
X79905000Y-63695000D03*
X136425747Y-97171555D03*
X154533762Y-51995000D03*
X103806445Y-92393555D03*
%TO.N,GND*%
X151807700Y-93478938D03*
X87870000Y-70420000D03*
X117082700Y-54803938D03*
X90870000Y-68920000D03*
X95531747Y-94063555D03*
X98942700Y-58783938D03*
X103301747Y-94783555D03*
X79030000Y-53570000D03*
X79203364Y-60413938D03*
X148900000Y-49300000D03*
X164032700Y-71143938D03*
X83640000Y-94830000D03*
X78812700Y-69833938D03*
X81182900Y-82920000D03*
X88208280Y-60143328D03*
X153991747Y-55863555D03*
X163570000Y-76630000D03*
X148900000Y-50300000D03*
X94161747Y-94373555D03*
X167732462Y-58793700D03*
X114740000Y-68990000D03*
X134950400Y-88922876D03*
X90870000Y-73420000D03*
X151411747Y-85487555D03*
X154010000Y-57300000D03*
X98942700Y-57873938D03*
X138243761Y-50924999D03*
X173601638Y-76325000D03*
X83141747Y-87650555D03*
X175500000Y-66900000D03*
X106672700Y-44293938D03*
X114740000Y-66520000D03*
X150800000Y-60000000D03*
X77992327Y-76792387D03*
X137750000Y-71400421D03*
X112670000Y-94310000D03*
X106660000Y-54090000D03*
X151800000Y-60000000D03*
X114730000Y-67750000D03*
X90870000Y-70420000D03*
X167665900Y-51100000D03*
X161672700Y-51513938D03*
X162482700Y-51533938D03*
X135878600Y-82725370D03*
X165934700Y-68513938D03*
X87870000Y-71920000D03*
X135750000Y-75425000D03*
X149000000Y-60000000D03*
X148900000Y-51300000D03*
X92370000Y-73420000D03*
X92370000Y-70420000D03*
X164012700Y-68433938D03*
X116058762Y-48100000D03*
X164972700Y-71143938D03*
X146900000Y-49300000D03*
X124900000Y-78386638D03*
X165032700Y-68463938D03*
X160992700Y-69373938D03*
X105166842Y-82718650D03*
X88665115Y-82395115D03*
X106860000Y-50040000D03*
X87870000Y-68920000D03*
X146900000Y-51300000D03*
X106421747Y-82719150D03*
X114341747Y-94318555D03*
X103802700Y-69303938D03*
X90870000Y-71920000D03*
X91880000Y-82440000D03*
X79000000Y-51200000D03*
X160100500Y-80200000D03*
X123800000Y-49200000D03*
X103782700Y-65463938D03*
X102620000Y-56730000D03*
X103782700Y-68153938D03*
X77738032Y-74522857D03*
X147900000Y-51300000D03*
X92370000Y-71920000D03*
X144800000Y-82875000D03*
X155330000Y-55110000D03*
X153175000Y-82775000D03*
X168035500Y-68853938D03*
X106830000Y-95120000D03*
X146900000Y-50300000D03*
X139400000Y-51700000D03*
X78420000Y-63540000D03*
X125235000Y-66956238D03*
X99020000Y-96676555D03*
X168700000Y-64400000D03*
X106721747Y-46203555D03*
X87870000Y-73420000D03*
X108210000Y-81740000D03*
X135409747Y-86249555D03*
X89370000Y-70420000D03*
X162000000Y-56200000D03*
X86944149Y-91229149D03*
X151157747Y-89551555D03*
X150300000Y-82775000D03*
X135412700Y-48653938D03*
X149900000Y-60000000D03*
X133771747Y-91403555D03*
X153600000Y-71500000D03*
X165772700Y-71153938D03*
X159582700Y-57773938D03*
X148000000Y-60000000D03*
X147900000Y-49300000D03*
X82091747Y-87803555D03*
X143381747Y-46533555D03*
X101746200Y-49146200D03*
X106542700Y-48243938D03*
X136325000Y-64910000D03*
X94231747Y-85963555D03*
X78321747Y-91071745D03*
X85921400Y-49200000D03*
X89370000Y-73420000D03*
X115804381Y-44795619D03*
X95501747Y-92962400D03*
X147900000Y-50300000D03*
X136292700Y-48663938D03*
X151411747Y-95393555D03*
X85371747Y-56023555D03*
X101625371Y-77086891D03*
X103950000Y-91430000D03*
X114740000Y-65400000D03*
X117201747Y-85189949D03*
X134592700Y-48633938D03*
X146607700Y-89478938D03*
X150335000Y-71420000D03*
X107420000Y-84814155D03*
X94420000Y-97680000D03*
X163570000Y-76630000D03*
X89370000Y-68920000D03*
X85747828Y-77291808D03*
X154040967Y-58498576D03*
X106700000Y-52410000D03*
X144625000Y-71450000D03*
X102800000Y-62000000D03*
X89370000Y-71920000D03*
X92370000Y-68920000D03*
%TO.N,+1V8A*%
X99339147Y-79018736D03*
X85745602Y-80066863D03*
X91140719Y-61659100D03*
%TO.N,Net-(C5-Pad2)*%
X84467800Y-60592797D03*
X92388385Y-65976917D03*
%TO.N,Net-(C6-Pad2)*%
X85057836Y-59932782D03*
X93201747Y-65563555D03*
%TO.N,VBUS*%
X159252700Y-53873938D03*
X160242700Y-53873938D03*
X167472700Y-56093938D03*
X158232700Y-53893938D03*
X142843193Y-50244431D03*
%TO.N,+5VA*%
X157682100Y-72403600D03*
X148607700Y-95752276D03*
X162760000Y-65540000D03*
X134750000Y-71200000D03*
X163800000Y-74190000D03*
X149007700Y-92878938D03*
X154582700Y-84153938D03*
X146607700Y-86078938D03*
X163790000Y-75020000D03*
X134836200Y-82000000D03*
X148907700Y-90378938D03*
X162760000Y-64552141D03*
%TO.N,-5VA*%
X164651747Y-79583555D03*
X165452700Y-80523938D03*
X166402700Y-79553938D03*
X165472700Y-79533938D03*
X125154539Y-74382100D03*
X160290000Y-65350000D03*
X155050000Y-78550000D03*
X125300000Y-63075000D03*
%TO.N,Net-(C61-Pad1)*%
X141224102Y-55432536D03*
X143106209Y-51662961D03*
X140212700Y-54513938D03*
X141150000Y-54500000D03*
%TO.N,Net-(R53-Pad1)*%
X99400000Y-70200000D03*
X104972700Y-68753938D03*
%TO.N,VCC*%
X166902700Y-60563938D03*
X153512700Y-47633938D03*
X149182700Y-55203938D03*
X167702700Y-60563938D03*
X151411747Y-56093938D03*
X152312700Y-55233938D03*
X144439288Y-50765514D03*
X152302700Y-56053938D03*
%TO.N,/SOC/SDC_D1*%
X88430000Y-56220000D03*
%TO.N,/SOC/SDC_D0*%
X90103854Y-56365910D03*
%TO.N,/SOC/SDC_CLK*%
X91852700Y-56303938D03*
X87822731Y-60940267D03*
%TO.N,/SOC/SDC_CMD*%
X93830000Y-56250000D03*
X88856230Y-60965924D03*
%TO.N,/SOC/SDC_D3*%
X88777366Y-61901661D03*
X94685717Y-56476951D03*
%TO.N,/SOC/SDC_D2*%
X89907331Y-61628569D03*
X95687115Y-56621476D03*
%TO.N,Net-(D10-Pad2)*%
X155082700Y-93953938D03*
X158682700Y-87153938D03*
%TO.N,Net-(D12-Pad1)*%
X126771747Y-84243555D03*
D19*
X129010000Y-59870000D03*
D18*
X130556000Y-58420000D03*
X127025302Y-95610000D03*
X104840000Y-93550000D03*
%TO.N,/SOC/LCD_RS*%
X103603143Y-78948866D03*
X110353230Y-76186770D03*
%TO.N,/SOC/LCD_WR*%
X106463868Y-76258911D03*
X102610679Y-77859321D03*
%TO.N,/SOC/LCD_RD*%
X103410000Y-75040000D03*
X106530000Y-74990000D03*
%TO.N,/SOC/LCD_D3*%
X101991564Y-74478436D03*
X105736110Y-74384100D03*
%TO.N,/SOC/LCD_D4*%
X110193653Y-74382875D03*
X104090000Y-75950000D03*
%TO.N,/SOC/LCD_D5*%
X110860000Y-73800000D03*
X105470000Y-77575900D03*
%TO.N,/SOC/LCD_D6*%
X104530000Y-78380000D03*
X111140000Y-72830000D03*
%TO.N,/SOC/LCD_D7*%
X106440000Y-72950000D03*
X100150000Y-76170000D03*
%TO.N,/SOC/LCD_D10*%
X100038217Y-77048215D03*
X106640154Y-72022937D03*
%TO.N,/SOC/LCD_D11*%
X106240000Y-71130000D03*
X99160000Y-77160000D03*
%TO.N,/SOC/LCD_D12*%
X106539408Y-70296864D03*
X96391747Y-76213555D03*
%TO.N,Net-(P2-PadA7)*%
X167590000Y-57280000D03*
X167650000Y-54370000D03*
%TO.N,/SOC/LCD_PWM*%
X99430000Y-67950895D03*
X121100000Y-54100000D03*
%TO.N,/SOC/KEYS*%
X78497915Y-78910430D03*
X99517247Y-93383094D03*
X99110000Y-95030000D03*
X104630000Y-96280000D03*
%TO.N,/SOC/FLASH_SPI_CS*%
X122191747Y-94648555D03*
X118281747Y-91278555D03*
X90111747Y-65993555D03*
%TO.N,Net-(R7-Pad1)*%
X112438694Y-96552500D03*
X154205747Y-92853555D03*
%TO.N,Net-(R10-Pad1)*%
X152935747Y-88027555D03*
%TO.N,Net-(R10-Pad2)*%
X154915724Y-60640400D03*
X151411747Y-83963555D03*
%TO.N,Net-(R11-Pad2)*%
X157563266Y-57108938D03*
%TO.N,Net-(R12-Pad2)*%
X159720000Y-61564338D03*
%TO.N,/SOC/USB_DM*%
X128800000Y-45300000D03*
X97882700Y-55603938D03*
X83760000Y-70920000D03*
X166532700Y-58753938D03*
%TO.N,/SOC/USB_DP*%
X97882700Y-56489241D03*
X83888691Y-69420000D03*
X129667090Y-45478652D03*
X166596256Y-53603826D03*
%TO.N,Net-(C41-Pad1)*%
X142740400Y-93682876D03*
X130647130Y-68187206D03*
%TO.N,Net-(C42-Pad1)*%
X131950000Y-81400000D03*
X142340400Y-88282876D03*
X128350000Y-79400000D03*
%TO.N,Net-(C43-Pad1)*%
X133299500Y-77403938D03*
X141740400Y-89282876D03*
%TO.N,Net-(C44-Pad1)*%
X142790400Y-95032876D03*
X131750000Y-64600000D03*
X133291500Y-67400000D03*
%TO.N,Net-(C49-Pad2)*%
X154915456Y-68551764D03*
X143808191Y-64328447D03*
%TO.N,Net-(C51-Pad2)*%
X153000000Y-75000000D03*
X154800000Y-80800000D03*
%TO.N,/NewDAC/I2C_SCL*%
X137432700Y-48253938D03*
X137189927Y-45311165D03*
X124069069Y-56729083D03*
X136332700Y-88753938D03*
X86998311Y-77326991D03*
%TO.N,/NewDAC/I2C_SDIN*%
X144400000Y-47400000D03*
X136164573Y-89572143D03*
X86390691Y-76683129D03*
X124896874Y-56840750D03*
%TO.N,/Power/AUDIO_PWR_EN*%
X174200000Y-72800000D03*
X95361747Y-76563555D03*
%TO.N,DEBUG_UART_RX*%
X121400000Y-49000000D03*
X99880000Y-63540000D03*
%TO.N,DEBUG_UART_TX*%
X119800000Y-49000000D03*
X99569393Y-65544814D03*
%TO.N,/SOC/FLASH_SPI_MOSI*%
X89081747Y-65963555D03*
X115221747Y-91464455D03*
%TO.N,/NewDAC/I2S_MCLK*%
X134971564Y-92271564D03*
X112020000Y-86220000D03*
%TO.N,/SOC/FLASH_SPI_HOLD*%
X85821747Y-65803555D03*
X110181747Y-92445455D03*
%TO.N,/SOC/FLASH_SPI_WP*%
X87101747Y-65833555D03*
X122011747Y-91208555D03*
%TO.N,/SOC/FLASH_SPI_CLK*%
X111543100Y-90188555D03*
X91151747Y-65993555D03*
%TO.N,/NewDAC/I2S_LRCK*%
X110160000Y-88150000D03*
X135030000Y-94135900D03*
X91820959Y-76471537D03*
%TO.N,/NewDAC/I2S_BCLK*%
X136273997Y-92485338D03*
X89725481Y-76798038D03*
%TO.N,/NewDAC/I2S_DIN*%
X135780000Y-93220000D03*
X90611862Y-76798038D03*
%TO.N,/Power/IRQ*%
X143345000Y-49105900D03*
X143442322Y-53022870D03*
%TO.N,+1V8B*%
X100000000Y-67200000D03*
X98967745Y-60942861D03*
%TO.N,+0V9*%
X81260000Y-79920000D03*
X145800000Y-60100000D03*
X144600000Y-57600000D03*
X91255092Y-81637264D03*
X80884847Y-72793555D03*
X100050955Y-71605900D03*
X144662700Y-58613938D03*
%TO.N,/SOC/FLASH_SPI_MISO*%
X88061747Y-65903555D03*
X119331747Y-91148555D03*
%TO.N,/Power/PWR_KEY*%
X95866195Y-64657643D03*
D19*
X107190000Y-57500000D03*
D18*
%TO.N,Net-(C76-Pad2)*%
X80920000Y-87650555D03*
X87270000Y-88716555D03*
%TO.N,Net-(C60-Pad1)*%
X107321747Y-87798555D03*
X98899644Y-86090356D03*
%TO.N,/SOC/WIFI_SDIO_CMD*%
X90001747Y-87383555D03*
X80234638Y-69480871D03*
X99307816Y-89588936D03*
%TO.N,/SOC/WIFI_SDIO_D0*%
X92165183Y-88690119D03*
X79523906Y-68953025D03*
X99277281Y-88704160D03*
%TO.N,/SOC/WIFI_SDIO_CLK*%
X78791009Y-68347125D03*
X91817721Y-87485785D03*
%TO.N,/SOC/WIFI_SDIO_D1*%
X79513004Y-67426584D03*
X93051747Y-87543555D03*
X99287165Y-86963756D03*
%TO.N,/SOC/WIFI_SDIO_D2*%
X88391747Y-87063555D03*
X99206024Y-90468367D03*
X80260000Y-65920000D03*
%TO.N,/SOC/WIFI_SDIO_D3*%
X78584186Y-66744186D03*
X88261747Y-88143555D03*
X99191747Y-91353555D03*
%TO.N,Net-(L1-Pad1)*%
X95568398Y-86095896D03*
X107029180Y-86257655D03*
%TO.N,Net-(P1-Pad38)*%
X115254264Y-54575502D03*
X110372700Y-62283938D03*
%TO.N,Net-(R13-Pad2)*%
X160842700Y-56233938D03*
%TO.N,/SOC/WIFI_REG_ON*%
X83365698Y-84656655D03*
X84089420Y-66383555D03*
%TD*%
D20*
%TO.N,+3V3*%
X102800000Y-64200000D02*
X109555436Y-64200000D01*
D21*
X81241747Y-70631747D02*
X79668253Y-70631747D01*
X79905000Y-63695000D02*
X81105000Y-63695000D01*
D22*
X96082700Y-58203938D02*
X92396062Y-58203938D01*
D21*
X94482358Y-80364166D02*
X89141136Y-80364166D01*
D23*
X94190000Y-80656524D02*
X94482358Y-80364166D01*
D21*
X82960000Y-92760000D02*
X79530000Y-89330000D01*
X81277538Y-70477538D02*
X81277538Y-63695000D01*
X101862358Y-80364166D02*
X103272358Y-80364166D01*
X79530000Y-89330000D02*
X79530000Y-86390000D01*
X85768687Y-82385679D02*
X87119623Y-82385679D01*
D22*
X91780000Y-58820000D02*
X91780000Y-60500000D01*
D20*
X84200000Y-52000000D02*
X84897580Y-51302420D01*
X103000000Y-51200000D02*
X111542040Y-51200000D01*
X119020000Y-85206808D02*
X119020000Y-87230000D01*
X119020000Y-87230000D02*
X118850000Y-87400000D01*
D21*
X82800000Y-72190000D02*
X82800000Y-79416992D01*
X115590000Y-87400000D02*
X115740000Y-87250000D01*
X101862358Y-80364166D02*
X94482358Y-80364166D01*
D24*
X96082700Y-58203938D02*
X95796062Y-58203938D01*
D21*
X112830000Y-87400000D02*
X113650000Y-87400000D01*
D20*
X136425747Y-97171555D02*
X133123747Y-97171555D01*
X133188192Y-87400000D02*
X133961747Y-88173555D01*
D25*
X92961995Y-57761995D02*
X92910000Y-57710000D01*
D20*
X112946020Y-52603980D02*
X134696020Y-52603980D01*
D21*
X105401747Y-92393555D02*
X106715302Y-91080000D01*
D20*
X128200000Y-95791238D02*
X128200000Y-89341238D01*
D21*
X89178762Y-90960000D02*
X87378762Y-92760000D01*
D20*
X152550000Y-50800000D02*
X154726638Y-50800000D01*
X85100000Y-51200000D02*
X91000000Y-51200000D01*
D24*
X114600000Y-87370000D02*
X114570000Y-87400000D01*
D25*
X93000000Y-53200000D02*
X92900000Y-53300000D01*
D20*
X128200000Y-89341238D02*
X126258762Y-87400000D01*
D24*
X113971747Y-87078253D02*
X113650000Y-87400000D01*
D21*
X82800000Y-79416992D02*
X85768687Y-82385679D01*
X81277538Y-63695000D02*
X79789101Y-63695000D01*
D22*
X96371564Y-58492802D02*
X96082700Y-58203938D01*
D21*
X79668253Y-70631747D02*
X79509100Y-70790900D01*
D20*
X119011747Y-85198555D02*
X119020000Y-85206808D01*
X91000000Y-51200000D02*
X103000000Y-51200000D01*
D21*
X81200000Y-61200000D02*
X84200000Y-58200000D01*
D20*
X91000000Y-51200000D02*
X93000000Y-53200000D01*
D22*
X92396062Y-58203938D02*
X91780000Y-58820000D01*
D21*
X114570000Y-87400000D02*
X113650000Y-87400000D01*
D20*
X111542040Y-51200000D02*
X112946020Y-52603980D01*
D21*
X89141136Y-80364166D02*
X88461747Y-81043555D01*
D22*
X96371564Y-61171564D02*
X96371564Y-58492802D01*
D20*
X134696020Y-52603980D02*
X139200000Y-48100000D01*
X109555436Y-64200000D02*
X110363806Y-63391630D01*
D21*
X87119623Y-82385679D02*
X88461747Y-81043555D01*
D25*
X92900000Y-53300000D02*
X92900000Y-55744995D01*
D20*
X126258762Y-87400000D02*
X133188192Y-87400000D01*
X129580317Y-97171555D02*
X128200000Y-95791238D01*
D21*
X154726638Y-50800000D02*
X154722700Y-50803938D01*
X115590000Y-87400000D02*
X118850000Y-87400000D01*
X95328192Y-90960000D02*
X89178762Y-90960000D01*
X115740000Y-85191696D02*
X115741747Y-85189949D01*
D24*
X85100000Y-51302420D02*
X85100000Y-51200000D01*
D23*
X79530000Y-83405302D02*
X79530000Y-86390000D01*
D21*
X96761747Y-92393555D02*
X95328192Y-90960000D01*
X114570000Y-87400000D02*
X115590000Y-87400000D01*
D24*
X93000000Y-55844995D02*
X92961995Y-55883000D01*
D23*
X79861747Y-83073555D02*
X79530000Y-83405302D01*
D21*
X154726638Y-50800000D02*
X154907598Y-50619040D01*
X81200000Y-63600000D02*
X81200000Y-61200000D01*
D25*
X92910000Y-57710000D02*
X92910000Y-55934995D01*
D21*
X79509100Y-74303938D02*
X79530000Y-74324838D01*
X79530000Y-74324838D02*
X79530000Y-86390000D01*
D23*
X94190000Y-81420000D02*
X94190000Y-80656524D01*
D21*
X87378762Y-92760000D02*
X82960000Y-92760000D01*
D24*
X79789101Y-63695000D02*
X79905000Y-63695000D01*
D25*
X96761747Y-92393555D02*
X105401747Y-92393555D01*
D21*
X106715302Y-91080000D02*
X109150000Y-91080000D01*
X109150000Y-91080000D02*
X112830000Y-87400000D01*
D24*
X104200000Y-51200000D02*
X103000000Y-51200000D01*
D20*
X104000000Y-63000000D02*
X104000000Y-51400000D01*
X141900000Y-45400000D02*
X139200000Y-48100000D01*
X154907598Y-46707598D02*
X153600000Y-45400000D01*
X84200000Y-58200000D02*
X84200000Y-52000000D01*
D21*
X84897580Y-51302420D02*
X85100000Y-51302420D01*
D20*
X153600000Y-45400000D02*
X141900000Y-45400000D01*
D21*
X115740000Y-87250000D02*
X115740000Y-85191696D01*
D20*
X104000000Y-64200000D02*
X104000000Y-63000000D01*
D24*
X94566952Y-80448760D02*
X94482358Y-80364166D01*
D20*
X102800000Y-64200000D02*
X104000000Y-64200000D01*
D21*
X81241747Y-70631747D02*
X82800000Y-72190000D01*
X104000000Y-51400000D02*
X104200000Y-51200000D01*
D20*
X133123747Y-97171555D02*
X129580317Y-97171555D01*
D21*
X81241747Y-70093555D02*
X81241747Y-70631747D01*
X81105000Y-63695000D02*
X81200000Y-63600000D01*
D26*
X92934995Y-55910000D02*
X92961995Y-55883000D01*
D21*
X103272358Y-80364166D02*
X103799911Y-80891719D01*
X118850000Y-87400000D02*
X126258762Y-87400000D01*
X79509100Y-70790900D02*
X79509100Y-74303938D01*
D20*
X154907598Y-50619040D02*
X154907598Y-46707598D01*
D24*
%TO.N,GND*%
X117241747Y-85083555D02*
X117241747Y-85173555D01*
D22*
%TO.N,+1V8A*%
X99320411Y-79000000D02*
X99339147Y-79018736D01*
X85745602Y-80066863D02*
X87443137Y-80066863D01*
X97400000Y-79000000D02*
X97400000Y-67850000D01*
X87443137Y-80066863D02*
X88510000Y-79000000D01*
X91209100Y-61659100D02*
X91140719Y-61659100D01*
X88510000Y-79000000D02*
X99320411Y-79000000D01*
X97400000Y-67850000D02*
X91209100Y-61659100D01*
D20*
%TO.N,VBUS*%
X141564214Y-51523410D02*
X141564214Y-52835452D01*
D25*
X150395747Y-55769555D02*
X150395747Y-54784253D01*
D20*
X167472700Y-56093938D02*
X165241896Y-53863134D01*
X142843193Y-50244431D02*
X141564214Y-51523410D01*
X141564214Y-52835452D02*
X145179084Y-56450322D01*
X158263504Y-53863134D02*
X158232700Y-53893938D01*
X152017364Y-53893938D02*
X158232700Y-53893938D01*
D25*
X149714980Y-56450322D02*
X150395747Y-55769555D01*
D20*
X165241896Y-53863134D02*
X158263504Y-53863134D01*
D25*
X150395747Y-54784253D02*
X151286062Y-53893938D01*
D20*
X145179084Y-56450322D02*
X149714980Y-56450322D01*
D25*
X151286062Y-53893938D02*
X152017364Y-53893938D01*
D20*
%TO.N,+5VA*%
X144550000Y-91000000D02*
X144250000Y-90700000D01*
D21*
X144282700Y-87502508D02*
X144282700Y-90667300D01*
D20*
X147283747Y-91000000D02*
X147800000Y-91000000D01*
D21*
X134836200Y-84036200D02*
X137200000Y-86400000D01*
D20*
X148474317Y-92345555D02*
X149007700Y-92878938D01*
D21*
X137200000Y-86400000D02*
X143180192Y-86400000D01*
X143180192Y-86400000D02*
X144282700Y-87502508D01*
X144282700Y-87502508D02*
X145184130Y-87502508D01*
D20*
X154582700Y-84217300D02*
X147800000Y-91000000D01*
X162890000Y-72050000D02*
X163790000Y-72950000D01*
D21*
X138896062Y-67053938D02*
X151862700Y-67053938D01*
D23*
X162536400Y-72403600D02*
X162890000Y-72050000D01*
D21*
X151862700Y-67053938D02*
X157212362Y-72403600D01*
X134750000Y-71200000D02*
X138896062Y-67053938D01*
D20*
X163850000Y-73320000D02*
X163850000Y-74858319D01*
X162890000Y-65670000D02*
X162890000Y-72050000D01*
D26*
X148363747Y-92345555D02*
X148474317Y-92345555D01*
D21*
X134836200Y-82000000D02*
X134836200Y-84036200D01*
D20*
X147283747Y-91265555D02*
X147283747Y-91000000D01*
D21*
X157212362Y-72403600D02*
X157682100Y-72403600D01*
D20*
X147800000Y-91000000D02*
X144550000Y-91000000D01*
D23*
X148607700Y-95752276D02*
X148607700Y-93278938D01*
D20*
X154582700Y-84153938D02*
X154582700Y-84217300D01*
X162760000Y-64552141D02*
X162760000Y-65540000D01*
X162760000Y-65540000D02*
X162890000Y-65670000D01*
X154582700Y-84125619D02*
X154582700Y-84153938D01*
X144350000Y-90800000D02*
X144250000Y-90700000D01*
D21*
X145184130Y-87502508D02*
X146607700Y-86078938D01*
D20*
X157682100Y-72403600D02*
X162536400Y-72403600D01*
X163790000Y-72950000D02*
X163790000Y-75020000D01*
D23*
X148607700Y-93278938D02*
X149007700Y-92878938D01*
D20*
X163850000Y-74858319D02*
X154582700Y-84125619D01*
X148363747Y-92345555D02*
X147283747Y-91265555D01*
%TO.N,-5VA*%
X160290000Y-64160000D02*
X161375000Y-63075000D01*
X124100000Y-73327561D02*
X124100000Y-64275000D01*
X140582100Y-74382100D02*
X144750000Y-78550000D01*
X160290000Y-65350000D02*
X160290000Y-64160000D01*
D23*
X164512700Y-79553938D02*
X164542317Y-79583555D01*
X164542317Y-79583555D02*
X164651747Y-79583555D01*
D20*
X164045000Y-63075000D02*
X166985100Y-66015100D01*
X125154539Y-74382100D02*
X124100000Y-73327561D01*
X166402700Y-79553938D02*
X164512700Y-79553938D01*
X125154539Y-74382100D02*
X140582100Y-74382100D01*
X166985100Y-79194900D02*
X166596445Y-79583555D01*
X144750000Y-78550000D02*
X155050000Y-78550000D01*
X125300000Y-63075000D02*
X161375000Y-63075000D01*
X161375000Y-63075000D02*
X164045000Y-63075000D01*
X166985100Y-66015100D02*
X166985100Y-79194900D01*
X166596445Y-79583555D02*
X164651747Y-79583555D01*
X124100000Y-64275000D02*
X125300000Y-63075000D01*
D21*
%TO.N,VCC*%
X144439288Y-50765514D02*
X144439288Y-51224050D01*
D20*
X144439288Y-51224050D02*
X148419176Y-55203938D01*
X146546062Y-47633938D02*
X153512700Y-47633938D01*
X157223938Y-60563938D02*
X167702700Y-60563938D01*
X156250000Y-59590000D02*
X157223938Y-60563938D01*
D24*
X153512700Y-47973938D02*
X153512700Y-47633938D01*
D20*
X148419176Y-55203938D02*
X149182700Y-55203938D01*
X152302700Y-56053938D02*
X152370000Y-56121238D01*
X152302700Y-56053938D02*
X152302700Y-55243938D01*
D24*
X153400000Y-48086638D02*
X153512700Y-47973938D01*
D20*
X144439288Y-49740712D02*
X146546062Y-47633938D01*
X152370000Y-58750000D02*
X153210000Y-59590000D01*
X153210000Y-59590000D02*
X156250000Y-59590000D01*
X152302700Y-55243938D02*
X152312700Y-55233938D01*
X152370000Y-56121238D02*
X152370000Y-58750000D01*
X144439288Y-50765514D02*
X144439288Y-49740712D01*
D25*
%TO.N,+1V8B*%
X98400000Y-66511808D02*
X98400000Y-61510606D01*
X99491555Y-66691555D02*
X98579747Y-66691555D01*
X100000000Y-67200000D02*
X99491555Y-66691555D01*
X98400000Y-61510606D02*
X98967745Y-60942861D01*
X98579747Y-66691555D02*
X98400000Y-66511808D01*
D20*
%TO.N,+0V9*%
X90210000Y-84000000D02*
X90340000Y-83870000D01*
X95372747Y-82592555D02*
X93965302Y-84000000D01*
D21*
X114400000Y-60000000D02*
X114400000Y-63600000D01*
D20*
X103807445Y-82592555D02*
X95372747Y-82592555D01*
D21*
X141583834Y-57600000D02*
X139587772Y-55603938D01*
X139587772Y-55603938D02*
X118796062Y-55603938D01*
D20*
X90091747Y-83621747D02*
X90340000Y-83870000D01*
X111000000Y-67000000D02*
X102800000Y-67000000D01*
X85400000Y-84000000D02*
X85200000Y-83800000D01*
D21*
X144600000Y-57600000D02*
X141583834Y-57600000D01*
D20*
X80884847Y-72793555D02*
X81200000Y-73108708D01*
X108400000Y-78000000D02*
X103807445Y-82592555D01*
X81200000Y-73108708D02*
X81200000Y-79800000D01*
X102800000Y-67000000D02*
X101600000Y-68200000D01*
X101600000Y-68200000D02*
X101600000Y-70800000D01*
X90470000Y-84000000D02*
X90340000Y-83870000D01*
X108400000Y-67400000D02*
X108400000Y-78000000D01*
D21*
X118796062Y-55603938D02*
X114400000Y-60000000D01*
D20*
X100794100Y-71605900D02*
X100050955Y-71605900D01*
X101600000Y-70800000D02*
X100794100Y-71605900D01*
X81200000Y-79800000D02*
X85400000Y-84000000D01*
X91255092Y-81637264D02*
X90091747Y-82800609D01*
X90091747Y-82800609D02*
X90091747Y-83621747D01*
X85400000Y-84000000D02*
X90210000Y-84000000D01*
X93965302Y-84000000D02*
X90470000Y-84000000D01*
D21*
X114400000Y-63600000D02*
X111000000Y-67000000D01*
D20*
X108600000Y-67200000D02*
X108400000Y-67400000D01*
D25*
%TO.N,Net-(C60-Pad1)*%
X99570000Y-85420000D02*
X104390000Y-85420000D01*
X98899644Y-86090356D02*
X99570000Y-85420000D01*
X106768555Y-87798555D02*
X107321747Y-87798555D01*
X104390000Y-85420000D02*
X106768555Y-87798555D01*
%TO.N,Net-(L1-Pad1)*%
X95568398Y-84691602D02*
X95568398Y-86095896D01*
X107029180Y-86257655D02*
X107029180Y-86009180D01*
X96280000Y-83980000D02*
X95568398Y-84691602D01*
X107029180Y-86009180D02*
X105000000Y-83980000D01*
X105000000Y-83980000D02*
X96280000Y-83980000D01*
%TD*%
M02*
