%TF.GenerationSoftware,KiCad,Pcbnew,(6.0.4)*%
%TF.CreationDate,2023-04-20T20:53:16+03:00*%
%TF.ProjectId,mp3_test_board,6d70335f-7465-4737-945f-626f6172642e,rev?*%
%TF.SameCoordinates,Original*%
%TF.FileFunction,AssemblyDrawing,Top*%
%FSLAX46Y46*%
G04 Gerber Fmt 4.6, Leading zero omitted, Abs format (unit mm)*
G04 Created by KiCad (PCBNEW (6.0.4)) date 2023-04-20 20:53:16*
%MOMM*%
%LPD*%
G01*
G04 APERTURE LIST*
%TA.AperFunction,Profile*%
%ADD10C,0.250000*%
%TD*%
%ADD11C,0.080000*%
%ADD12C,0.100000*%
%ADD13C,0.150000*%
%ADD14C,0.120000*%
%ADD15C,0.060000*%
G04 APERTURE END LIST*
D10*
X173467769Y-99232295D02*
G75*
G03*
X175960000Y-96750000I-93569J2586195D01*
G01*
X175960001Y-45750000D02*
G75*
G03*
X173467767Y-43232233I-2528101J-10100D01*
G01*
X78967767Y-43232167D02*
G75*
G03*
X76467767Y-45732233I33J-2500033D01*
G01*
X76467767Y-45732233D02*
X76467767Y-96732233D01*
X78967767Y-99232233D02*
X173467767Y-99232233D01*
X175960000Y-96750000D02*
X175960000Y-45750000D01*
X173467767Y-43232233D02*
X78967767Y-43232233D01*
X76467767Y-96732233D02*
G75*
G03*
X78967767Y-99232233I2500033J33D01*
G01*
D11*
X66075407Y-73489427D02*
X66075407Y-73775141D01*
X66361121Y-73803713D01*
X66332550Y-73775141D01*
X66303979Y-73717998D01*
X66303979Y-73575141D01*
X66332550Y-73517998D01*
X66361121Y-73489427D01*
X66418264Y-73460855D01*
X66561121Y-73460855D01*
X66618264Y-73489427D01*
X66646836Y-73517998D01*
X66675407Y-73575141D01*
X66675407Y-73717998D01*
X66646836Y-73775141D01*
X66618264Y-73803713D01*
X66075407Y-72946570D02*
X66075407Y-73060855D01*
X66103979Y-73117998D01*
X66132550Y-73146570D01*
X66218264Y-73203713D01*
X66332550Y-73232284D01*
X66561121Y-73232284D01*
X66618264Y-73203713D01*
X66646836Y-73175141D01*
X66675407Y-73117998D01*
X66675407Y-73003713D01*
X66646836Y-72946570D01*
X66618264Y-72917998D01*
X66561121Y-72889427D01*
X66418264Y-72889427D01*
X66361121Y-72917998D01*
X66332550Y-72946570D01*
X66303979Y-73003713D01*
X66303979Y-73117998D01*
X66332550Y-73175141D01*
X66361121Y-73203713D01*
X66418264Y-73232284D01*
X66646836Y-72603713D02*
X66675407Y-72603713D01*
X66732550Y-72632284D01*
X66761121Y-72660855D01*
X66075407Y-72232284D02*
X66075407Y-72175141D01*
X66103979Y-72117998D01*
X66132550Y-72089427D01*
X66189693Y-72060855D01*
X66303979Y-72032284D01*
X66446836Y-72032284D01*
X66561121Y-72060855D01*
X66618264Y-72089427D01*
X66646836Y-72117998D01*
X66675407Y-72175141D01*
X66675407Y-72232284D01*
X66646836Y-72289427D01*
X66618264Y-72317998D01*
X66561121Y-72346570D01*
X66446836Y-72375141D01*
X66303979Y-72375141D01*
X66189693Y-72346570D01*
X66132550Y-72317998D01*
X66103979Y-72289427D01*
X66075407Y-72232284D01*
X66075407Y-71660855D02*
X66075407Y-71603713D01*
X66103979Y-71546570D01*
X66132550Y-71517998D01*
X66189693Y-71489427D01*
X66303979Y-71460855D01*
X66446836Y-71460855D01*
X66561121Y-71489427D01*
X66618264Y-71517998D01*
X66646836Y-71546570D01*
X66675407Y-71603713D01*
X66675407Y-71660855D01*
X66646836Y-71717998D01*
X66618264Y-71746570D01*
X66561121Y-71775141D01*
X66446836Y-71803713D01*
X66303979Y-71803713D01*
X66189693Y-71775141D01*
X66132550Y-71746570D01*
X66103979Y-71717998D01*
X66075407Y-71660855D01*
X66075407Y-71089427D02*
X66075407Y-71032284D01*
X66103979Y-70975141D01*
X66132550Y-70946570D01*
X66189693Y-70917998D01*
X66303979Y-70889427D01*
X66446836Y-70889427D01*
X66561121Y-70917998D01*
X66618264Y-70946570D01*
X66646836Y-70975141D01*
X66675407Y-71032284D01*
X66675407Y-71089427D01*
X66646836Y-71146570D01*
X66618264Y-71175141D01*
X66561121Y-71203713D01*
X66446836Y-71232284D01*
X66303979Y-71232284D01*
X66189693Y-71203713D01*
X66132550Y-71175141D01*
X66103979Y-71146570D01*
X66075407Y-71089427D01*
X66075407Y-70517998D02*
X66075407Y-70460855D01*
X66103979Y-70403713D01*
X66132550Y-70375141D01*
X66189693Y-70346570D01*
X66303979Y-70317998D01*
X66446836Y-70317998D01*
X66561121Y-70346570D01*
X66618264Y-70375141D01*
X66646836Y-70403713D01*
X66675407Y-70460855D01*
X66675407Y-70517998D01*
X66646836Y-70575141D01*
X66618264Y-70603713D01*
X66561121Y-70632284D01*
X66446836Y-70660855D01*
X66303979Y-70660855D01*
X66189693Y-70632284D01*
X66132550Y-70603713D01*
X66103979Y-70575141D01*
X66075407Y-70517998D01*
X66675407Y-69603713D02*
X66275407Y-69603713D01*
X66589693Y-69432284D01*
X66275407Y-69260855D01*
X66675407Y-69260855D01*
X66675407Y-68975141D02*
X66275407Y-68975141D01*
X66589693Y-68803713D01*
X66275407Y-68632284D01*
X66675407Y-68632284D01*
D12*
X83883979Y-43203713D02*
X66497559Y-43203713D01*
X66497559Y-99203713D02*
X84583979Y-99203713D01*
X67083979Y-43203713D02*
X67083979Y-99203713D01*
X67083979Y-43203713D02*
X67083979Y-99203713D01*
X67083979Y-43203713D02*
X66497558Y-44330217D01*
X67083979Y-43203713D02*
X67670400Y-44330217D01*
X67083979Y-99203713D02*
X67670400Y-98077209D01*
X67083979Y-99203713D02*
X66497558Y-98077209D01*
D11*
X123677142Y-107931428D02*
X123791428Y-107931428D01*
X123848571Y-107902857D01*
X123877142Y-107874285D01*
X123934285Y-107788571D01*
X123962857Y-107674285D01*
X123962857Y-107445714D01*
X123934285Y-107388571D01*
X123905714Y-107360000D01*
X123848571Y-107331428D01*
X123734285Y-107331428D01*
X123677142Y-107360000D01*
X123648571Y-107388571D01*
X123620000Y-107445714D01*
X123620000Y-107588571D01*
X123648571Y-107645714D01*
X123677142Y-107674285D01*
X123734285Y-107702857D01*
X123848571Y-107702857D01*
X123905714Y-107674285D01*
X123934285Y-107645714D01*
X123962857Y-107588571D01*
X124248571Y-107931428D02*
X124362857Y-107931428D01*
X124420000Y-107902857D01*
X124448571Y-107874285D01*
X124505714Y-107788571D01*
X124534285Y-107674285D01*
X124534285Y-107445714D01*
X124505714Y-107388571D01*
X124477142Y-107360000D01*
X124420000Y-107331428D01*
X124305714Y-107331428D01*
X124248571Y-107360000D01*
X124220000Y-107388571D01*
X124191428Y-107445714D01*
X124191428Y-107588571D01*
X124220000Y-107645714D01*
X124248571Y-107674285D01*
X124305714Y-107702857D01*
X124420000Y-107702857D01*
X124477142Y-107674285D01*
X124505714Y-107645714D01*
X124534285Y-107588571D01*
X124820000Y-107902857D02*
X124820000Y-107931428D01*
X124791428Y-107988571D01*
X124762857Y-108017142D01*
X125362857Y-107331428D02*
X125077142Y-107331428D01*
X125048571Y-107617142D01*
X125077142Y-107588571D01*
X125134285Y-107560000D01*
X125277142Y-107560000D01*
X125334285Y-107588571D01*
X125362857Y-107617142D01*
X125391428Y-107674285D01*
X125391428Y-107817142D01*
X125362857Y-107874285D01*
X125334285Y-107902857D01*
X125277142Y-107931428D01*
X125134285Y-107931428D01*
X125077142Y-107902857D01*
X125048571Y-107874285D01*
X125762857Y-107331428D02*
X125820000Y-107331428D01*
X125877142Y-107360000D01*
X125905714Y-107388571D01*
X125934285Y-107445714D01*
X125962857Y-107560000D01*
X125962857Y-107702857D01*
X125934285Y-107817142D01*
X125905714Y-107874285D01*
X125877142Y-107902857D01*
X125820000Y-107931428D01*
X125762857Y-107931428D01*
X125705714Y-107902857D01*
X125677142Y-107874285D01*
X125648571Y-107817142D01*
X125620000Y-107702857D01*
X125620000Y-107560000D01*
X125648571Y-107445714D01*
X125677142Y-107388571D01*
X125705714Y-107360000D01*
X125762857Y-107331428D01*
X126334285Y-107331428D02*
X126391428Y-107331428D01*
X126448571Y-107360000D01*
X126477142Y-107388571D01*
X126505714Y-107445714D01*
X126534285Y-107560000D01*
X126534285Y-107702857D01*
X126505714Y-107817142D01*
X126477142Y-107874285D01*
X126448571Y-107902857D01*
X126391428Y-107931428D01*
X126334285Y-107931428D01*
X126277142Y-107902857D01*
X126248571Y-107874285D01*
X126220000Y-107817142D01*
X126191428Y-107702857D01*
X126191428Y-107560000D01*
X126220000Y-107445714D01*
X126248571Y-107388571D01*
X126277142Y-107360000D01*
X126334285Y-107331428D01*
X126905714Y-107331428D02*
X126962857Y-107331428D01*
X127020000Y-107360000D01*
X127048571Y-107388571D01*
X127077142Y-107445714D01*
X127105714Y-107560000D01*
X127105714Y-107702857D01*
X127077142Y-107817142D01*
X127048571Y-107874285D01*
X127020000Y-107902857D01*
X126962857Y-107931428D01*
X126905714Y-107931428D01*
X126848571Y-107902857D01*
X126820000Y-107874285D01*
X126791428Y-107817142D01*
X126762857Y-107702857D01*
X126762857Y-107560000D01*
X126791428Y-107445714D01*
X126820000Y-107388571D01*
X126848571Y-107360000D01*
X126905714Y-107331428D01*
X127820000Y-107931428D02*
X127820000Y-107531428D01*
X127991428Y-107845714D01*
X128162857Y-107531428D01*
X128162857Y-107931428D01*
X128448571Y-107931428D02*
X128448571Y-107531428D01*
X128620000Y-107845714D01*
X128791428Y-107531428D01*
X128791428Y-107931428D01*
D12*
X76470000Y-92540000D02*
X76470000Y-108926420D01*
X175970000Y-108926420D02*
X175970000Y-92830000D01*
X76470000Y-108340000D02*
X175970000Y-108340000D01*
X76470000Y-108340000D02*
X175970000Y-108340000D01*
X76470000Y-108340000D02*
X77596504Y-108926421D01*
X76470000Y-108340000D02*
X77596504Y-107753579D01*
X175970000Y-108340000D02*
X174843496Y-107753579D01*
X175970000Y-108340000D02*
X174843496Y-108926421D01*
D13*
%TO.C,SW7*%
X110570000Y-98844100D02*
X110360000Y-99915135D01*
X107640000Y-99906666D02*
X107425200Y-98894900D01*
X110360000Y-99915135D02*
X107640000Y-99906666D01*
D14*
X113020000Y-96302500D02*
X105037600Y-96302500D01*
X105037600Y-96302500D02*
X105037600Y-98844100D01*
X105037600Y-98844100D02*
X113020000Y-98844100D01*
X113020000Y-98844100D02*
X113020000Y-96302500D01*
D15*
X113043200Y-96100900D02*
G75*
G03*
X113043200Y-96100900I-30000J0D01*
G01*
%TO.C,SW1*%
X145230000Y-75950000D02*
G75*
G03*
X145230000Y-75950000I-30000J0D01*
G01*
D14*
X150281200Y-71200000D02*
G75*
G03*
X150281200Y-71200000I-1981200J0D01*
G01*
X145200000Y-74300000D02*
X151400000Y-74300000D01*
X151400000Y-74300000D02*
X151400000Y-68100000D01*
X151400000Y-68100000D02*
X145200000Y-68100000D01*
X145200000Y-68100000D02*
X145200000Y-74300000D01*
D13*
%TO.C,SW6*%
X98040000Y-99834166D02*
X97825200Y-98822400D01*
X100760000Y-99842635D02*
X98040000Y-99834166D01*
X100970000Y-98771600D02*
X100760000Y-99842635D01*
D14*
X103420000Y-96230000D02*
X95437600Y-96230000D01*
X95437600Y-96230000D02*
X95437600Y-98771600D01*
X95437600Y-98771600D02*
X103420000Y-98771600D01*
X103420000Y-98771600D02*
X103420000Y-96230000D01*
D15*
X103443200Y-96028400D02*
G75*
G03*
X103443200Y-96028400I-30000J0D01*
G01*
D12*
%TO.C,H4*%
X173650000Y-46700000D02*
G75*
G03*
X173650000Y-46700000I-1250000J0D01*
G01*
%TO.C,H2*%
X81150000Y-46700000D02*
G75*
G03*
X81150000Y-46700000I-1250000J0D01*
G01*
D14*
%TO.C,P1*%
X118982800Y-81977000D02*
X118982800Y-60336200D01*
X122476746Y-82169963D02*
X122476746Y-60529163D01*
X138490000Y-92645000D02*
X78230000Y-92645000D01*
X78230000Y-92645000D02*
X78230000Y-49925000D01*
X78230000Y-49925000D02*
X138490000Y-49925000D01*
X138490000Y-49925000D02*
X138490000Y-92645000D01*
X118982801Y-82078600D02*
G75*
G03*
X120811600Y-83704199I1727199J101600D01*
G01*
X120842547Y-83701693D02*
G75*
G03*
X122476746Y-82169963I-110317J1755323D01*
G01*
X120608386Y-58710613D02*
G75*
G03*
X118982800Y-60437800I102014J-1724587D01*
G01*
X122476752Y-60529163D02*
G75*
G03*
X120608384Y-58710586I-1877502J-59857D01*
G01*
D12*
%TO.C,H1*%
X81150000Y-95700000D02*
G75*
G03*
X81150000Y-95700000I-1250000J0D01*
G01*
D15*
%TO.C,SW3*%
X155230000Y-92050000D02*
G75*
G03*
X155230000Y-92050000I-30000J0D01*
G01*
D14*
X160281200Y-87300000D02*
G75*
G03*
X160281200Y-87300000I-1981200J0D01*
G01*
X155200000Y-90400000D02*
X161400000Y-90400000D01*
X161400000Y-90400000D02*
X161400000Y-84200000D01*
X161400000Y-84200000D02*
X155200000Y-84200000D01*
X155200000Y-84200000D02*
X155200000Y-90400000D01*
D15*
%TO.C,SW2*%
X165230000Y-75950000D02*
G75*
G03*
X165230000Y-75950000I-30000J0D01*
G01*
D14*
X170281200Y-71200000D02*
G75*
G03*
X170281200Y-71200000I-1981200J0D01*
G01*
X165200000Y-74300000D02*
X171400000Y-74300000D01*
X171400000Y-74300000D02*
X171400000Y-68100000D01*
X171400000Y-68100000D02*
X165200000Y-68100000D01*
X165200000Y-68100000D02*
X165200000Y-74300000D01*
D15*
%TO.C,SW8*%
X93543200Y-96028400D02*
G75*
G03*
X93543200Y-96028400I-30000J0D01*
G01*
D14*
X93520000Y-96230000D02*
X85537600Y-96230000D01*
X85537600Y-96230000D02*
X85537600Y-98771600D01*
X85537600Y-98771600D02*
X93520000Y-98771600D01*
X93520000Y-98771600D02*
X93520000Y-96230000D01*
D13*
X90860000Y-99842635D02*
X88140000Y-99834166D01*
X88140000Y-99834166D02*
X87925200Y-98822400D01*
X91070000Y-98771600D02*
X90860000Y-99842635D01*
D12*
%TO.C,H3*%
X173650000Y-95700000D02*
G75*
G03*
X173650000Y-95700000I-1250000J0D01*
G01*
D15*
%TO.C,SW4*%
X155030000Y-59950000D02*
G75*
G03*
X155030000Y-59950000I-30000J0D01*
G01*
D14*
X160081200Y-55200000D02*
G75*
G03*
X160081200Y-55200000I-1981200J0D01*
G01*
X155000000Y-58300000D02*
X161200000Y-58300000D01*
X161200000Y-58300000D02*
X161200000Y-52100000D01*
X161200000Y-52100000D02*
X155000000Y-52100000D01*
X155000000Y-52100000D02*
X155000000Y-58300000D01*
%TO.C,SW5*%
X160281200Y-71200000D02*
G75*
G03*
X160281200Y-71200000I-1981200J0D01*
G01*
D15*
X155230000Y-75950000D02*
G75*
G03*
X155230000Y-75950000I-30000J0D01*
G01*
D14*
X155200000Y-74300000D02*
X161400000Y-74300000D01*
X161400000Y-74300000D02*
X161400000Y-68100000D01*
X161400000Y-68100000D02*
X155200000Y-68100000D01*
X155200000Y-68100000D02*
X155200000Y-74300000D01*
%TD*%
M02*
