%TF.GenerationSoftware,KiCad,Pcbnew,(6.0.7)*%
%TF.CreationDate,2022-08-18T15:11:27+03:00*%
%TF.ProjectId,mp3_test_board,6d70335f-7465-4737-945f-626f6172642e,rev?*%
%TF.SameCoordinates,Original*%
%TF.FileFunction,Paste,Top*%
%TF.FilePolarity,Positive*%
%FSLAX46Y46*%
G04 Gerber Fmt 4.6, Leading zero omitted, Abs format (unit mm)*
G04 Created by KiCad (PCBNEW (6.0.7)) date 2022-08-18 15:11:27*
%MOMM*%
%LPD*%
G01*
G04 APERTURE LIST*
G04 Aperture macros list*
%AMRoundRect*
0 Rectangle with rounded corners*
0 $1 Rounding radius*
0 $2 $3 $4 $5 $6 $7 $8 $9 X,Y pos of 4 corners*
0 Add a 4 corners polygon primitive as box body*
4,1,4,$2,$3,$4,$5,$6,$7,$8,$9,$2,$3,0*
0 Add four circle primitives for the rounded corners*
1,1,$1+$1,$2,$3*
1,1,$1+$1,$4,$5*
1,1,$1+$1,$6,$7*
1,1,$1+$1,$8,$9*
0 Add four rect primitives between the rounded corners*
20,1,$1+$1,$2,$3,$4,$5,0*
20,1,$1+$1,$4,$5,$6,$7,0*
20,1,$1+$1,$6,$7,$8,$9,0*
20,1,$1+$1,$8,$9,$2,$3,0*%
G04 Aperture macros list end*
%ADD10RoundRect,0.150000X-0.650000X-0.150000X0.650000X-0.150000X0.650000X0.150000X-0.650000X0.150000X0*%
%ADD11RoundRect,0.150000X-0.825000X-0.150000X0.825000X-0.150000X0.825000X0.150000X-0.825000X0.150000X0*%
%ADD12R,1.750000X0.450000*%
%ADD13RoundRect,0.150000X-0.512500X-0.150000X0.512500X-0.150000X0.512500X0.150000X-0.512500X0.150000X0*%
%ADD14RoundRect,0.150000X-0.625000X-0.150000X0.625000X-0.150000X0.625000X0.150000X-0.625000X0.150000X0*%
%ADD15RoundRect,0.145000X-0.145000X-0.145000X0.145000X-0.145000X0.145000X0.145000X-0.145000X0.145000X0*%
%ADD16RoundRect,0.062500X-0.375000X-0.062500X0.375000X-0.062500X0.375000X0.062500X-0.375000X0.062500X0*%
%ADD17RoundRect,0.062500X-0.062500X-0.375000X0.062500X-0.375000X0.062500X0.375000X-0.062500X0.375000X0*%
%ADD18RoundRect,0.125000X-0.537500X-0.125000X0.537500X-0.125000X0.537500X0.125000X-0.537500X0.125000X0*%
%ADD19R,0.850000X0.300000*%
G04 APERTURE END LIST*
D10*
%TO.C,U12*%
X162900000Y-85940000D03*
X162900000Y-87210000D03*
X162900000Y-88480000D03*
X162900000Y-89750000D03*
X170100000Y-89750000D03*
X170100000Y-88480000D03*
X170100000Y-87210000D03*
X170100000Y-85940000D03*
%TD*%
D11*
%TO.C,U11*%
X146055000Y-92230000D03*
X146055000Y-93500000D03*
X146055000Y-94770000D03*
X146055000Y-96040000D03*
X151005000Y-96040000D03*
X151005000Y-94770000D03*
X151005000Y-93500000D03*
X151005000Y-92230000D03*
%TD*%
%TO.C,U10*%
X139765000Y-81915000D03*
X139765000Y-83185000D03*
X139765000Y-84455000D03*
X139765000Y-85725000D03*
X144715000Y-85725000D03*
X144715000Y-84455000D03*
X144715000Y-83185000D03*
X144715000Y-81915000D03*
%TD*%
D12*
%TO.C,U9*%
X128480000Y-79595000D03*
X128480000Y-80245000D03*
X128480000Y-80895000D03*
X128480000Y-81545000D03*
X128480000Y-82195000D03*
X128480000Y-82845000D03*
X128480000Y-83495000D03*
X128480000Y-84145000D03*
X128480000Y-84795000D03*
X128480000Y-85445000D03*
X128480000Y-86095000D03*
X128480000Y-86745000D03*
X128480000Y-87395000D03*
X128480000Y-88045000D03*
X135680000Y-88045000D03*
X135680000Y-87395000D03*
X135680000Y-86745000D03*
X135680000Y-86095000D03*
X135680000Y-85445000D03*
X135680000Y-84795000D03*
X135680000Y-84145000D03*
X135680000Y-83495000D03*
X135680000Y-82845000D03*
X135680000Y-82195000D03*
X135680000Y-81545000D03*
X135680000Y-80895000D03*
X135680000Y-80245000D03*
X135680000Y-79595000D03*
%TD*%
D13*
%TO.C,U7*%
X145632500Y-107005000D03*
X145632500Y-107955000D03*
X145632500Y-108905000D03*
X147907500Y-108905000D03*
X147907500Y-107005000D03*
%TD*%
%TO.C,U6*%
X140482500Y-109165000D03*
X140482500Y-110115000D03*
X140482500Y-111065000D03*
X142757500Y-111065000D03*
X142757500Y-109165000D03*
%TD*%
D14*
%TO.C,U5*%
X135305000Y-102680000D03*
X135305000Y-103950000D03*
X135305000Y-105220000D03*
X135305000Y-106490000D03*
X140655000Y-106490000D03*
X140655000Y-105220000D03*
X140655000Y-103950000D03*
X140655000Y-102680000D03*
%TD*%
D15*
%TO.C,U4*%
X136040000Y-110895000D03*
X136040000Y-110175000D03*
X136760000Y-110895000D03*
X136760000Y-110175000D03*
D16*
X134962500Y-109785000D03*
X134962500Y-110285000D03*
X134962500Y-110785000D03*
X134962500Y-111285000D03*
D17*
X135650000Y-111972500D03*
X136150000Y-111972500D03*
X136650000Y-111972500D03*
X137150000Y-111972500D03*
D16*
X137837500Y-111285000D03*
X137837500Y-110785000D03*
X137837500Y-110285000D03*
X137837500Y-109785000D03*
D17*
X137150000Y-109097500D03*
X136650000Y-109097500D03*
X136150000Y-109097500D03*
X135650000Y-109097500D03*
%TD*%
D18*
%TO.C,U3*%
X148792500Y-102530000D03*
X148792500Y-103180000D03*
X148792500Y-103830000D03*
X148792500Y-104480000D03*
X151067500Y-104480000D03*
X151067500Y-103830000D03*
X151067500Y-103180000D03*
X151067500Y-102530000D03*
%TD*%
D19*
%TO.C,U2*%
X145420000Y-111305000D03*
X145420000Y-111805000D03*
X145420000Y-112305000D03*
X145420000Y-112805000D03*
X147320000Y-112805000D03*
X147320000Y-112305000D03*
X147320000Y-111805000D03*
X147320000Y-111305000D03*
%TD*%
D13*
%TO.C,U1*%
X143642500Y-102555000D03*
X143642500Y-103505000D03*
X143642500Y-104455000D03*
X145917500Y-104455000D03*
X145917500Y-103505000D03*
X145917500Y-102555000D03*
%TD*%
M02*
