M48
; DRILL file {KiCad 7.0.2-6a45011f42~172~ubuntu22.04.1} date Ср 03 мая 2023 22:42:29
; FORMAT={-:-/ absolute / metric / decimal}
; #@! TF.CreationDate,2023-05-03T22:42:29+03:00
; #@! TF.GenerationSoftware,Kicad,Pcbnew,7.0.2-6a45011f42~172~ubuntu22.04.1
; #@! TF.FileFunction,MixedPlating,1,4
FMAT,2
METRIC
; #@! TA.AperFunction,Plated,PTH,ViaDrill
T1C0.330
; #@! TA.AperFunction,Plated,PTH,ViaDrill
T2C0.400
; #@! TA.AperFunction,Plated,PTH,ComponentDrill
T3C0.500
; #@! TA.AperFunction,Plated,PTH,ComponentDrill
T4C0.600
; #@! TA.AperFunction,Plated,PTH,ComponentDrill
T5C1.000
; #@! TA.AperFunction,Plated,PTH,ComponentDrill
T6C2.500
; #@! TA.AperFunction,NonPlated,NPTH,ComponentDrill
T7C0.650
; #@! TA.AperFunction,NonPlated,NPTH,ComponentDrill
T8C0.762
; #@! TA.AperFunction,NonPlated,NPTH,ComponentDrill
T9C1.000
; #@! TA.AperFunction,NonPlated,NPTH,ComponentDrill
T10C3.500
%
G90
G05
T1
X77.738Y-74.523
X77.992Y-76.792
X78.322Y-91.072
X78.42Y-63.54
X78.498Y-78.91
X78.584Y-66.744
X78.791Y-68.347
X78.813Y-69.834
X79.0Y-51.2
X79.03Y-53.57
X79.203Y-60.414
X79.513Y-67.427
X79.524Y-68.953
X79.905Y-63.695
X80.235Y-69.481
X80.26Y-65.92
X80.885Y-72.794
X80.92Y-87.651
X81.183Y-82.92
X81.26Y-79.92
X82.092Y-87.804
X83.142Y-87.651
X83.366Y-84.657
X83.64Y-94.83
X83.642Y-92.88
X83.76Y-70.92
X83.889Y-69.42
X84.089Y-66.384
X84.468Y-60.593
X84.8Y-51.4
X85.058Y-59.933
X85.372Y-56.024
X85.746Y-80.067
X85.748Y-77.292
X85.822Y-65.804
X85.921Y-49.2
X86.391Y-76.683
X86.944Y-91.229
X86.998Y-77.327
X87.102Y-65.834
X87.27Y-88.717
X87.823Y-60.94
X87.87Y-68.92
X87.87Y-70.42
X87.87Y-71.92
X87.87Y-73.42
X88.062Y-65.904
X88.208Y-60.143
X88.262Y-88.144
X88.392Y-87.064
X88.43Y-56.22
X88.462Y-81.044
X88.665Y-82.395
X88.777Y-61.902
X88.856Y-60.966
X89.082Y-65.964
X89.37Y-68.92
X89.37Y-70.42
X89.37Y-71.92
X89.37Y-73.42
X89.725Y-76.798
X89.907Y-61.629
X90.002Y-87.384
X90.104Y-56.366
X90.112Y-65.994
X90.612Y-76.798
X90.87Y-68.92
X90.87Y-70.42
X90.87Y-71.92
X90.87Y-73.42
X91.141Y-61.659
X91.152Y-65.994
X91.255Y-81.637
X91.78Y-60.5
X91.818Y-87.486
X91.821Y-76.472
X91.853Y-56.304
X91.88Y-82.44
X92.165Y-88.69
X92.37Y-68.92
X92.37Y-70.42
X92.37Y-71.92
X92.37Y-73.42
X92.388Y-65.977
X93.052Y-87.544
X93.202Y-65.564
X93.83Y-56.25
X94.162Y-94.374
X94.19Y-81.42
X94.232Y-85.964
X94.301Y-90.939
X94.42Y-97.68
X94.686Y-56.477
X95.362Y-76.564
X95.502Y-92.962
X95.532Y-94.064
X95.568Y-86.096
X95.687Y-56.621
X95.866Y-64.658
X96.372Y-61.172
X96.392Y-76.214
X97.883Y-55.604
X97.883Y-56.489
X98.9Y-86.09
X98.943Y-57.874
X98.943Y-58.784
X98.968Y-60.943
X99.02Y-96.677
X99.11Y-95.03
X99.16Y-77.16
X99.192Y-91.354
X99.206Y-90.468
X99.277Y-88.704
X99.287Y-86.964
X99.308Y-89.589
X99.339Y-79.019
X99.4Y-70.2
X99.43Y-67.951
X99.517Y-93.383
X99.569Y-65.545
X99.88Y-63.54
X100.0Y-67.2
X100.038Y-77.048
X100.051Y-71.606
X100.15Y-76.17
X101.625Y-77.087
X101.746Y-49.146
X101.862Y-80.364
X101.992Y-74.478
X102.611Y-77.859
X102.62Y-56.73
X102.8Y-62.0
X102.8Y-64.2
X103.302Y-94.784
X103.41Y-75.04
X103.603Y-78.949
X103.721Y-80.873
X103.783Y-65.464
X103.783Y-68.154
X103.803Y-69.304
X103.806Y-92.394
X103.95Y-91.43
X104.09Y-75.95
X104.53Y-78.38
X104.63Y-96.28
X104.84Y-93.55
X104.973Y-68.754
X105.167Y-82.719
X105.47Y-77.576
X105.736Y-74.384
X106.24Y-71.13
X106.422Y-82.719
X106.44Y-72.95
X106.464Y-76.259
X106.53Y-74.99
X106.539Y-70.297
X106.543Y-48.244
X106.64Y-72.023
X106.66Y-54.09
X106.673Y-44.294
X106.7Y-52.41
X106.722Y-46.204
X106.83Y-95.12
X106.86Y-50.04
X107.029Y-86.258
X107.043Y-64.124
X107.322Y-87.799
X107.42Y-84.814
X108.21Y-81.74
X110.16Y-88.15
X110.182Y-92.445
X110.194Y-74.383
X110.353Y-76.187
X110.364Y-63.392
X110.373Y-62.284
X110.86Y-73.8
X111.14Y-72.83
X111.543Y-90.189
X112.02Y-86.22
X112.439Y-96.552
X112.67Y-94.31
X112.946Y-52.604
X114.342Y-94.319
X114.73Y-67.75
X114.74Y-65.4
X114.74Y-66.52
X114.74Y-68.99
X115.222Y-91.464
X115.254Y-54.576
X115.742Y-85.19
X115.804Y-44.796
X116.059Y-48.1
X117.083Y-54.804
X117.202Y-85.19
X118.282Y-91.279
X119.012Y-85.199
X119.332Y-91.149
X119.8Y-49.0
X121.1Y-54.1
X121.4Y-49.0
X122.012Y-91.209
X122.192Y-94.649
X123.8Y-49.2
X124.069Y-56.729
X124.897Y-56.841
X124.9Y-78.387
X125.155Y-74.382
X125.235Y-66.956
X125.3Y-63.075
X126.772Y-84.244
X127.025Y-95.61
X128.35Y-79.4
X128.8Y-45.3
X129.667Y-45.479
X130.556Y-58.42
X130.647Y-68.187
X131.75Y-64.6
X131.95Y-81.4
X133.291Y-67.4
X133.299Y-77.404
X133.772Y-91.404
X133.962Y-88.174
X134.593Y-48.634
X134.75Y-71.2
X134.836Y-82.0
X134.95Y-88.923
X134.972Y-92.272
X135.03Y-94.136
X135.41Y-86.25
X135.413Y-48.654
X135.75Y-75.425
X135.78Y-93.22
X135.879Y-82.725
X136.165Y-89.572
X136.274Y-92.485
X136.293Y-48.664
X136.325Y-64.91
X136.333Y-88.754
X136.426Y-97.172
X137.19Y-45.311
X137.433Y-48.254
X137.75Y-71.4
X138.244Y-50.925
X139.26Y-48.1
X139.4Y-51.7
X140.213Y-54.514
X141.15Y-54.5
X141.224Y-55.433
X141.74Y-89.283
X142.34Y-88.283
X142.74Y-93.683
X142.765Y-50.112
X142.79Y-95.033
X143.106Y-51.663
X143.345Y-49.106
X143.382Y-46.534
X143.442Y-53.023
X143.627Y-50.784
X143.808Y-64.328
X144.4Y-47.4
X144.439Y-50.766
X144.6Y-57.6
X144.625Y-71.45
X144.663Y-58.614
X144.8Y-82.875
X145.8Y-60.1
X146.608Y-86.079
X146.608Y-89.479
X146.9Y-49.3
X146.9Y-50.3
X146.9Y-51.3
X147.9Y-49.3
X147.9Y-50.3
X147.9Y-51.3
X148.0Y-60.0
X148.608Y-95.752
X148.9Y-49.3
X148.9Y-50.3
X148.9Y-51.3
X148.908Y-90.379
X149.0Y-60.0
X149.008Y-92.879
X149.183Y-55.204
X149.9Y-60.0
X150.3Y-82.775
X150.335Y-71.42
X150.8Y-60.0
X151.158Y-89.552
X151.412Y-56.094
X151.412Y-83.964
X151.412Y-85.488
X151.412Y-95.394
X151.8Y-60.0
X151.808Y-93.479
X152.303Y-56.054
X152.313Y-55.234
X152.55Y-50.8
X152.936Y-88.028
X153.0Y-75.0
X153.175Y-82.775
X153.513Y-47.634
X153.6Y-71.5
X153.689Y-50.8
X153.689Y-50.8
X153.992Y-55.864
X154.01Y-57.3
X154.041Y-58.499
X154.206Y-92.854
X154.534Y-51.995
X154.583Y-84.154
X154.723Y-50.804
X154.8Y-80.8
X154.915Y-68.552
X154.916Y-60.64
X155.05Y-78.55
X155.083Y-93.954
X155.33Y-55.11
X157.563Y-57.109
X157.682Y-72.404
X158.233Y-53.894
X158.683Y-87.154
X159.253Y-53.874
X159.583Y-57.774
X159.72Y-61.564
X160.1Y-80.2
X160.243Y-53.874
X160.29Y-65.35
X160.843Y-56.234
X160.993Y-69.374
X161.673Y-51.514
X162.0Y-56.2
X162.483Y-51.534
X162.76Y-64.552
X162.76Y-65.54
X163.57Y-76.63
X163.57Y-76.63
X163.79Y-75.02
X163.8Y-74.19
X164.013Y-68.434
X164.033Y-71.144
X164.652Y-79.584
X164.973Y-71.144
X165.033Y-68.464
X165.453Y-80.524
X165.473Y-79.534
X165.773Y-71.154
X165.935Y-68.514
X166.403Y-79.554
X166.533Y-58.754
X166.596Y-53.604
X166.903Y-60.564
X167.473Y-56.094
X167.59Y-57.28
X167.65Y-54.37
X167.666Y-51.1
X167.703Y-60.564
X167.732Y-58.794
X168.035Y-68.854
X168.7Y-64.4
X173.602Y-76.325
X174.2Y-72.8
X175.5Y-66.9
T2
X107.19Y-57.5
X129.01Y-59.87
T3
X78.025Y-46.7
X78.025Y-95.7
X78.574Y-45.374
X78.574Y-48.026
X78.574Y-94.374
X78.574Y-97.026
X79.9Y-44.825
X79.9Y-48.575
X79.9Y-93.825
X79.9Y-97.575
X81.226Y-45.374
X81.226Y-48.026
X81.226Y-94.374
X81.226Y-97.026
X81.775Y-46.7
X81.775Y-95.7
X170.525Y-46.7
X170.525Y-95.7
X171.074Y-45.374
X171.074Y-48.026
X171.074Y-94.374
X171.074Y-97.026
X172.4Y-44.825
X172.4Y-48.575
X172.4Y-93.825
X172.4Y-97.575
X173.726Y-45.374
X173.726Y-48.026
X173.726Y-94.374
X173.726Y-97.026
X174.275Y-46.7
X174.275Y-95.7
T5
X88.35Y-97.78
X90.65Y-97.78
X98.25Y-97.78
X100.55Y-97.78
X107.85Y-97.852
X110.15Y-97.852
T6
X79.9Y-46.7
X79.9Y-95.7
X172.4Y-46.7
X172.4Y-95.7
T7
X170.855Y-52.18
X170.855Y-57.96
T8
X166.795Y-87.1
X173.795Y-87.1
T9
X88.919Y-47.448
X96.894Y-47.448
T4
X170.875Y-50.75G85X169.775Y-50.75
G05
X170.875Y-59.39G85X169.775Y-59.39
G05
X174.805Y-50.75G85X174.205Y-50.75
G05
X174.805Y-59.39G85X174.205Y-59.39
G05
T5
X163.395Y-87.35G85X163.395Y-86.85
G05
X164.545Y-84.45G85X164.045Y-84.45
G05
X164.545Y-89.75G85X164.045Y-89.75
G05
X172.545Y-83.9G85X172.045Y-83.9
G05
X172.545Y-90.3G85X172.045Y-90.3
G05
T10
X120.71Y-81.973G85X120.71Y-60.473
G05
T0
M30
