%TF.GenerationSoftware,KiCad,Pcbnew,7.0.2-6a45011f42~172~ubuntu22.04.1*%
%TF.CreationDate,2023-05-03T22:42:28+03:00*%
%TF.ProjectId,mp3_test_board,6d70335f-7465-4737-945f-626f6172642e,rev?*%
%TF.SameCoordinates,Original*%
%TF.FileFunction,Copper,L4,Bot*%
%TF.FilePolarity,Positive*%
%FSLAX46Y46*%
G04 Gerber Fmt 4.6, Leading zero omitted, Abs format (unit mm)*
G04 Created by KiCad (PCBNEW 7.0.2-6a45011f42~172~ubuntu22.04.1) date 2023-05-03 22:42:28*
%MOMM*%
%LPD*%
G01*
G04 APERTURE LIST*
G04 Aperture macros list*
%AMRoundRect*
0 Rectangle with rounded corners*
0 $1 Rounding radius*
0 $2 $3 $4 $5 $6 $7 $8 $9 X,Y pos of 4 corners*
0 Add a 4 corners polygon primitive as box body*
4,1,4,$2,$3,$4,$5,$6,$7,$8,$9,$2,$3,0*
0 Add four circle primitives for the rounded corners*
1,1,$1+$1,$2,$3*
1,1,$1+$1,$4,$5*
1,1,$1+$1,$6,$7*
1,1,$1+$1,$8,$9*
0 Add four rect primitives between the rounded corners*
20,1,$1+$1,$2,$3,$4,$5,0*
20,1,$1+$1,$4,$5,$6,$7,0*
20,1,$1+$1,$6,$7,$8,$9,0*
20,1,$1+$1,$8,$9,$2,$3,0*%
%AMFreePoly0*
4,1,6,1.000000,0.000000,0.500000,-0.750000,-0.500000,-0.750000,-0.500000,0.750000,0.500000,0.750000,1.000000,0.000000,1.000000,0.000000,$1*%
%AMFreePoly1*
4,1,6,0.500000,-0.750000,-0.650000,-0.750000,-0.150000,0.000000,-0.650000,0.750000,0.500000,0.750000,0.500000,-0.750000,0.500000,-0.750000,$1*%
G04 Aperture macros list end*
%TA.AperFunction,NonConductor*%
%ADD10C,0.200000*%
%TD*%
%TA.AperFunction,ComponentPad*%
%ADD11C,1.000000*%
%TD*%
%TA.AperFunction,ComponentPad*%
%ADD12C,0.800000*%
%TD*%
%TA.AperFunction,ComponentPad*%
%ADD13C,5.000000*%
%TD*%
%TA.AperFunction,SMDPad,CuDef*%
%ADD14R,1.500000X0.300000*%
%TD*%
%TA.AperFunction,SMDPad,CuDef*%
%ADD15R,1.700000X2.000000*%
%TD*%
%TA.AperFunction,SMDPad,CuDef*%
%ADD16RoundRect,0.225000X0.250000X-0.225000X0.250000X0.225000X-0.250000X0.225000X-0.250000X-0.225000X0*%
%TD*%
%TA.AperFunction,SMDPad,CuDef*%
%ADD17C,1.000000*%
%TD*%
%TA.AperFunction,SMDPad,CuDef*%
%ADD18RoundRect,0.200000X-0.200000X-0.275000X0.200000X-0.275000X0.200000X0.275000X-0.200000X0.275000X0*%
%TD*%
%TA.AperFunction,SMDPad,CuDef*%
%ADD19RoundRect,0.225000X-0.225000X-0.250000X0.225000X-0.250000X0.225000X0.250000X-0.225000X0.250000X0*%
%TD*%
%TA.AperFunction,SMDPad,CuDef*%
%ADD20RoundRect,0.200000X0.275000X-0.200000X0.275000X0.200000X-0.275000X0.200000X-0.275000X-0.200000X0*%
%TD*%
%TA.AperFunction,SMDPad,CuDef*%
%ADD21R,1.770000X1.100000*%
%TD*%
%TA.AperFunction,SMDPad,CuDef*%
%ADD22R,0.500000X0.500000*%
%TD*%
%TA.AperFunction,SMDPad,CuDef*%
%ADD23RoundRect,0.225000X0.225000X0.250000X-0.225000X0.250000X-0.225000X-0.250000X0.225000X-0.250000X0*%
%TD*%
%TA.AperFunction,SMDPad,CuDef*%
%ADD24RoundRect,0.200000X0.200000X0.275000X-0.200000X0.275000X-0.200000X-0.275000X0.200000X-0.275000X0*%
%TD*%
%TA.AperFunction,SMDPad,CuDef*%
%ADD25RoundRect,0.250000X0.650000X-0.325000X0.650000X0.325000X-0.650000X0.325000X-0.650000X-0.325000X0*%
%TD*%
%TA.AperFunction,SMDPad,CuDef*%
%ADD26RoundRect,0.250000X0.250000X0.475000X-0.250000X0.475000X-0.250000X-0.475000X0.250000X-0.475000X0*%
%TD*%
%TA.AperFunction,SMDPad,CuDef*%
%ADD27R,1.200000X0.800000*%
%TD*%
%TA.AperFunction,SMDPad,CuDef*%
%ADD28RoundRect,0.250000X0.475000X-0.250000X0.475000X0.250000X-0.475000X0.250000X-0.475000X-0.250000X0*%
%TD*%
%TA.AperFunction,SMDPad,CuDef*%
%ADD29RoundRect,0.200000X-0.275000X0.200000X-0.275000X-0.200000X0.275000X-0.200000X0.275000X0.200000X0*%
%TD*%
%TA.AperFunction,SMDPad,CuDef*%
%ADD30R,0.800000X1.200000*%
%TD*%
%TA.AperFunction,SMDPad,CuDef*%
%ADD31R,1.050000X1.000000*%
%TD*%
%TA.AperFunction,SMDPad,CuDef*%
%ADD32R,2.200000X1.050000*%
%TD*%
%TA.AperFunction,SMDPad,CuDef*%
%ADD33FreePoly0,90.000000*%
%TD*%
%TA.AperFunction,SMDPad,CuDef*%
%ADD34FreePoly1,90.000000*%
%TD*%
%TA.AperFunction,SMDPad,CuDef*%
%ADD35RoundRect,0.225000X-0.250000X0.225000X-0.250000X-0.225000X0.250000X-0.225000X0.250000X0.225000X0*%
%TD*%
%TA.AperFunction,SMDPad,CuDef*%
%ADD36RoundRect,0.150000X-0.512500X-0.150000X0.512500X-0.150000X0.512500X0.150000X-0.512500X0.150000X0*%
%TD*%
%TA.AperFunction,SMDPad,CuDef*%
%ADD37RoundRect,0.150000X0.650000X0.150000X-0.650000X0.150000X-0.650000X-0.150000X0.650000X-0.150000X0*%
%TD*%
%TA.AperFunction,SMDPad,CuDef*%
%ADD38RoundRect,0.150000X-0.825000X-0.150000X0.825000X-0.150000X0.825000X0.150000X-0.825000X0.150000X0*%
%TD*%
%TA.AperFunction,SMDPad,CuDef*%
%ADD39R,0.730000X0.600000*%
%TD*%
%TA.AperFunction,SMDPad,CuDef*%
%ADD40R,2.000000X1.250000*%
%TD*%
%TA.AperFunction,SMDPad,CuDef*%
%ADD41FreePoly0,0.000000*%
%TD*%
%TA.AperFunction,SMDPad,CuDef*%
%ADD42FreePoly1,0.000000*%
%TD*%
%TA.AperFunction,ComponentPad*%
%ADD43O,1.500000X2.500000*%
%TD*%
%TA.AperFunction,ComponentPad*%
%ADD44O,2.500000X1.500000*%
%TD*%
%TA.AperFunction,SMDPad,CuDef*%
%ADD45R,0.820000X1.820000*%
%TD*%
%TA.AperFunction,SMDPad,CuDef*%
%ADD46RoundRect,0.062500X-0.062500X0.675000X-0.062500X-0.675000X0.062500X-0.675000X0.062500X0.675000X0*%
%TD*%
%TA.AperFunction,SMDPad,CuDef*%
%ADD47RoundRect,0.062500X-0.675000X0.062500X-0.675000X-0.062500X0.675000X-0.062500X0.675000X0.062500X0*%
%TD*%
%TA.AperFunction,SMDPad,CuDef*%
%ADD48R,8.000000X8.000000*%
%TD*%
%TA.AperFunction,SMDPad,CuDef*%
%ADD49R,1.450000X0.600000*%
%TD*%
%TA.AperFunction,SMDPad,CuDef*%
%ADD50R,1.450000X0.300000*%
%TD*%
%TA.AperFunction,ComponentPad*%
%ADD51O,1.600000X1.000000*%
%TD*%
%TA.AperFunction,ComponentPad*%
%ADD52O,2.100000X1.000000*%
%TD*%
%TA.AperFunction,SMDPad,CuDef*%
%ADD53RoundRect,0.150000X0.150000X-0.512500X0.150000X0.512500X-0.150000X0.512500X-0.150000X-0.512500X0*%
%TD*%
%TA.AperFunction,SMDPad,CuDef*%
%ADD54RoundRect,0.150000X0.150000X-0.587500X0.150000X0.587500X-0.150000X0.587500X-0.150000X-0.587500X0*%
%TD*%
%TA.AperFunction,SMDPad,CuDef*%
%ADD55R,2.200000X0.800000*%
%TD*%
%TA.AperFunction,SMDPad,CuDef*%
%ADD56R,2.500000X2.350000*%
%TD*%
%TA.AperFunction,SMDPad,CuDef*%
%ADD57R,1.500000X0.600000*%
%TD*%
%TA.AperFunction,SMDPad,CuDef*%
%ADD58R,0.600000X1.500000*%
%TD*%
%TA.AperFunction,SMDPad,CuDef*%
%ADD59C,0.600000*%
%TD*%
%TA.AperFunction,SMDPad,CuDef*%
%ADD60RoundRect,0.275000X-0.275000X0.375000X-0.275000X-0.375000X0.275000X-0.375000X0.275000X0.375000X0*%
%TD*%
%TA.AperFunction,SMDPad,CuDef*%
%ADD61R,0.700000X1.300000*%
%TD*%
%TA.AperFunction,SMDPad,CuDef*%
%ADD62R,1.447800X2.438400*%
%TD*%
%TA.AperFunction,SMDPad,CuDef*%
%ADD63R,1.447800X1.651000*%
%TD*%
%TA.AperFunction,SMDPad,CuDef*%
%ADD64R,1.854200X1.651000*%
%TD*%
%TA.AperFunction,SMDPad,CuDef*%
%ADD65O,0.200000X0.800000*%
%TD*%
%TA.AperFunction,SMDPad,CuDef*%
%ADD66O,0.800000X0.200000*%
%TD*%
%TA.AperFunction,SMDPad,CuDef*%
%ADD67R,3.400000X3.400000*%
%TD*%
%TA.AperFunction,SMDPad,CuDef*%
%ADD68R,1.750000X0.450000*%
%TD*%
%TA.AperFunction,SMDPad,CuDef*%
%ADD69RoundRect,0.150000X0.512500X0.150000X-0.512500X0.150000X-0.512500X-0.150000X0.512500X-0.150000X0*%
%TD*%
%TA.AperFunction,SMDPad,CuDef*%
%ADD70R,1.250000X2.000000*%
%TD*%
%TA.AperFunction,SMDPad,CuDef*%
%ADD71R,1.100000X1.770000*%
%TD*%
%TA.AperFunction,ViaPad*%
%ADD72C,0.685800*%
%TD*%
%TA.AperFunction,ViaPad*%
%ADD73C,0.800000*%
%TD*%
%TA.AperFunction,Conductor*%
%ADD74C,0.254000*%
%TD*%
%TA.AperFunction,Conductor*%
%ADD75C,0.508000*%
%TD*%
%TA.AperFunction,Conductor*%
%ADD76C,0.127000*%
%TD*%
%TA.AperFunction,Conductor*%
%ADD77C,0.250000*%
%TD*%
%TA.AperFunction,Conductor*%
%ADD78C,0.400000*%
%TD*%
%TA.AperFunction,Conductor*%
%ADD79C,1.016000*%
%TD*%
%TA.AperFunction,Conductor*%
%ADD80C,0.762000*%
%TD*%
%TA.AperFunction,Conductor*%
%ADD81C,0.800000*%
%TD*%
%TA.AperFunction,Conductor*%
%ADD82C,0.200000*%
%TD*%
%TA.AperFunction,Conductor*%
%ADD83C,0.600000*%
%TD*%
%TA.AperFunction,Conductor*%
%ADD84C,0.500000*%
%TD*%
G04 APERTURE END LIST*
D10*
X158770000Y-62510000D02*
X158990000Y-62510000D01*
X140480000Y-90830000D02*
X140480000Y-96850000D01*
D11*
%TO.P,SW7,*%
%TO.N,*%
X110150000Y-97852500D03*
X107850000Y-97852500D03*
%TD*%
%TO.P,SW6,*%
%TO.N,*%
X100550000Y-97780000D03*
X98250000Y-97780000D03*
%TD*%
D12*
%TO.P,H4,1*%
%TO.N,N/C*%
X170525000Y-46700000D03*
X171074175Y-45374175D03*
X171074175Y-48025825D03*
X172400000Y-44825000D03*
D13*
X172400000Y-46700000D03*
D12*
X172400000Y-48575000D03*
X173725825Y-45374175D03*
X173725825Y-48025825D03*
X174275000Y-46700000D03*
%TD*%
%TO.P,H2,1*%
%TO.N,N/C*%
X78025000Y-46700000D03*
X78574175Y-45374175D03*
X78574175Y-48025825D03*
X79900000Y-44825000D03*
D13*
X79900000Y-46700000D03*
D12*
X79900000Y-48575000D03*
X81225825Y-45374175D03*
X81225825Y-48025825D03*
X81775000Y-46700000D03*
%TD*%
D14*
%TO.P,P1,1,GND*%
%TO.N,GND*%
X108305936Y-81036943D03*
%TO.P,P1,2,NC*%
%TO.N,unconnected-(P1-Pad2)*%
X108305936Y-80536943D03*
%TO.P,P1,3,NC*%
%TO.N,unconnected-(P1-Pad3)*%
X108305936Y-80036943D03*
%TO.P,P1,4,NC*%
%TO.N,unconnected-(P1-Pad4)*%
X108305936Y-79536943D03*
%TO.P,P1,5,NC*%
%TO.N,unconnected-(P1-Pad5)*%
X108305936Y-79036943D03*
%TO.P,P1,6,NC*%
%TO.N,unconnected-(P1-Pad6)*%
X108305936Y-78536943D03*
%TO.P,P1,7,VCI*%
%TO.N,+3V3*%
X108305936Y-78036943D03*
%TO.P,P1,8,IOVCC*%
X108305936Y-77536943D03*
%TO.P,P1,9,TE*%
%TO.N,unconnected-(P1-Pad9)*%
X108305936Y-77036943D03*
%TO.P,P1,10,CS*%
%TO.N,/SOC/LCD_CS*%
X108305936Y-76536943D03*
%TO.P,P1,11,D/CX*%
%TO.N,/SOC/LCD_RS*%
X108305936Y-76036943D03*
%TO.P,P1,12,WR*%
%TO.N,/SOC/LCD_WR*%
X108305936Y-75536943D03*
%TO.P,P1,13,RD*%
%TO.N,/SOC/LCD_RD*%
X108305936Y-75036943D03*
%TO.P,P1,14,DB0*%
%TO.N,/SOC/LCD_D3*%
X108305936Y-74536943D03*
%TO.P,P1,15,DB1*%
%TO.N,/SOC/LCD_D4*%
X108305936Y-74036943D03*
%TO.P,P1,16,DB2*%
%TO.N,/SOC/LCD_D5*%
X108305936Y-73536943D03*
%TO.P,P1,17,DB3*%
%TO.N,/SOC/LCD_D6*%
X108305936Y-73036943D03*
%TO.P,P1,18,DB4*%
%TO.N,/SOC/LCD_D7*%
X108305936Y-72536943D03*
%TO.P,P1,19,DB5*%
%TO.N,/SOC/LCD_D10*%
X108305936Y-72036943D03*
%TO.P,P1,20,DB6*%
%TO.N,/SOC/LCD_D11*%
X108305936Y-71536943D03*
%TO.P,P1,21,DB7*%
%TO.N,/SOC/LCD_D12*%
X108305936Y-71036943D03*
%TO.P,P1,22,DB8*%
%TO.N,GND*%
X108305936Y-70536943D03*
%TO.P,P1,23,DB9*%
X108305936Y-70036943D03*
%TO.P,P1,24,DB10*%
X108305936Y-69536943D03*
%TO.P,P1,25,DB11*%
X108305936Y-69036943D03*
%TO.P,P1,26,DB12*%
X108305936Y-68536943D03*
%TO.P,P1,27,DB13*%
X108305936Y-68036943D03*
%TO.P,P1,28,DB14*%
X108305936Y-67536943D03*
%TO.P,P1,29,DB15*%
X108305936Y-67036943D03*
%TO.P,P1,30,RESET*%
%TO.N,/SOC/LCD_EN*%
X108305936Y-66536943D03*
%TO.P,P1,31,IM0*%
%TO.N,GND*%
X108305936Y-66036943D03*
%TO.P,P1,32,IM1*%
X108305936Y-65536943D03*
%TO.P,P1,33,IM2*%
X108305936Y-65036943D03*
%TO.P,P1,34,DB16*%
X108305936Y-64536943D03*
%TO.P,P1,35,DB17*%
X108305936Y-64036943D03*
%TO.P,P1,36,LEDK*%
%TO.N,+3V3*%
X108305936Y-63536943D03*
%TO.P,P1,37,LEDK*%
X108305936Y-63036943D03*
%TO.P,P1,38,LEDA*%
%TO.N,Net-(P1-Pad38)*%
X108305936Y-62536943D03*
%TO.P,P1,39,SDI*%
%TO.N,unconnected-(P1-Pad39)*%
X108305936Y-62036943D03*
%TO.P,P1,40,SDO*%
%TO.N,unconnected-(P1-Pad40)*%
X108305936Y-61536943D03*
D15*
%TO.P,P1,41*%
%TO.N,N/C*%
X110905936Y-59836943D03*
%TO.P,P1,42*%
X110905936Y-82736943D03*
%TD*%
D12*
%TO.P,H1,1*%
%TO.N,N/C*%
X78025000Y-95700000D03*
X78574175Y-94374175D03*
X78574175Y-97025825D03*
X79900000Y-93825000D03*
D13*
X79900000Y-95700000D03*
D12*
X79900000Y-97575000D03*
X81225825Y-94374175D03*
X81225825Y-97025825D03*
X81775000Y-95700000D03*
%TD*%
D11*
%TO.P,SW8,*%
%TO.N,*%
X90650000Y-97780000D03*
X88350000Y-97780000D03*
%TD*%
D12*
%TO.P,H3,1*%
%TO.N,N/C*%
X170525000Y-95700000D03*
X171074175Y-94374175D03*
X171074175Y-97025825D03*
X172400000Y-93825000D03*
D13*
X172400000Y-95700000D03*
D12*
X172400000Y-97575000D03*
X173725825Y-94374175D03*
X173725825Y-97025825D03*
X174275000Y-95700000D03*
%TD*%
D16*
%TO.P,C18,1*%
%TO.N,+1V8A*%
X98321747Y-80348555D03*
%TO.P,C18,2*%
%TO.N,GND*%
X98321747Y-78798555D03*
%TD*%
D17*
%TO.P,TP17,1,1*%
%TO.N,+0V9*%
X77950000Y-84800000D03*
%TD*%
D18*
%TO.P,R38,1*%
%TO.N,Net-(C47-Pad1)*%
X146685000Y-70510000D03*
%TO.P,R38,2*%
%TO.N,Net-(C50-Pad2)*%
X148335000Y-70510000D03*
%TD*%
D19*
%TO.P,C35,1*%
%TO.N,GND*%
X154607700Y-71653938D03*
%TO.P,C35,2*%
%TO.N,+5VA*%
X156157700Y-71653938D03*
%TD*%
D20*
%TO.P,R13,1*%
%TO.N,Net-(R12-Pad2)*%
X160722700Y-58788938D03*
%TO.P,R13,2*%
%TO.N,Net-(R13-Pad2)*%
X160722700Y-57138938D03*
%TD*%
D21*
%TO.P,L2,1,1*%
%TO.N,Net-(L2-Pad1)*%
X152985000Y-53765000D03*
%TO.P,L2,2,2*%
%TO.N,+3V3*%
X152985000Y-51995000D03*
%TD*%
D22*
%TO.P,D6,1,A1*%
%TO.N,GND*%
X105650000Y-52200000D03*
%TO.P,D6,2,A2*%
%TO.N,/SOC/SDC_D3*%
X103450000Y-52200000D03*
%TD*%
D19*
%TO.P,C14,1*%
%TO.N,+1V8B*%
X101095000Y-70120000D03*
%TO.P,C14,2*%
%TO.N,GND*%
X102645000Y-70120000D03*
%TD*%
%TO.P,C12,1*%
%TO.N,+1V8B*%
X101095000Y-67120000D03*
%TO.P,C12,2*%
%TO.N,GND*%
X102645000Y-67120000D03*
%TD*%
D23*
%TO.P,C17,1*%
%TO.N,+0V9*%
X79965000Y-70850000D03*
%TO.P,C17,2*%
%TO.N,GND*%
X78415000Y-70850000D03*
%TD*%
D17*
%TO.P,TP13,1,1*%
%TO.N,Net-(D10-Pad2)*%
X154800000Y-95353938D03*
%TD*%
D24*
%TO.P,R62,1*%
%TO.N,+3V3*%
X102126747Y-88653555D03*
%TO.P,R62,2*%
%TO.N,/SOC/WIFI_SDIO_D0*%
X100476747Y-88653555D03*
%TD*%
D18*
%TO.P,R37,1*%
%TO.N,Net-(C47-Pad2)*%
X146775000Y-64190000D03*
%TO.P,R37,2*%
%TO.N,Net-(C49-Pad1)*%
X148425000Y-64190000D03*
%TD*%
D25*
%TO.P,C48,1*%
%TO.N,Net-(C48-Pad1)*%
X146820000Y-80145000D03*
%TO.P,C48,2*%
%TO.N,Net-(C48-Pad2)*%
X146820000Y-77195000D03*
%TD*%
D17*
%TO.P,TP23,1,1*%
%TO.N,/NewDAC/I2S_MCLK*%
X133620400Y-86492876D03*
%TD*%
D24*
%TO.P,R20,1*%
%TO.N,/SOC/USB_DP*%
X165425000Y-53400000D03*
%TO.P,R20,2*%
%TO.N,Net-(R20-Pad2)*%
X163775000Y-53400000D03*
%TD*%
D26*
%TO.P,FB3,1*%
%TO.N,Net-(C73-Pad1)*%
X166002700Y-62383938D03*
%TO.P,FB3,2*%
%TO.N,+5VA*%
X164102700Y-62383938D03*
%TD*%
D22*
%TO.P,D9,1,A1*%
%TO.N,GND*%
X160350000Y-89700000D03*
%TO.P,D9,2,A2*%
%TO.N,Net-(D9-Pad2)*%
X160350000Y-91900000D03*
%TD*%
D27*
%TO.P,C54,1*%
%TO.N,GND*%
X160300000Y-67175000D03*
%TO.P,C54,2*%
%TO.N,-5VA*%
X160300000Y-64375000D03*
%TD*%
D20*
%TO.P,R33,1*%
%TO.N,Net-(C47-Pad2)*%
X144790000Y-66175000D03*
%TO.P,R33,2*%
%TO.N,Net-(C49-Pad2)*%
X144790000Y-64525000D03*
%TD*%
D17*
%TO.P,TP22,1,1*%
%TO.N,/NewDAC/I2S_BCLK*%
X135680400Y-85242876D03*
%TD*%
D28*
%TO.P,C52,1*%
%TO.N,GND*%
X150400000Y-81550000D03*
%TO.P,C52,2*%
%TO.N,Net-(C52-Pad2)*%
X150400000Y-79650000D03*
%TD*%
D29*
%TO.P,R12,1*%
%TO.N,Net-(R11-Pad2)*%
X158532700Y-57108938D03*
%TO.P,R12,2*%
%TO.N,Net-(R12-Pad2)*%
X158532700Y-58758938D03*
%TD*%
D17*
%TO.P,TP9,1,1*%
%TO.N,Net-(D13-Pad2)*%
X121390000Y-44530000D03*
%TD*%
D30*
%TO.P,C31,1*%
%TO.N,+5VA*%
X147607700Y-91178938D03*
%TO.P,C31,2*%
%TO.N,Net-(C31-Pad2)*%
X150407700Y-91178938D03*
%TD*%
D24*
%TO.P,R56,1*%
%TO.N,+3V3*%
X111355000Y-46150000D03*
%TO.P,R56,2*%
%TO.N,/SOC/SDC_D0*%
X109705000Y-46150000D03*
%TD*%
%TO.P,R43,1*%
%TO.N,/NewDAC/I2C_SCL*%
X142085000Y-49050000D03*
%TO.P,R43,2*%
%TO.N,+3V3*%
X140435000Y-49050000D03*
%TD*%
D19*
%TO.P,C13,1*%
%TO.N,+1V8B*%
X101095000Y-68620000D03*
%TO.P,C13,2*%
%TO.N,GND*%
X102645000Y-68620000D03*
%TD*%
D16*
%TO.P,C20,1*%
%TO.N,GND*%
X137782700Y-81678938D03*
%TO.P,C20,2*%
%TO.N,+5VA*%
X137782700Y-80128938D03*
%TD*%
D31*
%TO.P,RF1,1,SIG*%
%TO.N,Net-(RF1-Pad1)*%
X79841747Y-90733555D03*
D32*
%TO.P,RF1,2,GND*%
%TO.N,GND*%
X78321747Y-92203555D03*
%TO.P,RF1,3,GND*%
X78321747Y-89263555D03*
%TD*%
D23*
%TO.P,C56,1*%
%TO.N,+3V3*%
X83536747Y-88833555D03*
%TO.P,C56,2*%
%TO.N,GND*%
X81986747Y-88833555D03*
%TD*%
D20*
%TO.P,R30,1*%
%TO.N,Net-(C43-Pad2)*%
X142600000Y-81500000D03*
%TO.P,R30,2*%
%TO.N,Net-(C48-Pad1)*%
X142600000Y-79850000D03*
%TD*%
D27*
%TO.P,C29,1*%
%TO.N,+5VA*%
X140200000Y-67875000D03*
%TO.P,C29,2*%
%TO.N,GND*%
X140200000Y-70675000D03*
%TD*%
%TO.P,C53,1*%
%TO.N,+5VA*%
X160300000Y-71575000D03*
%TO.P,C53,2*%
%TO.N,GND*%
X160300000Y-68775000D03*
%TD*%
D17*
%TO.P,TP1,1,1*%
%TO.N,/SOC/LCD_CS*%
X116220000Y-80000000D03*
%TD*%
%TO.P,TP12,1,1*%
%TO.N,/SOC/FLASH_SPI_MOSI*%
X120040000Y-94660000D03*
%TD*%
D33*
%TO.P,JP2,1,A*%
%TO.N,GND*%
X104780000Y-60145000D03*
D34*
%TO.P,JP2,2,B*%
%TO.N,/Power/RESET*%
X104780000Y-58695000D03*
%TD*%
D24*
%TO.P,R45,1*%
%TO.N,/NewDAC/I2C_SDIN*%
X142085000Y-47250000D03*
%TO.P,R45,2*%
%TO.N,+3V3*%
X140435000Y-47250000D03*
%TD*%
D17*
%TO.P,TP15,1,1*%
%TO.N,VCC*%
X154332700Y-45763938D03*
%TD*%
D20*
%TO.P,R23,1*%
%TO.N,+3V3*%
X135230400Y-97237876D03*
%TO.P,R23,2*%
%TO.N,Net-(R23-Pad2)*%
X135230400Y-95587876D03*
%TD*%
%TO.P,R36,1*%
%TO.N,GND*%
X144800000Y-81500000D03*
%TO.P,R36,2*%
%TO.N,Net-(C48-Pad1)*%
X144800000Y-79850000D03*
%TD*%
%TO.P,R21,1*%
%TO.N,/SOC/FLASH_SPI_MISO*%
X123471747Y-89763555D03*
%TO.P,R21,2*%
%TO.N,+3V3*%
X123471747Y-88113555D03*
%TD*%
D35*
%TO.P,C2,1*%
%TO.N,+3V3*%
X104821747Y-80098555D03*
%TO.P,C2,2*%
%TO.N,GND*%
X104821747Y-81648555D03*
%TD*%
D28*
%TO.P,C49,1*%
%TO.N,Net-(C49-Pad1)*%
X150420000Y-66310000D03*
%TO.P,C49,2*%
%TO.N,Net-(C49-Pad2)*%
X150420000Y-64410000D03*
%TD*%
D16*
%TO.P,C4,1*%
%TO.N,+1V8A*%
X92652700Y-61458938D03*
%TO.P,C4,2*%
%TO.N,GND*%
X92652700Y-59908938D03*
%TD*%
D36*
%TO.P,U2,1,I/O1*%
%TO.N,Net-(R19-Pad2)*%
X163662500Y-57150000D03*
%TO.P,U2,2,GND*%
%TO.N,GND*%
X163662500Y-56200000D03*
%TO.P,U2,3,I/O2*%
%TO.N,Net-(R20-Pad2)*%
X163662500Y-55250000D03*
%TO.P,U2,4,I/O2*%
%TO.N,Net-(P2-PadA6)*%
X165937500Y-55250000D03*
%TO.P,U2,5,VBUS*%
%TO.N,VBUS*%
X165937500Y-56200000D03*
%TO.P,U2,6,I/O1*%
%TO.N,Net-(P2-PadA7)*%
X165937500Y-57150000D03*
%TD*%
D35*
%TO.P,C19,1*%
%TO.N,+0V9*%
X89681747Y-80728555D03*
%TO.P,C19,2*%
%TO.N,GND*%
X89681747Y-82278555D03*
%TD*%
D17*
%TO.P,TP20,1,1*%
%TO.N,+5VA*%
X161932700Y-60663938D03*
%TD*%
D25*
%TO.P,C47,1*%
%TO.N,Net-(C47-Pad1)*%
X146795000Y-68850000D03*
%TO.P,C47,2*%
%TO.N,Net-(C47-Pad2)*%
X146795000Y-65900000D03*
%TD*%
D22*
%TO.P,D4,1,A1*%
%TO.N,GND*%
X105650000Y-48200000D03*
%TO.P,D4,2,A2*%
%TO.N,/SOC/SDC_CLK*%
X103450000Y-48200000D03*
%TD*%
D20*
%TO.P,R3,1*%
%TO.N,/SOC/LCD_EN*%
X105590000Y-65525000D03*
%TO.P,R3,2*%
%TO.N,+3V3*%
X105590000Y-63875000D03*
%TD*%
D37*
%TO.P,U3,1,CS*%
%TO.N,/SOC/FLASH_SPI_CS*%
X120701747Y-88563555D03*
%TO.P,U3,2,DO(IO1)*%
%TO.N,/SOC/FLASH_SPI_MISO*%
X120701747Y-89833555D03*
%TO.P,U3,3,WP(IO2)*%
%TO.N,/SOC/FLASH_SPI_WP*%
X120701747Y-91103555D03*
%TO.P,U3,4,GND*%
%TO.N,GND*%
X120701747Y-92373555D03*
%TO.P,U3,5,DI(IO0)*%
%TO.N,/SOC/FLASH_SPI_MOSI*%
X113501747Y-92373555D03*
%TO.P,U3,6,CLK*%
%TO.N,/SOC/FLASH_SPI_CLK*%
X113501747Y-91103555D03*
%TO.P,U3,7,HOLD*%
%TO.N,/SOC/FLASH_SPI_HOLD*%
X113501747Y-89833555D03*
%TO.P,U3,8,VCC*%
%TO.N,+3V3*%
X113501747Y-88563555D03*
%TD*%
D38*
%TO.P,U8,1*%
%TO.N,Net-(C51-Pad2)*%
X152825000Y-81005000D03*
%TO.P,U8,2,-*%
%TO.N,Net-(C52-Pad2)*%
X152825000Y-79735000D03*
%TO.P,U8,3,+*%
%TO.N,Net-(C51-Pad1)*%
X152825000Y-78465000D03*
%TO.P,U8,4,V-*%
%TO.N,-5VA*%
X152825000Y-77195000D03*
%TO.P,U8,5*%
%TO.N,N/C*%
X157775000Y-77195000D03*
%TO.P,U8,6*%
X157775000Y-78465000D03*
%TO.P,U8,7*%
X157775000Y-79735000D03*
%TO.P,U8,8,V+*%
%TO.N,+5VA*%
X157775000Y-81005000D03*
%TD*%
D16*
%TO.P,C61,1*%
%TO.N,Net-(C61-Pad1)*%
X137300000Y-52475000D03*
%TO.P,C61,2*%
%TO.N,GND*%
X137300000Y-50925000D03*
%TD*%
D17*
%TO.P,TP14,1,1*%
%TO.N,Net-(D9-Pad2)*%
X157300000Y-95300000D03*
%TD*%
D23*
%TO.P,C59,1*%
%TO.N,+3V3*%
X83506747Y-90403555D03*
%TO.P,C59,2*%
%TO.N,GND*%
X81956747Y-90403555D03*
%TD*%
D27*
%TO.P,C30,1*%
%TO.N,GND*%
X127200000Y-66775000D03*
%TO.P,C30,2*%
%TO.N,-5VA*%
X127200000Y-63975000D03*
%TD*%
D24*
%TO.P,R58,1*%
%TO.N,+3V3*%
X102166747Y-91763555D03*
%TO.P,R58,2*%
%TO.N,/SOC/WIFI_SDIO_D2*%
X100516747Y-91763555D03*
%TD*%
D17*
%TO.P,TP3,1,1*%
%TO.N,/SOC/LCD_WR*%
X116032700Y-75723938D03*
%TD*%
D22*
%TO.P,D2,1,A1*%
%TO.N,GND*%
X105650000Y-44200000D03*
%TO.P,D2,2,A2*%
%TO.N,/SOC/SDC_D1*%
X103450000Y-44200000D03*
%TD*%
D16*
%TO.P,C70,1*%
%TO.N,+5VA*%
X164952700Y-74138938D03*
%TO.P,C70,2*%
%TO.N,GND*%
X164952700Y-72588938D03*
%TD*%
D17*
%TO.P,TP8,1,1*%
%TO.N,GND*%
X114330000Y-45210000D03*
%TD*%
D35*
%TO.P,C68,1*%
%TO.N,VCC*%
X152405000Y-57095000D03*
%TO.P,C68,2*%
%TO.N,GND*%
X152405000Y-58645000D03*
%TD*%
D24*
%TO.P,R2,1*%
%TO.N,Net-(Q1-Pad1)*%
X118607500Y-53800000D03*
%TO.P,R2,2*%
%TO.N,GND*%
X116957500Y-53800000D03*
%TD*%
D39*
%TO.P,Y2,1,1*%
%TO.N,Net-(C76-Pad2)*%
X81581747Y-85793555D03*
%TO.P,Y2,2,2*%
%TO.N,Net-(C77-Pad2)*%
X82681747Y-85793555D03*
%TO.P,Y2,3,3*%
%TO.N,GND*%
X82681747Y-86593555D03*
%TO.P,Y2,4*%
%TO.N,N/C*%
X81581747Y-86593555D03*
%TD*%
D20*
%TO.P,R11,1*%
%TO.N,Net-(R10-Pad2)*%
X156422700Y-58768938D03*
%TO.P,R11,2*%
%TO.N,Net-(R11-Pad2)*%
X156422700Y-57118938D03*
%TD*%
D40*
%TO.P,L1,1,1*%
%TO.N,Net-(L1-Pad1)*%
X104711747Y-85108555D03*
%TO.P,L1,2,2*%
%TO.N,Net-(C60-Pad1)*%
X104711747Y-87658555D03*
%TD*%
D17*
%TO.P,TP19,1,1*%
%TO.N,-5VA*%
X169382700Y-80623938D03*
%TD*%
D20*
%TO.P,R34,1*%
%TO.N,GND*%
X144625000Y-70365000D03*
%TO.P,R34,2*%
%TO.N,Net-(C47-Pad1)*%
X144625000Y-68715000D03*
%TD*%
D26*
%TO.P,FB2,1*%
%TO.N,Net-(C72-Pad1)*%
X169432700Y-78073938D03*
%TO.P,FB2,2*%
%TO.N,-5VA*%
X167532700Y-78073938D03*
%TD*%
D35*
%TO.P,C34,1*%
%TO.N,-5VA*%
X124932700Y-75678938D03*
%TO.P,C34,2*%
%TO.N,GND*%
X124932700Y-77228938D03*
%TD*%
D19*
%TO.P,C6,1*%
%TO.N,GND*%
X80185000Y-53610000D03*
%TO.P,C6,2*%
%TO.N,Net-(C6-Pad2)*%
X81735000Y-53610000D03*
%TD*%
D29*
%TO.P,R7,1*%
%TO.N,Net-(R7-Pad1)*%
X108161747Y-93383555D03*
%TO.P,R7,2*%
%TO.N,/SOC/KEYS*%
X108161747Y-95033555D03*
%TD*%
D20*
%TO.P,R22,1*%
%TO.N,/SOC/SDC_PLUG*%
X85200000Y-54425000D03*
%TO.P,R22,2*%
%TO.N,+3V3*%
X85200000Y-52775000D03*
%TD*%
D19*
%TO.P,C15,1*%
%TO.N,+0V9*%
X101095000Y-71620000D03*
%TO.P,C15,2*%
%TO.N,GND*%
X102645000Y-71620000D03*
%TD*%
D24*
%TO.P,R17,1*%
%TO.N,/SOC/FLASH_SPI_CS*%
X121146747Y-86278555D03*
%TO.P,R17,2*%
%TO.N,+3V3*%
X119496747Y-86278555D03*
%TD*%
D19*
%TO.P,C55,1*%
%TO.N,-5VA*%
X154557700Y-75253938D03*
%TO.P,C55,2*%
%TO.N,GND*%
X156107700Y-75253938D03*
%TD*%
D24*
%TO.P,R9,1*%
%TO.N,Net-(R7-Pad1)*%
X154637700Y-91533938D03*
%TO.P,R9,2*%
%TO.N,Net-(R10-Pad1)*%
X152987700Y-91533938D03*
%TD*%
%TO.P,R60,1*%
%TO.N,+3V3*%
X102166747Y-90203555D03*
%TO.P,R60,2*%
%TO.N,/SOC/WIFI_SDIO_CMD*%
X100516747Y-90203555D03*
%TD*%
D27*
%TO.P,C58,1*%
%TO.N,GND*%
X160600000Y-77700000D03*
%TO.P,C58,2*%
%TO.N,-5VA*%
X160600000Y-74900000D03*
%TD*%
D23*
%TO.P,C10,1*%
%TO.N,+3V3*%
X79905000Y-64730000D03*
%TO.P,C10,2*%
%TO.N,GND*%
X78355000Y-64730000D03*
%TD*%
D20*
%TO.P,R4,1*%
%TO.N,Net-(Q1-Pad1)*%
X120432500Y-51745000D03*
%TO.P,R4,2*%
%TO.N,/SOC/LCD_PWM*%
X120432500Y-50095000D03*
%TD*%
D24*
%TO.P,R15,1*%
%TO.N,+3V3*%
X111425000Y-52000000D03*
%TO.P,R15,2*%
%TO.N,/SOC/SDC_D3*%
X109775000Y-52000000D03*
%TD*%
D28*
%TO.P,C51,1*%
%TO.N,Net-(C51-Pad1)*%
X150400000Y-77425000D03*
%TO.P,C51,2*%
%TO.N,Net-(C51-Pad2)*%
X150400000Y-75525000D03*
%TD*%
D19*
%TO.P,C77,1*%
%TO.N,GND*%
X80468382Y-84044456D03*
%TO.P,C77,2*%
%TO.N,Net-(C77-Pad2)*%
X82018382Y-84044456D03*
%TD*%
D20*
%TO.P,R32,1*%
%TO.N,Net-(C44-Pad2)*%
X142600000Y-70300000D03*
%TO.P,R32,2*%
%TO.N,Net-(C47-Pad1)*%
X142600000Y-68650000D03*
%TD*%
D18*
%TO.P,R6,1*%
%TO.N,Net-(JP1-Pad2)*%
X119246747Y-96908555D03*
%TO.P,R6,2*%
%TO.N,/SOC/FLASH_SPI_CS*%
X120896747Y-96908555D03*
%TD*%
D29*
%TO.P,R55,1*%
%TO.N,GND*%
X149750000Y-44375000D03*
%TO.P,R55,2*%
%TO.N,Net-(R55-Pad2)*%
X149750000Y-46025000D03*
%TD*%
D23*
%TO.P,C25,1*%
%TO.N,Net-(C25-Pad1)*%
X165175000Y-51400000D03*
%TO.P,C25,2*%
%TO.N,GND*%
X163625000Y-51400000D03*
%TD*%
D24*
%TO.P,R65,1*%
%TO.N,+3V3*%
X102116747Y-85473555D03*
%TO.P,R65,2*%
%TO.N,/SOC/WIFI_SDIO_D1*%
X100466747Y-85473555D03*
%TD*%
D17*
%TO.P,TP11,1,1*%
%TO.N,/SOC/FLASH_SPI_MISO*%
X123831747Y-94088555D03*
%TD*%
D29*
%TO.P,R54,1*%
%TO.N,GND*%
X147950000Y-44375000D03*
%TO.P,R54,2*%
%TO.N,Net-(R54-Pad2)*%
X147950000Y-46025000D03*
%TD*%
D22*
%TO.P,D1,1,A1*%
%TO.N,GND*%
X110780000Y-93290000D03*
%TO.P,D1,2,A2*%
%TO.N,/SOC/KEYS*%
X110780000Y-95490000D03*
%TD*%
D16*
%TO.P,C8,1*%
%TO.N,+3V3*%
X95202700Y-61408938D03*
%TO.P,C8,2*%
%TO.N,GND*%
X95202700Y-59858938D03*
%TD*%
D18*
%TO.P,R49,1*%
%TO.N,Net-(R49-Pad1)*%
X152725000Y-49400000D03*
%TO.P,R49,2*%
%TO.N,VCC*%
X154375000Y-49400000D03*
%TD*%
D41*
%TO.P,JP1,1,A*%
%TO.N,GND*%
X115336747Y-96878555D03*
D42*
%TO.P,JP1,2,B*%
%TO.N,Net-(JP1-Pad2)*%
X116786747Y-96878555D03*
%TD*%
D29*
%TO.P,R52,1*%
%TO.N,Net-(D14-Pad2)*%
X119240000Y-46315000D03*
%TO.P,R52,2*%
%TO.N,DEBUG_UART_TX*%
X119240000Y-47965000D03*
%TD*%
D24*
%TO.P,R53,1*%
%TO.N,Net-(R53-Pad1)*%
X105825000Y-62000000D03*
%TO.P,R53,2*%
%TO.N,GND*%
X104175000Y-62000000D03*
%TD*%
D43*
%TO.P,J2,1,1*%
%TO.N,GND*%
X163395000Y-87100000D03*
D44*
%TO.P,J2,2,2*%
%TO.N,unconnected-(J2-Pad2)*%
X164295000Y-84450000D03*
%TO.P,J2,3,3*%
%TO.N,Net-(D10-Pad2)*%
X172295000Y-90300000D03*
X172295000Y-83900000D03*
%TO.P,J2,4,4*%
%TO.N,Net-(D9-Pad2)*%
X164295000Y-89750000D03*
%TD*%
D24*
%TO.P,R14,1*%
%TO.N,+3V3*%
X111545000Y-53930000D03*
%TO.P,R14,2*%
%TO.N,/SOC/SDC_D2*%
X109895000Y-53930000D03*
%TD*%
D45*
%TO.P,F2,1*%
%TO.N,Net-(D11-Pad1)*%
X135900000Y-56200000D03*
%TO.P,F2,2*%
%TO.N,Net-(C61-Pad1)*%
X139200000Y-56200000D03*
%TD*%
D29*
%TO.P,R31,1*%
%TO.N,Net-(C41-Pad2)*%
X142545000Y-64550000D03*
%TO.P,R31,2*%
%TO.N,Net-(C47-Pad2)*%
X142545000Y-66200000D03*
%TD*%
D30*
%TO.P,C38,1*%
%TO.N,+5VA*%
X147607700Y-96278938D03*
%TO.P,C38,2*%
%TO.N,GND*%
X150407700Y-96278938D03*
%TD*%
D19*
%TO.P,C11,1*%
%TO.N,+3V3*%
X101085000Y-65520000D03*
%TO.P,C11,2*%
%TO.N,GND*%
X102635000Y-65520000D03*
%TD*%
D17*
%TO.P,TP25,1,1*%
%TO.N,/NewDAC/I2C_SDIN*%
X138771747Y-44693555D03*
%TD*%
D18*
%TO.P,R10,1*%
%TO.N,Net-(R10-Pad1)*%
X152955000Y-89190000D03*
%TO.P,R10,2*%
%TO.N,Net-(R10-Pad2)*%
X154605000Y-89190000D03*
%TD*%
D28*
%TO.P,FB4,1*%
%TO.N,Net-(C22-Pad1)*%
X85260000Y-82870000D03*
%TO.P,FB4,2*%
%TO.N,+1V8A*%
X85260000Y-80970000D03*
%TD*%
D20*
%TO.P,R1,1*%
%TO.N,Net-(P1-Pad38)*%
X114792500Y-51922500D03*
%TO.P,R1,2*%
%TO.N,Net-(Q1-Pad3)*%
X114792500Y-50272500D03*
%TD*%
D35*
%TO.P,C64,1*%
%TO.N,+3V3*%
X155800000Y-52145000D03*
%TO.P,C64,2*%
%TO.N,GND*%
X155800000Y-53695000D03*
%TD*%
D17*
%TO.P,TP2,1,1*%
%TO.N,/SOC/LCD_RS*%
X116090000Y-77890000D03*
%TD*%
D35*
%TO.P,C44,1*%
%TO.N,Net-(C44-Pad1)*%
X137895000Y-64600000D03*
%TO.P,C44,2*%
%TO.N,Net-(C44-Pad2)*%
X137895000Y-66150000D03*
%TD*%
D23*
%TO.P,C27,1*%
%TO.N,+3V3*%
X90567700Y-59893938D03*
%TO.P,C27,2*%
%TO.N,GND*%
X89017700Y-59893938D03*
%TD*%
%TO.P,C66,1*%
%TO.N,+3V3*%
X94446747Y-82210000D03*
%TO.P,C66,2*%
%TO.N,GND*%
X92896747Y-82210000D03*
%TD*%
D16*
%TO.P,C60,1*%
%TO.N,Net-(C60-Pad1)*%
X108550000Y-87735000D03*
%TO.P,C60,2*%
%TO.N,GND*%
X108550000Y-86185000D03*
%TD*%
D35*
%TO.P,C42,1*%
%TO.N,Net-(C42-Pad1)*%
X127200000Y-79800000D03*
%TO.P,C42,2*%
%TO.N,Net-(C42-Pad2)*%
X127200000Y-81350000D03*
%TD*%
D30*
%TO.P,C36,1*%
%TO.N,+5VA*%
X147607700Y-87078938D03*
%TO.P,C36,2*%
%TO.N,GND*%
X150407700Y-87078938D03*
%TD*%
D46*
%TO.P,U1,1,PG6*%
%TO.N,unconnected-(U1-Pad1)*%
X83860000Y-63537500D03*
%TO.P,U1,2,PG7*%
%TO.N,unconnected-(U1-Pad2)*%
X84260000Y-63537500D03*
%TO.P,U1,3,PG8*%
%TO.N,unconnected-(U1-Pad3)*%
X84660000Y-63537500D03*
%TO.P,U1,4,PG9*%
%TO.N,unconnected-(U1-Pad4)*%
X85060000Y-63537500D03*
%TO.P,U1,5,PG10*%
%TO.N,unconnected-(U1-Pad5)*%
X85460000Y-63537500D03*
%TO.P,U1,6,PG11*%
%TO.N,/SOC/SDC_PLUG*%
X85860000Y-63537500D03*
%TO.P,U1,7,PF0*%
%TO.N,/SOC/SDC_D1*%
X86260000Y-63537500D03*
%TO.P,U1,8,PF1*%
%TO.N,/SOC/SDC_D0*%
X86660000Y-63537500D03*
%TO.P,U1,9,PF2*%
%TO.N,/SOC/SDC_CLK*%
X87060000Y-63537500D03*
%TO.P,U1,10,PF3*%
%TO.N,/SOC/SDC_CMD*%
X87460000Y-63537500D03*
%TO.P,U1,11,PF4*%
%TO.N,/SOC/SDC_D3*%
X87860000Y-63537500D03*
%TO.P,U1,12,PF5*%
%TO.N,/SOC/SDC_D2*%
X88260000Y-63537500D03*
%TO.P,U1,13,PF6*%
%TO.N,unconnected-(U1-Pad13)*%
X88660000Y-63537500D03*
%TO.P,U1,14,PC7*%
%TO.N,/SOC/FLASH_SPI_HOLD*%
X89060000Y-63537500D03*
%TO.P,U1,15,PC6*%
%TO.N,/SOC/FLASH_SPI_WP*%
X89460000Y-63537500D03*
%TO.P,U1,16,PC5*%
%TO.N,/SOC/FLASH_SPI_MISO*%
X89860000Y-63537500D03*
%TO.P,U1,17,PC4*%
%TO.N,/SOC/FLASH_SPI_MOSI*%
X90260000Y-63537500D03*
%TO.P,U1,18,PC3*%
%TO.N,/SOC/FLASH_SPI_CS*%
X90660000Y-63537500D03*
%TO.P,U1,19,PC2*%
%TO.N,/SOC/FLASH_SPI_CLK*%
X91060000Y-63537500D03*
%TO.P,U1,20,VCC-PLL*%
%TO.N,+1V8A*%
X91460000Y-63537500D03*
%TO.P,U1,21,REFCLK-OUT*%
%TO.N,unconnected-(U1-Pad21)*%
X91860000Y-63537500D03*
%TO.P,U1,22,DXOUT*%
%TO.N,Net-(C5-Pad2)*%
X92260000Y-63537500D03*
%TO.P,U1,23,DXIN*%
%TO.N,Net-(C6-Pad2)*%
X92660000Y-63537500D03*
%TO.P,U1,24,X32KOUT*%
%TO.N,unconnected-(U1-Pad24)*%
X93060000Y-63537500D03*
%TO.P,U1,25,XX32KIN*%
%TO.N,unconnected-(U1-Pad25)*%
X93460000Y-63537500D03*
%TO.P,U1,26,VCC-RTC*%
%TO.N,+1V8A*%
X93860000Y-63537500D03*
%TO.P,U1,27,RST*%
%TO.N,/Power/RESET*%
X94260000Y-63537500D03*
%TO.P,U1,28,LDOA-OUT*%
%TO.N,+1V8A*%
X94660000Y-63537500D03*
%TO.P,U1,29,LDO-IN*%
%TO.N,+3V3*%
X95060000Y-63537500D03*
%TO.P,U1,30,LDOB-OUT*%
%TO.N,+1V8B*%
X95460000Y-63537500D03*
%TO.P,U1,31,PE13*%
%TO.N,/Power/PWR_KEY*%
X95860000Y-63537500D03*
%TO.P,U1,32,PE12*%
%TO.N,/Power/IRQ*%
X96260000Y-63537500D03*
D47*
%TO.P,U1,33,PE3*%
%TO.N,DEBUG_UART_RX*%
X97722500Y-65000000D03*
%TO.P,U1,34,VCC-PE*%
%TO.N,+3V3*%
X97722500Y-65400000D03*
%TO.P,U1,35,PE2*%
%TO.N,DEBUG_UART_TX*%
X97722500Y-65800000D03*
%TO.P,U1,36,PE11*%
%TO.N,unconnected-(U1-Pad36)*%
X97722500Y-66200000D03*
%TO.P,U1,37,PE10*%
%TO.N,unconnected-(U1-Pad37)*%
X97722500Y-66600000D03*
%TO.P,U1,38,PE9*%
%TO.N,/SOC/LCD_PWM*%
X97722500Y-67000000D03*
%TO.P,U1,39,PE8*%
%TO.N,unconnected-(U1-Pad39)*%
X97722500Y-67400000D03*
%TO.P,U1,40,PE7*%
%TO.N,unconnected-(U1-Pad40)*%
X97722500Y-67800000D03*
%TO.P,U1,41,PE6*%
%TO.N,unconnected-(U1-Pad41)*%
X97722500Y-68200000D03*
%TO.P,U1,42,PE5*%
%TO.N,unconnected-(U1-Pad42)*%
X97722500Y-68600000D03*
%TO.P,U1,43,PE4*%
%TO.N,unconnected-(U1-Pad43)*%
X97722500Y-69000000D03*
%TO.P,U1,44,PE0*%
%TO.N,unconnected-(U1-Pad44)*%
X97722500Y-69400000D03*
%TO.P,U1,45,PE1*%
%TO.N,unconnected-(U1-Pad45)*%
X97722500Y-69800000D03*
%TO.P,U1,46,VDD-SYS0*%
%TO.N,unconnected-(U1-Pad46)*%
X97722500Y-70200000D03*
%TO.P,U1,47,DZQ*%
%TO.N,Net-(R53-Pad1)*%
X97722500Y-70600000D03*
%TO.P,U1,48,VCC-DRAM0*%
%TO.N,+1V8B*%
X97722500Y-71000000D03*
%TO.P,U1,49,VCC-DRAM1*%
X97722500Y-71400000D03*
%TO.P,U1,50,VDD18-DRAM*%
X97722500Y-71800000D03*
%TO.P,U1,51,VDD-SYS0*%
%TO.N,+0V9*%
X97722500Y-72200000D03*
%TO.P,U1,52,PD22*%
%TO.N,/SOC/LCD_EN*%
X97722500Y-72600000D03*
%TO.P,U1,53,PD21*%
%TO.N,/SOC/LCD_CS*%
X97722500Y-73000000D03*
%TO.P,U1,54,PD20*%
%TO.N,/SOC/LCD_RD*%
X97722500Y-73400000D03*
%TO.P,U1,55,PD0*%
%TO.N,unconnected-(U1-Pad55)*%
X97722500Y-73800000D03*
%TO.P,U1,56,PD1*%
%TO.N,/SOC/LCD_D3*%
X97722500Y-74200000D03*
%TO.P,U1,57,PD2*%
%TO.N,/SOC/LCD_D4*%
X97722500Y-74600000D03*
%TO.P,U1,58,PD3*%
%TO.N,/SOC/LCD_D5*%
X97722500Y-75000000D03*
%TO.P,U1,59,PD4*%
%TO.N,/SOC/LCD_D6*%
X97722500Y-75400000D03*
%TO.P,U1,60,PD5*%
%TO.N,/SOC/LCD_D7*%
X97722500Y-75800000D03*
%TO.P,U1,61,PD6*%
%TO.N,/SOC/LCD_D10*%
X97722500Y-76200000D03*
%TO.P,U1,62,PD7*%
%TO.N,/SOC/LCD_D11*%
X97722500Y-76600000D03*
%TO.P,U1,63,PD8*%
%TO.N,/SOC/LCD_D12*%
X97722500Y-77000000D03*
%TO.P,U1,64,PD9*%
%TO.N,unconnected-(U1-Pad64)*%
X97722500Y-77400000D03*
D46*
%TO.P,U1,65,VCC-LVDS*%
%TO.N,+1V8A*%
X96260000Y-78862500D03*
%TO.P,U1,66,VCC-PD*%
%TO.N,+3V3*%
X95860000Y-78862500D03*
%TO.P,U1,67,PD10*%
%TO.N,/SOC/LCD_D14*%
X95460000Y-78862500D03*
%TO.P,U1,68,PD11*%
%TO.N,/SOC/LCD_D15*%
X95060000Y-78862500D03*
%TO.P,U1,69,PD13*%
%TO.N,unconnected-(U1-Pad69)*%
X94660000Y-78862500D03*
%TO.P,U1,70,PD12*%
%TO.N,unconnected-(U1-Pad70)*%
X94260000Y-78862500D03*
%TO.P,U1,71,PD14*%
%TO.N,/SOC/HP_PLUG*%
X93860000Y-78862500D03*
%TO.P,U1,72,PD15*%
%TO.N,unconnected-(U1-Pad72)*%
X93460000Y-78862500D03*
%TO.P,U1,73,PD16*%
%TO.N,unconnected-(U1-Pad73)*%
X93060000Y-78862500D03*
%TO.P,U1,74,PD17*%
%TO.N,/Power/AUDIO_PWR_EN*%
X92660000Y-78862500D03*
%TO.P,U1,75,PD18*%
%TO.N,/SOC/LCD_WR*%
X92260000Y-78862500D03*
%TO.P,U1,76,PD19*%
%TO.N,/SOC/LCD_RS*%
X91860000Y-78862500D03*
%TO.P,U1,77,VCC-TVOUT*%
%TO.N,unconnected-(U1-Pad77)*%
X91460000Y-78862500D03*
%TO.P,U1,78,TVOUT0*%
%TO.N,unconnected-(U1-Pad78)*%
X91060000Y-78862500D03*
%TO.P,U1,79,PB7*%
%TO.N,/NewDAC/I2S_MCLK*%
X90660000Y-78862500D03*
%TO.P,U1,80,PB6*%
%TO.N,/NewDAC/I2S_LRCK*%
X90260000Y-78862500D03*
%TO.P,U1,81,VDD-SYS2*%
%TO.N,+0V9*%
X89860000Y-78862500D03*
%TO.P,U1,82,PB5*%
%TO.N,/NewDAC/I2S_BCLK*%
X89460000Y-78862500D03*
%TO.P,U1,83,VCC-IO*%
%TO.N,+3V3*%
X89060000Y-78862500D03*
%TO.P,U1,84,PB4*%
%TO.N,/NewDAC/I2S_DIN*%
X88660000Y-78862500D03*
%TO.P,U1,85,PB3*%
%TO.N,/NewDAC/I2C_SDIN*%
X88260000Y-78862500D03*
%TO.P,U1,86,PB2*%
%TO.N,/NewDAC/I2C_SCL*%
X87860000Y-78862500D03*
%TO.P,U1,87,MICIN3P*%
%TO.N,unconnected-(U1-Pad87)*%
X87460000Y-78862500D03*
%TO.P,U1,88,MICIN3N*%
%TO.N,unconnected-(U1-Pad88)*%
X87060000Y-78862500D03*
%TO.P,U1,89,AVCC*%
%TO.N,Net-(C22-Pad1)*%
X86660000Y-78862500D03*
%TO.P,U1,90,VRA2*%
%TO.N,unconnected-(U1-Pad90)*%
X86260000Y-78862500D03*
%TO.P,U1,91,AGND*%
%TO.N,GND*%
X85860000Y-78862500D03*
%TO.P,U1,92,VRA1*%
%TO.N,unconnected-(U1-Pad92)*%
X85460000Y-78862500D03*
%TO.P,U1,93,FMINR*%
%TO.N,unconnected-(U1-Pad93)*%
X85060000Y-78862500D03*
%TO.P,U1,94,FMINL*%
%TO.N,unconnected-(U1-Pad94)*%
X84660000Y-78862500D03*
%TO.P,U1,95,LINEINR*%
%TO.N,unconnected-(U1-Pad95)*%
X84260000Y-78862500D03*
%TO.P,U1,96,LINEINL*%
%TO.N,unconnected-(U1-Pad96)*%
X83860000Y-78862500D03*
D47*
%TO.P,U1,97,HPVCC*%
%TO.N,unconnected-(U1-Pad97)*%
X82397500Y-77400000D03*
%TO.P,U1,98,HPOUTR*%
%TO.N,unconnected-(U1-Pad98)*%
X82397500Y-77000000D03*
%TO.P,U1,99,HPOUTL*%
%TO.N,unconnected-(U1-Pad99)*%
X82397500Y-76600000D03*
%TO.P,U1,100,HPOUTFB*%
%TO.N,unconnected-(U1-Pad100)*%
X82397500Y-76200000D03*
%TO.P,U1,101,GPADC0*%
%TO.N,/SOC/KEYS*%
X82397500Y-75800000D03*
%TO.P,U1,102,TP-X1*%
%TO.N,unconnected-(U1-Pad102)*%
X82397500Y-75400000D03*
%TO.P,U1,103,TP-X2*%
%TO.N,unconnected-(U1-Pad103)*%
X82397500Y-75000000D03*
%TO.P,U1,104,TP-Y1*%
%TO.N,unconnected-(U1-Pad104)*%
X82397500Y-74600000D03*
%TO.P,U1,105,TP-Y2*%
%TO.N,unconnected-(U1-Pad105)*%
X82397500Y-74200000D03*
%TO.P,U1,106,NC0*%
%TO.N,unconnected-(U1-Pad106)*%
X82397500Y-73800000D03*
%TO.P,U1,107,VCC-TVIN*%
%TO.N,unconnected-(U1-Pad107)*%
X82397500Y-73400000D03*
%TO.P,U1,108,TVIN0*%
%TO.N,unconnected-(U1-Pad108)*%
X82397500Y-73000000D03*
%TO.P,U1,109,TVIN1*%
%TO.N,unconnected-(U1-Pad109)*%
X82397500Y-72600000D03*
%TO.P,U1,110,TVIN-VRP*%
%TO.N,unconnected-(U1-Pad110)*%
X82397500Y-72200000D03*
%TO.P,U1,111,TVIN-VRN*%
%TO.N,unconnected-(U1-Pad111)*%
X82397500Y-71800000D03*
%TO.P,U1,112,USB1-DP*%
%TO.N,unconnected-(U1-Pad112)*%
X82397500Y-71400000D03*
%TO.P,U1,113,USB1-DM*%
%TO.N,unconnected-(U1-Pad113)*%
X82397500Y-71000000D03*
%TO.P,U1,114,USB0-DM*%
%TO.N,/SOC/USB_DM*%
X82397500Y-70600000D03*
%TO.P,U1,115,USB0-DP*%
%TO.N,/SOC/USB_DP*%
X82397500Y-70200000D03*
%TO.P,U1,116,VDD-CORE0*%
%TO.N,+0V9*%
X82397500Y-69800000D03*
%TO.P,U1,117,VDD-CORE1*%
X82397500Y-69400000D03*
%TO.P,U1,118,PG1*%
%TO.N,/SOC/WIFI_SDIO_CMD*%
X82397500Y-69000000D03*
%TO.P,U1,119,PG2*%
%TO.N,/SOC/WIFI_SDIO_D0*%
X82397500Y-68600000D03*
%TO.P,U1,120,PG0*%
%TO.N,/SOC/WIFI_SDIO_CLK*%
X82397500Y-68200000D03*
%TO.P,U1,121,PG3*%
%TO.N,/SOC/WIFI_SDIO_D1*%
X82397500Y-67800000D03*
%TO.P,U1,122,PG5*%
%TO.N,/SOC/WIFI_SDIO_D3*%
X82397500Y-67400000D03*
%TO.P,U1,123,PG4*%
%TO.N,/SOC/WIFI_SDIO_D2*%
X82397500Y-67000000D03*
%TO.P,U1,124,PG12*%
%TO.N,unconnected-(U1-Pad124)*%
X82397500Y-66600000D03*
%TO.P,U1,125,PG13*%
%TO.N,/SOC/WIFI_REG_ON*%
X82397500Y-66200000D03*
%TO.P,U1,126,PG14*%
%TO.N,unconnected-(U1-Pad126)*%
X82397500Y-65800000D03*
%TO.P,U1,127,PG15*%
%TO.N,unconnected-(U1-Pad127)*%
X82397500Y-65400000D03*
%TO.P,U1,128,VCC-PG*%
%TO.N,+3V3*%
X82397500Y-65000000D03*
D48*
%TO.P,U1,129,GND*%
%TO.N,GND*%
X90060000Y-71200000D03*
%TD*%
D49*
%TO.P,P2,A1,GND*%
%TO.N,GND*%
X169410000Y-51845000D03*
%TO.P,P2,A4,VBUS*%
%TO.N,Net-(F1-Pad2)*%
X169410000Y-52620000D03*
D50*
%TO.P,P2,A5,CC*%
%TO.N,unconnected-(P2-PadA5)*%
X169410000Y-53820000D03*
%TO.P,P2,A6,D+*%
%TO.N,Net-(P2-PadA6)*%
X169410000Y-54820000D03*
%TO.P,P2,A7,D-*%
%TO.N,Net-(P2-PadA7)*%
X169410000Y-55320000D03*
%TO.P,P2,A8,SBU1*%
%TO.N,unconnected-(P2-PadA8)*%
X169410000Y-56320000D03*
%TO.P,P2,B5,VCONN*%
%TO.N,unconnected-(P2-PadB5)*%
X169410000Y-56820000D03*
%TO.P,P2,B6,D+*%
%TO.N,Net-(P2-PadA6)*%
X169410000Y-55820000D03*
%TO.P,P2,B7,D-*%
%TO.N,Net-(P2-PadA7)*%
X169410000Y-54320000D03*
%TO.P,P2,B8,SBU2*%
%TO.N,unconnected-(P2-PadB8)*%
X169410000Y-53320000D03*
D49*
%TO.P,P2,B9,VBUS*%
%TO.N,Net-(F1-Pad2)*%
X169410000Y-57520000D03*
%TO.P,P2,B12,GND*%
%TO.N,GND*%
X169410000Y-58295000D03*
D51*
%TO.P,P2,S1,SHIELD*%
X174505000Y-50750000D03*
D52*
X170325000Y-50750000D03*
D51*
X174505000Y-59390000D03*
D52*
X170325000Y-59390000D03*
%TD*%
D16*
%TO.P,C9,1*%
%TO.N,+1V8B*%
X97832700Y-61368938D03*
%TO.P,C9,2*%
%TO.N,GND*%
X97832700Y-59818938D03*
%TD*%
D18*
%TO.P,R63,1*%
%TO.N,Net-(R63-Pad1)*%
X100546747Y-94833555D03*
%TO.P,R63,2*%
%TO.N,GND*%
X102196747Y-94833555D03*
%TD*%
D38*
%TO.P,U7,1*%
%TO.N,Net-(C49-Pad2)*%
X152680000Y-70045000D03*
%TO.P,U7,2,-*%
%TO.N,Net-(C50-Pad2)*%
X152680000Y-68775000D03*
%TO.P,U7,3,+*%
%TO.N,Net-(C49-Pad1)*%
X152680000Y-67505000D03*
%TO.P,U7,4,V-*%
%TO.N,-5VA*%
X152680000Y-66235000D03*
%TO.P,U7,5*%
%TO.N,N/C*%
X157630000Y-66235000D03*
%TO.P,U7,6*%
X157630000Y-67505000D03*
%TO.P,U7,7*%
X157630000Y-68775000D03*
%TO.P,U7,8,V+*%
%TO.N,+5VA*%
X157630000Y-70045000D03*
%TD*%
D23*
%TO.P,C3,1*%
%TO.N,/SOC/KEYS*%
X80035000Y-77420000D03*
%TO.P,C3,2*%
%TO.N,GND*%
X78485000Y-77420000D03*
%TD*%
D17*
%TO.P,TP5,1,1*%
%TO.N,+1V8A*%
X77781747Y-80433555D03*
%TD*%
%TO.P,TP10,1,1*%
%TO.N,Net-(D14-Pad2)*%
X119200000Y-44550000D03*
%TD*%
D18*
%TO.P,R48,1*%
%TO.N,GND*%
X169537700Y-69313938D03*
%TO.P,R48,2*%
%TO.N,Net-(R47-Pad1)*%
X171187700Y-69313938D03*
%TD*%
D20*
%TO.P,R50,1*%
%TO.N,Net-(R50-Pad1)*%
X151960000Y-47865000D03*
%TO.P,R50,2*%
%TO.N,VCC*%
X151960000Y-46215000D03*
%TD*%
D23*
%TO.P,C26,1*%
%TO.N,GND*%
X117296747Y-86308555D03*
%TO.P,C26,2*%
%TO.N,+3V3*%
X115746747Y-86308555D03*
%TD*%
D22*
%TO.P,D10,1,A1*%
%TO.N,GND*%
X160350000Y-86300000D03*
%TO.P,D10,2,A2*%
%TO.N,Net-(D10-Pad2)*%
X160350000Y-84100000D03*
%TD*%
D35*
%TO.P,C67,1*%
%TO.N,VCC*%
X149735000Y-57125000D03*
%TO.P,C67,2*%
%TO.N,GND*%
X149735000Y-58675000D03*
%TD*%
D30*
%TO.P,C37,1*%
%TO.N,+5VA*%
X147610000Y-93550000D03*
%TO.P,C37,2*%
%TO.N,GND*%
X150410000Y-93550000D03*
%TD*%
D23*
%TO.P,C62,1*%
%TO.N,VBUS*%
X142035000Y-50750000D03*
%TO.P,C62,2*%
%TO.N,GND*%
X140485000Y-50750000D03*
%TD*%
D29*
%TO.P,R26,1*%
%TO.N,Net-(C42-Pad1)*%
X125000000Y-79750000D03*
%TO.P,R26,2*%
%TO.N,Net-(C42-Pad2)*%
X125000000Y-81400000D03*
%TD*%
%TO.P,R41,1*%
%TO.N,Net-(C49-Pad2)*%
X157550000Y-85175000D03*
%TO.P,R41,2*%
%TO.N,Net-(D10-Pad2)*%
X157550000Y-86825000D03*
%TD*%
D18*
%TO.P,R5,1*%
%TO.N,+1V8A*%
X78465000Y-75770000D03*
%TO.P,R5,2*%
%TO.N,/SOC/KEYS*%
X80115000Y-75770000D03*
%TD*%
D19*
%TO.P,C65,1*%
%TO.N,+0V9*%
X145825000Y-58600000D03*
%TO.P,C65,2*%
%TO.N,GND*%
X147375000Y-58600000D03*
%TD*%
D22*
%TO.P,D13,1,A1*%
%TO.N,GND*%
X123800000Y-48300000D03*
%TO.P,D13,2,A2*%
%TO.N,Net-(D13-Pad2)*%
X123800000Y-46100000D03*
%TD*%
D53*
%TO.P,U11,1,OUT*%
%TO.N,Net-(C72-Pad1)*%
X169250000Y-74437500D03*
%TO.P,U11,2,IN*%
%TO.N,+5VA*%
X168300000Y-74437500D03*
%TO.P,U11,3,CFLY-*%
%TO.N,Net-(C71-Pad2)*%
X167350000Y-74437500D03*
%TO.P,U11,4,GND*%
%TO.N,GND*%
X167350000Y-72162500D03*
%TO.P,U11,5,EN*%
%TO.N,/Power/AUDIO_PWR_EN*%
X168300000Y-72162500D03*
%TO.P,U11,6,CFLY+*%
%TO.N,Net-(C71-Pad1)*%
X169250000Y-72162500D03*
%TD*%
D18*
%TO.P,R44,1*%
%TO.N,GND*%
X140435000Y-52450000D03*
%TO.P,R44,2*%
%TO.N,Net-(R44-Pad2)*%
X142085000Y-52450000D03*
%TD*%
D19*
%TO.P,C45,1*%
%TO.N,-5VA*%
X154465000Y-64560000D03*
%TO.P,C45,2*%
%TO.N,GND*%
X156015000Y-64560000D03*
%TD*%
D24*
%TO.P,R59,1*%
%TO.N,+3V3*%
X102166747Y-93323555D03*
%TO.P,R59,2*%
%TO.N,/SOC/WIFI_SDIO_D3*%
X100516747Y-93323555D03*
%TD*%
D22*
%TO.P,D8,1,A1*%
%TO.N,GND*%
X79900000Y-51200000D03*
%TO.P,D8,2,A2*%
%TO.N,/SOC/SDC_PLUG*%
X82100000Y-51200000D03*
%TD*%
%TO.P,D7,1,A1*%
%TO.N,GND*%
X105650000Y-54200000D03*
%TO.P,D7,2,A2*%
%TO.N,/SOC/SDC_D2*%
X103450000Y-54200000D03*
%TD*%
D29*
%TO.P,R27,1*%
%TO.N,Net-(C43-Pad1)*%
X140200000Y-75750000D03*
%TO.P,R27,2*%
%TO.N,Net-(C43-Pad2)*%
X140200000Y-77400000D03*
%TD*%
D54*
%TO.P,Q1,1,G*%
%TO.N,Net-(Q1-Pad1)*%
X118692500Y-51757500D03*
%TO.P,Q1,2,S*%
%TO.N,GND*%
X116792500Y-51757500D03*
%TO.P,Q1,3,D*%
%TO.N,Net-(Q1-Pad3)*%
X117742500Y-49882500D03*
%TD*%
D55*
%TO.P,D11,1,1*%
%TO.N,Net-(D11-Pad1)*%
X134300000Y-53050000D03*
%TO.P,D11,2,2*%
%TO.N,unconnected-(D11-Pad2)*%
X134300000Y-51800000D03*
%TO.P,D11,3,3*%
%TO.N,GND*%
X134300000Y-50550000D03*
D56*
%TO.P,D11,4*%
%TO.N,N/C*%
X131700000Y-55430000D03*
%TO.P,D11,5*%
X131700000Y-48170000D03*
%TD*%
D17*
%TO.P,TP4,1,1*%
%TO.N,/SOC/LCD_RD*%
X116060000Y-73630000D03*
%TD*%
D22*
%TO.P,D14,1,A1*%
%TO.N,GND*%
X117000000Y-48100000D03*
%TO.P,D14,2,A2*%
%TO.N,Net-(D14-Pad2)*%
X117000000Y-45900000D03*
%TD*%
D35*
%TO.P,C23,1*%
%TO.N,+3V3*%
X87491747Y-80778555D03*
%TO.P,C23,2*%
%TO.N,GND*%
X87491747Y-82328555D03*
%TD*%
D18*
%TO.P,R39,1*%
%TO.N,Net-(C48-Pad2)*%
X146775000Y-75610000D03*
%TO.P,R39,2*%
%TO.N,Net-(C51-Pad1)*%
X148425000Y-75610000D03*
%TD*%
D20*
%TO.P,R47,1*%
%TO.N,Net-(R47-Pad1)*%
X168900000Y-67225000D03*
%TO.P,R47,2*%
%TO.N,Net-(C73-Pad1)*%
X168900000Y-65575000D03*
%TD*%
D19*
%TO.P,C5,1*%
%TO.N,GND*%
X80117700Y-60413938D03*
%TO.P,C5,2*%
%TO.N,Net-(C5-Pad2)*%
X81667700Y-60413938D03*
%TD*%
D24*
%TO.P,R18,1*%
%TO.N,Net-(D12-Pad1)*%
X110215000Y-57500000D03*
%TO.P,R18,2*%
%TO.N,/Power/PWR_KEY*%
X108565000Y-57500000D03*
%TD*%
D29*
%TO.P,R29,1*%
%TO.N,Net-(C42-Pad2)*%
X142600000Y-75750000D03*
%TO.P,R29,2*%
%TO.N,Net-(C48-Pad2)*%
X142600000Y-77400000D03*
%TD*%
D57*
%TO.P,U12,1,GND*%
%TO.N,GND*%
X85651747Y-94623555D03*
%TO.P,U12,2,WL_BT_ANT*%
%TO.N,Net-(RF1-Pad1)*%
X85651747Y-93733555D03*
%TO.P,U12,3,GND*%
%TO.N,GND*%
X85651747Y-92813555D03*
%TO.P,U12,4,FM_RX*%
%TO.N,unconnected-(U12-Pad4)*%
X85651747Y-91923555D03*
%TO.P,U12,5,NC*%
%TO.N,unconnected-(U12-Pad5)*%
X85651747Y-91013555D03*
%TO.P,U12,6,BT_WAKE*%
%TO.N,unconnected-(U12-Pad6)*%
X85651747Y-90123555D03*
%TO.P,U12,7,BT_HOST_WAKE*%
%TO.N,unconnected-(U12-Pad7)*%
X85651747Y-89233555D03*
%TO.P,U12,8,CLK_REQ*%
%TO.N,unconnected-(U12-Pad8)*%
X85651747Y-88323555D03*
%TO.P,U12,9,VBAT*%
%TO.N,+3V3*%
X85651747Y-87433555D03*
%TO.P,U12,10,XTAL_IN*%
%TO.N,Net-(C76-Pad2)*%
X85651747Y-86513555D03*
%TO.P,U12,11,XTAL_OUT*%
%TO.N,Net-(C77-Pad2)*%
X85651747Y-85623555D03*
D58*
%TO.P,U12,12,WL_REG_ON*%
%TO.N,/SOC/WIFI_REG_ON*%
X87041747Y-84233555D03*
%TO.P,U12,13,WL_HOST_WAKE*%
%TO.N,unconnected-(U12-Pad13)*%
X87931747Y-84233555D03*
%TO.P,U12,14,SDIO_DATA_2*%
%TO.N,/SOC/WIFI_SDIO_D2*%
X88851747Y-84233555D03*
%TO.P,U12,15,SDIO_DATA_3*%
%TO.N,/SOC/WIFI_SDIO_D3*%
X89741747Y-84233555D03*
%TO.P,U12,16,SDIO_DATA_CMD*%
%TO.N,/SOC/WIFI_SDIO_CMD*%
X90651747Y-84233555D03*
%TO.P,U12,17,SDIO_DATA_CLK*%
%TO.N,/SOC/WIFI_SDIO_CLK*%
X91541747Y-84233555D03*
%TO.P,U12,18,SDIO_DATA_0*%
%TO.N,/SOC/WIFI_SDIO_D0*%
X92431747Y-84233555D03*
%TO.P,U12,19,SDIO_DATA_1*%
%TO.N,/SOC/WIFI_SDIO_D1*%
X93341747Y-84233555D03*
%TO.P,U12,20,GND*%
%TO.N,GND*%
X94231747Y-84233555D03*
%TO.P,U12,21,VIN_LDO_OUT*%
%TO.N,Net-(L1-Pad1)*%
X95151747Y-84233555D03*
%TO.P,U12,22,VDDIO*%
%TO.N,+3V3*%
X96041747Y-84233555D03*
D57*
%TO.P,U12,23,VIN_LDO*%
%TO.N,Net-(C60-Pad1)*%
X97431747Y-85623555D03*
%TO.P,U12,24,LPO*%
%TO.N,unconnected-(U12-Pad24)*%
X97431747Y-86513555D03*
%TO.P,U12,25,PCM_OUT*%
%TO.N,unconnected-(U12-Pad25)*%
X97431747Y-87433555D03*
%TO.P,U12,26,PCM_CLK*%
%TO.N,unconnected-(U12-Pad26)*%
X97431747Y-88323555D03*
%TO.P,U12,27,PCM_IN*%
%TO.N,unconnected-(U12-Pad27)*%
X97431747Y-89233555D03*
%TO.P,U12,28,PCM_SYNC*%
%TO.N,unconnected-(U12-Pad28)*%
X97431747Y-90123555D03*
%TO.P,U12,29,NC*%
%TO.N,unconnected-(U12-Pad29)*%
X97431747Y-91013555D03*
%TO.P,U12,30,NC*%
%TO.N,unconnected-(U12-Pad30)*%
X97431747Y-91923555D03*
%TO.P,U12,31,GND*%
%TO.N,GND*%
X97431747Y-92813555D03*
%TO.P,U12,32,NC*%
%TO.N,unconnected-(U12-Pad32)*%
X97431747Y-93733555D03*
%TO.P,U12,33,GND*%
%TO.N,GND*%
X97431747Y-94623555D03*
D58*
%TO.P,U12,34,BT_RST_N*%
%TO.N,Net-(R63-Pad1)*%
X96041747Y-96013555D03*
%TO.P,U12,35,NC*%
%TO.N,unconnected-(U12-Pad35)*%
X95151747Y-96013555D03*
%TO.P,U12,36,GND*%
%TO.N,GND*%
X94231747Y-96013555D03*
%TO.P,U12,37,GPIO4*%
%TO.N,unconnected-(U12-Pad37)*%
X93341747Y-96013555D03*
%TO.P,U12,38,GPIO3*%
%TO.N,unconnected-(U12-Pad38)*%
X92431747Y-96013555D03*
%TO.P,U12,39,GPIO2*%
%TO.N,unconnected-(U12-Pad39)*%
X91541747Y-96013555D03*
%TO.P,U12,40,GPIO1*%
%TO.N,unconnected-(U12-Pad40)*%
X90651747Y-96013555D03*
%TO.P,U12,41,UART_RTS_N*%
%TO.N,unconnected-(U12-Pad41)*%
X89741747Y-96013555D03*
%TO.P,U12,42,UART_TXD*%
%TO.N,unconnected-(U12-Pad42)*%
X88851747Y-96013555D03*
%TO.P,U12,43,UART_RXD*%
%TO.N,unconnected-(U12-Pad43)*%
X87931747Y-96013555D03*
%TO.P,U12,44,UART_CTS_N*%
%TO.N,unconnected-(U12-Pad44)*%
X87041747Y-96013555D03*
D59*
%TO.P,U12,45,TP1*%
%TO.N,unconnected-(U12-Pad45)*%
X88841747Y-93733555D03*
%TO.P,U12,46,TP2*%
%TO.N,unconnected-(U12-Pad46)*%
X90641747Y-93733555D03*
%TO.P,U12,47,TP3(NC)*%
%TO.N,unconnected-(U12-Pad47)*%
X92441747Y-93733555D03*
%TD*%
D45*
%TO.P,F1,1*%
%TO.N,Net-(C25-Pad1)*%
X163040000Y-48170000D03*
%TO.P,F1,2*%
%TO.N,Net-(F1-Pad2)*%
X166340000Y-48170000D03*
%TD*%
D24*
%TO.P,R19,1*%
%TO.N,/SOC/USB_DM*%
X165525000Y-59400000D03*
%TO.P,R19,2*%
%TO.N,Net-(R19-Pad2)*%
X163875000Y-59400000D03*
%TD*%
D29*
%TO.P,R28,1*%
%TO.N,Net-(C44-Pad1)*%
X140345000Y-64550000D03*
%TO.P,R28,2*%
%TO.N,Net-(C44-Pad2)*%
X140345000Y-66200000D03*
%TD*%
D17*
%TO.P,TP18,1,1*%
%TO.N,/NewDAC/I2S_LRCK*%
X133890000Y-93370000D03*
%TD*%
D35*
%TO.P,C16,1*%
%TO.N,-5VA*%
X125232700Y-64328938D03*
%TO.P,C16,2*%
%TO.N,GND*%
X125232700Y-65878938D03*
%TD*%
D20*
%TO.P,R51,1*%
%TO.N,DEBUG_UART_RX*%
X121390000Y-47935000D03*
%TO.P,R51,2*%
%TO.N,Net-(D13-Pad2)*%
X121390000Y-46285000D03*
%TD*%
D38*
%TO.P,U5,1*%
%TO.N,Net-(C41-Pad2)*%
X129820000Y-69395000D03*
%TO.P,U5,2,-*%
%TO.N,Net-(C41-Pad1)*%
X129820000Y-68125000D03*
%TO.P,U5,3,+*%
%TO.N,GND*%
X129820000Y-66855000D03*
%TO.P,U5,4,V-*%
%TO.N,-5VA*%
X129820000Y-65585000D03*
%TO.P,U5,5,+*%
%TO.N,GND*%
X134770000Y-65585000D03*
%TO.P,U5,6,-*%
%TO.N,Net-(C44-Pad1)*%
X134770000Y-66855000D03*
%TO.P,U5,7*%
%TO.N,Net-(C44-Pad2)*%
X134770000Y-68125000D03*
%TO.P,U5,8,V+*%
%TO.N,+5VA*%
X134770000Y-69395000D03*
%TD*%
D17*
%TO.P,TP21,1,1*%
%TO.N,/NewDAC/I2S_DIN*%
X132570000Y-97940000D03*
%TD*%
D19*
%TO.P,C46,1*%
%TO.N,GND*%
X154557700Y-82903938D03*
%TO.P,C46,2*%
%TO.N,+5VA*%
X156107700Y-82903938D03*
%TD*%
D18*
%TO.P,R24,1*%
%TO.N,Net-(R24-Pad1)*%
X148182700Y-89278938D03*
%TO.P,R24,2*%
%TO.N,GND*%
X149832700Y-89278938D03*
%TD*%
D17*
%TO.P,TP16,1,1*%
%TO.N,+3V3*%
X156540000Y-45720000D03*
%TD*%
D28*
%TO.P,FB1,1*%
%TO.N,VBUS*%
X159282700Y-49153938D03*
%TO.P,FB1,2*%
%TO.N,Net-(C25-Pad1)*%
X159282700Y-47253938D03*
%TD*%
D60*
%TO.P,Y1,1,1*%
%TO.N,Net-(C6-Pad2)*%
X81898977Y-55788457D03*
%TO.P,Y1,2*%
%TO.N,N/C*%
X81898977Y-58088457D03*
%TO.P,Y1,3,3*%
%TO.N,Net-(C5-Pad2)*%
X80098977Y-58088457D03*
%TO.P,Y1,4*%
%TO.N,N/C*%
X80098977Y-55788457D03*
%TD*%
D22*
%TO.P,D12,1,A1*%
%TO.N,Net-(D12-Pad1)*%
X105680000Y-95170000D03*
%TO.P,D12,2,A2*%
%TO.N,GND*%
X105680000Y-92970000D03*
%TD*%
D61*
%TO.P,J1,1,DAT2*%
%TO.N,/SOC/SDC_D2*%
X96152500Y-58152738D03*
%TO.P,J1,2,DAT3/CD*%
%TO.N,/SOC/SDC_D3*%
X95052500Y-58152738D03*
%TO.P,J1,3,CMD*%
%TO.N,/SOC/SDC_CMD*%
X93952500Y-58152738D03*
%TO.P,J1,4,VDD*%
%TO.N,+3V3*%
X92852500Y-58152738D03*
%TO.P,J1,5,CLX*%
%TO.N,/SOC/SDC_CLK*%
X91752500Y-58152738D03*
%TO.P,J1,6,VSS*%
%TO.N,GND*%
X90652500Y-58152738D03*
%TO.P,J1,7,DAT0*%
%TO.N,/SOC/SDC_D0*%
X89552500Y-58152738D03*
%TO.P,J1,8,DAT1*%
%TO.N,/SOC/SDC_D1*%
X88452500Y-58152738D03*
%TO.P,J1,9,CD*%
%TO.N,/SOC/SDC_PLUG*%
X87352500Y-58152738D03*
D62*
%TO.P,J1,10,SHIELD*%
%TO.N,GND*%
X85934100Y-47678938D03*
D63*
X85934100Y-57378938D03*
D64*
X100983900Y-57378938D03*
D62*
X101758900Y-47678938D03*
%TD*%
D29*
%TO.P,R8,1*%
%TO.N,/Power/RESET*%
X100910000Y-62175000D03*
%TO.P,R8,2*%
%TO.N,+3V3*%
X100910000Y-63825000D03*
%TD*%
D19*
%TO.P,C33,1*%
%TO.N,+5VA*%
X148115400Y-97962876D03*
%TO.P,C33,2*%
%TO.N,GND*%
X149665400Y-97962876D03*
%TD*%
D27*
%TO.P,C39,1*%
%TO.N,+5VA*%
X140300000Y-79375000D03*
%TO.P,C39,2*%
%TO.N,GND*%
X140300000Y-82175000D03*
%TD*%
D18*
%TO.P,R40,1*%
%TO.N,Net-(C48-Pad1)*%
X146825000Y-81950000D03*
%TO.P,R40,2*%
%TO.N,Net-(C52-Pad2)*%
X148475000Y-81950000D03*
%TD*%
D24*
%TO.P,R16,1*%
%TO.N,+3V3*%
X111425000Y-50200000D03*
%TO.P,R16,2*%
%TO.N,/SOC/SDC_CMD*%
X109775000Y-50200000D03*
%TD*%
D16*
%TO.P,C74,1*%
%TO.N,-5VA*%
X164500000Y-77975000D03*
%TO.P,C74,2*%
%TO.N,GND*%
X164500000Y-76425000D03*
%TD*%
D38*
%TO.P,U6,1*%
%TO.N,Net-(C42-Pad2)*%
X129825000Y-80480000D03*
%TO.P,U6,2,-*%
%TO.N,Net-(C42-Pad1)*%
X129825000Y-79210000D03*
%TO.P,U6,3,+*%
%TO.N,GND*%
X129825000Y-77940000D03*
%TO.P,U6,4,V-*%
%TO.N,-5VA*%
X129825000Y-76670000D03*
%TO.P,U6,5,+*%
%TO.N,GND*%
X134775000Y-76670000D03*
%TO.P,U6,6,-*%
%TO.N,Net-(C43-Pad1)*%
X134775000Y-77940000D03*
%TO.P,U6,7*%
%TO.N,Net-(C43-Pad2)*%
X134775000Y-79210000D03*
%TO.P,U6,8,V+*%
%TO.N,+5VA*%
X134775000Y-80480000D03*
%TD*%
D16*
%TO.P,C72,1*%
%TO.N,Net-(C72-Pad1)*%
X172252700Y-77898938D03*
%TO.P,C72,2*%
%TO.N,GND*%
X172252700Y-76348938D03*
%TD*%
D35*
%TO.P,C76,1*%
%TO.N,GND*%
X79720000Y-85565000D03*
%TO.P,C76,2*%
%TO.N,Net-(C76-Pad2)*%
X79720000Y-87115000D03*
%TD*%
%TO.P,C75,1*%
%TO.N,+5VA*%
X163810000Y-65525000D03*
%TO.P,C75,2*%
%TO.N,GND*%
X163810000Y-67075000D03*
%TD*%
D16*
%TO.P,C22,1*%
%TO.N,Net-(C22-Pad1)*%
X83500685Y-82695000D03*
%TO.P,C22,2*%
%TO.N,GND*%
X83500685Y-81145000D03*
%TD*%
D35*
%TO.P,C28,1*%
%TO.N,+3V3*%
X133870400Y-88947876D03*
%TO.P,C28,2*%
%TO.N,GND*%
X133870400Y-90497876D03*
%TD*%
D29*
%TO.P,R25,1*%
%TO.N,Net-(C41-Pad1)*%
X125285000Y-68785000D03*
%TO.P,R25,2*%
%TO.N,Net-(C41-Pad2)*%
X125285000Y-70435000D03*
%TD*%
D19*
%TO.P,C24,1*%
%TO.N,VBUS*%
X158927700Y-51473938D03*
%TO.P,C24,2*%
%TO.N,GND*%
X160477700Y-51473938D03*
%TD*%
D35*
%TO.P,C69,1*%
%TO.N,VCC*%
X168700000Y-61525000D03*
%TO.P,C69,2*%
%TO.N,GND*%
X168700000Y-63075000D03*
%TD*%
D16*
%TO.P,C7,1*%
%TO.N,GND*%
X137732700Y-70228938D03*
%TO.P,C7,2*%
%TO.N,+5VA*%
X137732700Y-68678938D03*
%TD*%
D65*
%TO.P,U9,1,CHGLED*%
%TO.N,unconnected-(U9-Pad1)*%
X146060000Y-47900000D03*
%TO.P,U9,2,VREF*%
%TO.N,Net-(C63-Pad2)*%
X146460000Y-47900000D03*
%TO.P,U9,3,GND*%
%TO.N,GND*%
X146860000Y-47900000D03*
%TO.P,U9,4,FB3*%
%TO.N,unconnected-(U9-Pad4)*%
X147260000Y-47900000D03*
%TO.P,U9,5,LX3*%
%TO.N,unconnected-(U9-Pad5)*%
X147660000Y-47900000D03*
%TO.P,U9,6,VIN3*%
%TO.N,Net-(R54-Pad2)*%
X148060000Y-47900000D03*
%TO.P,U9,7,VIN4*%
%TO.N,Net-(R55-Pad2)*%
X148460000Y-47900000D03*
%TO.P,U9,8,LX4*%
%TO.N,unconnected-(U9-Pad8)*%
X148860000Y-47900000D03*
%TO.P,U9,9,FB4*%
%TO.N,unconnected-(U9-Pad9)*%
X149260000Y-47900000D03*
%TO.P,U9,10,CPULDOS*%
%TO.N,unconnected-(U9-Pad10)*%
X149660000Y-47900000D03*
D66*
%TO.P,U9,11,DLDO2/DC4SW*%
%TO.N,unconnected-(U9-Pad11)*%
X150360000Y-48600000D03*
%TO.P,U9,12,BLDO1*%
%TO.N,unconnected-(U9-Pad12)*%
X150360000Y-49000000D03*
%TO.P,U9,13,BLDOIN*%
%TO.N,Net-(R50-Pad1)*%
X150360000Y-49400000D03*
%TO.P,U9,14,BLDO2*%
%TO.N,unconnected-(U9-Pad14)*%
X150360000Y-49800000D03*
%TO.P,U9,15,ALDO4*%
%TO.N,unconnected-(U9-Pad15)*%
X150360000Y-50200000D03*
%TO.P,U9,16,ALDO3*%
%TO.N,unconnected-(U9-Pad16)*%
X150360000Y-50600000D03*
%TO.P,U9,17,ALDOIN*%
%TO.N,Net-(R49-Pad1)*%
X150360000Y-51000000D03*
%TO.P,U9,18,ALDO1*%
%TO.N,unconnected-(U9-Pad18)*%
X150360000Y-51400000D03*
%TO.P,U9,19,ALDO2*%
%TO.N,unconnected-(U9-Pad19)*%
X150360000Y-51800000D03*
%TO.P,U9,20,DLDO1/DC1SW*%
%TO.N,unconnected-(U9-Pad20)*%
X150360000Y-52200000D03*
D65*
%TO.P,U9,21,FB1*%
%TO.N,+3V3*%
X149660000Y-52900000D03*
%TO.P,U9,22,LX1*%
%TO.N,Net-(L2-Pad1)*%
X149260000Y-52900000D03*
%TO.P,U9,23,VIN1*%
%TO.N,VCC*%
X148860000Y-52900000D03*
%TO.P,U9,24,VIN2*%
X148460000Y-52900000D03*
%TO.P,U9,25,LX2*%
%TO.N,Net-(L3-Pad1)*%
X148060000Y-52900000D03*
%TO.P,U9,26,FB2*%
%TO.N,+0V9*%
X147660000Y-52900000D03*
%TO.P,U9,27,VBACKUP*%
%TO.N,unconnected-(U9-Pad27)*%
X147260000Y-52900000D03*
%TO.P,U9,28,VRTC*%
%TO.N,unconnected-(U9-Pad28)*%
X146860000Y-52900000D03*
%TO.P,U9,29,PWROK*%
%TO.N,/Power/RESET*%
X146460000Y-52900000D03*
%TO.P,U9,30,PWRON*%
%TO.N,Net-(D12-Pad1)*%
X146060000Y-52900000D03*
D66*
%TO.P,U9,31,TS*%
%TO.N,Net-(R44-Pad2)*%
X145360000Y-52200000D03*
%TO.P,U9,32,GPIO1/FB5/RTC/LDO2*%
%TO.N,unconnected-(U9-Pad32)*%
X145360000Y-51800000D03*
%TO.P,U9,33,BAT*%
%TO.N,Net-(C61-Pad1)*%
X145360000Y-51400000D03*
%TO.P,U9,34,VSYS*%
%TO.N,VCC*%
X145360000Y-51000000D03*
%TO.P,U9,35,SW*%
%TO.N,unconnected-(U9-Pad35)*%
X145360000Y-50600000D03*
%TO.P,U9,36,VMID*%
%TO.N,VCC*%
X145360000Y-50200000D03*
%TO.P,U9,37,VBUS*%
%TO.N,VBUS*%
X145360000Y-49800000D03*
%TO.P,U9,38,IRQ*%
%TO.N,/Power/IRQ*%
X145360000Y-49400000D03*
%TO.P,U9,39,SDA*%
%TO.N,/NewDAC/I2C_SCL*%
X145360000Y-49000000D03*
%TO.P,U9,40,SCK*%
%TO.N,/NewDAC/I2C_SDIN*%
X145360000Y-48600000D03*
D67*
%TO.P,U9,41,EP*%
%TO.N,GND*%
X147860000Y-50400000D03*
%TD*%
D17*
%TO.P,TP6,1,1*%
%TO.N,/SOC/KEYS*%
X78432700Y-73003938D03*
%TD*%
D68*
%TO.P,U4,1,ZEROL*%
%TO.N,unconnected-(U4-Pad1)*%
X137657700Y-95903938D03*
%TO.P,U4,2,ZEROR*%
%TO.N,unconnected-(U4-Pad2)*%
X137657700Y-95253938D03*
%TO.P,U4,3,MSEL*%
%TO.N,Net-(R23-Pad2)*%
X137657700Y-94603938D03*
%TO.P,U4,4,LRCK*%
%TO.N,/NewDAC/I2S_LRCK*%
X137657700Y-93953938D03*
%TO.P,U4,5,DATA*%
%TO.N,/NewDAC/I2S_DIN*%
X137657700Y-93303938D03*
%TO.P,U4,6,BCK*%
%TO.N,/NewDAC/I2S_BCLK*%
X137657700Y-92653938D03*
%TO.P,U4,7,SCK*%
%TO.N,/NewDAC/I2S_MCLK*%
X137657700Y-92003938D03*
%TO.P,U4,8,DGND*%
%TO.N,GND*%
X137657700Y-91353938D03*
%TO.P,U4,9,VDD*%
%TO.N,+3V3*%
X137657700Y-90703938D03*
%TO.P,U4,10,MS*%
%TO.N,GND*%
X137657700Y-90053938D03*
%TO.P,U4,11,MDI*%
%TO.N,/NewDAC/I2C_SDIN*%
X137657700Y-89403938D03*
%TO.P,U4,12,MC*%
%TO.N,/NewDAC/I2C_SCL*%
X137657700Y-88753938D03*
%TO.P,U4,13,MDO*%
%TO.N,unconnected-(U4-Pad13)*%
X137657700Y-88103938D03*
%TO.P,U4,14,RST*%
%TO.N,GND*%
X137657700Y-87453938D03*
%TO.P,U4,15,VCC2R*%
%TO.N,+5VA*%
X144857700Y-87453938D03*
%TO.P,U4,16,AGND3R*%
%TO.N,GND*%
X144857700Y-88103938D03*
%TO.P,U4,17,IOUTR+*%
%TO.N,Net-(C42-Pad1)*%
X144857700Y-88753938D03*
%TO.P,U4,18,IOUTR-*%
%TO.N,Net-(C43-Pad1)*%
X144857700Y-89403938D03*
%TO.P,U4,19,AGND1*%
%TO.N,GND*%
X144857700Y-90053938D03*
%TO.P,U4,20,IREF*%
%TO.N,Net-(R24-Pad1)*%
X144857700Y-90703938D03*
%TO.P,U4,21,VCOMR*%
%TO.N,Net-(C31-Pad2)*%
X144857700Y-91353938D03*
%TO.P,U4,22,VCOML*%
X144857700Y-92003938D03*
%TO.P,U4,23,VCC1*%
%TO.N,+5VA*%
X144857700Y-92653938D03*
%TO.P,U4,24,AGND2*%
%TO.N,GND*%
X144857700Y-93303938D03*
%TO.P,U4,25,IOUTL+*%
%TO.N,Net-(C41-Pad1)*%
X144857700Y-93953938D03*
%TO.P,U4,26,IOUTL-*%
%TO.N,Net-(C44-Pad1)*%
X144857700Y-94603938D03*
%TO.P,U4,27,AGND3L*%
%TO.N,GND*%
X144857700Y-95253938D03*
%TO.P,U4,28,VCC2L*%
%TO.N,+5VA*%
X144857700Y-95903938D03*
%TD*%
D69*
%TO.P,U10,1,SW*%
%TO.N,Net-(L4-Pad2)*%
X173747500Y-65242500D03*
%TO.P,U10,2,GND*%
%TO.N,GND*%
X173747500Y-66192500D03*
%TO.P,U10,3,EN*%
%TO.N,/Power/AUDIO_PWR_EN*%
X173747500Y-67142500D03*
%TO.P,U10,4,FB*%
%TO.N,Net-(R47-Pad1)*%
X171472500Y-67142500D03*
%TO.P,U10,5,VOUT*%
%TO.N,Net-(C73-Pad1)*%
X171472500Y-66192500D03*
%TO.P,U10,6,VCC*%
%TO.N,VCC*%
X171472500Y-65242500D03*
%TD*%
D22*
%TO.P,D5,1,A1*%
%TO.N,GND*%
X105650000Y-50200000D03*
%TO.P,D5,2,A2*%
%TO.N,/SOC/SDC_CMD*%
X103450000Y-50200000D03*
%TD*%
D35*
%TO.P,C43,1*%
%TO.N,Net-(C43-Pad1)*%
X137800000Y-75800000D03*
%TO.P,C43,2*%
%TO.N,Net-(C43-Pad2)*%
X137800000Y-77350000D03*
%TD*%
%TO.P,C73,1*%
%TO.N,Net-(C73-Pad1)*%
X166500000Y-65525000D03*
%TO.P,C73,2*%
%TO.N,GND*%
X166500000Y-67075000D03*
%TD*%
D29*
%TO.P,R42,1*%
%TO.N,Net-(C51-Pad2)*%
X157550000Y-90175000D03*
%TO.P,R42,2*%
%TO.N,Net-(D9-Pad2)*%
X157550000Y-91825000D03*
%TD*%
D20*
%TO.P,R35,1*%
%TO.N,Net-(C48-Pad2)*%
X144800000Y-77400000D03*
%TO.P,R35,2*%
%TO.N,Net-(C51-Pad2)*%
X144800000Y-75750000D03*
%TD*%
D70*
%TO.P,L4,1,1*%
%TO.N,VCC*%
X171235000Y-62292500D03*
%TO.P,L4,2,2*%
%TO.N,Net-(L4-Pad2)*%
X173785000Y-62292500D03*
%TD*%
D71*
%TO.P,L3,1,1*%
%TO.N,Net-(L3-Pad1)*%
X147530000Y-56290000D03*
%TO.P,L3,2,2*%
%TO.N,+0V9*%
X145760000Y-56290000D03*
%TD*%
D35*
%TO.P,C1,1*%
%TO.N,+3V3*%
X106401747Y-80098555D03*
%TO.P,C1,2*%
%TO.N,GND*%
X106401747Y-81648555D03*
%TD*%
D27*
%TO.P,C40,1*%
%TO.N,GND*%
X127100000Y-77975000D03*
%TO.P,C40,2*%
%TO.N,-5VA*%
X127100000Y-75175000D03*
%TD*%
D24*
%TO.P,R64,1*%
%TO.N,/SOC/WIFI_REG_ON*%
X82039494Y-81964524D03*
%TO.P,R64,2*%
%TO.N,GND*%
X80389494Y-81964524D03*
%TD*%
D29*
%TO.P,R46,1*%
%TO.N,GND*%
X174202700Y-69418938D03*
%TO.P,R46,2*%
%TO.N,/Power/AUDIO_PWR_EN*%
X174202700Y-71068938D03*
%TD*%
D35*
%TO.P,C71,1*%
%TO.N,Net-(C71-Pad1)*%
X171400000Y-72625000D03*
%TO.P,C71,2*%
%TO.N,Net-(C71-Pad2)*%
X171400000Y-74175000D03*
%TD*%
D24*
%TO.P,R57,1*%
%TO.N,+3V3*%
X111425000Y-44200000D03*
%TO.P,R57,2*%
%TO.N,/SOC/SDC_D1*%
X109775000Y-44200000D03*
%TD*%
D22*
%TO.P,D3,1,A1*%
%TO.N,GND*%
X105650000Y-46200000D03*
%TO.P,D3,2,A2*%
%TO.N,/SOC/SDC_D0*%
X103450000Y-46200000D03*
%TD*%
D17*
%TO.P,TP24,1,1*%
%TO.N,/NewDAC/I2C_SCL*%
X135471747Y-44763555D03*
%TD*%
D35*
%TO.P,C41,1*%
%TO.N,Net-(C41-Pad1)*%
X127245000Y-68835000D03*
%TO.P,C41,2*%
%TO.N,Net-(C41-Pad2)*%
X127245000Y-70385000D03*
%TD*%
D28*
%TO.P,C50,1*%
%TO.N,GND*%
X150335000Y-70630000D03*
%TO.P,C50,2*%
%TO.N,Net-(C50-Pad2)*%
X150335000Y-68730000D03*
%TD*%
D16*
%TO.P,C21,1*%
%TO.N,+3V3*%
X100611747Y-80378555D03*
%TO.P,C21,2*%
%TO.N,GND*%
X100611747Y-78828555D03*
%TD*%
D35*
%TO.P,C63,1*%
%TO.N,GND*%
X145950000Y-44425000D03*
%TO.P,C63,2*%
%TO.N,Net-(C63-Pad2)*%
X145950000Y-45975000D03*
%TD*%
D27*
%TO.P,C57,1*%
%TO.N,+5VA*%
X160600000Y-82000000D03*
%TO.P,C57,2*%
%TO.N,GND*%
X160600000Y-79200000D03*
%TD*%
D19*
%TO.P,C32,1*%
%TO.N,+5VA*%
X148232700Y-84878938D03*
%TO.P,C32,2*%
%TO.N,GND*%
X149782700Y-84878938D03*
%TD*%
D72*
%TO.N,+3V3*%
X133961747Y-88173555D03*
X107042700Y-64123938D03*
X94301140Y-90939455D03*
X84800000Y-51400000D03*
X154722700Y-50803938D03*
X83641747Y-92880055D03*
X152550000Y-50800000D03*
X103721408Y-80873216D03*
X139260000Y-48100000D03*
X102800000Y-64200000D03*
X112946020Y-52603980D03*
X94190000Y-81420000D03*
X91780000Y-60500000D03*
X96371564Y-61171564D03*
X101862358Y-80364166D03*
X119011747Y-85198555D03*
X153689132Y-50800000D03*
X115741747Y-85189949D03*
X110363806Y-63391630D03*
X88461747Y-81043555D03*
X153689132Y-50800000D03*
X79905000Y-63695000D03*
X136425747Y-97171555D03*
X154533762Y-51995000D03*
X103806445Y-92393555D03*
%TO.N,GND*%
X151807700Y-93478938D03*
X87870000Y-70420000D03*
X117082700Y-54803938D03*
X90870000Y-68920000D03*
X95531747Y-94063555D03*
X98942700Y-58783938D03*
X103301747Y-94783555D03*
X79030000Y-53570000D03*
X79203364Y-60413938D03*
X148900000Y-49300000D03*
X164032700Y-71143938D03*
X83640000Y-94830000D03*
X78812700Y-69833938D03*
X81182900Y-82920000D03*
X88208280Y-60143328D03*
X153991747Y-55863555D03*
X163570000Y-76630000D03*
X148900000Y-50300000D03*
X94161747Y-94373555D03*
X167732462Y-58793700D03*
X114740000Y-68990000D03*
X134950400Y-88922876D03*
X90870000Y-73420000D03*
X151411747Y-85487555D03*
X154010000Y-57300000D03*
X98942700Y-57873938D03*
X138243761Y-50924999D03*
X173601638Y-76325000D03*
X83141747Y-87650555D03*
X175500000Y-66900000D03*
X106672700Y-44293938D03*
X114740000Y-66520000D03*
X150800000Y-60000000D03*
X77992327Y-76792387D03*
X137750000Y-71400421D03*
X112670000Y-94310000D03*
X106660000Y-54090000D03*
X151800000Y-60000000D03*
X114730000Y-67750000D03*
X90870000Y-70420000D03*
X167665900Y-51100000D03*
X161672700Y-51513938D03*
X162482700Y-51533938D03*
X135878600Y-82725370D03*
X165934700Y-68513938D03*
X87870000Y-71920000D03*
X135750000Y-75425000D03*
X149000000Y-60000000D03*
X148900000Y-51300000D03*
X92370000Y-73420000D03*
X92370000Y-70420000D03*
X164012700Y-68433938D03*
X116058762Y-48100000D03*
X164972700Y-71143938D03*
X146900000Y-49300000D03*
X124900000Y-78386638D03*
X165032700Y-68463938D03*
X160992700Y-69373938D03*
X105166842Y-82718650D03*
X88665115Y-82395115D03*
X106860000Y-50040000D03*
X87870000Y-68920000D03*
X146900000Y-51300000D03*
X106421747Y-82719150D03*
X114341747Y-94318555D03*
X103802700Y-69303938D03*
X90870000Y-71920000D03*
X91880000Y-82440000D03*
X79000000Y-51200000D03*
X160100500Y-80200000D03*
X123800000Y-49200000D03*
X103782700Y-65463938D03*
X102620000Y-56730000D03*
X103782700Y-68153938D03*
X77738032Y-74522857D03*
X147900000Y-51300000D03*
X92370000Y-71920000D03*
X144800000Y-82875000D03*
X155330000Y-55110000D03*
X153175000Y-82775000D03*
X168035500Y-68853938D03*
X106830000Y-95120000D03*
X146900000Y-50300000D03*
X139400000Y-51700000D03*
X78420000Y-63540000D03*
X125235000Y-66956238D03*
X99020000Y-96676555D03*
X168700000Y-64400000D03*
X106721747Y-46203555D03*
X87870000Y-73420000D03*
X108210000Y-81740000D03*
X135409747Y-86249555D03*
X89370000Y-70420000D03*
X162000000Y-56200000D03*
X86944149Y-91229149D03*
X151157747Y-89551555D03*
X150300000Y-82775000D03*
X135412700Y-48653938D03*
X149900000Y-60000000D03*
X133771747Y-91403555D03*
X153600000Y-71500000D03*
X165772700Y-71153938D03*
X159582700Y-57773938D03*
X148000000Y-60000000D03*
X147900000Y-49300000D03*
X82091747Y-87803555D03*
X143381747Y-46533555D03*
X101746200Y-49146200D03*
X106542700Y-48243938D03*
X136325000Y-64910000D03*
X94231747Y-85963555D03*
X78321747Y-91071745D03*
X85921400Y-49200000D03*
X89370000Y-73420000D03*
X115804381Y-44795619D03*
X95501747Y-92962400D03*
X147900000Y-50300000D03*
X136292700Y-48663938D03*
X151411747Y-95393555D03*
X85371747Y-56023555D03*
X101625371Y-77086891D03*
X103950000Y-91430000D03*
X114740000Y-65400000D03*
X117201747Y-85189949D03*
X134592700Y-48633938D03*
X146607700Y-89478938D03*
X150335000Y-71420000D03*
X107420000Y-84814155D03*
X94420000Y-97680000D03*
X163570000Y-76630000D03*
X89370000Y-68920000D03*
X85747828Y-77291808D03*
X154040967Y-58498576D03*
X106700000Y-52410000D03*
X144625000Y-71450000D03*
X102800000Y-62000000D03*
X89370000Y-71920000D03*
X92370000Y-68920000D03*
%TO.N,+1V8A*%
X99339147Y-79018736D03*
X85745602Y-80066863D03*
X91140719Y-61659100D03*
%TO.N,Net-(C5-Pad2)*%
X84467800Y-60592797D03*
X92388385Y-65976917D03*
%TO.N,Net-(C6-Pad2)*%
X85057836Y-59932782D03*
X93201747Y-65563555D03*
%TO.N,VBUS*%
X159252700Y-53873938D03*
X160242700Y-53873938D03*
X167472700Y-56093938D03*
X158232700Y-53893938D03*
X142764970Y-50111861D03*
%TO.N,+5VA*%
X157682100Y-72403600D03*
X148607700Y-95752276D03*
X162760000Y-65540000D03*
X134750000Y-71200000D03*
X163800000Y-74190000D03*
X149007700Y-92878938D03*
X154582700Y-84153938D03*
X146607700Y-86078938D03*
X163790000Y-75020000D03*
X134836200Y-82000000D03*
X148907700Y-90378938D03*
X162760000Y-64552141D03*
%TO.N,-5VA*%
X164651747Y-79583555D03*
X165452700Y-80523938D03*
X166402700Y-79553938D03*
X165472700Y-79533938D03*
X125154539Y-74382100D03*
X160290000Y-65350000D03*
X155050000Y-78550000D03*
X125300000Y-63075000D03*
%TO.N,Net-(C61-Pad1)*%
X141224102Y-55432536D03*
X143106209Y-51662961D03*
X140212700Y-54513938D03*
X141150000Y-54500000D03*
%TO.N,Net-(R53-Pad1)*%
X99400000Y-70200000D03*
X104972700Y-68753938D03*
%TO.N,VCC*%
X166902700Y-60563938D03*
X153512700Y-47633938D03*
X149182700Y-55203938D03*
X143627329Y-50783774D03*
X167702700Y-60563938D03*
X151411747Y-56093938D03*
X152312700Y-55233938D03*
X144439288Y-50765514D03*
X152302700Y-56053938D03*
%TO.N,/SOC/SDC_D1*%
X88430000Y-56220000D03*
%TO.N,/SOC/SDC_D0*%
X90103854Y-56365910D03*
%TO.N,/SOC/SDC_CLK*%
X91852700Y-56303938D03*
X87822731Y-60940267D03*
%TO.N,/SOC/SDC_CMD*%
X93830000Y-56250000D03*
X88856230Y-60965924D03*
%TO.N,/SOC/SDC_D3*%
X88777366Y-61901661D03*
X94685717Y-56476951D03*
%TO.N,/SOC/SDC_D2*%
X89907331Y-61628569D03*
X95687115Y-56621476D03*
%TO.N,Net-(D10-Pad2)*%
X155082700Y-93953938D03*
X158682700Y-87153938D03*
%TO.N,Net-(D12-Pad1)*%
X126771747Y-84243555D03*
D73*
X129010000Y-59870000D03*
D72*
X130556000Y-58420000D03*
X127025302Y-95610000D03*
X104840000Y-93550000D03*
%TO.N,/SOC/LCD_RS*%
X103603143Y-78948866D03*
X110353230Y-76186770D03*
%TO.N,/SOC/LCD_WR*%
X106463868Y-76258911D03*
X102610679Y-77859321D03*
%TO.N,/SOC/LCD_RD*%
X103410000Y-75040000D03*
X106530000Y-74990000D03*
%TO.N,/SOC/LCD_D3*%
X101991564Y-74478436D03*
X105736110Y-74384100D03*
%TO.N,/SOC/LCD_D4*%
X110193653Y-74382875D03*
X104090000Y-75950000D03*
%TO.N,/SOC/LCD_D5*%
X110860000Y-73800000D03*
X105470000Y-77575900D03*
%TO.N,/SOC/LCD_D6*%
X104530000Y-78380000D03*
X111140000Y-72830000D03*
%TO.N,/SOC/LCD_D7*%
X106440000Y-72950000D03*
X100150000Y-76170000D03*
%TO.N,/SOC/LCD_D10*%
X100038217Y-77048215D03*
X106640154Y-72022937D03*
%TO.N,/SOC/LCD_D11*%
X106240000Y-71130000D03*
X99160000Y-77160000D03*
%TO.N,/SOC/LCD_D12*%
X106539408Y-70296864D03*
X96391747Y-76213555D03*
%TO.N,Net-(P2-PadA7)*%
X167590000Y-57280000D03*
X167650000Y-54370000D03*
%TO.N,/SOC/LCD_PWM*%
X99430000Y-67950895D03*
X121100000Y-54100000D03*
%TO.N,/SOC/KEYS*%
X78497915Y-78910430D03*
X99517247Y-93383094D03*
X99110000Y-95030000D03*
X104630000Y-96280000D03*
%TO.N,/SOC/FLASH_SPI_CS*%
X122191747Y-94648555D03*
X118281747Y-91278555D03*
X90111747Y-65993555D03*
%TO.N,Net-(R7-Pad1)*%
X112438694Y-96552500D03*
X154205747Y-92853555D03*
%TO.N,Net-(R10-Pad1)*%
X152935747Y-88027555D03*
%TO.N,Net-(R10-Pad2)*%
X154915724Y-60640400D03*
X151411747Y-83963555D03*
%TO.N,Net-(R11-Pad2)*%
X157563266Y-57108938D03*
%TO.N,Net-(R12-Pad2)*%
X159720000Y-61564338D03*
%TO.N,/SOC/USB_DM*%
X128800000Y-45300000D03*
X97882700Y-55603938D03*
X83760000Y-70920000D03*
X166532700Y-58753938D03*
%TO.N,/SOC/USB_DP*%
X97882700Y-56489241D03*
X83888691Y-69420000D03*
X129667090Y-45478652D03*
X166596256Y-53603826D03*
%TO.N,Net-(C41-Pad1)*%
X142740400Y-93682876D03*
X130647130Y-68187206D03*
%TO.N,Net-(C42-Pad1)*%
X131950000Y-81400000D03*
X142340400Y-88282876D03*
X128350000Y-79400000D03*
%TO.N,Net-(C43-Pad1)*%
X133299500Y-77403938D03*
X141740400Y-89282876D03*
%TO.N,Net-(C44-Pad1)*%
X142790400Y-95032876D03*
X131750000Y-64600000D03*
X133291500Y-67400000D03*
%TO.N,Net-(C49-Pad2)*%
X154915456Y-68551764D03*
X143808191Y-64328447D03*
%TO.N,Net-(C51-Pad2)*%
X153000000Y-75000000D03*
X154800000Y-80800000D03*
%TO.N,/NewDAC/I2C_SCL*%
X137432700Y-48253938D03*
X137189927Y-45311165D03*
X124069069Y-56729083D03*
X136332700Y-88753938D03*
X86998311Y-77326991D03*
%TO.N,/NewDAC/I2C_SDIN*%
X144400000Y-47400000D03*
X136164573Y-89572143D03*
X86390691Y-76683129D03*
X124896874Y-56840750D03*
%TO.N,/Power/AUDIO_PWR_EN*%
X174200000Y-72800000D03*
X95361747Y-76563555D03*
%TO.N,DEBUG_UART_RX*%
X121400000Y-49000000D03*
X99880000Y-63540000D03*
%TO.N,DEBUG_UART_TX*%
X119800000Y-49000000D03*
X99569393Y-65544814D03*
%TO.N,/SOC/FLASH_SPI_MOSI*%
X89081747Y-65963555D03*
X115221747Y-91464455D03*
%TO.N,/NewDAC/I2S_MCLK*%
X134971564Y-92271564D03*
X112020000Y-86220000D03*
%TO.N,/SOC/FLASH_SPI_HOLD*%
X85821747Y-65803555D03*
X110181747Y-92445455D03*
%TO.N,/SOC/FLASH_SPI_WP*%
X87101747Y-65833555D03*
X122011747Y-91208555D03*
%TO.N,/SOC/FLASH_SPI_CLK*%
X111543100Y-90188555D03*
X91151747Y-65993555D03*
%TO.N,/NewDAC/I2S_LRCK*%
X110160000Y-88150000D03*
X135030000Y-94135900D03*
X91820959Y-76471537D03*
%TO.N,/NewDAC/I2S_BCLK*%
X136273997Y-92485338D03*
X89725481Y-76798038D03*
%TO.N,/NewDAC/I2S_DIN*%
X135780000Y-93220000D03*
X90611862Y-76798038D03*
%TO.N,/Power/IRQ*%
X143345000Y-49105900D03*
X143442322Y-53022870D03*
%TO.N,+1V8B*%
X100000000Y-67200000D03*
X98967745Y-60942861D03*
%TO.N,+0V9*%
X81260000Y-79920000D03*
X145800000Y-60100000D03*
X144600000Y-57600000D03*
X91255092Y-81637264D03*
X80884847Y-72793555D03*
X100050955Y-71605900D03*
X144662700Y-58613938D03*
%TO.N,/SOC/FLASH_SPI_MISO*%
X88061747Y-65903555D03*
X119331747Y-91148555D03*
%TO.N,/Power/PWR_KEY*%
X95866195Y-64657643D03*
D73*
X107190000Y-57500000D03*
D72*
%TO.N,Net-(C76-Pad2)*%
X80920000Y-87650555D03*
X87270000Y-88716555D03*
%TO.N,Net-(C60-Pad1)*%
X107321747Y-87798555D03*
X98899644Y-86090356D03*
%TO.N,/SOC/WIFI_SDIO_CMD*%
X90001747Y-87383555D03*
X80234638Y-69480871D03*
X99307816Y-89588936D03*
%TO.N,/SOC/WIFI_SDIO_D0*%
X92165183Y-88690119D03*
X79523906Y-68953025D03*
X99277281Y-88704160D03*
%TO.N,/SOC/WIFI_SDIO_CLK*%
X78791009Y-68347125D03*
X91817721Y-87485785D03*
%TO.N,/SOC/WIFI_SDIO_D1*%
X79513004Y-67426584D03*
X93051747Y-87543555D03*
X99287165Y-86963756D03*
%TO.N,/SOC/WIFI_SDIO_D2*%
X88391747Y-87063555D03*
X99206024Y-90468367D03*
X80260000Y-65920000D03*
%TO.N,/SOC/WIFI_SDIO_D3*%
X78584186Y-66744186D03*
X88261747Y-88143555D03*
X99191747Y-91353555D03*
%TO.N,Net-(L1-Pad1)*%
X95568398Y-86095896D03*
X107029180Y-86257655D03*
%TO.N,Net-(P1-Pad38)*%
X115254264Y-54575502D03*
X110372700Y-62283938D03*
%TO.N,Net-(R13-Pad2)*%
X160842700Y-56233938D03*
%TO.N,/SOC/WIFI_REG_ON*%
X83365698Y-84656655D03*
X84089420Y-66383555D03*
%TD*%
D74*
%TO.N,+3V3*%
X140435000Y-49050000D02*
X140435000Y-48135000D01*
X101085000Y-64695000D02*
X102305000Y-64695000D01*
D75*
X152985000Y-51995000D02*
X155770000Y-51995000D01*
D76*
X152140000Y-51995000D02*
X152985000Y-51995000D01*
D75*
X115106747Y-88563555D02*
X115746747Y-87923555D01*
X102126747Y-88653555D02*
X102126747Y-87063555D01*
X94446747Y-82210000D02*
X94446747Y-81676747D01*
D76*
X79905000Y-63695000D02*
X79905000Y-63579101D01*
D74*
X92250300Y-59181938D02*
X92852500Y-58579738D01*
D75*
X103741445Y-92328555D02*
X103806445Y-92393555D01*
D74*
X87491747Y-80398253D02*
X87800000Y-80090000D01*
X87800000Y-80090000D02*
X88890000Y-80090000D01*
D75*
X111485000Y-45840000D02*
X111495000Y-45850000D01*
D74*
X101847969Y-80378555D02*
X100611747Y-80378555D01*
D76*
X123471747Y-88113555D02*
X123471747Y-85848555D01*
X123471747Y-85848555D02*
X122733192Y-85110000D01*
D75*
X104047086Y-80873216D02*
X103721408Y-80873216D01*
D74*
X80175000Y-65000000D02*
X82397500Y-65000000D01*
D76*
X92852500Y-58152738D02*
X92839800Y-58140038D01*
D75*
X102116747Y-85473555D02*
X102116747Y-87053555D01*
X115746747Y-87923555D02*
X115746747Y-86308555D01*
X83536747Y-88578555D02*
X84681747Y-87433555D01*
D74*
X85200000Y-52775000D02*
X85200000Y-51800000D01*
D76*
X79905000Y-64730000D02*
X80175000Y-65000000D01*
X106793762Y-63875000D02*
X107042700Y-64123938D01*
D77*
X108422253Y-63011537D02*
X108422253Y-63277747D01*
D75*
X151041062Y-53093938D02*
X149912700Y-53093938D01*
D74*
X92852500Y-58579738D02*
X92852500Y-58152738D01*
D75*
X94446747Y-82210000D02*
X94832192Y-82210000D01*
D74*
X85200000Y-51800000D02*
X84800000Y-51400000D01*
D75*
X94446747Y-81676747D02*
X94190000Y-81420000D01*
D74*
X106863057Y-77536943D02*
X108312600Y-77536943D01*
X140435000Y-48135000D02*
X140435000Y-47250000D01*
D77*
X95202700Y-61408938D02*
X95202699Y-61408939D01*
D75*
X96319190Y-61223938D02*
X95387700Y-61223938D01*
X102166747Y-91763555D02*
X102166747Y-90203555D01*
D76*
X136425747Y-97171555D02*
X135012355Y-97171555D01*
D74*
X95860000Y-78862500D02*
X95860000Y-79871808D01*
X90567700Y-59893938D02*
X91173762Y-60500000D01*
X90567700Y-59893938D02*
X91211638Y-59250000D01*
D75*
X112685000Y-52865000D02*
X111545000Y-52865000D01*
D76*
X149853938Y-53093938D02*
X149912700Y-53093938D01*
D75*
X83506747Y-92745055D02*
X83641747Y-92880055D01*
D76*
X106401747Y-80098555D02*
X106330000Y-80026808D01*
D74*
X88890000Y-80090000D02*
X89061520Y-79918480D01*
X99562318Y-64695000D02*
X101085000Y-64695000D01*
D76*
X156292700Y-45967300D02*
X156292700Y-50457300D01*
D75*
X111485000Y-44300000D02*
X111485000Y-44935000D01*
D76*
X120665302Y-85110000D02*
X119496747Y-86278555D01*
X92839800Y-57848800D02*
X92630000Y-57639000D01*
D75*
X155770000Y-51995000D02*
X155800000Y-52025000D01*
X111495000Y-51930000D02*
X111425000Y-52000000D01*
D74*
X91173762Y-60500000D02*
X91780000Y-60500000D01*
D76*
X95060000Y-61551638D02*
X95202700Y-61408938D01*
D74*
X133870400Y-89091638D02*
X133870400Y-88947876D01*
X89061520Y-79918480D02*
X89061520Y-79620000D01*
X98857318Y-65400000D02*
X99562318Y-64695000D01*
D75*
X85651747Y-87433555D02*
X84681747Y-87433555D01*
D76*
X136425747Y-97171555D02*
X136359426Y-97237876D01*
D74*
X97481747Y-81493555D02*
X99496747Y-81493555D01*
D76*
X115746747Y-85194949D02*
X115741747Y-85189949D01*
D75*
X87491747Y-80778555D02*
X88196747Y-80778555D01*
D76*
X139260000Y-48110000D02*
X139260000Y-48100000D01*
D74*
X97722500Y-65400000D02*
X98857318Y-65400000D01*
D75*
X112946020Y-52603980D02*
X112685000Y-52865000D01*
X88196747Y-80778555D02*
X88461747Y-81043555D01*
D76*
X136359426Y-97237876D02*
X135230400Y-97237876D01*
D74*
X135729180Y-90950418D02*
X133870400Y-89091638D01*
X140435000Y-48135000D02*
X139235000Y-48135000D01*
X137657700Y-90703938D02*
X136752669Y-90703938D01*
D75*
X102166747Y-92328555D02*
X103741445Y-92328555D01*
D76*
X94231747Y-82398555D02*
X94266747Y-82363555D01*
D74*
X107028463Y-78011537D02*
X108422253Y-78011537D01*
D75*
X102166747Y-90203555D02*
X102166747Y-88693555D01*
D76*
X119011747Y-85793555D02*
X119496747Y-86278555D01*
D75*
X104821747Y-80098555D02*
X104047086Y-80873216D01*
D74*
X110033057Y-63060881D02*
X110363806Y-63391630D01*
X95860000Y-79871808D02*
X97481747Y-81493555D01*
X133760734Y-87972542D02*
X133870400Y-88082208D01*
D76*
X104821747Y-80098555D02*
X106401747Y-80098555D01*
D74*
X106330000Y-80026808D02*
X106330000Y-78710000D01*
D75*
X102126747Y-87063555D02*
X102116747Y-87053555D01*
D74*
X101085000Y-65520000D02*
X101085000Y-64695000D01*
D75*
X102166747Y-88693555D02*
X102126747Y-88653555D01*
X83506747Y-88863555D02*
X83536747Y-88833555D01*
X96371564Y-61171564D02*
X96319190Y-61223938D01*
D76*
X92839800Y-58140038D02*
X92839800Y-57848800D01*
D74*
X136506189Y-90950418D02*
X135729180Y-90950418D01*
D75*
X102166747Y-92328555D02*
X102166747Y-91763555D01*
D74*
X91211638Y-59250000D02*
X92126703Y-59250000D01*
X104767342Y-79632658D02*
X106863057Y-77536943D01*
D76*
X149660000Y-52900000D02*
X149853938Y-53093938D01*
D74*
X133870400Y-88082208D02*
X133870400Y-88947876D01*
X87491747Y-80778555D02*
X87491747Y-80398253D01*
X101085000Y-64695000D02*
X101085000Y-64000000D01*
D75*
X83506747Y-90403555D02*
X83506747Y-92745055D01*
D76*
X156540000Y-45720000D02*
X156292700Y-45967300D01*
D75*
X111545000Y-53930000D02*
X111545000Y-52865000D01*
X105590000Y-63875000D02*
X106793762Y-63875000D01*
D76*
X119011747Y-85198555D02*
X119011747Y-85793555D01*
X101085000Y-64000000D02*
X100910000Y-63825000D01*
D74*
X136752669Y-90703938D02*
X136506189Y-90950418D01*
D76*
X139235000Y-48135000D02*
X139260000Y-48110000D01*
D78*
X79905000Y-63579101D02*
X79905000Y-64730000D01*
D75*
X111545000Y-52865000D02*
X111545000Y-52120000D01*
D74*
X102305000Y-64695000D02*
X102800000Y-64200000D01*
D75*
X111545000Y-52120000D02*
X111425000Y-52000000D01*
D74*
X108498636Y-63060881D02*
X110033057Y-63060881D01*
D76*
X156292700Y-50457300D02*
X155750000Y-51000000D01*
D74*
X92194765Y-59181938D02*
X92250300Y-59181938D01*
D75*
X94832192Y-82210000D02*
X96041747Y-83419555D01*
X111485000Y-44935000D02*
X111485000Y-45840000D01*
X113501747Y-88563555D02*
X115106747Y-88563555D01*
D74*
X104767342Y-80202401D02*
X104767342Y-79632658D01*
D75*
X96041747Y-83419555D02*
X96041747Y-84233555D01*
X152140000Y-51995000D02*
X151041062Y-53093938D01*
D74*
X92126703Y-59250000D02*
X92194765Y-59181938D01*
D75*
X115746747Y-86308555D02*
X115746747Y-85194949D01*
X111495000Y-45850000D02*
X111495000Y-51930000D01*
D74*
X95060000Y-63537500D02*
X95060000Y-61551638D01*
X106330000Y-78710000D02*
X107028463Y-78011537D01*
D76*
X122733192Y-85110000D02*
X120665302Y-85110000D01*
D77*
X108422253Y-63277747D02*
X108422253Y-63511537D01*
D75*
X102166747Y-93323555D02*
X102166747Y-92328555D01*
X84681747Y-87433555D02*
X84636747Y-87433555D01*
X95387700Y-61223938D02*
X95202699Y-61408939D01*
D76*
X101862358Y-80364166D02*
X101847969Y-80378555D01*
D75*
X83536747Y-88833555D02*
X83536747Y-88578555D01*
D74*
X99496747Y-81493555D02*
X100611747Y-80378555D01*
D75*
X83506747Y-90403555D02*
X83506747Y-88863555D01*
%TO.N,GND*%
X97431747Y-94623555D02*
X96091747Y-94623555D01*
X160311638Y-67975000D02*
X160282700Y-68003938D01*
D74*
X149665400Y-97396238D02*
X150407700Y-96653938D01*
X146190000Y-93633216D02*
X146190000Y-94220000D01*
D75*
X153600000Y-71500000D02*
X153770000Y-71670000D01*
D77*
X140435000Y-51365000D02*
X140435000Y-51600000D01*
D76*
X105650000Y-48200000D02*
X106498762Y-48200000D01*
D74*
X113540000Y-67530000D02*
X113550000Y-67520000D01*
X110070000Y-64030000D02*
X110100881Y-64060881D01*
D75*
X99906747Y-78123555D02*
X100611747Y-78828555D01*
D77*
X81986747Y-87908555D02*
X82091747Y-87803555D01*
D76*
X144857700Y-88103938D02*
X149382700Y-88103938D01*
D79*
X101746200Y-49146200D02*
X101746200Y-47375000D01*
D74*
X108498636Y-65560881D02*
X108519517Y-65540000D01*
D77*
X140435000Y-51365000D02*
X140435000Y-50800000D01*
D74*
X113428238Y-68040000D02*
X113449119Y-68060881D01*
D76*
X105760000Y-54090000D02*
X105650000Y-54200000D01*
D75*
X153300000Y-82900000D02*
X154625000Y-82900000D01*
D76*
X106860000Y-50040000D02*
X106700000Y-50200000D01*
D77*
X102645000Y-67120000D02*
X102645000Y-68620000D01*
D75*
X160300000Y-67975000D02*
X160300000Y-67175000D01*
X86944149Y-91229149D02*
X86944149Y-92589153D01*
D74*
X110141762Y-64020000D02*
X113630000Y-64020000D01*
D80*
X108550000Y-85290000D02*
X108074155Y-84814155D01*
D76*
X83846445Y-94623555D02*
X83640000Y-94830000D01*
D75*
X169410000Y-51845000D02*
X168410900Y-51845000D01*
D79*
X101971062Y-57378938D02*
X102620000Y-56730000D01*
D75*
X94045258Y-83080044D02*
X94231747Y-83266533D01*
D74*
X149665400Y-97962876D02*
X149665400Y-97396238D01*
D75*
X86719747Y-92813555D02*
X85651747Y-92813555D01*
X129805000Y-66870000D02*
X128655000Y-66870000D01*
D76*
X106660000Y-54090000D02*
X105760000Y-54090000D01*
D74*
X162000000Y-56200000D02*
X163662500Y-56200000D01*
X108498636Y-68560881D02*
X108529517Y-68530000D01*
X113470000Y-68530000D02*
X113500000Y-68560000D01*
D75*
X160350000Y-86300000D02*
X162595000Y-86300000D01*
D74*
X113460000Y-70530000D02*
X113490881Y-70560881D01*
D75*
X134770000Y-65585000D02*
X135650000Y-65585000D01*
D80*
X78321747Y-91071747D02*
X78321747Y-91071745D01*
D77*
X79791747Y-84721091D02*
X80468382Y-84044456D01*
D75*
X157655000Y-64830000D02*
X158128762Y-64830000D01*
D74*
X108498636Y-70060881D02*
X108519517Y-70040000D01*
D75*
X169537700Y-69313938D02*
X168092700Y-69313938D01*
D74*
X108550000Y-86185000D02*
X108550000Y-85944155D01*
X113630000Y-64020000D02*
X113720000Y-64110000D01*
X108519517Y-69540000D02*
X113550000Y-69540000D01*
D75*
X81956747Y-88863555D02*
X81986747Y-88833555D01*
D74*
X110730000Y-64540000D02*
X113490000Y-64540000D01*
D81*
X150481062Y-93478938D02*
X151807700Y-93478938D01*
D80*
X163625000Y-51400000D02*
X163511062Y-51513938D01*
D78*
X78415000Y-70850000D02*
X78812702Y-70452298D01*
D77*
X134300000Y-50550000D02*
X134300000Y-50475000D01*
X137300000Y-50925000D02*
X138243761Y-50924999D01*
D79*
X85921400Y-49200000D02*
X85921400Y-47375000D01*
D76*
X106700000Y-50200000D02*
X105650000Y-50200000D01*
X116000000Y-44600000D02*
X115804381Y-44795619D01*
D81*
X150407700Y-86278938D02*
X150620364Y-86278938D01*
D77*
X150407700Y-96278938D02*
X150526364Y-96278938D01*
D76*
X78812700Y-69833938D02*
X78812702Y-69833938D01*
X78420000Y-63540000D02*
X78355000Y-63605000D01*
D74*
X108498636Y-67560881D02*
X108529517Y-67530000D01*
D81*
X150620364Y-86278938D02*
X151411747Y-85487555D01*
D75*
X117296747Y-86308555D02*
X117296747Y-85284949D01*
X120698192Y-92370000D02*
X120701747Y-92373555D01*
X158128762Y-64830000D02*
X160300000Y-67001238D01*
D76*
X102196747Y-94833555D02*
X103251747Y-94833555D01*
D74*
X136614130Y-87453938D02*
X137657700Y-87453938D01*
D75*
X168410900Y-51845000D02*
X167665900Y-51100000D01*
D76*
X78365000Y-70900000D02*
X78415000Y-70850000D01*
X117000000Y-48100000D02*
X116058762Y-48100000D01*
D75*
X124900000Y-78386638D02*
X124900000Y-77250000D01*
D77*
X140435000Y-50800000D02*
X140485000Y-50750000D01*
D76*
X85860000Y-78862500D02*
X85871500Y-78851000D01*
D74*
X108529517Y-70530000D02*
X113460000Y-70530000D01*
X113760000Y-67030000D02*
X113770000Y-67020000D01*
X149988762Y-95060000D02*
X147026638Y-95060000D01*
D75*
X153770000Y-71670000D02*
X154520000Y-71670000D01*
X129790000Y-77975000D02*
X129825000Y-77940000D01*
D79*
X100983900Y-57378938D02*
X101971062Y-57378938D01*
D80*
X78321747Y-91071747D02*
X78321747Y-92203555D01*
D74*
X135819426Y-90470000D02*
X134950400Y-89600974D01*
D79*
X85371747Y-56023555D02*
X85371747Y-56525347D01*
D74*
X150407700Y-96278938D02*
X150407700Y-95478938D01*
D76*
X106490000Y-52200000D02*
X105650000Y-52200000D01*
D75*
X147950000Y-44375000D02*
X149750000Y-44375000D01*
X160350000Y-89700000D02*
X160350000Y-86300000D01*
D77*
X137175000Y-50800000D02*
X137300000Y-50925000D01*
D75*
X143381747Y-44983555D02*
X143381747Y-46533555D01*
X158200000Y-75300000D02*
X160600000Y-77700000D01*
X138425000Y-70675000D02*
X140200000Y-70675000D01*
D74*
X146032700Y-90053938D02*
X146607700Y-89478938D01*
D76*
X85860000Y-77403980D02*
X85860000Y-78862500D01*
X106578762Y-44200000D02*
X106672700Y-44293938D01*
D75*
X172100000Y-76325000D02*
X173601636Y-76325000D01*
D74*
X89017700Y-59893938D02*
X89017700Y-59842300D01*
X108529517Y-64030000D02*
X110070000Y-64030000D01*
D75*
X98321747Y-78503555D02*
X98701747Y-78123555D01*
D74*
X108498636Y-65060881D02*
X110500881Y-65060881D01*
D76*
X106700000Y-52410000D02*
X106490000Y-52200000D01*
D75*
X117296747Y-86308555D02*
X117221747Y-86383555D01*
D74*
X108498636Y-64560881D02*
X108519517Y-64540000D01*
X113420000Y-66030000D02*
X113520000Y-66130000D01*
D75*
X92110000Y-82210000D02*
X91880000Y-82440000D01*
D76*
X103251747Y-94833555D02*
X103301747Y-94783555D01*
D75*
X92896747Y-82210000D02*
X93766791Y-83080044D01*
D76*
X89017700Y-59893938D02*
X88768310Y-60143328D01*
D80*
X163775000Y-76425000D02*
X164500000Y-76425000D01*
D76*
X100983900Y-57087700D02*
X100971200Y-57075000D01*
D74*
X113600000Y-70040000D02*
X113650000Y-70090000D01*
D75*
X100611747Y-78828555D02*
X100611747Y-78100515D01*
D74*
X136137780Y-90470000D02*
X135819426Y-90470000D01*
X133870400Y-90497876D02*
X133870400Y-91304902D01*
X136553842Y-90053938D02*
X136137780Y-90470000D01*
X110500881Y-65060881D02*
X110729643Y-65060881D01*
X108519517Y-70040000D02*
X113600000Y-70040000D01*
D76*
X105680000Y-92970000D02*
X105490000Y-92970000D01*
D74*
X89017700Y-59842300D02*
X89610000Y-59250000D01*
D76*
X108455936Y-81494064D02*
X108210000Y-81740000D01*
D75*
X125235000Y-66956238D02*
X125235000Y-65975000D01*
X125235000Y-65975000D02*
X126640000Y-65975000D01*
D74*
X108519517Y-66040000D02*
X110678762Y-66040000D01*
D75*
X135750000Y-76670000D02*
X134775000Y-76670000D01*
D80*
X98942700Y-58791062D02*
X98942700Y-57873938D01*
D76*
X110780000Y-93290000D02*
X111650000Y-93290000D01*
X104175000Y-60750000D02*
X104780000Y-60145000D01*
D75*
X93766791Y-83080044D02*
X94045258Y-83080044D01*
D74*
X108498636Y-67060881D02*
X108529517Y-67030000D01*
D75*
X160300000Y-68775000D02*
X160898938Y-69373938D01*
D74*
X108529517Y-68530000D02*
X110510000Y-68530000D01*
D75*
X135750000Y-75425000D02*
X135750000Y-76670000D01*
D77*
X81182900Y-82920000D02*
X80389494Y-82126594D01*
D75*
X96091747Y-94623555D02*
X95531747Y-94063555D01*
D77*
X139500000Y-51600000D02*
X139400000Y-51700000D01*
X140435000Y-52450000D02*
X140435000Y-51365000D01*
D76*
X106721747Y-46203555D02*
X106718192Y-46200000D01*
D75*
X105166842Y-82718650D02*
X105166842Y-81993650D01*
X155860000Y-64830000D02*
X157655000Y-64830000D01*
D77*
X79203364Y-60413938D02*
X80117700Y-60413938D01*
D81*
X151157747Y-89551555D02*
X150885130Y-89278938D01*
D75*
X126075000Y-77250000D02*
X126800000Y-77975000D01*
D77*
X102645000Y-70120000D02*
X102645000Y-71620000D01*
D76*
X115336747Y-96878555D02*
X115336747Y-95313555D01*
D74*
X150407700Y-95478938D02*
X149988762Y-95060000D01*
D77*
X80760000Y-80920000D02*
X80389494Y-81290506D01*
X165025000Y-67075000D02*
X166500000Y-67075000D01*
D74*
X108529517Y-67030000D02*
X113760000Y-67030000D01*
D77*
X82681747Y-87190555D02*
X83141747Y-87650555D01*
X147375000Y-58600000D02*
X149660000Y-58600000D01*
D75*
X117221747Y-92158555D02*
X117433192Y-92370000D01*
D77*
X140435000Y-51600000D02*
X139500000Y-51600000D01*
X83500685Y-81145000D02*
X83275685Y-80920000D01*
D75*
X137750000Y-70300000D02*
X137900000Y-70150000D01*
X117221747Y-86383555D02*
X117221747Y-92158555D01*
X137750000Y-71400421D02*
X137750000Y-70300000D01*
X156175000Y-75300000D02*
X158200000Y-75300000D01*
D80*
X163570000Y-76630000D02*
X163775000Y-76425000D01*
D74*
X134950400Y-89600974D02*
X134950400Y-88922876D01*
D77*
X155142698Y-54922698D02*
X155142698Y-54843938D01*
D75*
X162595000Y-86300000D02*
X163395000Y-87100000D01*
X106401747Y-82699150D02*
X106421747Y-82719150D01*
X153175000Y-82775000D02*
X153300000Y-82900000D01*
D74*
X110730524Y-66030000D02*
X113420000Y-66030000D01*
D77*
X152375000Y-58675000D02*
X152405000Y-58645000D01*
D82*
X146860000Y-47900000D02*
X146860000Y-49260000D01*
D75*
X150400000Y-82675000D02*
X150300000Y-82775000D01*
X89631747Y-82328555D02*
X89681747Y-82278555D01*
X87491747Y-82328555D02*
X88598555Y-82328555D01*
X98321747Y-78798555D02*
X98321747Y-78503555D01*
D80*
X97873762Y-59860000D02*
X98942700Y-58791062D01*
D76*
X115390000Y-45210000D02*
X114330000Y-45210000D01*
D75*
X128425000Y-66640000D02*
X127305000Y-66640000D01*
D74*
X79000000Y-51200000D02*
X79900000Y-51200000D01*
D77*
X149660000Y-58600000D02*
X149735000Y-58675000D01*
D76*
X106498762Y-48200000D02*
X106542700Y-48243938D01*
D74*
X89610000Y-59250000D02*
X89920000Y-59250000D01*
X108519517Y-68040000D02*
X113428238Y-68040000D01*
D76*
X104175000Y-62000000D02*
X102800000Y-62000000D01*
D75*
X124900000Y-77250000D02*
X126075000Y-77250000D01*
D77*
X134300000Y-50550000D02*
X134550000Y-50800000D01*
X82681747Y-86593555D02*
X82681747Y-87190555D01*
D74*
X110500881Y-65060881D02*
X113540881Y-65060881D01*
X113550000Y-69540000D02*
X113570881Y-69560881D01*
X79070000Y-53610000D02*
X80185000Y-53610000D01*
D75*
X174202700Y-69418938D02*
X175500000Y-68121638D01*
X128655000Y-66870000D02*
X128425000Y-66640000D01*
X160300000Y-68775000D02*
X160300000Y-67975000D01*
X94231747Y-84233555D02*
X94231747Y-85963555D01*
X116957500Y-53800000D02*
X116822700Y-53665200D01*
X97832700Y-59818938D02*
X97873762Y-59860000D01*
D74*
X90639800Y-58530200D02*
X90639800Y-57848800D01*
D80*
X155800000Y-53575000D02*
X155800000Y-54186636D01*
D75*
X117082700Y-54803938D02*
X117082700Y-53925200D01*
D74*
X110341762Y-65540000D02*
X113560000Y-65540000D01*
X133870400Y-90497876D02*
X134276638Y-90497876D01*
D75*
X135650000Y-65585000D02*
X136325000Y-64910000D01*
D76*
X106718192Y-46200000D02*
X105650000Y-46200000D01*
D75*
X98701747Y-78123555D02*
X99906747Y-78123555D01*
D74*
X108519517Y-65540000D02*
X110280000Y-65540000D01*
D75*
X117433192Y-92370000D02*
X120698192Y-92370000D01*
X97431747Y-92813555D02*
X95650592Y-92813555D01*
X160600000Y-79700500D02*
X160100500Y-80200000D01*
D77*
X77992327Y-76792387D02*
X78485000Y-77285060D01*
D81*
X150410000Y-93550000D02*
X150481062Y-93478938D01*
D74*
X88768310Y-60143328D02*
X88208280Y-60143328D01*
X108519517Y-64540000D02*
X110688238Y-64540000D01*
D77*
X81182900Y-82920000D02*
X80468382Y-83634518D01*
D75*
X150400000Y-81375000D02*
X150400000Y-82675000D01*
X81986747Y-88833555D02*
X81986747Y-87908555D01*
D74*
X135409747Y-86249555D02*
X136614130Y-87453938D01*
D77*
X80389494Y-82126594D02*
X80389494Y-81964524D01*
D75*
X140100000Y-82175000D02*
X139192000Y-81267000D01*
D80*
X92652700Y-59908938D02*
X97742700Y-59908938D01*
D75*
X169410000Y-58295000D02*
X168231162Y-58295000D01*
D77*
X163810000Y-67075000D02*
X165025000Y-67075000D01*
D75*
X160898938Y-69373938D02*
X160992700Y-69373938D01*
X175500000Y-68121638D02*
X175500000Y-66900000D01*
D80*
X168700000Y-64400000D02*
X168700000Y-63075000D01*
D76*
X150407700Y-96653938D02*
X150407700Y-96278938D01*
D75*
X137336970Y-81267000D02*
X135878600Y-82725370D01*
D78*
X78812702Y-70452298D02*
X78812702Y-69833938D01*
D77*
X102645000Y-67120000D02*
X102645000Y-65530000D01*
D80*
X160661062Y-51513938D02*
X161672700Y-51513938D01*
D76*
X100983900Y-57378938D02*
X100983900Y-57087700D01*
D77*
X165025000Y-67421638D02*
X164012700Y-68433938D01*
D74*
X146832700Y-95253938D02*
X144857700Y-95253938D01*
X134276638Y-90497876D02*
X135132700Y-91353938D01*
D75*
X94231747Y-94443555D02*
X94161747Y-94373555D01*
D76*
X149382700Y-88103938D02*
X150407700Y-87078938D01*
X105650000Y-44200000D02*
X106578762Y-44200000D01*
D75*
X160600000Y-78500000D02*
X160600000Y-77700000D01*
X160300000Y-68650000D02*
X160300000Y-68775000D01*
D81*
X150885130Y-89278938D02*
X149832700Y-89278938D01*
D74*
X113490000Y-64540000D02*
X113580000Y-64630000D01*
D76*
X105490000Y-92970000D02*
X103950000Y-91430000D01*
D77*
X102645000Y-65530000D02*
X102635000Y-65520000D01*
D78*
X78355000Y-63605000D02*
X78355000Y-64730000D01*
D77*
X149735000Y-58675000D02*
X152375000Y-58675000D01*
D74*
X110729643Y-65060881D02*
X110732700Y-65063938D01*
X108529517Y-67530000D02*
X113540000Y-67530000D01*
X146190000Y-94220000D02*
X146490000Y-94520000D01*
X89920000Y-59250000D02*
X90639800Y-58530200D01*
D80*
X97742700Y-59908938D02*
X97832700Y-59818938D01*
D77*
X102645000Y-70120000D02*
X102645000Y-68620000D01*
D74*
X144857700Y-93303938D02*
X145860722Y-93303938D01*
D75*
X86944149Y-92589153D02*
X86719747Y-92813555D01*
D80*
X78321747Y-89263555D02*
X78321747Y-91071747D01*
D76*
X123800000Y-48250000D02*
X123800000Y-49200000D01*
D77*
X134550000Y-50800000D02*
X137175000Y-50800000D01*
D74*
X135132700Y-91353938D02*
X137657700Y-91353938D01*
X149440000Y-94520000D02*
X150410000Y-93550000D01*
D76*
X104175000Y-62000000D02*
X104175000Y-60750000D01*
D75*
X92896747Y-82210000D02*
X92110000Y-82210000D01*
X174792500Y-66192500D02*
X173747500Y-66192500D01*
X100611747Y-78100515D02*
X101625371Y-77086891D01*
X127100000Y-77975000D02*
X129790000Y-77975000D01*
X137900000Y-70150000D02*
X138425000Y-70675000D01*
D74*
X110571762Y-68530000D02*
X113470000Y-68530000D01*
D75*
X105166842Y-81993650D02*
X104821747Y-81648555D01*
D80*
X155800000Y-54186636D02*
X155142698Y-54843938D01*
D75*
X145950000Y-44425000D02*
X143940302Y-44425000D01*
X106401747Y-81648555D02*
X106401747Y-82699150D01*
X117002500Y-53845000D02*
X116957500Y-53800000D01*
X160300000Y-67001238D02*
X160300000Y-67175000D01*
D77*
X79791747Y-85328555D02*
X79791747Y-84721091D01*
D75*
X150526364Y-96278938D02*
X151411747Y-95393555D01*
D76*
X108455936Y-80986943D02*
X108455936Y-81494064D01*
D74*
X108498636Y-69060881D02*
X108519517Y-69040000D01*
D75*
X94231747Y-83266533D02*
X94231747Y-83652555D01*
D77*
X80468382Y-83634518D02*
X80468382Y-84044456D01*
D81*
X150407700Y-85453938D02*
X149832700Y-84878938D01*
D76*
X111650000Y-93290000D02*
X112670000Y-94310000D01*
D81*
X150407700Y-86278938D02*
X150407700Y-85453938D01*
D74*
X146490000Y-94520000D02*
X149440000Y-94520000D01*
D75*
X150335000Y-71420000D02*
X150335000Y-70455000D01*
X175500000Y-66900000D02*
X174792500Y-66192500D01*
D74*
X108498636Y-69560881D02*
X108519517Y-69540000D01*
D77*
X83275685Y-80920000D02*
X80760000Y-80920000D01*
D74*
X137657700Y-90053938D02*
X136553842Y-90053938D01*
D75*
X140300000Y-82175000D02*
X140100000Y-82175000D01*
D76*
X108422253Y-68511537D02*
X108471597Y-68560881D01*
D74*
X108498636Y-70560881D02*
X108529517Y-70530000D01*
X108498636Y-68060881D02*
X108519517Y-68040000D01*
D75*
X126640000Y-65975000D02*
X127305000Y-66640000D01*
X94231747Y-96013555D02*
X94231747Y-94443555D01*
D76*
X146860000Y-49260000D02*
X146900000Y-49300000D01*
X117296747Y-85284949D02*
X117201747Y-85189949D01*
D75*
X160600000Y-79200000D02*
X160600000Y-79700500D01*
X95650592Y-92813555D02*
X95501747Y-92962400D01*
X88598555Y-82328555D02*
X88665115Y-82395115D01*
D74*
X133870400Y-91304902D02*
X133771747Y-91403555D01*
D77*
X78485000Y-77285060D02*
X78485000Y-77420000D01*
D76*
X79030000Y-53570000D02*
X79070000Y-53610000D01*
D75*
X144625000Y-71450000D02*
X144625000Y-70365000D01*
X144800000Y-81500000D02*
X144800000Y-82875000D01*
D74*
X144857700Y-90053938D02*
X146032700Y-90053938D01*
D75*
X139192000Y-81267000D02*
X137336970Y-81267000D01*
D77*
X165025000Y-67075000D02*
X165025000Y-67421638D01*
X173601638Y-76325000D02*
X173601636Y-76325000D01*
D75*
X81956747Y-90403555D02*
X81956747Y-88863555D01*
X160600000Y-79200000D02*
X160600000Y-78500000D01*
D74*
X147026638Y-95060000D02*
X146832700Y-95253938D01*
D75*
X126800000Y-77975000D02*
X127100000Y-77975000D01*
D76*
X147900000Y-44425000D02*
X147950000Y-44375000D01*
D75*
X117082700Y-53925200D02*
X116957500Y-53800000D01*
D74*
X108498636Y-64060881D02*
X108529517Y-64030000D01*
D77*
X80389494Y-81290506D02*
X80389494Y-81964524D01*
D75*
X129820000Y-66855000D02*
X129805000Y-66870000D01*
D80*
X163511062Y-51513938D02*
X161672700Y-51513938D01*
D79*
X85371747Y-56525347D02*
X85921400Y-57075000D01*
D74*
X108519517Y-69040000D02*
X113550000Y-69040000D01*
D76*
X85747828Y-77291808D02*
X85860000Y-77403980D01*
D75*
X87421747Y-82398555D02*
X87491747Y-82328555D01*
X168062700Y-69283938D02*
X168092700Y-69313938D01*
X85651747Y-94623555D02*
X83846445Y-94623555D01*
X145950000Y-44425000D02*
X147900000Y-44425000D01*
X116822700Y-51787700D02*
X116792500Y-51757500D01*
D74*
X145860722Y-93303938D02*
X146190000Y-93633216D01*
D81*
X150407700Y-87078938D02*
X150407700Y-86278938D01*
D80*
X108550000Y-85944155D02*
X108550000Y-85290000D01*
D77*
X155330000Y-55110000D02*
X155142698Y-54922698D01*
D75*
X143940302Y-44425000D02*
X143381747Y-44983555D01*
X104821747Y-81648555D02*
X106401747Y-81648555D01*
D74*
X108498636Y-66060881D02*
X108519517Y-66040000D01*
D76*
X115336747Y-95313555D02*
X114341747Y-94318555D01*
D75*
X168231162Y-58295000D02*
X167732462Y-58793700D01*
D76*
X115804381Y-44795619D02*
X115390000Y-45210000D01*
D74*
X113540881Y-65060881D02*
X113560000Y-65080000D01*
D80*
X108074155Y-84814155D02*
X107420000Y-84814155D01*
D75*
X88598555Y-82328555D02*
X89631747Y-82328555D01*
X116822700Y-53665200D02*
X116822700Y-51787700D01*
D74*
%TO.N,+1V8A*%
X99339147Y-79018736D02*
X98321747Y-80036136D01*
X91460000Y-62320000D02*
X92630000Y-62320000D01*
D76*
X85301747Y-80848555D02*
X84876747Y-80848555D01*
D80*
X91395881Y-61403938D02*
X92597700Y-61403938D01*
D75*
X77029059Y-79680867D02*
X77781747Y-80433555D01*
D74*
X92630000Y-61481638D02*
X92652700Y-61458938D01*
D75*
X77029059Y-76035597D02*
X77029059Y-79680867D01*
X77294656Y-75770000D02*
X77029059Y-76035597D01*
X78465000Y-75770000D02*
X77294656Y-75770000D01*
D76*
X96260000Y-79430000D02*
X96260000Y-78862500D01*
D74*
X77781747Y-80433555D02*
X78746445Y-80433555D01*
X84210000Y-79920000D02*
X85260000Y-80970000D01*
D78*
X93668938Y-61458938D02*
X94583480Y-62373480D01*
D74*
X93860000Y-62360000D02*
X93860000Y-63537500D01*
X98321747Y-80348555D02*
X97178555Y-80348555D01*
X78746445Y-80433555D02*
X80260000Y-78920000D01*
X94660000Y-63537500D02*
X94660000Y-62520000D01*
D76*
X94583480Y-62373480D02*
X94583480Y-62443480D01*
D74*
X92630000Y-62320000D02*
X93820000Y-62320000D01*
D75*
X85745602Y-80404700D02*
X85301747Y-80848555D01*
D74*
X93820000Y-62320000D02*
X93860000Y-62360000D01*
X91460000Y-63537500D02*
X91460000Y-62320000D01*
D76*
X98321747Y-80036136D02*
X98321747Y-80348555D01*
D74*
X81760000Y-78920000D02*
X82760000Y-79920000D01*
D80*
X92597700Y-61403938D02*
X92652700Y-61458938D01*
X91140719Y-61659100D02*
X91395881Y-61403938D01*
D78*
X92652700Y-61458938D02*
X93668938Y-61458938D01*
D75*
X85745602Y-80066863D02*
X85745602Y-80404700D01*
D76*
X94660000Y-62520000D02*
X94583480Y-62443480D01*
D74*
X80260000Y-78920000D02*
X81760000Y-78920000D01*
X82760000Y-79920000D02*
X84210000Y-79920000D01*
D76*
X96260000Y-78862500D02*
X96310000Y-78912500D01*
D74*
X97178555Y-80348555D02*
X96260000Y-79430000D01*
D76*
X94583480Y-62443480D02*
X94583480Y-62530000D01*
D74*
X92630000Y-62320000D02*
X92630000Y-61481638D01*
D76*
%TO.N,Net-(C5-Pad2)*%
X92388385Y-65976917D02*
X92271747Y-65860279D01*
X84178941Y-60303938D02*
X81777700Y-60303938D01*
X92271747Y-65860279D02*
X92271747Y-64393555D01*
X81777700Y-60303938D02*
X81667700Y-60413938D01*
X84467800Y-60592797D02*
X84178941Y-60303938D01*
X81667700Y-60413938D02*
X81667700Y-59657180D01*
X81667700Y-59657180D02*
X80098977Y-58088457D01*
X92260000Y-63537500D02*
X92260000Y-64585302D01*
%TO.N,Net-(C6-Pad2)*%
X85057836Y-59519644D02*
X81898977Y-56360785D01*
X93201747Y-65563555D02*
X92831747Y-65193555D01*
X92831747Y-65193555D02*
X92771747Y-65193555D01*
X92660000Y-65081808D02*
X92660000Y-63537500D01*
X81898977Y-56360785D02*
X81898977Y-55788457D01*
X81898977Y-53773977D02*
X81735000Y-53610000D01*
X92771747Y-65193555D02*
X92660000Y-65081808D01*
X81928977Y-55848457D02*
X81968457Y-55848457D01*
X85057836Y-59932782D02*
X85057836Y-59519644D01*
X81898977Y-55788457D02*
X81898977Y-53773977D01*
%TO.N,Net-(D13-Pad2)*%
X121400000Y-44800000D02*
X121400000Y-46100000D01*
X121400000Y-46100000D02*
X123800000Y-46100000D01*
X121400000Y-46175000D02*
X121410000Y-46165000D01*
X121810000Y-44800000D02*
X121400000Y-44800000D01*
X121410000Y-44610000D02*
X121400000Y-44600000D01*
X121410000Y-46165000D02*
X121410000Y-44610000D01*
D77*
%TO.N,VBUS*%
X158950000Y-51675000D02*
X158925000Y-51700000D01*
D81*
X142764970Y-50111861D02*
X142296788Y-50580043D01*
X158232700Y-53367300D02*
X158232700Y-53893938D01*
X158882700Y-52717300D02*
X158232700Y-53367300D01*
D82*
X145360000Y-49800000D02*
X144115000Y-49800000D01*
D75*
X167366638Y-56200000D02*
X167472700Y-56093938D01*
D74*
X142546062Y-50203938D02*
X142883686Y-50203938D01*
X143277624Y-49810000D02*
X144105000Y-49810000D01*
D80*
X158902700Y-49687300D02*
X158902700Y-51627700D01*
D76*
X144115000Y-49800000D02*
X144105000Y-49810000D01*
D74*
X142883686Y-50203938D02*
X143277624Y-49810000D01*
D80*
X158882700Y-52717300D02*
X158882700Y-51742300D01*
D74*
X165937500Y-56200000D02*
X167366638Y-56200000D01*
D80*
X158902700Y-51627700D02*
X158950000Y-51675000D01*
X158950000Y-49640000D02*
X158902700Y-49687300D01*
D77*
X159400000Y-49190000D02*
X158950000Y-49640000D01*
D74*
X142035000Y-50750000D02*
X142035000Y-50715000D01*
X142035000Y-50715000D02*
X142546062Y-50203938D01*
D81*
X158882700Y-51742300D02*
X158925000Y-51700000D01*
X142153636Y-50750000D02*
X142035000Y-50750000D01*
D80*
%TO.N,Net-(C25-Pad1)*%
X163040000Y-49031238D02*
X163040000Y-48170000D01*
X165175000Y-51166238D02*
X163040000Y-49031238D01*
X163040000Y-48170000D02*
X163040000Y-48795000D01*
X165175000Y-51400000D02*
X165175000Y-51166238D01*
X161993938Y-47123938D02*
X163040000Y-48170000D01*
X159513938Y-47123938D02*
X161993938Y-47123938D01*
D75*
%TO.N,+5VA*%
X134775000Y-80480000D02*
X137420000Y-80480000D01*
D74*
X147457700Y-95903938D02*
X147457700Y-97003938D01*
D75*
X137925000Y-79975000D02*
X139700000Y-79975000D01*
X162260000Y-65520000D02*
X162310000Y-65570000D01*
X137095000Y-68600000D02*
X136300000Y-69395000D01*
X164260000Y-74831638D02*
X164260000Y-75420000D01*
X156380000Y-70045000D02*
X156255000Y-70170000D01*
X134750000Y-69415000D02*
X134770000Y-69395000D01*
D74*
X148407700Y-92878938D02*
X147946638Y-93340000D01*
D75*
X155582700Y-84153938D02*
X156175000Y-83561638D01*
X157630000Y-70045000D02*
X156380000Y-70045000D01*
X168256118Y-75480520D02*
X168300000Y-75436638D01*
X166919732Y-75420000D02*
X166980252Y-75480520D01*
D79*
X163800000Y-74190000D02*
X163790000Y-74200000D01*
D75*
X137900000Y-68600000D02*
X139475000Y-68600000D01*
D77*
X163810000Y-65525000D02*
X163810000Y-63581238D01*
D75*
X160600000Y-82000000D02*
X160600000Y-81400000D01*
X156255000Y-71485000D02*
X156070000Y-71670000D01*
D74*
X147946638Y-93340000D02*
X146560000Y-93340000D01*
D75*
X137900000Y-68600000D02*
X137095000Y-68600000D01*
D79*
X163790000Y-74200000D02*
X163790000Y-75020000D01*
D75*
X147607700Y-96278938D02*
X148134362Y-95752276D01*
X164260000Y-75420000D02*
X166919732Y-75420000D01*
D76*
X163486638Y-63100000D02*
X164010000Y-63100000D01*
D75*
X137900000Y-80000000D02*
X137925000Y-79975000D01*
D74*
X147457700Y-97003938D02*
X147932700Y-97478938D01*
D75*
X139475000Y-68600000D02*
X140200000Y-67875000D01*
D79*
X163851062Y-74138938D02*
X164952700Y-74138938D01*
D75*
X157630000Y-70045000D02*
X159670000Y-70045000D01*
X134750000Y-71200000D02*
X134750000Y-69415000D01*
X139700000Y-79975000D02*
X140300000Y-79375000D01*
X147607700Y-86078938D02*
X146607700Y-86078938D01*
X156400000Y-82675000D02*
X156400000Y-81300000D01*
X160300000Y-70675000D02*
X160300000Y-71575000D01*
X147607700Y-86478938D02*
X147607700Y-85453938D01*
D76*
X147607700Y-87078938D02*
X147607700Y-86478938D01*
X147607700Y-87078938D02*
X147207700Y-87478938D01*
D79*
X163800000Y-74190000D02*
X163851062Y-74138938D01*
D77*
X163810000Y-62502500D02*
X164020000Y-62292500D01*
D75*
X157780000Y-81000000D02*
X157775000Y-81005000D01*
X160600000Y-81400000D02*
X160200000Y-81000000D01*
D76*
X147607700Y-86478938D02*
X147607700Y-86078938D01*
D74*
X144857700Y-95903938D02*
X147457700Y-95903938D01*
D75*
X156070000Y-71670000D02*
X156948500Y-71670000D01*
X154582700Y-84153938D02*
X155582700Y-84153938D01*
X148134362Y-95752276D02*
X148607700Y-95752276D01*
X156695000Y-81005000D02*
X157775000Y-81005000D01*
X164952700Y-74138938D02*
X164260000Y-74831638D01*
D76*
X144882700Y-87478938D02*
X144857700Y-87453938D01*
D74*
X148107700Y-91178938D02*
X147607700Y-91178938D01*
D75*
X134775000Y-81938800D02*
X134836200Y-82000000D01*
X159670000Y-70045000D02*
X160300000Y-70675000D01*
D74*
X149007700Y-92878938D02*
X148407700Y-92878938D01*
D77*
X168300000Y-74437500D02*
X168300000Y-74626638D01*
D75*
X156255000Y-70170000D02*
X156255000Y-71485000D01*
X161932700Y-60663938D02*
X162260000Y-60991238D01*
D74*
X146560000Y-93340000D02*
X145873938Y-92653938D01*
D75*
X156948500Y-71670000D02*
X157682100Y-72403600D01*
D74*
X145873938Y-92653938D02*
X144857700Y-92653938D01*
D75*
X134775000Y-80480000D02*
X134775000Y-81938800D01*
D74*
X148907700Y-90378938D02*
X148107700Y-91178938D01*
D80*
X163810000Y-65525000D02*
X163810000Y-62502500D01*
D77*
X168300000Y-74626638D02*
X168292700Y-74633938D01*
D75*
X160200000Y-81000000D02*
X157780000Y-81000000D01*
X136300000Y-69395000D02*
X134770000Y-69395000D01*
X147607700Y-85453938D02*
X148182700Y-84878938D01*
X137420000Y-80480000D02*
X137900000Y-80000000D01*
X156175000Y-82900000D02*
X156400000Y-82675000D01*
D74*
X147207700Y-87478938D02*
X144882700Y-87478938D01*
D75*
X166980252Y-75480520D02*
X168256118Y-75480520D01*
X156400000Y-81300000D02*
X156695000Y-81005000D01*
X162260000Y-60991238D02*
X162260000Y-65520000D01*
X156175000Y-83561638D02*
X156175000Y-82900000D01*
X168300000Y-75436638D02*
X168300000Y-74437500D01*
%TO.N,-5VA*%
X152825000Y-77195000D02*
X152825000Y-77100000D01*
D77*
X164500000Y-79431808D02*
X164651747Y-79583555D01*
D75*
X153695000Y-77195000D02*
X152825000Y-77195000D01*
X127300000Y-75175000D02*
X128795000Y-76670000D01*
X152680000Y-65960000D02*
X152680000Y-66235000D01*
X160290000Y-64385000D02*
X160300000Y-64375000D01*
X160600000Y-74700000D02*
X160600000Y-74900000D01*
X160300000Y-64260000D02*
X159300000Y-63260000D01*
X127100000Y-75175000D02*
X127300000Y-75175000D01*
X129735000Y-65585000D02*
X129820000Y-65585000D01*
D77*
X167110000Y-77800000D02*
X167110000Y-77600000D01*
X165400000Y-78200000D02*
X164725000Y-78200000D01*
D75*
X128795000Y-76670000D02*
X129825000Y-76670000D01*
D77*
X167110000Y-77600000D02*
X166000000Y-77600000D01*
D75*
X155050000Y-78550000D02*
X153695000Y-77195000D01*
X155500000Y-74100000D02*
X160000000Y-74100000D01*
X125235000Y-63140000D02*
X125300000Y-63075000D01*
X124900000Y-75700000D02*
X126575000Y-75700000D01*
X160000000Y-74100000D02*
X160600000Y-74700000D01*
D77*
X164500000Y-77975000D02*
X164500000Y-79431808D01*
D75*
X125235000Y-64425000D02*
X126750000Y-64425000D01*
D77*
X166000000Y-77600000D02*
X165400000Y-78200000D01*
D75*
X160300000Y-64375000D02*
X160300000Y-64260000D01*
X160290000Y-65350000D02*
X160290000Y-64385000D01*
D77*
X166942700Y-79633938D02*
X166942700Y-77967300D01*
D75*
X155380000Y-63260000D02*
X152680000Y-65960000D01*
X126575000Y-75700000D02*
X127100000Y-75175000D01*
D77*
X167932700Y-80623938D02*
X166942700Y-79633938D01*
D75*
X154625000Y-75300000D02*
X154625000Y-74975000D01*
D77*
X169382700Y-80623938D02*
X167932700Y-80623938D01*
D75*
X159300000Y-63260000D02*
X155380000Y-63260000D01*
X125154539Y-74382100D02*
X124900000Y-74636639D01*
D77*
X166942700Y-77967300D02*
X167110000Y-77800000D01*
D75*
X126750000Y-64425000D02*
X127200000Y-63975000D01*
X154625000Y-74975000D02*
X155500000Y-74100000D01*
X125235000Y-64425000D02*
X125235000Y-63140000D01*
X124900000Y-74636639D02*
X124900000Y-75700000D01*
D77*
X164725000Y-78200000D02*
X164500000Y-77975000D01*
D75*
X128125000Y-63975000D02*
X129735000Y-65585000D01*
X152825000Y-77100000D02*
X154625000Y-75300000D01*
X127200000Y-63975000D02*
X128125000Y-63975000D01*
D74*
%TO.N,Net-(C31-Pad2)*%
X144857700Y-91353938D02*
X146082700Y-91353938D01*
X150407700Y-91178938D02*
X149495252Y-91178938D01*
X148404190Y-92270000D02*
X146440000Y-92270000D01*
X146082700Y-91353938D02*
X146407700Y-91678938D01*
X146407700Y-92278938D02*
X146407700Y-92067700D01*
X149495252Y-91178938D02*
X148404190Y-92270000D01*
X146407700Y-91678938D02*
X146407700Y-92278938D01*
X146407700Y-92067700D02*
X146343938Y-92003938D01*
X146343938Y-92003938D02*
X144857700Y-92003938D01*
D82*
%TO.N,Net-(C61-Pad1)*%
X143369170Y-51400000D02*
X145360000Y-51400000D01*
D80*
X140516638Y-56200000D02*
X141150000Y-55566638D01*
X141150000Y-55566638D02*
X141150000Y-54500000D01*
D75*
X143866980Y-51662961D02*
X144029941Y-51500000D01*
D76*
X143106209Y-51662961D02*
X143369170Y-51400000D01*
D75*
X143106209Y-51662961D02*
X143866980Y-51662961D01*
D80*
X139200000Y-56200000D02*
X140516638Y-56200000D01*
D75*
X139200000Y-56200000D02*
X139200000Y-54375000D01*
D80*
X139200000Y-54375000D02*
X137300000Y-52475000D01*
D76*
%TO.N,Net-(R53-Pad1)*%
X99000000Y-70600000D02*
X99400000Y-70200000D01*
X105825000Y-62000000D02*
X104851500Y-62973500D01*
X104851500Y-62973500D02*
X104851500Y-65916988D01*
X104851500Y-65916988D02*
X104852700Y-65918188D01*
X104852700Y-65918188D02*
X104852700Y-68633938D01*
X97722500Y-70600000D02*
X99000000Y-70600000D01*
X104852700Y-68633938D02*
X104972700Y-68753938D01*
D78*
%TO.N,VCC*%
X152375000Y-57125000D02*
X152405000Y-57095000D01*
D82*
X144714356Y-50982500D02*
X144731856Y-51000000D01*
X148460000Y-53626638D02*
X148460000Y-55105000D01*
D77*
X171235000Y-65005000D02*
X171472500Y-65242500D01*
X169210000Y-61617500D02*
X169117500Y-61525000D01*
D80*
X143627329Y-50783774D02*
X144421028Y-50783774D01*
D76*
X154375000Y-45806238D02*
X154332700Y-45763938D01*
D82*
X148860000Y-53526638D02*
X148760000Y-53626638D01*
D76*
X148460000Y-55105000D02*
X148705820Y-55350820D01*
D75*
X154375000Y-49400000D02*
X153600000Y-48625000D01*
D77*
X168700000Y-61525000D02*
X168700000Y-61171238D01*
D80*
X171235000Y-62292500D02*
X171235000Y-65005000D01*
D76*
X154375000Y-49400000D02*
X154375000Y-45806238D01*
D77*
X168700000Y-61525000D02*
X168375000Y-61200000D01*
D80*
X168092700Y-60563938D02*
X166902700Y-60563938D01*
D76*
X148860000Y-52900000D02*
X148860000Y-52955000D01*
D82*
X144786638Y-50200000D02*
X145360000Y-50200000D01*
D75*
X153600000Y-48625000D02*
X153600000Y-47260000D01*
D82*
X144439288Y-50547350D02*
X144786638Y-50200000D01*
X144439288Y-50765514D02*
X144656274Y-50982500D01*
D76*
X148832700Y-54933938D02*
X148796999Y-54898237D01*
D75*
X153600000Y-47260000D02*
X152555000Y-46215000D01*
X149735000Y-57125000D02*
X152375000Y-57125000D01*
D80*
X168700000Y-61171238D02*
X168092700Y-60563938D01*
D76*
X148860000Y-52955000D02*
X148875000Y-52970000D01*
D75*
X152555000Y-46215000D02*
X151960000Y-46215000D01*
D82*
X144656274Y-50982500D02*
X144714356Y-50982500D01*
D80*
X168699998Y-61525000D02*
X170467500Y-61525000D01*
D76*
X154375000Y-49346238D02*
X154375000Y-49400000D01*
D77*
X169117500Y-61525000D02*
X168699998Y-61525000D01*
X171235000Y-62292500D02*
X171235001Y-62292501D01*
D82*
X144731856Y-51000000D02*
X145360000Y-51000000D01*
D77*
X144421028Y-50783774D02*
X144439288Y-50765514D01*
D82*
X148460000Y-52900000D02*
X148460000Y-53626638D01*
D80*
X170467500Y-61525000D02*
X171235001Y-62292501D01*
D82*
X148760000Y-53626638D02*
X148460000Y-53626638D01*
X148860000Y-52900000D02*
X148860000Y-53526638D01*
X144439288Y-50765514D02*
X144439288Y-50547350D01*
D77*
%TO.N,Net-(C71-Pad1)*%
X169301438Y-72213938D02*
X169250000Y-72162500D01*
X171400000Y-72625000D02*
X170988938Y-72213938D01*
X170988938Y-72213938D02*
X169301438Y-72213938D01*
%TO.N,Net-(C71-Pad2)*%
X168049311Y-73353938D02*
X170578938Y-73353938D01*
X167350000Y-74437500D02*
X167350000Y-74053249D01*
X170578938Y-73353938D02*
X171400000Y-74175000D01*
X167350000Y-74437500D02*
X167350000Y-74950000D01*
X167350000Y-74053249D02*
X168049311Y-73353938D01*
%TO.N,Net-(C72-Pad1)*%
X169290000Y-74477500D02*
X169250000Y-74437500D01*
X172100000Y-77875000D02*
X172123939Y-77898939D01*
D75*
X169290000Y-74477500D02*
X169290000Y-77913938D01*
X169290000Y-77913938D02*
X172237703Y-77913938D01*
D77*
X172123939Y-77898939D02*
X172252702Y-77898939D01*
D75*
X172237703Y-77913938D02*
X172252702Y-77898939D01*
D77*
%TO.N,Net-(C73-Pad1)*%
X166550002Y-65575000D02*
X166500001Y-65524999D01*
D80*
X166402700Y-65427698D02*
X166500001Y-65524999D01*
D75*
X168900000Y-65575000D02*
X169517500Y-66192500D01*
D77*
X166200000Y-62292500D02*
X166300000Y-62392500D01*
D80*
X166300000Y-62392500D02*
X166402700Y-62495200D01*
X166402700Y-62495200D02*
X166402700Y-65427698D01*
D75*
X169517500Y-66192500D02*
X171472500Y-66192500D01*
X168900000Y-65575000D02*
X166550002Y-65575000D01*
D76*
%TO.N,/SOC/SDC_D1*%
X99631234Y-49655404D02*
X99631234Y-46266996D01*
X101698230Y-44200000D02*
X103450000Y-44200000D01*
X91710575Y-54039469D02*
X95247169Y-54039469D01*
X89980034Y-55770010D02*
X91710575Y-54039469D01*
X88430000Y-56220000D02*
X88879990Y-55770010D01*
X86260000Y-59626638D02*
X86672700Y-59213938D01*
X103450000Y-44170000D02*
X103990000Y-43630000D01*
X86672700Y-59213938D02*
X88012700Y-59213938D01*
X103450000Y-44200000D02*
X103450000Y-44170000D01*
X86260000Y-63537500D02*
X86260000Y-59626638D01*
X88439800Y-58786838D02*
X88439800Y-57848800D01*
X99631234Y-46266996D02*
X101698230Y-44200000D01*
X103990000Y-43630000D02*
X109165000Y-43630000D01*
X88012700Y-59213938D02*
X88439800Y-58786838D01*
D77*
X88439800Y-56229800D02*
X88430000Y-56220000D01*
D76*
X95247169Y-54039469D02*
X99631234Y-49655404D01*
X109165000Y-43630000D02*
X109835000Y-44300000D01*
D77*
X88439800Y-57848800D02*
X88439800Y-56229800D01*
D76*
X88879990Y-55770010D02*
X89980034Y-55770010D01*
%TO.N,/SOC/SDC_D0*%
X103000000Y-45750000D02*
X100610000Y-45750000D01*
X100610000Y-45750000D02*
X99957754Y-46402246D01*
X89539800Y-58546838D02*
X89539800Y-56929964D01*
X87636903Y-59540439D02*
X88147941Y-59540439D01*
X89020400Y-59066238D02*
X89539800Y-58546838D01*
X99957754Y-46402246D02*
X99957754Y-49791332D01*
X92103295Y-54366469D02*
X90103854Y-56365910D01*
X99957754Y-49791332D02*
X95382617Y-54366469D01*
X88622142Y-59066238D02*
X89020400Y-59066238D01*
X86660000Y-63537500D02*
X86660000Y-60517342D01*
X89539800Y-56929964D02*
X90103854Y-56365910D01*
X108945000Y-45390000D02*
X109705000Y-46150000D01*
X95382617Y-54366469D02*
X92103295Y-54366469D01*
X108860000Y-45390000D02*
X108945000Y-45390000D01*
X104260000Y-45390000D02*
X103450000Y-46200000D01*
X103450000Y-46200000D02*
X103000000Y-45750000D01*
X88147941Y-59540439D02*
X88622142Y-59066238D01*
X86660000Y-60517342D02*
X87636903Y-59540439D01*
X108860000Y-45390000D02*
X104260000Y-45390000D01*
%TO.N,/SOC/SDC_CLK*%
X103450000Y-49172880D02*
X103450000Y-48200000D01*
X95518065Y-54693469D02*
X99211534Y-51000000D01*
X91739800Y-57848800D02*
X91739800Y-56146838D01*
X87060000Y-63537500D02*
X87060000Y-61702998D01*
X91739800Y-56146838D02*
X93193169Y-54693469D01*
X91739800Y-56146838D02*
X91852700Y-56259738D01*
X93193169Y-54693469D02*
X95518065Y-54693469D01*
X87060000Y-61702998D02*
X87822731Y-60940267D01*
X99211534Y-51000000D02*
X101622880Y-51000000D01*
X101622880Y-51000000D02*
X103450000Y-49172880D01*
X91852700Y-56259738D02*
X91852700Y-56303938D01*
%TO.N,/SOC/SDC_CMD*%
X87460000Y-62362154D02*
X88856230Y-60965924D01*
X93830000Y-56250000D02*
X93830000Y-57270000D01*
X93830000Y-55803111D02*
X94612642Y-55020469D01*
X104250000Y-49400000D02*
X103450000Y-50200000D01*
X109775000Y-50200000D02*
X108975000Y-49400000D01*
X93939800Y-57379800D02*
X93939800Y-57848800D01*
X93830000Y-57270000D02*
X93939800Y-57379800D01*
X94612642Y-55020469D02*
X95653513Y-55020469D01*
X99073982Y-51600000D02*
X102050000Y-51600000D01*
X87460000Y-63537500D02*
X87460000Y-62362154D01*
X108975000Y-49400000D02*
X104250000Y-49400000D01*
X102050000Y-51600000D02*
X103450000Y-50200000D01*
X93830000Y-56250000D02*
X93830000Y-55803111D01*
X95653513Y-55020469D02*
X99073982Y-51600000D01*
%TO.N,/SOC/SDC_D3*%
X95916122Y-55346989D02*
X95916122Y-55220308D01*
X104350000Y-51300000D02*
X103450000Y-52200000D01*
X88584977Y-61901661D02*
X88777366Y-61901661D01*
X94685717Y-56476951D02*
X95039800Y-56831034D01*
X87860000Y-63537500D02*
X87860000Y-62626638D01*
X109775000Y-52000000D02*
X109075000Y-51300000D01*
X94786160Y-56476951D02*
X95916122Y-55346989D01*
X98736430Y-52400000D02*
X103250000Y-52400000D01*
X94685717Y-56476951D02*
X94786160Y-56476951D01*
X95039800Y-56831034D02*
X95039800Y-57848800D01*
X95916122Y-55220308D02*
X98736430Y-52400000D01*
X87860000Y-62626638D02*
X88584977Y-61901661D01*
X109075000Y-51300000D02*
X104350000Y-51300000D01*
X103250000Y-52400000D02*
X103390000Y-52260000D01*
%TO.N,/SOC/SDC_D2*%
X104450000Y-53200000D02*
X107385000Y-53200000D01*
X95687115Y-56621476D02*
X95687115Y-56038444D01*
X89907331Y-62179307D02*
X89907331Y-61628569D01*
X109895000Y-53930000D02*
X108200000Y-53930000D01*
X89179077Y-62507561D02*
X89282700Y-62403938D01*
X96139800Y-57074161D02*
X96139800Y-57848800D01*
X89282700Y-62403938D02*
X89482700Y-62403938D01*
X88260000Y-63537500D02*
X88260000Y-62689086D01*
X89682700Y-62403938D02*
X89907331Y-62179307D01*
X95687115Y-56038444D02*
X98305559Y-53420000D01*
X107385000Y-53200000D02*
X108125000Y-53940000D01*
X89282700Y-62403938D02*
X89682700Y-62403938D01*
X102670000Y-53420000D02*
X103450000Y-54200000D01*
X95687115Y-56621476D02*
X96139800Y-57074161D01*
X98305559Y-53420000D02*
X102670000Y-53420000D01*
X88260000Y-62689086D02*
X88441525Y-62507561D01*
X88441525Y-62507561D02*
X89179077Y-62507561D01*
X103450000Y-54200000D02*
X104450000Y-53200000D01*
%TO.N,/SOC/SDC_PLUG*%
X85860000Y-63537500D02*
X85860000Y-59426638D01*
X86710000Y-55310000D02*
X86085000Y-55310000D01*
X85860000Y-59426638D02*
X87339800Y-57946838D01*
X82100000Y-51200000D02*
X82100000Y-51325000D01*
X87339800Y-57848800D02*
X87339800Y-55939800D01*
X87339800Y-55939800D02*
X86710000Y-55310000D01*
X87339800Y-57946838D02*
X87339800Y-57848800D01*
X86085000Y-55310000D02*
X85200000Y-54425000D01*
X82100000Y-51325000D02*
X85200000Y-54425000D01*
D75*
%TO.N,Net-(D9-Pad2)*%
X164295000Y-89750000D02*
X163506638Y-89750000D01*
X157532700Y-91992300D02*
X157625000Y-91900000D01*
X157550000Y-91825000D02*
X157625000Y-91900000D01*
X157532700Y-95067300D02*
X157532700Y-91992300D01*
X161356638Y-91900000D02*
X160350000Y-91900000D01*
X157625000Y-91900000D02*
X160350000Y-91900000D01*
X163506638Y-89750000D02*
X161356638Y-91900000D01*
X157300000Y-95300000D02*
X157532700Y-95067300D01*
%TO.N,Net-(D10-Pad2)*%
X160350000Y-84100000D02*
X161736638Y-84100000D01*
D78*
X155082700Y-93953938D02*
X154800000Y-94236638D01*
X154800000Y-94236638D02*
X154800000Y-95353938D01*
D76*
X157550000Y-86825000D02*
X157625000Y-86825000D01*
D75*
X161736638Y-84100000D02*
X163562700Y-82273938D01*
D76*
X172295000Y-83900000D02*
X172295000Y-90300000D01*
D78*
X158682700Y-87153938D02*
X158353762Y-86825000D01*
D75*
X157625000Y-86825000D02*
X160350000Y-84100000D01*
D78*
X158353762Y-86825000D02*
X157550000Y-86825000D01*
D75*
X170668938Y-82273938D02*
X172295000Y-83900000D01*
X163562700Y-82273938D02*
X170668938Y-82273938D01*
%TO.N,Net-(D11-Pad1)*%
X135900000Y-56200000D02*
X135900000Y-56131238D01*
D80*
X135900000Y-56131238D02*
X135900000Y-53391238D01*
X135558762Y-53050000D02*
X134300000Y-53050000D01*
X135900000Y-53391238D02*
X135558762Y-53050000D01*
D75*
%TO.N,Net-(D12-Pad1)*%
X127025302Y-84497110D02*
X127025302Y-95610000D01*
X144760000Y-53420000D02*
X145710000Y-53420000D01*
D82*
X146060000Y-53070000D02*
X145710000Y-53420000D01*
D75*
X140657499Y-58420000D02*
X143886342Y-55191157D01*
D76*
X146060000Y-52900000D02*
X146060000Y-53070000D01*
D75*
X126771747Y-84243555D02*
X127025302Y-84497110D01*
D74*
X105680000Y-94390000D02*
X105680000Y-95170000D01*
D75*
X130556000Y-58420000D02*
X140657499Y-58420000D01*
D77*
X125058126Y-59373408D02*
X128513408Y-59373408D01*
X110215000Y-57500000D02*
X123184718Y-57500000D01*
X123184718Y-57500000D02*
X125058126Y-59373408D01*
D75*
X143886342Y-54293658D02*
X144760000Y-53420000D01*
X143886342Y-55191157D02*
X143886342Y-54293658D01*
D74*
X104840000Y-93550000D02*
X105680000Y-94390000D01*
D77*
X128513408Y-59373408D02*
X129010000Y-59870000D01*
D74*
%TO.N,Net-(F1-Pad2)*%
X170135000Y-57520000D02*
X171120000Y-56535000D01*
X167520000Y-52620000D02*
X166340000Y-51440000D01*
X169410000Y-52620000D02*
X167520000Y-52620000D01*
X170990000Y-53400000D02*
X170210000Y-52620000D01*
X169410000Y-57520000D02*
X170135000Y-57520000D01*
X170210000Y-52620000D02*
X169410000Y-52620000D01*
D75*
X171120000Y-53400000D02*
X171085049Y-53400000D01*
D74*
X166340000Y-51440000D02*
X166340000Y-48170000D01*
X171085049Y-53400000D02*
X170990000Y-53400000D01*
D75*
X171120000Y-56535000D02*
X171120000Y-53400000D01*
D78*
%TO.N,Net-(L2-Pad1)*%
X152985000Y-53765000D02*
X152985000Y-53764998D01*
D75*
X149260000Y-53855000D02*
X149608938Y-54203938D01*
D82*
X149260000Y-52900000D02*
X149260000Y-53855000D01*
D78*
X152546058Y-54203938D02*
X152985000Y-53764996D01*
D76*
X152985000Y-53764998D02*
X152985000Y-53764996D01*
D75*
X149608938Y-54203938D02*
X152546058Y-54203938D01*
D76*
%TO.N,Net-(L3-Pad1)*%
X148060000Y-53976638D02*
X147882700Y-54153938D01*
D75*
X147672700Y-56147300D02*
X147672700Y-54363938D01*
D82*
X148060000Y-52900000D02*
X148060000Y-53976638D01*
D75*
X147672700Y-54363938D02*
X147882700Y-54153938D01*
D76*
X147672700Y-56147300D02*
X147530000Y-56290000D01*
D77*
%TO.N,Net-(L4-Pad2)*%
X173762700Y-65227300D02*
X173762700Y-64823938D01*
D80*
X173785000Y-64801638D02*
X173762700Y-64823938D01*
X173785000Y-62292500D02*
X173785000Y-64801638D01*
D77*
X173747500Y-65242500D02*
X173762700Y-65227300D01*
D76*
%TO.N,/SOC/LCD_CS*%
X97722500Y-73000000D02*
X102226889Y-73000000D01*
X105380000Y-76970000D02*
X107037768Y-76970000D01*
X108498636Y-76560881D02*
X109413301Y-76560881D01*
X109680000Y-76827580D02*
X109680000Y-77900000D01*
X102226889Y-73000000D02*
X104695911Y-75469022D01*
X109680000Y-77900000D02*
X112793938Y-81013938D01*
X115206062Y-81013938D02*
X116220000Y-80000000D01*
X112793938Y-81013938D02*
X115206062Y-81013938D01*
X107037768Y-76970000D02*
X107496231Y-76511537D01*
X104695911Y-75469022D02*
X104695911Y-76285911D01*
X107496231Y-76511537D02*
X108422253Y-76511537D01*
X109413301Y-76560881D02*
X109680000Y-76827580D01*
X104695911Y-76285911D02*
X105380000Y-76970000D01*
X108422253Y-76511537D02*
X109348275Y-76511537D01*
%TO.N,/SOC/LCD_RS*%
X91860000Y-78862500D02*
X91860000Y-79723482D01*
X112400398Y-78233938D02*
X115746062Y-78233938D01*
X110483230Y-76316770D02*
X112400398Y-78233938D01*
X103603143Y-80134607D02*
X103603143Y-78948866D01*
X92327073Y-80190555D02*
X95137716Y-80190555D01*
X98034159Y-83086998D02*
X100650752Y-83086998D01*
X100650752Y-83086998D02*
X103603143Y-80134607D01*
X115746062Y-78233938D02*
X116090000Y-77890000D01*
X95137716Y-80190555D02*
X98034159Y-83086998D01*
X110177997Y-76011537D02*
X108422253Y-76011537D01*
X110483230Y-76316770D02*
X110177997Y-76011537D01*
X91860000Y-79723482D02*
X92327073Y-80190555D01*
X110483230Y-76316770D02*
X110353230Y-76186770D01*
%TO.N,/SOC/LCD_WR*%
X102508147Y-80767155D02*
X101454747Y-81820555D01*
X92462521Y-79863555D02*
X95201747Y-79863555D01*
X95201747Y-79863555D02*
X98148689Y-82810497D01*
X102610679Y-77859321D02*
X102508147Y-77961853D01*
X102508147Y-77961853D02*
X102508147Y-80767155D01*
X98148689Y-82810497D02*
X100464805Y-82810497D01*
X92260000Y-79661034D02*
X92462521Y-79863555D01*
X101454747Y-81820555D02*
X101502651Y-81772651D01*
X106463868Y-76258911D02*
X107211242Y-75511537D01*
X115820299Y-75511537D02*
X116032700Y-75723938D01*
X92260000Y-78862500D02*
X92260000Y-79661034D01*
X100464805Y-82810497D02*
X101454747Y-81820555D01*
X107211242Y-75511537D02*
X115820299Y-75511537D01*
%TO.N,/SOC/LCD_RD*%
X106530000Y-74990000D02*
X106551537Y-75011537D01*
X108445004Y-74988786D02*
X114701214Y-74988786D01*
X106551537Y-75011537D02*
X108422253Y-75011537D01*
X114701214Y-74988786D02*
X116060000Y-73630000D01*
X101770000Y-73400000D02*
X103410000Y-75040000D01*
X108422253Y-75011537D02*
X108445004Y-74988786D01*
X97722500Y-73400000D02*
X101770000Y-73400000D01*
D77*
%TO.N,Net-(P2-PadA6)*%
X170385000Y-54820000D02*
X170410000Y-54845000D01*
X167733888Y-55250000D02*
X168163888Y-54820000D01*
X165937500Y-55250000D02*
X167733888Y-55250000D01*
X168163888Y-54820000D02*
X169410000Y-54820000D01*
X170335000Y-55820000D02*
X169410000Y-55820000D01*
X169410000Y-54820000D02*
X170385000Y-54820000D01*
X170410000Y-55745000D02*
X170335000Y-55820000D01*
X170410000Y-54845000D02*
X170410000Y-55745000D01*
D76*
%TO.N,/SOC/LCD_D3*%
X102020000Y-74450000D02*
X101991564Y-74478436D01*
X107551537Y-74511537D02*
X108422253Y-74511537D01*
X101770000Y-74200000D02*
X102020000Y-74450000D01*
X97722500Y-74200000D02*
X101770000Y-74200000D01*
X105736110Y-74384100D02*
X107424100Y-74384100D01*
X107424100Y-74384100D02*
X107551537Y-74511537D01*
%TO.N,/SOC/LCD_D4*%
X109822315Y-74011537D02*
X108422253Y-74011537D01*
X101256239Y-74600000D02*
X102606239Y-75950000D01*
X102606239Y-75950000D02*
X104090000Y-75950000D01*
X97722500Y-74600000D02*
X101256239Y-74600000D01*
X110193653Y-74382875D02*
X109822315Y-74011537D01*
%TO.N,/SOC/LCD_D5*%
X108464654Y-73553938D02*
X110613938Y-73553938D01*
X105470000Y-77575900D02*
X103645900Y-77575900D01*
X101070000Y-75000000D02*
X97722500Y-75000000D01*
X110613938Y-73553938D02*
X110860000Y-73800000D01*
X103645900Y-77575900D02*
X101070000Y-75000000D01*
X108422253Y-73511537D02*
X108464654Y-73553938D01*
%TO.N,/SOC/LCD_D6*%
X103988230Y-78380000D02*
X101008230Y-75400000D01*
X101008230Y-75400000D02*
X97722500Y-75400000D01*
X108464654Y-73053938D02*
X108422253Y-73011537D01*
X111140000Y-72830000D02*
X110916062Y-73053938D01*
X110916062Y-73053938D02*
X108464654Y-73053938D01*
X104530000Y-78380000D02*
X103988230Y-78380000D01*
%TO.N,/SOC/LCD_D7*%
X106998463Y-72511537D02*
X108422253Y-72511537D01*
X97722500Y-75800000D02*
X99780000Y-75800000D01*
X99780000Y-75800000D02*
X100150000Y-76170000D01*
X106440000Y-72950000D02*
X106560000Y-72950000D01*
X106560000Y-72950000D02*
X106998463Y-72511537D01*
%TO.N,/SOC/LCD_D10*%
X106640154Y-72022937D02*
X106651554Y-72011537D01*
X99903111Y-76780000D02*
X99323111Y-76200000D01*
X100038217Y-77048215D02*
X99903111Y-76913109D01*
X99903111Y-76913109D02*
X99903111Y-76780000D01*
X99323111Y-76200000D02*
X97722500Y-76200000D01*
X106651554Y-72011537D02*
X108422253Y-72011537D01*
%TO.N,/SOC/LCD_D11*%
X106891132Y-71417026D02*
X107034987Y-71560881D01*
X99080354Y-77160000D02*
X99160000Y-77160000D01*
X107034987Y-71560881D02*
X108498636Y-71560881D01*
X106527026Y-71417026D02*
X106891132Y-71417026D01*
X97722500Y-76600000D02*
X98520354Y-76600000D01*
X106240000Y-71130000D02*
X106527026Y-71417026D01*
X98520354Y-76600000D02*
X99080354Y-77160000D01*
%TO.N,/SOC/LCD_D12*%
X107254081Y-71011537D02*
X108422253Y-71011537D01*
X96391747Y-76467781D02*
X96923966Y-77000000D01*
X106539408Y-70296864D02*
X107254081Y-71011537D01*
X96391747Y-76213555D02*
X96391747Y-76467781D01*
X96923966Y-77000000D02*
X97722500Y-77000000D01*
%TO.N,/SOC/LCD_EN*%
X105590000Y-70180000D02*
X105590000Y-65525000D01*
X103170000Y-72600000D02*
X97722500Y-72600000D01*
X105590000Y-65525000D02*
X105590000Y-66490000D01*
X103170000Y-72600000D02*
X105590000Y-70180000D01*
X105610000Y-66510000D02*
X107120000Y-66510000D01*
X107011537Y-66511537D02*
X107000000Y-66500000D01*
X108422253Y-66511537D02*
X107011537Y-66511537D01*
X107120000Y-66510000D02*
X107130000Y-66500000D01*
X105590000Y-66490000D02*
X105610000Y-66510000D01*
D77*
%TO.N,Net-(P2-PadA7)*%
X165937500Y-57150000D02*
X167660000Y-57150000D01*
X168202700Y-57047300D02*
X168202700Y-55502300D01*
X168202700Y-55502300D02*
X168385000Y-55320000D01*
X167660000Y-57150000D02*
X168100000Y-57150000D01*
X167660000Y-57150000D02*
X167590000Y-57220000D01*
X169410000Y-54320000D02*
X168050000Y-54320000D01*
X168050000Y-54320000D02*
X167990000Y-54380000D01*
X168385000Y-55320000D02*
X169410000Y-55320000D01*
X167660000Y-54380000D02*
X167650000Y-54370000D01*
X167590000Y-57220000D02*
X167590000Y-57280000D01*
X167990000Y-54380000D02*
X167660000Y-54380000D01*
X168100000Y-57150000D02*
X168202700Y-57047300D01*
%TO.N,Net-(Q1-Pad1)*%
X120420000Y-51757500D02*
X120432500Y-51745000D01*
X118692500Y-51757500D02*
X120420000Y-51757500D01*
X118607500Y-51842500D02*
X118692500Y-51757500D01*
X118607500Y-53800000D02*
X118607500Y-51842500D01*
D75*
%TO.N,Net-(Q1-Pad3)*%
X115182500Y-49882500D02*
X117742500Y-49882500D01*
X114792500Y-50272500D02*
X115182500Y-49882500D01*
D76*
%TO.N,/SOC/LCD_PWM*%
X121682700Y-53517300D02*
X121682700Y-51345200D01*
X99430000Y-67840000D02*
X99430000Y-67950895D01*
X98590000Y-67000000D02*
X99430000Y-67840000D01*
X121100000Y-54100000D02*
X121682700Y-53517300D01*
X97722500Y-67000000D02*
X98590000Y-67000000D01*
X121682700Y-51345200D02*
X120432500Y-50095000D01*
D74*
%TO.N,/SOC/KEYS*%
X80133020Y-75788020D02*
X82100000Y-75788020D01*
D75*
X104671747Y-96248555D02*
X106956747Y-96248555D01*
D76*
X78497915Y-78910430D02*
X78544570Y-78910430D01*
X80035000Y-77420000D02*
X79978192Y-77420000D01*
D75*
X79139806Y-73003938D02*
X78432700Y-73003938D01*
X106956747Y-96248555D02*
X108236747Y-94968555D01*
D77*
X99110000Y-95030000D02*
X99110000Y-93790341D01*
D75*
X80133020Y-75788020D02*
X80133020Y-77420000D01*
D76*
X80133020Y-77420000D02*
X79978192Y-77420000D01*
D75*
X78544570Y-78910430D02*
X80035000Y-77420000D01*
X110258555Y-94968555D02*
X110780000Y-95490000D01*
X80115000Y-75770000D02*
X80115000Y-73979132D01*
X80115000Y-73979132D02*
X79139806Y-73003938D01*
X108236747Y-94968555D02*
X110258555Y-94968555D01*
D76*
X80115000Y-75770000D02*
X80133020Y-75788020D01*
D77*
X99110000Y-93790341D02*
X99517247Y-93383094D01*
D76*
%TO.N,Net-(JP1-Pad2)*%
X117206747Y-96878555D02*
X117236747Y-96908555D01*
X116786747Y-96878555D02*
X117206747Y-96878555D01*
X117236747Y-96908555D02*
X119246747Y-96908555D01*
%TO.N,/SOC/FLASH_SPI_CS*%
X119796747Y-88563555D02*
X120701747Y-88563555D01*
X120896747Y-95943555D02*
X120896747Y-96908555D01*
X120701747Y-88563555D02*
X120701747Y-86723555D01*
X118281747Y-90078555D02*
X119796747Y-88563555D01*
X90660000Y-65445302D02*
X90111747Y-65993555D01*
X118281747Y-91278555D02*
X118281747Y-90078555D01*
X120701747Y-86723555D02*
X121146747Y-86278555D01*
X122191747Y-94648555D02*
X120896747Y-95943555D01*
X90660000Y-63537500D02*
X90660000Y-65445302D01*
D75*
%TO.N,Net-(R7-Pad1)*%
X154205747Y-92853555D02*
X154205747Y-91965891D01*
X111030000Y-94060000D02*
X108838192Y-94060000D01*
X154205747Y-91965891D02*
X154637700Y-91533938D01*
X112438694Y-95468694D02*
X111030000Y-94060000D01*
X112438694Y-96552500D02*
X112438694Y-95468694D01*
X108838192Y-94060000D02*
X108161747Y-93383555D01*
D76*
%TO.N,/Power/RESET*%
X100910000Y-61261004D02*
X100910000Y-62175000D01*
X106685469Y-56789531D02*
X122979531Y-56789531D01*
X144943920Y-53864020D02*
X146022980Y-53864020D01*
X140670050Y-59035388D02*
X144330362Y-55375076D01*
X100100000Y-61210000D02*
X101815000Y-61210000D01*
X123236638Y-57073888D02*
X125198138Y-59035388D01*
X96050000Y-65260000D02*
X100100000Y-61210000D01*
X104780000Y-58695000D02*
X106685469Y-56789531D01*
X101815000Y-61210000D02*
X104400000Y-58625000D01*
X95184646Y-65260000D02*
X96050000Y-65260000D01*
X100858996Y-61210000D02*
X100910000Y-61261004D01*
D82*
X146460000Y-53427000D02*
X146460000Y-52900000D01*
D76*
X123236638Y-57046638D02*
X123236638Y-57073888D01*
X94260000Y-64335354D02*
X95184646Y-65260000D01*
X94260000Y-63537500D02*
X94260000Y-64335354D01*
X146022980Y-53864020D02*
X146460000Y-53427000D01*
X122979531Y-56789531D02*
X123236638Y-57046638D01*
X144330362Y-55375076D02*
X144330362Y-54477578D01*
X144330362Y-54477578D02*
X144943920Y-53864020D01*
X100100000Y-61210000D02*
X100858996Y-61210000D01*
X125198138Y-59035388D02*
X140670050Y-59035388D01*
D75*
%TO.N,Net-(R10-Pad1)*%
X152955000Y-88046808D02*
X152935747Y-88027555D01*
D76*
X152955000Y-91501238D02*
X152987700Y-91533938D01*
D75*
X152955000Y-89190000D02*
X152955000Y-91501238D01*
X152955000Y-89190000D02*
X152955000Y-88046808D01*
%TO.N,Net-(R10-Pad2)*%
X153410000Y-85961808D02*
X151411747Y-83963555D01*
D83*
X155266238Y-60640400D02*
X154915724Y-60640400D01*
D75*
X153410000Y-86330000D02*
X153410000Y-85961808D01*
X154605000Y-87525000D02*
X153410000Y-86330000D01*
X154605000Y-89190000D02*
X154605000Y-87525000D01*
D83*
X156422700Y-58768938D02*
X156422700Y-59483938D01*
X156422700Y-59483938D02*
X155266238Y-60640400D01*
D75*
%TO.N,Net-(R11-Pad2)*%
X158532700Y-57108938D02*
X156432700Y-57108938D01*
X158532700Y-57108938D02*
X157563266Y-57108938D01*
X156432700Y-57108938D02*
X156422700Y-57118938D01*
D83*
%TO.N,Net-(R12-Pad2)*%
X159720000Y-61564338D02*
X159720000Y-61688542D01*
D75*
X159712700Y-61695842D02*
X159712700Y-58933938D01*
X160722700Y-58788938D02*
X158562700Y-58788938D01*
X158562700Y-58788938D02*
X158532700Y-58758938D01*
D83*
X159720000Y-61688542D02*
X159712700Y-61695842D01*
D76*
%TO.N,/SOC/USB_DM*%
X99228552Y-55659000D02*
X105186978Y-55659000D01*
X97932700Y-55653938D02*
X99223490Y-55653938D01*
D74*
X166171062Y-58753938D02*
X165525000Y-59400000D01*
D76*
X166532700Y-58753938D02*
X166171062Y-58753938D01*
X127400000Y-46700000D02*
X127400000Y-49018230D01*
X83760000Y-70920000D02*
X83440000Y-70600000D01*
X127400000Y-49018230D02*
X121924115Y-54494115D01*
X105336989Y-55809011D02*
X120609219Y-55809011D01*
X105186978Y-55659000D02*
X105336989Y-55809011D01*
X97882700Y-55603938D02*
X97932700Y-55653938D01*
X83440000Y-70600000D02*
X82397500Y-70600000D01*
X128800000Y-45300000D02*
X127400000Y-46700000D01*
X120609219Y-55809011D02*
X121924115Y-54494115D01*
X99223490Y-55653938D02*
X99228552Y-55659000D01*
X121924115Y-54494115D02*
X121999115Y-54419115D01*
D77*
%TO.N,Net-(R19-Pad2)*%
X163875000Y-59400000D02*
X163875000Y-57362500D01*
X163875000Y-57362500D02*
X163662500Y-57150000D01*
D76*
%TO.N,/SOC/USB_DP*%
X129406400Y-45478652D02*
X129406400Y-45551180D01*
X120743989Y-56136011D02*
X122355000Y-54525000D01*
X98032421Y-56339520D02*
X98155834Y-56339520D01*
X98759700Y-55980938D02*
X98764762Y-55986000D01*
X129406400Y-45551180D02*
X129051180Y-45906400D01*
D74*
X166596256Y-53603826D02*
X165628826Y-53603826D01*
D76*
X83888691Y-69791309D02*
X83480000Y-70200000D01*
X127727000Y-46835448D02*
X127727000Y-49153000D01*
X97882700Y-56489241D02*
X98032421Y-56339520D01*
X83888691Y-69420000D02*
X83888691Y-69791309D01*
X127727000Y-49153000D02*
X122355000Y-54525000D01*
X129051180Y-45906400D02*
X128656048Y-45906400D01*
X122355000Y-54525000D02*
X122370000Y-54510000D01*
X98764762Y-55986000D02*
X105051530Y-55986000D01*
X105201541Y-56136011D02*
X120743989Y-56136011D01*
X83480000Y-70200000D02*
X82397500Y-70200000D01*
X105051530Y-55986000D02*
X105201541Y-56136011D01*
X128656048Y-45906400D02*
X127727000Y-46835448D01*
X165628826Y-53603826D02*
X165425000Y-53400000D01*
X98155834Y-56339520D02*
X98514416Y-55980938D01*
X98514416Y-55980938D02*
X98759700Y-55980938D01*
X129667090Y-45478652D02*
X129406400Y-45478652D01*
D77*
%TO.N,Net-(R20-Pad2)*%
X163775000Y-53400000D02*
X163775000Y-55137500D01*
X163775000Y-55137500D02*
X163662500Y-55250000D01*
D76*
%TO.N,Net-(R23-Pad2)*%
X136232700Y-94603938D02*
X137657700Y-94603938D01*
X134982700Y-95428938D02*
X135407700Y-95428938D01*
X135407700Y-95428938D02*
X136232700Y-94603938D01*
D74*
%TO.N,Net-(R24-Pad1)*%
X147807700Y-89278938D02*
X146382700Y-90703938D01*
X146382700Y-90703938D02*
X144857700Y-90703938D01*
D76*
X148182700Y-89278938D02*
X147807700Y-89278938D01*
D77*
%TO.N,Net-(C41-Pad1)*%
X143011462Y-93953938D02*
X142740400Y-93682876D01*
X144857700Y-93953938D02*
X143011462Y-93953938D01*
D75*
X125335000Y-68835000D02*
X125285000Y-68785000D01*
X127245000Y-68835000D02*
X127955000Y-68125000D01*
X127955000Y-68125000D02*
X129820000Y-68125000D01*
X127245000Y-68835000D02*
X125335000Y-68835000D01*
%TO.N,Net-(C41-Pad2)*%
X141255000Y-63260000D02*
X142545000Y-64550000D01*
X131882700Y-69003938D02*
X131882700Y-65722300D01*
X131882700Y-65722300D02*
X134345000Y-63260000D01*
X134345000Y-63260000D02*
X141255000Y-63260000D01*
X127195000Y-70435000D02*
X127245000Y-70385000D01*
X127245000Y-70385000D02*
X128830000Y-70385000D01*
X125285000Y-70435000D02*
X127195000Y-70435000D01*
X129820000Y-69395000D02*
X131491638Y-69395000D01*
X131491638Y-69395000D02*
X131882700Y-69003938D01*
X128830000Y-70385000D02*
X129820000Y-69395000D01*
D77*
%TO.N,Net-(C42-Pad1)*%
X144857700Y-88753938D02*
X142811462Y-88753938D01*
D75*
X125000000Y-79750000D02*
X127150000Y-79750000D01*
X127150000Y-79750000D02*
X127200000Y-79800000D01*
X128165000Y-79210000D02*
X129825000Y-79210000D01*
X127200000Y-79800000D02*
X127575000Y-79800000D01*
X127575000Y-79800000D02*
X128165000Y-79210000D01*
D77*
X142811462Y-88753938D02*
X142340400Y-88282876D01*
D75*
%TO.N,Net-(C42-Pad2)*%
X141600000Y-74075000D02*
X142600000Y-75075000D01*
X127150000Y-81400000D02*
X127200000Y-81350000D01*
X131006638Y-80480000D02*
X132082700Y-79403938D01*
X129825000Y-80480000D02*
X131006638Y-80480000D01*
X128930000Y-81375000D02*
X127225000Y-81375000D01*
X129825000Y-80480000D02*
X128930000Y-81375000D01*
X132082700Y-79403938D02*
X132082700Y-76092300D01*
X127225000Y-81375000D02*
X127200000Y-81350000D01*
X125000000Y-81400000D02*
X127150000Y-81400000D01*
X132082700Y-76092300D02*
X134100000Y-74075000D01*
X142600000Y-75075000D02*
X142600000Y-75750000D01*
X134100000Y-74075000D02*
X141600000Y-74075000D01*
%TO.N,Net-(C43-Pad1)*%
X133299500Y-77620738D02*
X133682700Y-78003938D01*
D77*
X141861462Y-89403938D02*
X141740400Y-89282876D01*
D75*
X135660000Y-77940000D02*
X137800000Y-75800000D01*
X137800000Y-75800000D02*
X140350000Y-75800000D01*
X134711062Y-78003938D02*
X134775000Y-77940000D01*
X140350000Y-75800000D02*
X140400000Y-75750000D01*
D77*
X144857700Y-89403938D02*
X141861462Y-89403938D01*
D75*
X134775000Y-77940000D02*
X135660000Y-77940000D01*
X133299500Y-77403938D02*
X133299500Y-77620738D01*
X133682700Y-78003938D02*
X134711062Y-78003938D01*
%TO.N,Net-(C43-Pad2)*%
X141500000Y-78175000D02*
X141500000Y-80875000D01*
X140350000Y-77350000D02*
X140400000Y-77400000D01*
X140725000Y-77400000D02*
X141500000Y-78175000D01*
X137800000Y-77975000D02*
X137800000Y-77350000D01*
X137800000Y-77350000D02*
X140350000Y-77350000D01*
X134775000Y-79210000D02*
X136565000Y-79210000D01*
X136565000Y-79210000D02*
X137800000Y-77975000D01*
X142125000Y-81500000D02*
X142600000Y-81500000D01*
X140200000Y-77400000D02*
X140725000Y-77400000D01*
X141500000Y-80875000D02*
X142125000Y-81500000D01*
D77*
%TO.N,Net-(C44-Pad1)*%
X143732700Y-94603938D02*
X143303762Y-95032876D01*
X144857700Y-94603938D02*
X143732700Y-94603938D01*
D75*
X135570000Y-66855000D02*
X137850000Y-64575000D01*
X140320000Y-64575000D02*
X140345000Y-64550000D01*
X133836500Y-66855000D02*
X134770000Y-66855000D01*
X137850000Y-64575000D02*
X140320000Y-64575000D01*
X133291500Y-67400000D02*
X133836500Y-66855000D01*
X134770000Y-66855000D02*
X135570000Y-66855000D01*
D77*
X143303762Y-95032876D02*
X142790400Y-95032876D01*
D75*
%TO.N,Net-(C44-Pad2)*%
X141530000Y-69885000D02*
X141530000Y-67385000D01*
X141945000Y-70300000D02*
X141530000Y-69885000D01*
X134770000Y-68125000D02*
X136535000Y-68125000D01*
X137725000Y-66935000D02*
X137725000Y-66535000D01*
X141530000Y-67385000D02*
X140345000Y-66200000D01*
X136535000Y-68125000D02*
X137725000Y-66935000D01*
X137725000Y-66535000D02*
X138096062Y-66163938D01*
X142600000Y-70300000D02*
X141945000Y-70300000D01*
X138096062Y-66163938D02*
X140308938Y-66163938D01*
X140308938Y-66163938D02*
X140345000Y-66200000D01*
%TO.N,Net-(C48-Pad2)*%
X146775000Y-77200000D02*
X146775000Y-75775000D01*
X144800000Y-77400000D02*
X146575000Y-77400000D01*
X146575000Y-77400000D02*
X146775000Y-77200000D01*
X142600000Y-77400000D02*
X144800000Y-77400000D01*
%TO.N,Net-(C48-Pad1)*%
X146500000Y-79850000D02*
X144800000Y-79850000D01*
X146875000Y-80225000D02*
X146500000Y-79850000D01*
X146875000Y-81675000D02*
X146875000Y-80225000D01*
X142600000Y-79850000D02*
X144800000Y-79850000D01*
%TO.N,Net-(C47-Pad2)*%
X146795000Y-65900000D02*
X146595000Y-66100000D01*
X146795000Y-64495000D02*
X146795000Y-65900000D01*
X146775000Y-64475000D02*
X146795000Y-64495000D01*
X144600000Y-66100000D02*
X144500000Y-66200000D01*
X146595000Y-66100000D02*
X144600000Y-66100000D01*
X144500000Y-66200000D02*
X142545000Y-66200000D01*
%TO.N,Net-(C47-Pad1)*%
X142665000Y-68715000D02*
X144625000Y-68715000D01*
X142600000Y-68650000D02*
X142665000Y-68715000D01*
X146700000Y-70440000D02*
X146700000Y-68945000D01*
X146795000Y-68850000D02*
X146660000Y-68715000D01*
X146660000Y-68715000D02*
X144625000Y-68715000D01*
X146700000Y-68945000D02*
X146795000Y-68850000D01*
%TO.N,Net-(C49-Pad2)*%
X146455000Y-62620000D02*
X149160000Y-62620000D01*
X152680000Y-70045000D02*
X153422220Y-70045000D01*
X144625000Y-64450000D02*
X146455000Y-62620000D01*
X159216062Y-83183938D02*
X157550000Y-84850000D01*
D78*
X157550000Y-84850000D02*
X157550000Y-85175000D01*
D75*
X161890000Y-74375808D02*
X161890000Y-82618000D01*
X153150000Y-73200000D02*
X160714192Y-73200000D01*
X143929744Y-64450000D02*
X143808191Y-64328447D01*
X149160000Y-62620000D02*
X150500000Y-63960000D01*
X152680000Y-70045000D02*
X152680000Y-72730000D01*
X150500000Y-63960000D02*
X150500000Y-64600000D01*
X153422220Y-70045000D02*
X154915456Y-68551764D01*
X152680000Y-72730000D02*
X153150000Y-73200000D01*
X144800000Y-64450000D02*
X143929744Y-64450000D01*
X161324062Y-83183938D02*
X159216062Y-83183938D01*
X160714192Y-73200000D02*
X161890000Y-74375808D01*
X161890000Y-82618000D02*
X161324062Y-83183938D01*
X144600000Y-64450000D02*
X144625000Y-64450000D01*
%TO.N,Net-(C51-Pad2)*%
X152150000Y-83410000D02*
X152150000Y-81680000D01*
X144800000Y-74975000D02*
X145500000Y-74275000D01*
X157550000Y-90175000D02*
X157550000Y-88810000D01*
X144800000Y-75750000D02*
X144800000Y-74975000D01*
X152150000Y-81680000D02*
X152825000Y-81005000D01*
X154595000Y-81005000D02*
X154800000Y-80800000D01*
X150400000Y-75700000D02*
X151500000Y-75700000D01*
X145500000Y-74275000D02*
X149600000Y-74275000D01*
X151500000Y-75700000D02*
X152200000Y-75000000D01*
X157550000Y-88810000D02*
X152150000Y-83410000D01*
X152825000Y-81005000D02*
X154595000Y-81005000D01*
X150400000Y-75075000D02*
X150400000Y-75700000D01*
X152200000Y-75000000D02*
X153000000Y-75000000D01*
X149600000Y-74275000D02*
X150400000Y-75075000D01*
%TO.N,Net-(C49-Pad1)*%
X148425000Y-64475000D02*
X148425000Y-66100000D01*
X151855000Y-67505000D02*
X152680000Y-67505000D01*
X150500000Y-66150000D02*
X151855000Y-67505000D01*
X148425000Y-66100000D02*
X148475000Y-66150000D01*
X148475000Y-66150000D02*
X150500000Y-66150000D01*
%TO.N,Net-(C50-Pad2)*%
X150300000Y-68940000D02*
X150335000Y-68905000D01*
X148350000Y-70440000D02*
X148350000Y-69695000D01*
X150465000Y-68775000D02*
X150335000Y-68905000D01*
X148350000Y-69695000D02*
X149105000Y-68940000D01*
X152680000Y-68775000D02*
X150465000Y-68775000D01*
X149105000Y-68940000D02*
X150300000Y-68940000D01*
%TO.N,Net-(C51-Pad1)*%
X151615000Y-78465000D02*
X150400000Y-77250000D01*
X148425000Y-75775000D02*
X148425000Y-77100000D01*
X148425000Y-77100000D02*
X148600000Y-77275000D01*
X148600000Y-77275000D02*
X150375000Y-77275000D01*
X152825000Y-78465000D02*
X151615000Y-78465000D01*
X150375000Y-77275000D02*
X150400000Y-77250000D01*
%TO.N,Net-(C52-Pad2)*%
X149400000Y-79875000D02*
X150350000Y-79875000D01*
X150400000Y-79825000D02*
X152735000Y-79825000D01*
X150350000Y-79875000D02*
X150400000Y-79825000D01*
X148525000Y-81675000D02*
X148525000Y-80750000D01*
X152735000Y-79825000D02*
X152825000Y-79735000D01*
X148525000Y-80750000D02*
X149400000Y-79875000D01*
D76*
%TO.N,/NewDAC/I2C_SCL*%
X130736062Y-45863938D02*
X135321364Y-45863938D01*
X135321364Y-45863938D02*
X136637154Y-45863938D01*
X87860000Y-78063966D02*
X87860000Y-78862500D01*
X141231062Y-49903938D02*
X139819572Y-49903938D01*
X128600000Y-48000000D02*
X130736062Y-45863938D01*
X124069069Y-53384491D02*
X124946062Y-52507498D01*
X124069069Y-56729083D02*
X124069069Y-53384491D01*
X139819572Y-49903938D02*
X138169572Y-48253938D01*
X124946062Y-52507498D02*
X124946062Y-52479240D01*
X144445933Y-48500000D02*
X143200000Y-48500000D01*
X128600000Y-48825302D02*
X128600000Y-48000000D01*
X138169572Y-48253938D02*
X137432700Y-48253938D01*
X86998311Y-77326991D02*
X87123025Y-77326991D01*
X142635000Y-48500000D02*
X142085000Y-49050000D01*
X143200000Y-48500000D02*
X142635000Y-48500000D01*
X136637154Y-45863938D02*
X137189927Y-45311165D01*
X145360000Y-49000000D02*
X144945933Y-49000000D01*
X135471747Y-45713555D02*
X135471747Y-44763555D01*
X144945933Y-49000000D02*
X144445933Y-48500000D01*
X142085000Y-49050000D02*
X141231062Y-49903938D01*
X124946062Y-52479240D02*
X128600000Y-48825302D01*
X87123025Y-77326991D02*
X87860000Y-78063966D01*
X136332700Y-88753938D02*
X137657700Y-88753938D01*
X135321364Y-45863938D02*
X135471747Y-45713555D01*
%TO.N,Net-(R44-Pad2)*%
X142085000Y-52450000D02*
X143245000Y-52450000D01*
X143245000Y-52450000D02*
X143495000Y-52200000D01*
X143495000Y-52200000D02*
X145360000Y-52200000D01*
%TO.N,/NewDAC/I2C_SDIN*%
X86587642Y-76880080D02*
X86747131Y-76720591D01*
X124896874Y-53018428D02*
X128927000Y-48988302D01*
X130872009Y-46190439D02*
X136772395Y-46190439D01*
X88260000Y-77731100D02*
X88260000Y-78862500D01*
X143750000Y-47250000D02*
X144400000Y-47900000D01*
X137008896Y-45953938D02*
X138761364Y-45953938D01*
X144400000Y-47900000D02*
X145100000Y-48600000D01*
X124896874Y-56840750D02*
X124896874Y-53018428D01*
X144400000Y-47400000D02*
X144400000Y-47900000D01*
X128927000Y-48988302D02*
X128927000Y-48135448D01*
X136772395Y-46190439D02*
X137008896Y-45953938D01*
X86390691Y-76683129D02*
X86587642Y-76880080D01*
X145100000Y-48600000D02*
X145360000Y-48600000D01*
X87249491Y-76720591D02*
X88260000Y-77731100D01*
X128927000Y-48135448D02*
X130872009Y-46190439D01*
X136332778Y-89403938D02*
X137657700Y-89403938D01*
X138771747Y-44693555D02*
X138771747Y-45943555D01*
X136164573Y-89572143D02*
X136332778Y-89403938D01*
X138771747Y-45943555D02*
X138761364Y-45953938D01*
X142085000Y-47250000D02*
X143750000Y-47250000D01*
X138761364Y-45953938D02*
X140788938Y-45953938D01*
X140788938Y-45953938D02*
X142085000Y-47250000D01*
X86747131Y-76720591D02*
X87249491Y-76720591D01*
D75*
%TO.N,/Power/AUDIO_PWR_EN*%
X173057700Y-71028938D02*
X173057700Y-70699602D01*
X174200000Y-72661238D02*
X173057700Y-71518938D01*
X173057700Y-71518938D02*
X173057700Y-71028938D01*
X95361747Y-76563555D02*
X93870445Y-76563555D01*
X173057700Y-70699602D02*
X173001747Y-70755555D01*
X173001747Y-70755555D02*
X168651083Y-70755555D01*
D74*
X92660000Y-78862500D02*
X92660000Y-77774000D01*
D75*
X173062700Y-71023938D02*
X173057700Y-71028938D01*
X173062700Y-67827300D02*
X173747500Y-67142500D01*
X174157700Y-71023938D02*
X173062700Y-71023938D01*
D76*
X173747500Y-67142500D02*
X173747500Y-67397500D01*
D75*
X174200000Y-72800000D02*
X174200000Y-72661238D01*
X173057700Y-70138938D02*
X173062700Y-70133938D01*
X174202700Y-71068938D02*
X174157700Y-71023938D01*
X173057700Y-70699602D02*
X173057700Y-70138938D01*
X168300000Y-71106638D02*
X168300000Y-72162500D01*
X93870445Y-76563555D02*
X92660000Y-77774000D01*
X168651083Y-70755555D02*
X168300000Y-71106638D01*
X173032700Y-70163938D02*
X173062700Y-70133938D01*
D76*
X168300000Y-72162500D02*
X168332700Y-72129800D01*
D75*
X173062700Y-70133938D02*
X173062700Y-67827300D01*
%TO.N,Net-(R47-Pad1)*%
X171187700Y-69313938D02*
X171187700Y-67427300D01*
D77*
X171472500Y-67225000D02*
X171472500Y-67142500D01*
D75*
X171187700Y-67427300D02*
X171472500Y-67142500D01*
D77*
X168900000Y-67225000D02*
X171472500Y-67225000D01*
D82*
%TO.N,Net-(R49-Pad1)*%
X152725000Y-49400000D02*
X152190000Y-49400000D01*
X152190000Y-49400000D02*
X151350000Y-50240000D01*
X151350000Y-50666638D02*
X151016638Y-51000000D01*
X151350000Y-50240000D02*
X151350000Y-50666638D01*
X151016638Y-51000000D02*
X150360000Y-51000000D01*
D75*
%TO.N,Net-(R50-Pad1)*%
X151306638Y-49400000D02*
X151960000Y-48746638D01*
D82*
X150360000Y-49400000D02*
X151306638Y-49400000D01*
D75*
X151960000Y-48746638D02*
X151960000Y-47865000D01*
D76*
%TO.N,DEBUG_UART_RX*%
X98770000Y-65000000D02*
X97722500Y-65000000D01*
X121400000Y-49000000D02*
X121400000Y-47825000D01*
X99880000Y-63540000D02*
X99880000Y-63890000D01*
X99880000Y-63890000D02*
X98770000Y-65000000D01*
%TO.N,DEBUG_UART_TX*%
X119800000Y-48425000D02*
X119800000Y-49000000D01*
X99314207Y-65800000D02*
X99569393Y-65544814D01*
X119000000Y-47825000D02*
X119200000Y-47825000D01*
X97722500Y-65800000D02*
X99314207Y-65800000D01*
X119200000Y-47825000D02*
X119800000Y-48425000D01*
%TO.N,/SOC/FLASH_SPI_MOSI*%
X115221747Y-91464455D02*
X114312647Y-92373555D01*
X120040000Y-94660000D02*
X118417292Y-94660000D01*
X90260000Y-64785302D02*
X89081747Y-65963555D01*
X90260000Y-63537500D02*
X90260000Y-64785302D01*
X114312647Y-92373555D02*
X113501747Y-92373555D01*
X118417292Y-94660000D02*
X115221747Y-91464455D01*
%TO.N,/NewDAC/I2S_MCLK*%
X90660000Y-78862500D02*
X90660000Y-79661034D01*
X90660000Y-79661034D02*
X90892521Y-79893555D01*
X133061747Y-87051529D02*
X133061747Y-92211747D01*
X90892521Y-79893555D02*
X91567625Y-79893555D01*
X91567625Y-79893555D02*
X92191625Y-80517555D01*
X133061747Y-92211747D02*
X133121564Y-92271564D01*
X92191625Y-80517555D02*
X94930851Y-80517555D01*
X94930851Y-80517555D02*
X97776795Y-83363499D01*
X137532700Y-91878938D02*
X137657700Y-92003938D01*
X97776795Y-83363499D02*
X109163499Y-83363499D01*
X134971564Y-92271564D02*
X135364190Y-91878938D01*
X135364190Y-91878938D02*
X137532700Y-91878938D01*
X109163499Y-83363499D02*
X112020000Y-86220000D01*
X133121564Y-92271564D02*
X134971564Y-92271564D01*
X133620400Y-86492876D02*
X133061747Y-87051529D01*
%TO.N,/SOC/FLASH_SPI_HOLD*%
X88798747Y-64696555D02*
X86928747Y-64696555D01*
X112060680Y-89848555D02*
X113486747Y-89848555D01*
X110181747Y-90058555D02*
X110658147Y-89582155D01*
X111794280Y-89582155D02*
X112060680Y-89848555D01*
X89060000Y-64435302D02*
X88798747Y-64696555D01*
X110181747Y-92445455D02*
X110181747Y-90058555D01*
X89060000Y-63537500D02*
X89060000Y-64435302D01*
X110658147Y-89582155D02*
X111794280Y-89582155D01*
X113486747Y-89848555D02*
X113501747Y-89833555D01*
X86928747Y-64696555D02*
X85821747Y-65803555D01*
%TO.N,/SOC/FLASH_SPI_WP*%
X89460000Y-63537500D02*
X89460000Y-64605302D01*
X89041747Y-65023555D02*
X88501747Y-65023555D01*
X87911747Y-65023555D02*
X87101747Y-65833555D01*
X122011747Y-91208555D02*
X120806747Y-91208555D01*
X88501747Y-65023555D02*
X87911747Y-65023555D01*
X120806747Y-91208555D02*
X120701747Y-91103555D01*
X89460000Y-64605302D02*
X89091747Y-64973555D01*
X89091747Y-64973555D02*
X89041747Y-65023555D01*
%TO.N,/SOC/FLASH_SPI_CLK*%
X111543100Y-90188555D02*
X112458100Y-91103555D01*
X91060000Y-65901808D02*
X91151747Y-65993555D01*
X91060000Y-63537500D02*
X91060000Y-65901808D01*
X112458100Y-91103555D02*
X113501747Y-91103555D01*
%TO.N,Net-(D14-Pad2)*%
X117313938Y-46213938D02*
X118961062Y-46213938D01*
X118961062Y-46213938D02*
X119200000Y-45975000D01*
X117000000Y-45900000D02*
X117313938Y-46213938D01*
X119200000Y-45975000D02*
X119200000Y-44600000D01*
%TO.N,/NewDAC/I2S_LRCK*%
X90260000Y-78862500D02*
X90260000Y-79661034D01*
X110420000Y-86040000D02*
X110420000Y-87890000D01*
X135686062Y-93953938D02*
X137657700Y-93953938D01*
X135504100Y-94135900D02*
X135686062Y-93953938D01*
X135030000Y-94135900D02*
X134655900Y-94135900D01*
X108020000Y-83640000D02*
X110420000Y-86040000D01*
X94795403Y-80844555D02*
X97590848Y-83640000D01*
X91452887Y-80170555D02*
X92126887Y-80844555D01*
X110420000Y-87890000D02*
X110160000Y-88150000D01*
X92126887Y-80844555D02*
X94795403Y-80844555D01*
X135030000Y-94135900D02*
X135504100Y-94135900D01*
X90260000Y-78063966D02*
X91820959Y-76503007D01*
X90260000Y-79652771D02*
X90777784Y-80170555D01*
X90777784Y-80170555D02*
X91452887Y-80170555D01*
X91820959Y-76503007D02*
X91820959Y-76471537D01*
X90260000Y-78862500D02*
X90260000Y-78063966D01*
X134655900Y-94135900D02*
X133890000Y-93370000D01*
X90260000Y-78862500D02*
X90260000Y-79652771D01*
X97590848Y-83640000D02*
X108020000Y-83640000D01*
%TO.N,/NewDAC/I2S_BCLK*%
X137657700Y-92653938D02*
X136442597Y-92653938D01*
X138882700Y-92653938D02*
X137657700Y-92653938D01*
X136442597Y-92653938D02*
X136273997Y-92485338D01*
X89460000Y-77063519D02*
X89725481Y-76798038D01*
X135680400Y-85242876D02*
X136516462Y-86078938D01*
X139257700Y-87078938D02*
X139257700Y-92278938D01*
X138257700Y-86078938D02*
X139257700Y-87078938D01*
X89460000Y-78862500D02*
X89460000Y-77063519D01*
X136516462Y-86078938D02*
X138257700Y-86078938D01*
X139257700Y-92278938D02*
X138882700Y-92653938D01*
%TO.N,/NewDAC/I2S_DIN*%
X88660000Y-78862500D02*
X88660000Y-77006647D01*
X132570000Y-97940000D02*
X137996638Y-97940000D01*
X139857700Y-94678938D02*
X138457700Y-93278938D01*
X88660000Y-77006647D02*
X89474509Y-76192138D01*
X137996638Y-97940000D02*
X139857700Y-96078938D01*
X135780000Y-93220000D02*
X135863938Y-93303938D01*
X90005962Y-76192138D02*
X90611862Y-76798038D01*
X89474509Y-76192138D02*
X90005962Y-76192138D01*
X139857700Y-96078938D02*
X139857700Y-94678938D01*
X135863938Y-93303938D02*
X137657700Y-93303938D01*
%TO.N,Net-(C63-Pad2)*%
X146460000Y-47310000D02*
X146460000Y-47900000D01*
X145950000Y-46800000D02*
X145950000Y-45975000D01*
X146460000Y-47310000D02*
X145950000Y-46800000D01*
%TO.N,Net-(R54-Pad2)*%
X148096500Y-46171500D02*
X148096500Y-47863500D01*
X148096500Y-47863500D02*
X148060000Y-47900000D01*
X147950000Y-46025000D02*
X148096500Y-46171500D01*
%TO.N,/Power/IRQ*%
X143639100Y-49400000D02*
X145360000Y-49400000D01*
X124357746Y-57803938D02*
X140645622Y-57803938D01*
X140645622Y-57803938D02*
X143442322Y-55007238D01*
X123053011Y-56463011D02*
X123513158Y-56923158D01*
X123513158Y-56923158D02*
X123513158Y-56959350D01*
X100344229Y-60504001D02*
X101295999Y-60504001D01*
X97310730Y-63537500D02*
X100344229Y-60504001D01*
X105336989Y-56463011D02*
X123053011Y-56463011D01*
X96260000Y-63537500D02*
X97310730Y-63537500D01*
X143442322Y-55007238D02*
X143442322Y-53022870D01*
X123513158Y-56959350D02*
X124357746Y-57803938D01*
X143345000Y-49105900D02*
X143639100Y-49400000D01*
X101295999Y-60504001D02*
X105336989Y-56463011D01*
D78*
%TO.N,+1V8B*%
X101095000Y-68620000D02*
X101095000Y-70120000D01*
D74*
X98890000Y-71560000D02*
X98890000Y-71400000D01*
X100215000Y-71000000D02*
X101095000Y-70120000D01*
D76*
X100000000Y-67200000D02*
X100080000Y-67120000D01*
D74*
X97722500Y-71400000D02*
X98890000Y-71400000D01*
X95999646Y-62200000D02*
X95460000Y-62739646D01*
D78*
X100080000Y-67120000D02*
X101095000Y-67120000D01*
D74*
X98890000Y-71400000D02*
X98890000Y-71000000D01*
D76*
X96000000Y-62200000D02*
X95999646Y-62200000D01*
D80*
X97832700Y-61368938D02*
X97958938Y-61368938D01*
D74*
X97722500Y-71800000D02*
X98650000Y-71800000D01*
D80*
X98480606Y-61430000D02*
X98967745Y-60942861D01*
X97958938Y-61368938D02*
X98020000Y-61430000D01*
D78*
X101095000Y-68620000D02*
X101095000Y-67120000D01*
D74*
X98890000Y-71000000D02*
X100215000Y-71000000D01*
X98650000Y-71800000D02*
X98890000Y-71560000D01*
X97722500Y-71000000D02*
X98890000Y-71000000D01*
D75*
X97001638Y-62200000D02*
X97832700Y-61368938D01*
X96000000Y-62200000D02*
X97001638Y-62200000D01*
D74*
X95460000Y-62739646D02*
X95460000Y-63537500D01*
D80*
X98020000Y-61430000D02*
X98480606Y-61430000D01*
D79*
%TO.N,+0V9*%
X91255092Y-81637264D02*
X91154132Y-81637264D01*
D75*
X147062700Y-53873938D02*
X145760000Y-55176638D01*
D74*
X81400000Y-69800000D02*
X81400000Y-69500000D01*
D84*
X100050955Y-71605900D02*
X100065055Y-71620000D01*
D75*
X145760000Y-56290000D02*
X145760000Y-55160000D01*
D76*
X79760000Y-81420000D02*
X79760000Y-82990000D01*
D74*
X81600000Y-69400000D02*
X82397500Y-69400000D01*
D76*
X147293062Y-53793938D02*
X147062700Y-53793938D01*
D74*
X81400000Y-69400000D02*
X81200000Y-69600000D01*
D76*
X81600000Y-69400000D02*
X81400000Y-69400000D01*
X79760000Y-82990000D02*
X77950000Y-84800000D01*
D79*
X79965000Y-71965000D02*
X80793555Y-72793555D01*
D82*
X147660000Y-53427000D02*
X147293062Y-53793938D01*
D75*
X145760000Y-55176638D02*
X145760000Y-56290002D01*
D79*
X90245423Y-80728555D02*
X89681747Y-80728555D01*
X79965000Y-70850000D02*
X79965000Y-71965000D01*
D82*
X147660000Y-52900000D02*
X147660000Y-53427000D01*
D76*
X81260000Y-79920000D02*
X79760000Y-81420000D01*
X81400000Y-69500000D02*
X81500000Y-69400000D01*
D84*
X100065055Y-71620000D02*
X101095000Y-71620000D01*
D76*
X145760000Y-55160000D02*
X145760000Y-56290002D01*
D78*
X81200000Y-69600000D02*
X81200000Y-69615000D01*
X81200000Y-69615000D02*
X79965000Y-70850000D01*
D74*
X100515000Y-72200000D02*
X97722500Y-72200000D01*
X89860000Y-79900000D02*
X89500000Y-80260000D01*
D76*
X81500000Y-69400000D02*
X81600000Y-69400000D01*
D74*
X101095000Y-71620000D02*
X100515000Y-72200000D01*
X82397500Y-69800000D02*
X81400000Y-69800000D01*
X89860000Y-78862500D02*
X89860000Y-79900000D01*
D79*
X91154132Y-81637264D02*
X90245423Y-80728555D01*
X80793555Y-72793555D02*
X80884847Y-72793555D01*
D76*
%TO.N,/SOC/FLASH_SPI_MISO*%
X88608147Y-65357155D02*
X88061747Y-65903555D01*
X89860000Y-63537500D02*
X89860000Y-64722854D01*
X119331747Y-91148555D02*
X119251747Y-91068555D01*
X119586747Y-89833555D02*
X120701747Y-89833555D01*
X119251747Y-91068555D02*
X119251747Y-90168555D01*
X123471747Y-93728555D02*
X123471747Y-89763555D01*
X89860000Y-64722854D02*
X89225699Y-65357155D01*
X123471747Y-89763555D02*
X120771747Y-89763555D01*
X120771747Y-89763555D02*
X120701747Y-89833555D01*
X119251747Y-90168555D02*
X119586747Y-89833555D01*
X89225699Y-65357155D02*
X88608147Y-65357155D01*
X123831747Y-94088555D02*
X123471747Y-93728555D01*
%TO.N,/Power/PWR_KEY*%
X107190000Y-57500000D02*
X108565000Y-57500000D01*
X95860000Y-64651448D02*
X95866195Y-64657643D01*
X95860000Y-63537500D02*
X95860000Y-64651448D01*
%TO.N,Net-(R55-Pad2)*%
X148460000Y-47900000D02*
X148460000Y-47315000D01*
X148460000Y-47315000D02*
X149750000Y-46025000D01*
D77*
%TO.N,Net-(C76-Pad2)*%
X86480000Y-86660000D02*
X85798192Y-86660000D01*
X80920000Y-87650555D02*
X80255555Y-87650555D01*
X80255555Y-87650555D02*
X79747500Y-87142500D01*
X87270000Y-88716555D02*
X87270000Y-87450000D01*
X87270000Y-87450000D02*
X86480000Y-86660000D01*
X85798192Y-86660000D02*
X85651747Y-86513555D01*
X79747500Y-87142500D02*
X81096445Y-85793555D01*
X81096445Y-85793555D02*
X81581747Y-85793555D01*
D80*
%TO.N,Net-(C60-Pad1)*%
X104856747Y-87798555D02*
X107321747Y-87798555D01*
X108485000Y-87800000D02*
X107323192Y-87800000D01*
D75*
X98899644Y-86090356D02*
X98432843Y-85623555D01*
X98432843Y-85623555D02*
X97431747Y-85623555D01*
D80*
X108550000Y-87735000D02*
X108485000Y-87800000D01*
X107323192Y-87800000D02*
X107321747Y-87798555D01*
D76*
%TO.N,/SOC/WIFI_SDIO_CMD*%
X90651747Y-86733555D02*
X90001747Y-87383555D01*
X82397500Y-69000000D02*
X80650000Y-69000000D01*
X90651747Y-84233555D02*
X90651747Y-86733555D01*
X80234638Y-69415362D02*
X80234638Y-69480871D01*
X80650000Y-69000000D02*
X80260000Y-69390000D01*
X99922435Y-90203555D02*
X100516747Y-90203555D01*
X99307816Y-89588936D02*
X99922435Y-90203555D01*
X80260000Y-69390000D02*
X80234638Y-69415362D01*
%TO.N,/SOC/WIFI_SDIO_D0*%
X92431747Y-84233555D02*
X92431747Y-88423555D01*
X99297886Y-88683555D02*
X100526747Y-88683555D01*
X79523906Y-68953025D02*
X79936975Y-68953025D01*
X99277281Y-88704160D02*
X99297886Y-88683555D01*
X80290000Y-68600000D02*
X82397500Y-68600000D01*
X92431747Y-88423555D02*
X92165183Y-88690119D01*
X79936975Y-68953025D02*
X80290000Y-68600000D01*
%TO.N,/SOC/WIFI_SDIO_CLK*%
X78938134Y-68200000D02*
X82397500Y-68200000D01*
X91541747Y-87209811D02*
X91817721Y-87485785D01*
X91541747Y-84233555D02*
X91541747Y-87209811D01*
X78791009Y-68347125D02*
X78938134Y-68200000D01*
%TO.N,/SOC/WIFI_SDIO_D1*%
X93341747Y-87253555D02*
X93341747Y-84233555D01*
X99287165Y-86653137D02*
X99287165Y-86963756D01*
X93051747Y-87543555D02*
X93341747Y-87253555D01*
X79513004Y-67426584D02*
X79886420Y-67800000D01*
X79886420Y-67800000D02*
X82397500Y-67800000D01*
X100466747Y-85473555D02*
X99287165Y-86653137D01*
%TO.N,/SOC/WIFI_SDIO_D2*%
X81340000Y-67000000D02*
X82397500Y-67000000D01*
X99281559Y-90468367D02*
X100526747Y-91713555D01*
X88851747Y-84233555D02*
X88851747Y-86603555D01*
X80260000Y-65920000D02*
X81340000Y-67000000D01*
X99206024Y-90468367D02*
X99281559Y-90468367D01*
X88851747Y-86603555D02*
X88391747Y-87063555D01*
%TO.N,/SOC/WIFI_SDIO_D3*%
X78908372Y-66420000D02*
X79760000Y-66420000D01*
X82377500Y-67420000D02*
X82397500Y-67400000D01*
X99191747Y-91888555D02*
X100536747Y-93233555D01*
X79760000Y-66420000D02*
X80760000Y-67420000D01*
X89741747Y-86663555D02*
X88261747Y-88143555D01*
X89741747Y-84233555D02*
X89741747Y-86663555D01*
X99191747Y-91353555D02*
X99191747Y-91888555D01*
X78584186Y-66744186D02*
X78908372Y-66420000D01*
X80760000Y-67420000D02*
X82377500Y-67420000D01*
D80*
%TO.N,Net-(L1-Pad1)*%
X105860847Y-86257655D02*
X104711747Y-85108555D01*
X107029180Y-86257655D02*
X105860847Y-86257655D01*
D76*
X95151747Y-84233555D02*
X95151747Y-84943555D01*
X95151747Y-84943555D02*
X95221747Y-85013555D01*
X104661747Y-85443555D02*
X105216747Y-84888555D01*
D75*
X95151747Y-85679245D02*
X95568398Y-86095896D01*
D76*
X105216747Y-84888555D02*
X105231747Y-84888555D01*
D75*
X95151747Y-84233555D02*
X95151747Y-85679245D01*
D76*
%TO.N,Net-(P1-Pad38)*%
X108498636Y-62560881D02*
X110095757Y-62560881D01*
X110372700Y-62397300D02*
X110372700Y-62283938D01*
D78*
X115254264Y-53669264D02*
X114792500Y-53207500D01*
X115254264Y-54575502D02*
X115254264Y-53669264D01*
D76*
X110095757Y-62560881D02*
X110372700Y-62283938D01*
D78*
X114792500Y-53207500D02*
X114792500Y-51922500D01*
D76*
X110258463Y-62511537D02*
X110372700Y-62397300D01*
D83*
%TO.N,Net-(R13-Pad2)*%
X160842700Y-57018938D02*
X160722700Y-57138938D01*
D75*
X160842700Y-56233938D02*
X160842700Y-57018938D01*
D76*
%TO.N,Net-(R63-Pad1)*%
X99366747Y-96013555D02*
X100546747Y-94833555D01*
X96041747Y-96013555D02*
X99366747Y-96013555D01*
%TO.N,/SOC/WIFI_REG_ON*%
X83461798Y-84560555D02*
X87041747Y-84560555D01*
X83905865Y-66200000D02*
X84089420Y-66383555D01*
X82397500Y-66200000D02*
X83905865Y-66200000D01*
X81939167Y-82248555D02*
X81939167Y-82423861D01*
X83365698Y-84656655D02*
X83461798Y-84560555D01*
X81939167Y-82423861D02*
X83365698Y-83850392D01*
X83365698Y-84656655D02*
X83305306Y-84596263D01*
X83365698Y-83850392D02*
X83365698Y-84656655D01*
D77*
%TO.N,Net-(C77-Pad2)*%
X82681747Y-85793555D02*
X82681747Y-84707821D01*
X82681747Y-85793555D02*
X83691747Y-85793555D01*
X83861747Y-85623555D02*
X85651747Y-85623555D01*
X83691747Y-85793555D02*
X83861747Y-85623555D01*
X82681747Y-84707821D02*
X82018382Y-84044456D01*
D76*
%TO.N,Net-(RF1-Pad1)*%
X80261747Y-90763555D02*
X79471747Y-90763555D01*
D75*
X82841747Y-93733555D02*
X79841747Y-90733555D01*
D76*
X79471747Y-90763555D02*
X79381747Y-90673555D01*
D75*
X85651747Y-93733555D02*
X82841747Y-93733555D01*
D77*
%TO.N,Net-(C22-Pad1)*%
X85092354Y-82904075D02*
X85260000Y-82904075D01*
X86660000Y-82020000D02*
X85810000Y-82870000D01*
X84796227Y-82607948D02*
X85092354Y-82904075D01*
X85810000Y-82870000D02*
X85260000Y-82870000D01*
X86660000Y-78862500D02*
X86660000Y-82020000D01*
X83675685Y-82870000D02*
X83500685Y-82695000D01*
X85260000Y-82870000D02*
X83675685Y-82870000D01*
%TD*%
%TA.AperFunction,Conductor*%
%TO.N,VBUS*%
G36*
X159174821Y-48683940D02*
G01*
X159221314Y-48737596D01*
X159232700Y-48789938D01*
X159232700Y-52913938D01*
X161346700Y-52913938D01*
X161414821Y-52933940D01*
X161461314Y-52987596D01*
X161472700Y-53039938D01*
X161472700Y-54987938D01*
X161452698Y-55056059D01*
X161399042Y-55102552D01*
X161346700Y-55113938D01*
X157508700Y-55113938D01*
X157440579Y-55093936D01*
X157394086Y-55040280D01*
X157382700Y-54987938D01*
X157382700Y-48789938D01*
X157402702Y-48721817D01*
X157456358Y-48675324D01*
X157508700Y-48663938D01*
X159106700Y-48663938D01*
X159174821Y-48683940D01*
G37*
%TD.AperFunction*%
%TD*%
%TA.AperFunction,Conductor*%
%TO.N,GND*%
G36*
X156423868Y-53563557D02*
G01*
X156470361Y-53617213D01*
X156481747Y-53669555D01*
X156481747Y-55221365D01*
X156461745Y-55289486D01*
X156444842Y-55310460D01*
X155271747Y-56483555D01*
X155271747Y-59131365D01*
X155251745Y-59199486D01*
X155234842Y-59220460D01*
X154000000Y-60455302D01*
X154000000Y-60474000D01*
X153979998Y-60542121D01*
X153926342Y-60588614D01*
X153874000Y-60600000D01*
X147126000Y-60600000D01*
X147057879Y-60579998D01*
X147011386Y-60526342D01*
X147000000Y-60474000D01*
X147000000Y-58426000D01*
X147020002Y-58357879D01*
X147073658Y-58311386D01*
X147126000Y-58300000D01*
X153491747Y-58300000D01*
X153491747Y-54979555D01*
X153511749Y-54911434D01*
X153565405Y-54864941D01*
X153617747Y-54853555D01*
X154711747Y-54853555D01*
X154711747Y-53669555D01*
X154731749Y-53601434D01*
X154785405Y-53554941D01*
X154837747Y-53543555D01*
X156355747Y-53543555D01*
X156423868Y-53563557D01*
G37*
%TD.AperFunction*%
%TD*%
%TA.AperFunction,Conductor*%
%TO.N,GND*%
G36*
X115492121Y-63973940D02*
G01*
X115538614Y-64027596D01*
X115550000Y-64079938D01*
X115550000Y-70607938D01*
X115529998Y-70676059D01*
X115476342Y-70722552D01*
X115424000Y-70733938D01*
X113396000Y-70733938D01*
X113327879Y-70713936D01*
X113281386Y-70660280D01*
X113270000Y-70607938D01*
X113270000Y-64079938D01*
X113290002Y-64011817D01*
X113343658Y-63965324D01*
X113396000Y-63953938D01*
X115424000Y-63953938D01*
X115492121Y-63973940D01*
G37*
%TD.AperFunction*%
%TD*%
%TA.AperFunction,Conductor*%
%TO.N,+0V9*%
G36*
X146226142Y-55561835D02*
G01*
X146279879Y-55608234D01*
X146300000Y-55676540D01*
X146300000Y-60474000D01*
X146279998Y-60542121D01*
X146226342Y-60588614D01*
X146174000Y-60600000D01*
X144126000Y-60600000D01*
X144057879Y-60579998D01*
X144011386Y-60526342D01*
X144000000Y-60474000D01*
X144000000Y-57457410D01*
X144020002Y-57389289D01*
X144043321Y-57362330D01*
X146091321Y-55581460D01*
X146155851Y-55551854D01*
X146226142Y-55561835D01*
G37*
%TD.AperFunction*%
%TD*%
%TA.AperFunction,Conductor*%
%TO.N,GND*%
G36*
X104174821Y-64993940D02*
G01*
X104221314Y-65047596D01*
X104232700Y-65099938D01*
X104232700Y-70261748D01*
X104212698Y-70329869D01*
X104195795Y-70350843D01*
X102707795Y-71838843D01*
X102645483Y-71872869D01*
X102574668Y-71867804D01*
X102517832Y-71825257D01*
X102493021Y-71758737D01*
X102492700Y-71749748D01*
X102492700Y-65099938D01*
X102512702Y-65031817D01*
X102566358Y-64985324D01*
X102618700Y-64973938D01*
X104106700Y-64973938D01*
X104174821Y-64993940D01*
G37*
%TD.AperFunction*%
%TD*%
%TA.AperFunction,Conductor*%
%TO.N,+3V3*%
G36*
X156442121Y-50320002D02*
G01*
X156488614Y-50373658D01*
X156500000Y-50426000D01*
X156500000Y-52474000D01*
X156479998Y-52542121D01*
X156426342Y-52588614D01*
X156374000Y-52600000D01*
X151826000Y-52600000D01*
X151757879Y-52579998D01*
X151711386Y-52526342D01*
X151700000Y-52474000D01*
X151700000Y-50426000D01*
X151720002Y-50357879D01*
X151773658Y-50311386D01*
X151826000Y-50300000D01*
X156374000Y-50300000D01*
X156442121Y-50320002D01*
G37*
%TD.AperFunction*%
%TD*%
%TA.AperFunction,Conductor*%
%TO.N,-5VA*%
G36*
X168014821Y-76643940D02*
G01*
X168061314Y-76697596D01*
X168072700Y-76749938D01*
X168072700Y-81337938D01*
X168052698Y-81406059D01*
X167999042Y-81452552D01*
X167946700Y-81463938D01*
X164278700Y-81463938D01*
X164210579Y-81443936D01*
X164164086Y-81390280D01*
X164152700Y-81337938D01*
X164152700Y-77699938D01*
X164172702Y-77631817D01*
X164226358Y-77585324D01*
X164278700Y-77573938D01*
X165642700Y-77573938D01*
X166555795Y-76660843D01*
X166618107Y-76626817D01*
X166644890Y-76623938D01*
X167946700Y-76623938D01*
X168014821Y-76643940D01*
G37*
%TD.AperFunction*%
%TD*%
%TA.AperFunction,Conductor*%
%TO.N,VCC*%
G36*
X152784821Y-54803940D02*
G01*
X152831314Y-54857596D01*
X152842700Y-54909938D01*
X152842700Y-57227938D01*
X152822698Y-57296059D01*
X152769042Y-57342552D01*
X152716700Y-57353938D01*
X149428700Y-57353938D01*
X149360579Y-57333936D01*
X149314086Y-57280280D01*
X149302700Y-57227938D01*
X149302700Y-56433938D01*
X148389605Y-55520843D01*
X148355579Y-55458531D01*
X148352700Y-55431748D01*
X148352700Y-54909938D01*
X148372702Y-54841817D01*
X148426358Y-54795324D01*
X148478700Y-54783938D01*
X152716700Y-54783938D01*
X152784821Y-54803940D01*
G37*
%TD.AperFunction*%
%TD*%
%TA.AperFunction,Conductor*%
%TO.N,+5VA*%
G36*
X164564821Y-61753940D02*
G01*
X164611314Y-61807596D01*
X164622700Y-61859938D01*
X164622700Y-65857938D01*
X164602698Y-65926059D01*
X164549042Y-65972552D01*
X164496700Y-65983938D01*
X162088700Y-65983938D01*
X162020579Y-65963936D01*
X161974086Y-65910280D01*
X161962700Y-65857938D01*
X161962700Y-61859938D01*
X161982702Y-61791817D01*
X162036358Y-61745324D01*
X162088700Y-61733938D01*
X164496700Y-61733938D01*
X164564821Y-61753940D01*
G37*
%TD.AperFunction*%
%TD*%
%TA.AperFunction,Conductor*%
%TO.N,GND*%
G36*
X136432408Y-48123940D02*
G01*
X136460445Y-48148517D01*
X138189001Y-50190000D01*
X139645285Y-50190000D01*
X139682243Y-50199900D01*
X139683129Y-50196596D01*
X139685411Y-50197208D01*
X139689144Y-50198385D01*
X139689203Y-50198223D01*
X139690696Y-50198623D01*
X139691465Y-50198903D01*
X139693633Y-50199801D01*
X139695868Y-50200506D01*
X139699588Y-50201860D01*
X139709132Y-50207370D01*
X139719981Y-50209283D01*
X139719989Y-50209286D01*
X139745266Y-50213743D01*
X139755994Y-50216121D01*
X139780777Y-50222761D01*
X139780778Y-50222761D01*
X139791429Y-50225615D01*
X139827982Y-50222417D01*
X139838964Y-50221938D01*
X140744000Y-50221938D01*
X140812121Y-50241940D01*
X140858614Y-50295596D01*
X140870000Y-50347938D01*
X140870000Y-53094000D01*
X140849998Y-53162121D01*
X140796342Y-53208614D01*
X140744000Y-53220000D01*
X139592190Y-53220000D01*
X139524069Y-53199998D01*
X139503095Y-53183095D01*
X137913938Y-51593938D01*
X137044890Y-51593938D01*
X136976769Y-51573936D01*
X136955795Y-51557033D01*
X136242700Y-50843938D01*
X134198700Y-50843938D01*
X134130579Y-50823936D01*
X134084086Y-50770280D01*
X134072700Y-50717938D01*
X134072700Y-48229938D01*
X134092702Y-48161817D01*
X134146358Y-48115324D01*
X134198700Y-48103938D01*
X136364287Y-48103938D01*
X136432408Y-48123940D01*
G37*
%TD.AperFunction*%
%TD*%
%TA.AperFunction,Conductor*%
%TO.N,GND*%
G36*
X167494821Y-66673940D02*
G01*
X167541314Y-66727596D01*
X167552700Y-66779938D01*
X167552700Y-67873938D01*
X168865795Y-69187033D01*
X168899821Y-69249345D01*
X168902700Y-69276128D01*
X168902700Y-69862620D01*
X168882698Y-69930741D01*
X168829042Y-69977234D01*
X168781469Y-69988530D01*
X167600803Y-70033252D01*
X167600802Y-70033252D01*
X167582700Y-70033938D01*
X167573179Y-72547511D01*
X167552919Y-72615556D01*
X167499088Y-72661845D01*
X167446278Y-72673031D01*
X163517795Y-72644836D01*
X163449820Y-72624345D01*
X163403714Y-72570357D01*
X163392700Y-72518839D01*
X163392700Y-66779938D01*
X163412702Y-66711817D01*
X163466358Y-66665324D01*
X163518700Y-66653938D01*
X167426700Y-66653938D01*
X167494821Y-66673940D01*
G37*
%TD.AperFunction*%
%TD*%
%TA.AperFunction,Conductor*%
%TO.N,Net-(C61-Pad1)*%
G36*
X142874821Y-54033940D02*
G01*
X142921314Y-54087596D01*
X142932700Y-54139938D01*
X142932700Y-54941748D01*
X142912698Y-55009869D01*
X142895795Y-55030843D01*
X140706423Y-57220215D01*
X140644111Y-57254241D01*
X140602700Y-57254241D01*
X140602700Y-57253938D01*
X139118700Y-57253938D01*
X139050579Y-57233936D01*
X139004086Y-57180280D01*
X138992700Y-57127938D01*
X138992700Y-54139938D01*
X139012702Y-54071817D01*
X139066358Y-54025324D01*
X139118700Y-54013938D01*
X142806700Y-54013938D01*
X142874821Y-54033940D01*
G37*
%TD.AperFunction*%
%TD*%
M02*
