%TF.GenerationSoftware,KiCad,Pcbnew,7.0.2-6a45011f42~172~ubuntu22.04.1*%
%TF.CreationDate,2023-05-03T22:42:28+03:00*%
%TF.ProjectId,mp3_test_board,6d70335f-7465-4737-945f-626f6172642e,rev?*%
%TF.SameCoordinates,Original*%
%TF.FileFunction,Legend,Top*%
%TF.FilePolarity,Positive*%
%FSLAX46Y46*%
G04 Gerber Fmt 4.6, Leading zero omitted, Abs format (unit mm)*
G04 Created by KiCad (PCBNEW 7.0.2-6a45011f42~172~ubuntu22.04.1) date 2023-05-03 22:42:28*
%MOMM*%
%LPD*%
G01*
G04 APERTURE LIST*
%ADD10C,0.150000*%
%ADD11C,0.250000*%
%ADD12C,0.120000*%
G04 APERTURE END LIST*
D10*
%TO.C,SW7*%
X108219999Y-95669000D02*
X108305714Y-95697571D01*
X108305714Y-95697571D02*
X108448571Y-95697571D01*
X108448571Y-95697571D02*
X108505714Y-95669000D01*
X108505714Y-95669000D02*
X108534285Y-95640428D01*
X108534285Y-95640428D02*
X108562856Y-95583285D01*
X108562856Y-95583285D02*
X108562856Y-95526142D01*
X108562856Y-95526142D02*
X108534285Y-95469000D01*
X108534285Y-95469000D02*
X108505714Y-95440428D01*
X108505714Y-95440428D02*
X108448571Y-95411857D01*
X108448571Y-95411857D02*
X108334285Y-95383285D01*
X108334285Y-95383285D02*
X108277142Y-95354714D01*
X108277142Y-95354714D02*
X108248571Y-95326142D01*
X108248571Y-95326142D02*
X108219999Y-95269000D01*
X108219999Y-95269000D02*
X108219999Y-95211857D01*
X108219999Y-95211857D02*
X108248571Y-95154714D01*
X108248571Y-95154714D02*
X108277142Y-95126142D01*
X108277142Y-95126142D02*
X108334285Y-95097571D01*
X108334285Y-95097571D02*
X108477142Y-95097571D01*
X108477142Y-95097571D02*
X108562856Y-95126142D01*
X108762857Y-95097571D02*
X108905714Y-95697571D01*
X108905714Y-95697571D02*
X109020000Y-95269000D01*
X109020000Y-95269000D02*
X109134285Y-95697571D01*
X109134285Y-95697571D02*
X109277143Y-95097571D01*
X109448571Y-95097571D02*
X109848571Y-95097571D01*
X109848571Y-95097571D02*
X109591428Y-95697571D01*
%TO.C,SW1*%
X144229000Y-72290000D02*
X144257571Y-72204286D01*
X144257571Y-72204286D02*
X144257571Y-72061428D01*
X144257571Y-72061428D02*
X144229000Y-72004286D01*
X144229000Y-72004286D02*
X144200428Y-71975714D01*
X144200428Y-71975714D02*
X144143285Y-71947143D01*
X144143285Y-71947143D02*
X144086142Y-71947143D01*
X144086142Y-71947143D02*
X144029000Y-71975714D01*
X144029000Y-71975714D02*
X144000428Y-72004286D01*
X144000428Y-72004286D02*
X143971857Y-72061428D01*
X143971857Y-72061428D02*
X143943285Y-72175714D01*
X143943285Y-72175714D02*
X143914714Y-72232857D01*
X143914714Y-72232857D02*
X143886142Y-72261428D01*
X143886142Y-72261428D02*
X143829000Y-72290000D01*
X143829000Y-72290000D02*
X143771857Y-72290000D01*
X143771857Y-72290000D02*
X143714714Y-72261428D01*
X143714714Y-72261428D02*
X143686142Y-72232857D01*
X143686142Y-72232857D02*
X143657571Y-72175714D01*
X143657571Y-72175714D02*
X143657571Y-72032857D01*
X143657571Y-72032857D02*
X143686142Y-71947143D01*
X143657571Y-71747142D02*
X144257571Y-71604285D01*
X144257571Y-71604285D02*
X143829000Y-71489999D01*
X143829000Y-71489999D02*
X144257571Y-71375714D01*
X144257571Y-71375714D02*
X143657571Y-71232857D01*
X144257571Y-70690000D02*
X144257571Y-71032857D01*
X144257571Y-70861428D02*
X143657571Y-70861428D01*
X143657571Y-70861428D02*
X143743285Y-70918571D01*
X143743285Y-70918571D02*
X143800428Y-70975714D01*
X143800428Y-70975714D02*
X143829000Y-71032857D01*
%TO.C,SW6*%
X98839999Y-95659000D02*
X98925714Y-95687571D01*
X98925714Y-95687571D02*
X99068571Y-95687571D01*
X99068571Y-95687571D02*
X99125714Y-95659000D01*
X99125714Y-95659000D02*
X99154285Y-95630428D01*
X99154285Y-95630428D02*
X99182856Y-95573285D01*
X99182856Y-95573285D02*
X99182856Y-95516142D01*
X99182856Y-95516142D02*
X99154285Y-95459000D01*
X99154285Y-95459000D02*
X99125714Y-95430428D01*
X99125714Y-95430428D02*
X99068571Y-95401857D01*
X99068571Y-95401857D02*
X98954285Y-95373285D01*
X98954285Y-95373285D02*
X98897142Y-95344714D01*
X98897142Y-95344714D02*
X98868571Y-95316142D01*
X98868571Y-95316142D02*
X98839999Y-95259000D01*
X98839999Y-95259000D02*
X98839999Y-95201857D01*
X98839999Y-95201857D02*
X98868571Y-95144714D01*
X98868571Y-95144714D02*
X98897142Y-95116142D01*
X98897142Y-95116142D02*
X98954285Y-95087571D01*
X98954285Y-95087571D02*
X99097142Y-95087571D01*
X99097142Y-95087571D02*
X99182856Y-95116142D01*
X99382857Y-95087571D02*
X99525714Y-95687571D01*
X99525714Y-95687571D02*
X99640000Y-95259000D01*
X99640000Y-95259000D02*
X99754285Y-95687571D01*
X99754285Y-95687571D02*
X99897143Y-95087571D01*
X100382857Y-95087571D02*
X100268571Y-95087571D01*
X100268571Y-95087571D02*
X100211428Y-95116142D01*
X100211428Y-95116142D02*
X100182857Y-95144714D01*
X100182857Y-95144714D02*
X100125714Y-95230428D01*
X100125714Y-95230428D02*
X100097142Y-95344714D01*
X100097142Y-95344714D02*
X100097142Y-95573285D01*
X100097142Y-95573285D02*
X100125714Y-95630428D01*
X100125714Y-95630428D02*
X100154285Y-95659000D01*
X100154285Y-95659000D02*
X100211428Y-95687571D01*
X100211428Y-95687571D02*
X100325714Y-95687571D01*
X100325714Y-95687571D02*
X100382857Y-95659000D01*
X100382857Y-95659000D02*
X100411428Y-95630428D01*
X100411428Y-95630428D02*
X100439999Y-95573285D01*
X100439999Y-95573285D02*
X100439999Y-95430428D01*
X100439999Y-95430428D02*
X100411428Y-95373285D01*
X100411428Y-95373285D02*
X100382857Y-95344714D01*
X100382857Y-95344714D02*
X100325714Y-95316142D01*
X100325714Y-95316142D02*
X100211428Y-95316142D01*
X100211428Y-95316142D02*
X100154285Y-95344714D01*
X100154285Y-95344714D02*
X100125714Y-95373285D01*
X100125714Y-95373285D02*
X100097142Y-95430428D01*
%TO.C,SW3*%
X154589000Y-87920000D02*
X154617571Y-87834286D01*
X154617571Y-87834286D02*
X154617571Y-87691428D01*
X154617571Y-87691428D02*
X154589000Y-87634286D01*
X154589000Y-87634286D02*
X154560428Y-87605714D01*
X154560428Y-87605714D02*
X154503285Y-87577143D01*
X154503285Y-87577143D02*
X154446142Y-87577143D01*
X154446142Y-87577143D02*
X154389000Y-87605714D01*
X154389000Y-87605714D02*
X154360428Y-87634286D01*
X154360428Y-87634286D02*
X154331857Y-87691428D01*
X154331857Y-87691428D02*
X154303285Y-87805714D01*
X154303285Y-87805714D02*
X154274714Y-87862857D01*
X154274714Y-87862857D02*
X154246142Y-87891428D01*
X154246142Y-87891428D02*
X154189000Y-87920000D01*
X154189000Y-87920000D02*
X154131857Y-87920000D01*
X154131857Y-87920000D02*
X154074714Y-87891428D01*
X154074714Y-87891428D02*
X154046142Y-87862857D01*
X154046142Y-87862857D02*
X154017571Y-87805714D01*
X154017571Y-87805714D02*
X154017571Y-87662857D01*
X154017571Y-87662857D02*
X154046142Y-87577143D01*
X154017571Y-87377142D02*
X154617571Y-87234285D01*
X154617571Y-87234285D02*
X154189000Y-87119999D01*
X154189000Y-87119999D02*
X154617571Y-87005714D01*
X154617571Y-87005714D02*
X154017571Y-86862857D01*
X154017571Y-86691428D02*
X154017571Y-86320000D01*
X154017571Y-86320000D02*
X154246142Y-86520000D01*
X154246142Y-86520000D02*
X154246142Y-86434285D01*
X154246142Y-86434285D02*
X154274714Y-86377143D01*
X154274714Y-86377143D02*
X154303285Y-86348571D01*
X154303285Y-86348571D02*
X154360428Y-86320000D01*
X154360428Y-86320000D02*
X154503285Y-86320000D01*
X154503285Y-86320000D02*
X154560428Y-86348571D01*
X154560428Y-86348571D02*
X154589000Y-86377143D01*
X154589000Y-86377143D02*
X154617571Y-86434285D01*
X154617571Y-86434285D02*
X154617571Y-86605714D01*
X154617571Y-86605714D02*
X154589000Y-86662857D01*
X154589000Y-86662857D02*
X154560428Y-86691428D01*
%TO.C,SW2*%
X164531700Y-71603938D02*
X164560271Y-71518224D01*
X164560271Y-71518224D02*
X164560271Y-71375366D01*
X164560271Y-71375366D02*
X164531700Y-71318224D01*
X164531700Y-71318224D02*
X164503128Y-71289652D01*
X164503128Y-71289652D02*
X164445985Y-71261081D01*
X164445985Y-71261081D02*
X164388842Y-71261081D01*
X164388842Y-71261081D02*
X164331700Y-71289652D01*
X164331700Y-71289652D02*
X164303128Y-71318224D01*
X164303128Y-71318224D02*
X164274557Y-71375366D01*
X164274557Y-71375366D02*
X164245985Y-71489652D01*
X164245985Y-71489652D02*
X164217414Y-71546795D01*
X164217414Y-71546795D02*
X164188842Y-71575366D01*
X164188842Y-71575366D02*
X164131700Y-71603938D01*
X164131700Y-71603938D02*
X164074557Y-71603938D01*
X164074557Y-71603938D02*
X164017414Y-71575366D01*
X164017414Y-71575366D02*
X163988842Y-71546795D01*
X163988842Y-71546795D02*
X163960271Y-71489652D01*
X163960271Y-71489652D02*
X163960271Y-71346795D01*
X163960271Y-71346795D02*
X163988842Y-71261081D01*
X163960271Y-71061080D02*
X164560271Y-70918223D01*
X164560271Y-70918223D02*
X164131700Y-70803937D01*
X164131700Y-70803937D02*
X164560271Y-70689652D01*
X164560271Y-70689652D02*
X163960271Y-70546795D01*
X164017414Y-70346795D02*
X163988842Y-70318223D01*
X163988842Y-70318223D02*
X163960271Y-70261081D01*
X163960271Y-70261081D02*
X163960271Y-70118223D01*
X163960271Y-70118223D02*
X163988842Y-70061081D01*
X163988842Y-70061081D02*
X164017414Y-70032509D01*
X164017414Y-70032509D02*
X164074557Y-70003938D01*
X164074557Y-70003938D02*
X164131700Y-70003938D01*
X164131700Y-70003938D02*
X164217414Y-70032509D01*
X164217414Y-70032509D02*
X164560271Y-70375366D01*
X164560271Y-70375366D02*
X164560271Y-70003938D01*
%TO.C,SW8*%
X89079999Y-95519000D02*
X89165714Y-95547571D01*
X89165714Y-95547571D02*
X89308571Y-95547571D01*
X89308571Y-95547571D02*
X89365714Y-95519000D01*
X89365714Y-95519000D02*
X89394285Y-95490428D01*
X89394285Y-95490428D02*
X89422856Y-95433285D01*
X89422856Y-95433285D02*
X89422856Y-95376142D01*
X89422856Y-95376142D02*
X89394285Y-95319000D01*
X89394285Y-95319000D02*
X89365714Y-95290428D01*
X89365714Y-95290428D02*
X89308571Y-95261857D01*
X89308571Y-95261857D02*
X89194285Y-95233285D01*
X89194285Y-95233285D02*
X89137142Y-95204714D01*
X89137142Y-95204714D02*
X89108571Y-95176142D01*
X89108571Y-95176142D02*
X89079999Y-95119000D01*
X89079999Y-95119000D02*
X89079999Y-95061857D01*
X89079999Y-95061857D02*
X89108571Y-95004714D01*
X89108571Y-95004714D02*
X89137142Y-94976142D01*
X89137142Y-94976142D02*
X89194285Y-94947571D01*
X89194285Y-94947571D02*
X89337142Y-94947571D01*
X89337142Y-94947571D02*
X89422856Y-94976142D01*
X89622857Y-94947571D02*
X89765714Y-95547571D01*
X89765714Y-95547571D02*
X89880000Y-95119000D01*
X89880000Y-95119000D02*
X89994285Y-95547571D01*
X89994285Y-95547571D02*
X90137143Y-94947571D01*
X90451428Y-95204714D02*
X90394285Y-95176142D01*
X90394285Y-95176142D02*
X90365714Y-95147571D01*
X90365714Y-95147571D02*
X90337142Y-95090428D01*
X90337142Y-95090428D02*
X90337142Y-95061857D01*
X90337142Y-95061857D02*
X90365714Y-95004714D01*
X90365714Y-95004714D02*
X90394285Y-94976142D01*
X90394285Y-94976142D02*
X90451428Y-94947571D01*
X90451428Y-94947571D02*
X90565714Y-94947571D01*
X90565714Y-94947571D02*
X90622857Y-94976142D01*
X90622857Y-94976142D02*
X90651428Y-95004714D01*
X90651428Y-95004714D02*
X90679999Y-95061857D01*
X90679999Y-95061857D02*
X90679999Y-95090428D01*
X90679999Y-95090428D02*
X90651428Y-95147571D01*
X90651428Y-95147571D02*
X90622857Y-95176142D01*
X90622857Y-95176142D02*
X90565714Y-95204714D01*
X90565714Y-95204714D02*
X90451428Y-95204714D01*
X90451428Y-95204714D02*
X90394285Y-95233285D01*
X90394285Y-95233285D02*
X90365714Y-95261857D01*
X90365714Y-95261857D02*
X90337142Y-95319000D01*
X90337142Y-95319000D02*
X90337142Y-95433285D01*
X90337142Y-95433285D02*
X90365714Y-95490428D01*
X90365714Y-95490428D02*
X90394285Y-95519000D01*
X90394285Y-95519000D02*
X90451428Y-95547571D01*
X90451428Y-95547571D02*
X90565714Y-95547571D01*
X90565714Y-95547571D02*
X90622857Y-95519000D01*
X90622857Y-95519000D02*
X90651428Y-95490428D01*
X90651428Y-95490428D02*
X90679999Y-95433285D01*
X90679999Y-95433285D02*
X90679999Y-95319000D01*
X90679999Y-95319000D02*
X90651428Y-95261857D01*
X90651428Y-95261857D02*
X90622857Y-95233285D01*
X90622857Y-95233285D02*
X90565714Y-95204714D01*
%TO.C,SW4*%
X154089000Y-55960000D02*
X154117571Y-55874286D01*
X154117571Y-55874286D02*
X154117571Y-55731428D01*
X154117571Y-55731428D02*
X154089000Y-55674286D01*
X154089000Y-55674286D02*
X154060428Y-55645714D01*
X154060428Y-55645714D02*
X154003285Y-55617143D01*
X154003285Y-55617143D02*
X153946142Y-55617143D01*
X153946142Y-55617143D02*
X153889000Y-55645714D01*
X153889000Y-55645714D02*
X153860428Y-55674286D01*
X153860428Y-55674286D02*
X153831857Y-55731428D01*
X153831857Y-55731428D02*
X153803285Y-55845714D01*
X153803285Y-55845714D02*
X153774714Y-55902857D01*
X153774714Y-55902857D02*
X153746142Y-55931428D01*
X153746142Y-55931428D02*
X153689000Y-55960000D01*
X153689000Y-55960000D02*
X153631857Y-55960000D01*
X153631857Y-55960000D02*
X153574714Y-55931428D01*
X153574714Y-55931428D02*
X153546142Y-55902857D01*
X153546142Y-55902857D02*
X153517571Y-55845714D01*
X153517571Y-55845714D02*
X153517571Y-55702857D01*
X153517571Y-55702857D02*
X153546142Y-55617143D01*
X153517571Y-55417142D02*
X154117571Y-55274285D01*
X154117571Y-55274285D02*
X153689000Y-55159999D01*
X153689000Y-55159999D02*
X154117571Y-55045714D01*
X154117571Y-55045714D02*
X153517571Y-54902857D01*
X153717571Y-54417143D02*
X154117571Y-54417143D01*
X153489000Y-54560000D02*
X153917571Y-54702857D01*
X153917571Y-54702857D02*
X153917571Y-54331428D01*
%TO.C,SW5*%
X154449000Y-71990000D02*
X154477571Y-71904286D01*
X154477571Y-71904286D02*
X154477571Y-71761428D01*
X154477571Y-71761428D02*
X154449000Y-71704286D01*
X154449000Y-71704286D02*
X154420428Y-71675714D01*
X154420428Y-71675714D02*
X154363285Y-71647143D01*
X154363285Y-71647143D02*
X154306142Y-71647143D01*
X154306142Y-71647143D02*
X154249000Y-71675714D01*
X154249000Y-71675714D02*
X154220428Y-71704286D01*
X154220428Y-71704286D02*
X154191857Y-71761428D01*
X154191857Y-71761428D02*
X154163285Y-71875714D01*
X154163285Y-71875714D02*
X154134714Y-71932857D01*
X154134714Y-71932857D02*
X154106142Y-71961428D01*
X154106142Y-71961428D02*
X154049000Y-71990000D01*
X154049000Y-71990000D02*
X153991857Y-71990000D01*
X153991857Y-71990000D02*
X153934714Y-71961428D01*
X153934714Y-71961428D02*
X153906142Y-71932857D01*
X153906142Y-71932857D02*
X153877571Y-71875714D01*
X153877571Y-71875714D02*
X153877571Y-71732857D01*
X153877571Y-71732857D02*
X153906142Y-71647143D01*
X153877571Y-71447142D02*
X154477571Y-71304285D01*
X154477571Y-71304285D02*
X154049000Y-71189999D01*
X154049000Y-71189999D02*
X154477571Y-71075714D01*
X154477571Y-71075714D02*
X153877571Y-70932857D01*
X153877571Y-70418571D02*
X153877571Y-70704285D01*
X153877571Y-70704285D02*
X154163285Y-70732857D01*
X154163285Y-70732857D02*
X154134714Y-70704285D01*
X154134714Y-70704285D02*
X154106142Y-70647143D01*
X154106142Y-70647143D02*
X154106142Y-70504285D01*
X154106142Y-70504285D02*
X154134714Y-70447143D01*
X154134714Y-70447143D02*
X154163285Y-70418571D01*
X154163285Y-70418571D02*
X154220428Y-70390000D01*
X154220428Y-70390000D02*
X154363285Y-70390000D01*
X154363285Y-70390000D02*
X154420428Y-70418571D01*
X154420428Y-70418571D02*
X154449000Y-70447143D01*
X154449000Y-70447143D02*
X154477571Y-70504285D01*
X154477571Y-70504285D02*
X154477571Y-70647143D01*
X154477571Y-70647143D02*
X154449000Y-70704285D01*
X154449000Y-70704285D02*
X154420428Y-70732857D01*
D11*
%TO.C,SW7*%
X113020000Y-97412500D02*
X113020000Y-96302500D01*
X113020000Y-96302500D02*
X111780000Y-96302500D01*
X110578200Y-98842500D02*
X110368200Y-99922500D01*
X110420000Y-96302500D02*
X107580000Y-96302500D01*
X110370000Y-99915135D02*
X107650000Y-99906666D01*
X108880000Y-98842500D02*
X110580000Y-98842500D01*
X108880000Y-98842500D02*
X107350000Y-98842500D01*
X107611800Y-99914031D02*
X107441800Y-98824031D01*
X106580000Y-98842500D02*
X111420000Y-98842500D01*
X106220000Y-96302500D02*
X105020000Y-96302500D01*
X105020000Y-96302500D02*
X105020000Y-97412500D01*
%TO.C,SW1*%
X145200000Y-74300000D02*
X151400000Y-74300000D01*
X145201200Y-74300000D02*
X145201200Y-68100000D01*
X151400000Y-74300000D02*
X151400000Y-68100000D01*
X145200000Y-68100000D02*
X151400000Y-68100000D01*
X149780000Y-71200000D02*
G75*
G03*
X149780000Y-71200000I-1480000J0D01*
G01*
D12*
X150231068Y-71200000D02*
G75*
G03*
X150231068Y-71200000I-1931068J0D01*
G01*
X150262222Y-71200000D02*
G75*
G03*
X150262222Y-71200000I-1962222J0D01*
G01*
D11*
X150240000Y-71200000D02*
G75*
G03*
X150240000Y-71200000I-1940000J0D01*
G01*
D12*
X149417600Y-69625200D02*
G75*
G03*
X149417600Y-69625200I0J0D01*
G01*
D11*
%TO.C,SW6*%
X103420000Y-97340000D02*
X103420000Y-96230000D01*
X103420000Y-96230000D02*
X102180000Y-96230000D01*
X100978200Y-98770000D02*
X100768200Y-99850000D01*
X100820000Y-96230000D02*
X97980000Y-96230000D01*
X100770000Y-99842635D02*
X98050000Y-99834166D01*
X99280000Y-98770000D02*
X100980000Y-98770000D01*
X99280000Y-98770000D02*
X97750000Y-98770000D01*
X98011800Y-99841531D02*
X97841800Y-98751531D01*
X96980000Y-98770000D02*
X101820000Y-98770000D01*
X96620000Y-96230000D02*
X95420000Y-96230000D01*
X95420000Y-96230000D02*
X95420000Y-97340000D01*
D12*
%TO.C,P1*%
X138490000Y-92645000D02*
X78230000Y-92645000D01*
X78230000Y-92645000D02*
X78230000Y-49925000D01*
X78230000Y-49925000D02*
X138490000Y-49925000D01*
X138490000Y-49925000D02*
X138490000Y-92645000D01*
D11*
%TO.C,SW3*%
X155200000Y-90400000D02*
X161400000Y-90400000D01*
X155201200Y-90400000D02*
X155201200Y-84200000D01*
X161400000Y-90400000D02*
X161400000Y-84200000D01*
X155200000Y-84200000D02*
X161400000Y-84200000D01*
X159780000Y-87300000D02*
G75*
G03*
X159780000Y-87300000I-1480000J0D01*
G01*
D12*
X160231068Y-87300000D02*
G75*
G03*
X160231068Y-87300000I-1931068J0D01*
G01*
X160262222Y-87300000D02*
G75*
G03*
X160262222Y-87300000I-1962222J0D01*
G01*
D11*
X160240000Y-87300000D02*
G75*
G03*
X160240000Y-87300000I-1940000J0D01*
G01*
D12*
X159417600Y-85725200D02*
G75*
G03*
X159417600Y-85725200I0J0D01*
G01*
D11*
%TO.C,SW2*%
X165200000Y-74300000D02*
X171400000Y-74300000D01*
X165201200Y-74300000D02*
X165201200Y-68100000D01*
X171400000Y-74300000D02*
X171400000Y-68100000D01*
X165200000Y-68100000D02*
X171400000Y-68100000D01*
X169780000Y-71200000D02*
G75*
G03*
X169780000Y-71200000I-1480000J0D01*
G01*
D12*
X170231068Y-71200000D02*
G75*
G03*
X170231068Y-71200000I-1931068J0D01*
G01*
X170262222Y-71200000D02*
G75*
G03*
X170262222Y-71200000I-1962222J0D01*
G01*
D11*
X170240000Y-71200000D02*
G75*
G03*
X170240000Y-71200000I-1940000J0D01*
G01*
D12*
X169417600Y-69625200D02*
G75*
G03*
X169417600Y-69625200I0J0D01*
G01*
D11*
%TO.C,SW8*%
X93520000Y-97340000D02*
X93520000Y-96230000D01*
X93520000Y-96230000D02*
X92280000Y-96230000D01*
X91078200Y-98770000D02*
X90868200Y-99850000D01*
X90920000Y-96230000D02*
X88080000Y-96230000D01*
X90870000Y-99842635D02*
X88150000Y-99834166D01*
X89380000Y-98770000D02*
X91080000Y-98770000D01*
X89380000Y-98770000D02*
X87850000Y-98770000D01*
X88111800Y-99841531D02*
X87941800Y-98751531D01*
X87080000Y-98770000D02*
X91920000Y-98770000D01*
X86720000Y-96230000D02*
X85520000Y-96230000D01*
X85520000Y-96230000D02*
X85520000Y-97340000D01*
%TO.C,SW4*%
X155000000Y-58300000D02*
X161200000Y-58300000D01*
X155001200Y-58300000D02*
X155001200Y-52100000D01*
X161200000Y-58300000D02*
X161200000Y-52100000D01*
X155000000Y-52100000D02*
X161200000Y-52100000D01*
X159580000Y-55200000D02*
G75*
G03*
X159580000Y-55200000I-1480000J0D01*
G01*
D12*
X160031068Y-55200000D02*
G75*
G03*
X160031068Y-55200000I-1931068J0D01*
G01*
X160062222Y-55200000D02*
G75*
G03*
X160062222Y-55200000I-1962222J0D01*
G01*
D11*
X160040000Y-55200000D02*
G75*
G03*
X160040000Y-55200000I-1940000J0D01*
G01*
D12*
X159217600Y-53625200D02*
G75*
G03*
X159217600Y-53625200I0J0D01*
G01*
D11*
%TO.C,SW5*%
X155200000Y-74300000D02*
X161400000Y-74300000D01*
X155201200Y-74300000D02*
X155201200Y-68100000D01*
X161400000Y-74300000D02*
X161400000Y-68100000D01*
X155200000Y-68100000D02*
X161400000Y-68100000D01*
X159780000Y-71200000D02*
G75*
G03*
X159780000Y-71200000I-1480000J0D01*
G01*
D12*
X160231068Y-71200000D02*
G75*
G03*
X160231068Y-71200000I-1931068J0D01*
G01*
X160262222Y-71200000D02*
G75*
G03*
X160262222Y-71200000I-1962222J0D01*
G01*
D11*
X160240000Y-71200000D02*
G75*
G03*
X160240000Y-71200000I-1940000J0D01*
G01*
D12*
X159417600Y-69625200D02*
G75*
G03*
X159417600Y-69625200I0J0D01*
G01*
%TD*%
M02*
