%TF.GenerationSoftware,KiCad,Pcbnew,7.0.2-6a45011f42~172~ubuntu22.04.1*%
%TF.CreationDate,2023-05-03T22:42:28+03:00*%
%TF.ProjectId,mp3_test_board,6d70335f-7465-4737-945f-626f6172642e,rev?*%
%TF.SameCoordinates,Original*%
%TF.FileFunction,Copper,L1,Top*%
%TF.FilePolarity,Positive*%
%FSLAX46Y46*%
G04 Gerber Fmt 4.6, Leading zero omitted, Abs format (unit mm)*
G04 Created by KiCad (PCBNEW 7.0.2-6a45011f42~172~ubuntu22.04.1) date 2023-05-03 22:42:28*
%MOMM*%
%LPD*%
G01*
G04 APERTURE LIST*
%TA.AperFunction,ComponentPad*%
%ADD10C,1.000000*%
%TD*%
%TA.AperFunction,SMDPad,CuDef*%
%ADD11R,0.900000X1.200000*%
%TD*%
%TA.AperFunction,SMDPad,CuDef*%
%ADD12R,1.500000X1.500000*%
%TD*%
%TA.AperFunction,SMDPad,CuDef*%
%ADD13R,1.300000X1.800000*%
%TD*%
%TA.AperFunction,ComponentPad*%
%ADD14C,0.800000*%
%TD*%
%TA.AperFunction,ComponentPad*%
%ADD15C,5.000000*%
%TD*%
%TA.AperFunction,ComponentPad*%
%ADD16O,1.500000X2.500000*%
%TD*%
%TA.AperFunction,ComponentPad*%
%ADD17O,2.500000X1.500000*%
%TD*%
%TA.AperFunction,ComponentPad*%
%ADD18O,1.600000X1.000000*%
%TD*%
%TA.AperFunction,ComponentPad*%
%ADD19O,2.100000X1.000000*%
%TD*%
%TA.AperFunction,ViaPad*%
%ADD20C,0.685800*%
%TD*%
%TA.AperFunction,ViaPad*%
%ADD21C,0.800000*%
%TD*%
%TA.AperFunction,Conductor*%
%ADD22C,0.508000*%
%TD*%
%TA.AperFunction,Conductor*%
%ADD23C,0.127000*%
%TD*%
%TA.AperFunction,Conductor*%
%ADD24C,0.800000*%
%TD*%
%TA.AperFunction,Conductor*%
%ADD25C,0.250000*%
%TD*%
%TA.AperFunction,Conductor*%
%ADD26C,0.400000*%
%TD*%
%TA.AperFunction,Conductor*%
%ADD27C,0.600000*%
%TD*%
G04 APERTURE END LIST*
D10*
%TO.P,SW7,*%
%TO.N,*%
X110150000Y-97852500D03*
X107850000Y-97852500D03*
D11*
%TO.P,SW7,1,1*%
%TO.N,Net-(R7-Pad1)*%
X111100000Y-96552500D03*
%TO.P,SW7,2,2*%
%TO.N,GND*%
X106900000Y-96552500D03*
D12*
%TO.P,SW7,3*%
%TO.N,N/C*%
X112400000Y-98392500D03*
%TO.P,SW7,4*%
X105600000Y-98392500D03*
%TD*%
D13*
%TO.P,SW1,1,1*%
%TO.N,Net-(R10-Pad2)*%
X146300000Y-75600000D03*
%TO.P,SW1,2,2*%
X146300000Y-66800000D03*
%TO.P,SW1,3,K*%
%TO.N,GND*%
X150300000Y-75600000D03*
%TO.P,SW1,4,A*%
%TO.N,unconnected-(SW1-Pad4)*%
X150300000Y-66800000D03*
%TD*%
D10*
%TO.P,SW6,*%
%TO.N,*%
X100550000Y-97780000D03*
X98250000Y-97780000D03*
D11*
%TO.P,SW6,1,1*%
%TO.N,/SOC/KEYS*%
X101500000Y-96480000D03*
%TO.P,SW6,2,2*%
%TO.N,GND*%
X97300000Y-96480000D03*
D12*
%TO.P,SW6,3*%
%TO.N,N/C*%
X102800000Y-98320000D03*
%TO.P,SW6,4*%
X96000000Y-98320000D03*
%TD*%
D14*
%TO.P,H4,1*%
%TO.N,N/C*%
X170525000Y-46700000D03*
X171074175Y-45374175D03*
X171074175Y-48025825D03*
X172400000Y-44825000D03*
D15*
X172400000Y-46700000D03*
D14*
X172400000Y-48575000D03*
X173725825Y-45374175D03*
X173725825Y-48025825D03*
X174275000Y-46700000D03*
%TD*%
%TO.P,H2,1*%
%TO.N,N/C*%
X78025000Y-46700000D03*
X78574175Y-45374175D03*
X78574175Y-48025825D03*
X79900000Y-44825000D03*
D15*
X79900000Y-46700000D03*
D14*
X79900000Y-48575000D03*
X81225825Y-45374175D03*
X81225825Y-48025825D03*
X81775000Y-46700000D03*
%TD*%
%TO.P,H1,1*%
%TO.N,N/C*%
X78025000Y-95700000D03*
X78574175Y-94374175D03*
X78574175Y-97025825D03*
X79900000Y-93825000D03*
D15*
X79900000Y-95700000D03*
D14*
X79900000Y-97575000D03*
X81225825Y-94374175D03*
X81225825Y-97025825D03*
X81775000Y-95700000D03*
%TD*%
D13*
%TO.P,SW3,1,1*%
%TO.N,Net-(R10-Pad1)*%
X156300000Y-91700000D03*
%TO.P,SW3,2,2*%
X156300000Y-82900000D03*
%TO.P,SW3,3,K*%
%TO.N,GND*%
X160300000Y-91700000D03*
%TO.P,SW3,4,A*%
%TO.N,unconnected-(SW3-Pad4)*%
X160300000Y-82900000D03*
%TD*%
%TO.P,SW2,1,1*%
%TO.N,Net-(R12-Pad2)*%
X166300000Y-75600000D03*
%TO.P,SW2,2,2*%
X166300000Y-66800000D03*
%TO.P,SW2,3,K*%
%TO.N,GND*%
X170300000Y-75600000D03*
%TO.P,SW2,4,A*%
X170300000Y-66800000D03*
%TD*%
D10*
%TO.P,SW8,*%
%TO.N,*%
X90650000Y-97780000D03*
X88350000Y-97780000D03*
D11*
%TO.P,SW8,1,1*%
%TO.N,GND*%
X91600000Y-96480000D03*
%TO.P,SW8,2,2*%
%TO.N,Net-(D12-Pad1)*%
X87400000Y-96480000D03*
D12*
%TO.P,SW8,3*%
%TO.N,N/C*%
X92900000Y-98320000D03*
%TO.P,SW8,4*%
X86100000Y-98320000D03*
%TD*%
D14*
%TO.P,H3,1*%
%TO.N,N/C*%
X170525000Y-95700000D03*
X171074175Y-94374175D03*
X171074175Y-97025825D03*
X172400000Y-93825000D03*
D15*
X172400000Y-95700000D03*
D14*
X172400000Y-97575000D03*
X173725825Y-94374175D03*
X173725825Y-97025825D03*
X174275000Y-95700000D03*
%TD*%
D13*
%TO.P,SW4,1,1*%
%TO.N,Net-(R13-Pad2)*%
X156100000Y-59600000D03*
%TO.P,SW4,2,2*%
X156100000Y-50800000D03*
%TO.P,SW4,3,K*%
%TO.N,GND*%
X160100000Y-59600000D03*
%TO.P,SW4,4,A*%
X160100000Y-50800000D03*
%TD*%
%TO.P,SW5,1,1*%
%TO.N,Net-(R11-Pad2)*%
X156300000Y-75600000D03*
%TO.P,SW5,2,2*%
X156300000Y-66800000D03*
%TO.P,SW5,3,K*%
%TO.N,GND*%
X160300000Y-75600000D03*
%TO.P,SW5,4,A*%
X160300000Y-66800000D03*
%TD*%
D16*
%TO.P,J2,1,1*%
%TO.N,GND*%
X163395000Y-87100000D03*
D17*
%TO.P,J2,2,2*%
%TO.N,unconnected-(J2-Pad2)*%
X164295000Y-84450000D03*
%TO.P,J2,3,3*%
%TO.N,Net-(D10-Pad2)*%
X172295000Y-90300000D03*
X172295000Y-83900000D03*
%TO.P,J2,4,4*%
%TO.N,Net-(D9-Pad2)*%
X164295000Y-89750000D03*
%TD*%
D18*
%TO.P,P2,S1,SHIELD*%
%TO.N,GND*%
X174505000Y-50750000D03*
D19*
X170325000Y-50750000D03*
D18*
X174505000Y-59390000D03*
D19*
X170325000Y-59390000D03*
%TD*%
D20*
%TO.N,+3V3*%
X133961747Y-88173555D03*
X107042700Y-64123938D03*
X94301140Y-90939455D03*
X84800000Y-51400000D03*
X154722700Y-50803938D03*
X83641747Y-92880055D03*
X152550000Y-50800000D03*
X103721408Y-80873216D03*
X139260000Y-48100000D03*
X102800000Y-64200000D03*
X112946020Y-52603980D03*
X94190000Y-81420000D03*
X91780000Y-60500000D03*
X96371564Y-61171564D03*
X101862358Y-80364166D03*
X119011747Y-85198555D03*
X153689132Y-50800000D03*
X115741747Y-85189949D03*
X110363806Y-63391630D03*
X88461747Y-81043555D03*
X153689132Y-50800000D03*
X79905000Y-63695000D03*
X136425747Y-97171555D03*
X154533762Y-51995000D03*
X103806445Y-92393555D03*
%TO.N,GND*%
X151807700Y-93478938D03*
X87870000Y-70420000D03*
X117082700Y-54803938D03*
X90870000Y-68920000D03*
X95531747Y-94063555D03*
X98942700Y-58783938D03*
X103301747Y-94783555D03*
X79030000Y-53570000D03*
X79203364Y-60413938D03*
X148900000Y-49300000D03*
X164032700Y-71143938D03*
X83640000Y-94830000D03*
X78812700Y-69833938D03*
X81182900Y-82920000D03*
X88208280Y-60143328D03*
X153991747Y-55863555D03*
X163570000Y-76630000D03*
X148900000Y-50300000D03*
X94161747Y-94373555D03*
X167732462Y-58793700D03*
X114740000Y-68990000D03*
X134950400Y-88922876D03*
X90870000Y-73420000D03*
X151411747Y-85487555D03*
X154010000Y-57300000D03*
X98942700Y-57873938D03*
X138243761Y-50924999D03*
X173601638Y-76325000D03*
X83141747Y-87650555D03*
X175500000Y-66900000D03*
X106672700Y-44293938D03*
X114740000Y-66520000D03*
X150800000Y-60000000D03*
X77992327Y-76792387D03*
X137750000Y-71400421D03*
X112670000Y-94310000D03*
X106660000Y-54090000D03*
X151800000Y-60000000D03*
X114730000Y-67750000D03*
X90870000Y-70420000D03*
X167665900Y-51100000D03*
X161672700Y-51513938D03*
X162482700Y-51533938D03*
X135878600Y-82725370D03*
X165934700Y-68513938D03*
X87870000Y-71920000D03*
X135750000Y-75425000D03*
X149000000Y-60000000D03*
X148900000Y-51300000D03*
X92370000Y-73420000D03*
X92370000Y-70420000D03*
X164012700Y-68433938D03*
X116058762Y-48100000D03*
X164972700Y-71143938D03*
X146900000Y-49300000D03*
X124900000Y-78386638D03*
X165032700Y-68463938D03*
X160992700Y-69373938D03*
X105166842Y-82718650D03*
X88665115Y-82395115D03*
X106860000Y-50040000D03*
X87870000Y-68920000D03*
X146900000Y-51300000D03*
X106421747Y-82719150D03*
X114341747Y-94318555D03*
X103802700Y-69303938D03*
X90870000Y-71920000D03*
X91880000Y-82440000D03*
X79000000Y-51200000D03*
X160100500Y-80200000D03*
X123800000Y-49200000D03*
X103782700Y-65463938D03*
X102620000Y-56730000D03*
X103782700Y-68153938D03*
X77738032Y-74522857D03*
X147900000Y-51300000D03*
X92370000Y-71920000D03*
X144800000Y-82875000D03*
X155330000Y-55110000D03*
X153175000Y-82775000D03*
X168035500Y-68853938D03*
X106830000Y-95120000D03*
X146900000Y-50300000D03*
X139400000Y-51700000D03*
X78420000Y-63540000D03*
X125235000Y-66956238D03*
X99020000Y-96676555D03*
X168700000Y-64400000D03*
X106721747Y-46203555D03*
X87870000Y-73420000D03*
X108210000Y-81740000D03*
X135409747Y-86249555D03*
X89370000Y-70420000D03*
X162000000Y-56200000D03*
X86944149Y-91229149D03*
X151157747Y-89551555D03*
X150300000Y-82775000D03*
X135412700Y-48653938D03*
X149900000Y-60000000D03*
X133771747Y-91403555D03*
X153600000Y-71500000D03*
X165772700Y-71153938D03*
X159582700Y-57773938D03*
X148000000Y-60000000D03*
X147900000Y-49300000D03*
X82091747Y-87803555D03*
X143381747Y-46533555D03*
X101746200Y-49146200D03*
X106542700Y-48243938D03*
X136325000Y-64910000D03*
X94231747Y-85963555D03*
X78321747Y-91071745D03*
X85921400Y-49200000D03*
X89370000Y-73420000D03*
X115804381Y-44795619D03*
X95501747Y-92962400D03*
X147900000Y-50300000D03*
X136292700Y-48663938D03*
X151411747Y-95393555D03*
X85371747Y-56023555D03*
X101625371Y-77086891D03*
X103950000Y-91430000D03*
X114740000Y-65400000D03*
X117201747Y-85189949D03*
X134592700Y-48633938D03*
X146607700Y-89478938D03*
X150335000Y-71420000D03*
X107420000Y-84814155D03*
X94420000Y-97680000D03*
X163570000Y-76630000D03*
X89370000Y-68920000D03*
X85747828Y-77291808D03*
X154040967Y-58498576D03*
X106700000Y-52410000D03*
X144625000Y-71450000D03*
X102800000Y-62000000D03*
X89370000Y-71920000D03*
X92370000Y-68920000D03*
%TO.N,+1V8A*%
X99339147Y-79018736D03*
X85745602Y-80066863D03*
X91140719Y-61659100D03*
%TO.N,Net-(C5-Pad2)*%
X84467800Y-60592797D03*
X92388385Y-65976917D03*
%TO.N,Net-(C6-Pad2)*%
X85057836Y-59932782D03*
X93201747Y-65563555D03*
%TO.N,VBUS*%
X159252700Y-53873938D03*
X160242700Y-53873938D03*
X167472700Y-56093938D03*
X158232700Y-53893938D03*
X142764970Y-50111861D03*
%TO.N,+5VA*%
X157682100Y-72403600D03*
X148607700Y-95752276D03*
X162760000Y-65540000D03*
X134750000Y-71200000D03*
X163800000Y-74190000D03*
X149007700Y-92878938D03*
X154582700Y-84153938D03*
X146607700Y-86078938D03*
X163790000Y-75020000D03*
X134836200Y-82000000D03*
X148907700Y-90378938D03*
X162760000Y-64552141D03*
%TO.N,-5VA*%
X164651747Y-79583555D03*
X165452700Y-80523938D03*
X166402700Y-79553938D03*
X165472700Y-79533938D03*
X125154539Y-74382100D03*
X160290000Y-65350000D03*
X155050000Y-78550000D03*
X125300000Y-63075000D03*
%TO.N,Net-(C61-Pad1)*%
X141224102Y-55432536D03*
X143106209Y-51662961D03*
X140212700Y-54513938D03*
X141150000Y-54500000D03*
%TO.N,Net-(R53-Pad1)*%
X99400000Y-70200000D03*
X104972700Y-68753938D03*
%TO.N,VCC*%
X166902700Y-60563938D03*
X153512700Y-47633938D03*
X149182700Y-55203938D03*
X143627329Y-50783774D03*
X167702700Y-60563938D03*
X151411747Y-56093938D03*
X152312700Y-55233938D03*
X144439288Y-50765514D03*
X152302700Y-56053938D03*
%TO.N,/SOC/SDC_D1*%
X88430000Y-56220000D03*
%TO.N,/SOC/SDC_D0*%
X90103854Y-56365910D03*
%TO.N,/SOC/SDC_CLK*%
X91852700Y-56303938D03*
X87822731Y-60940267D03*
%TO.N,/SOC/SDC_CMD*%
X93830000Y-56250000D03*
X88856230Y-60965924D03*
%TO.N,/SOC/SDC_D3*%
X88777366Y-61901661D03*
X94685717Y-56476951D03*
%TO.N,/SOC/SDC_D2*%
X89907331Y-61628569D03*
X95687115Y-56621476D03*
%TO.N,Net-(D10-Pad2)*%
X155082700Y-93953938D03*
X158682700Y-87153938D03*
%TO.N,Net-(D12-Pad1)*%
X126771747Y-84243555D03*
D21*
X129010000Y-59870000D03*
D20*
X130556000Y-58420000D03*
X127025302Y-95610000D03*
X104840000Y-93550000D03*
%TO.N,/SOC/LCD_RS*%
X103603143Y-78948866D03*
X110353230Y-76186770D03*
%TO.N,/SOC/LCD_WR*%
X106463868Y-76258911D03*
X102610679Y-77859321D03*
%TO.N,/SOC/LCD_RD*%
X103410000Y-75040000D03*
X106530000Y-74990000D03*
%TO.N,/SOC/LCD_D3*%
X101991564Y-74478436D03*
X105736110Y-74384100D03*
%TO.N,/SOC/LCD_D4*%
X110193653Y-74382875D03*
X104090000Y-75950000D03*
%TO.N,/SOC/LCD_D5*%
X110860000Y-73800000D03*
X105470000Y-77575900D03*
%TO.N,/SOC/LCD_D6*%
X104530000Y-78380000D03*
X111140000Y-72830000D03*
%TO.N,/SOC/LCD_D7*%
X106440000Y-72950000D03*
X100150000Y-76170000D03*
%TO.N,/SOC/LCD_D10*%
X100038217Y-77048215D03*
X106640154Y-72022937D03*
%TO.N,/SOC/LCD_D11*%
X106240000Y-71130000D03*
X99160000Y-77160000D03*
%TO.N,/SOC/LCD_D12*%
X106539408Y-70296864D03*
X96391747Y-76213555D03*
%TO.N,Net-(P2-PadA7)*%
X167590000Y-57280000D03*
X167650000Y-54370000D03*
%TO.N,/SOC/LCD_PWM*%
X99430000Y-67950895D03*
X121100000Y-54100000D03*
%TO.N,/SOC/KEYS*%
X78497915Y-78910430D03*
X99517247Y-93383094D03*
X99110000Y-95030000D03*
X104630000Y-96280000D03*
%TO.N,/SOC/FLASH_SPI_CS*%
X122191747Y-94648555D03*
X118281747Y-91278555D03*
X90111747Y-65993555D03*
%TO.N,Net-(R7-Pad1)*%
X112438694Y-96552500D03*
X154205747Y-92853555D03*
%TO.N,Net-(R10-Pad1)*%
X152935747Y-88027555D03*
%TO.N,Net-(R10-Pad2)*%
X154915724Y-60640400D03*
X151411747Y-83963555D03*
%TO.N,Net-(R11-Pad2)*%
X157563266Y-57108938D03*
%TO.N,Net-(R12-Pad2)*%
X159720000Y-61564338D03*
%TO.N,/SOC/USB_DM*%
X128800000Y-45300000D03*
X97882700Y-55603938D03*
X83760000Y-70920000D03*
X166532700Y-58753938D03*
%TO.N,/SOC/USB_DP*%
X97882700Y-56489241D03*
X83888691Y-69420000D03*
X129667090Y-45478652D03*
X166596256Y-53603826D03*
%TO.N,Net-(C41-Pad1)*%
X142740400Y-93682876D03*
X130647130Y-68187206D03*
%TO.N,Net-(C42-Pad1)*%
X131950000Y-81400000D03*
X142340400Y-88282876D03*
X128350000Y-79400000D03*
%TO.N,Net-(C43-Pad1)*%
X133299500Y-77403938D03*
X141740400Y-89282876D03*
%TO.N,Net-(C44-Pad1)*%
X142790400Y-95032876D03*
X131750000Y-64600000D03*
X133291500Y-67400000D03*
%TO.N,Net-(C49-Pad2)*%
X154915456Y-68551764D03*
X143808191Y-64328447D03*
%TO.N,Net-(C51-Pad2)*%
X153000000Y-75000000D03*
X154800000Y-80800000D03*
%TO.N,/NewDAC/I2C_SCL*%
X137432700Y-48253938D03*
X137189927Y-45311165D03*
X124069069Y-56729083D03*
X136332700Y-88753938D03*
X86998311Y-77326991D03*
%TO.N,/NewDAC/I2C_SDIN*%
X144400000Y-47400000D03*
X136164573Y-89572143D03*
X86390691Y-76683129D03*
X124896874Y-56840750D03*
%TO.N,/Power/AUDIO_PWR_EN*%
X174200000Y-72800000D03*
X95361747Y-76563555D03*
%TO.N,DEBUG_UART_RX*%
X121400000Y-49000000D03*
X99880000Y-63540000D03*
%TO.N,DEBUG_UART_TX*%
X119800000Y-49000000D03*
X99569393Y-65544814D03*
%TO.N,/SOC/FLASH_SPI_MOSI*%
X89081747Y-65963555D03*
X115221747Y-91464455D03*
%TO.N,/NewDAC/I2S_MCLK*%
X134971564Y-92271564D03*
X112020000Y-86220000D03*
%TO.N,/SOC/FLASH_SPI_HOLD*%
X85821747Y-65803555D03*
X110181747Y-92445455D03*
%TO.N,/SOC/FLASH_SPI_WP*%
X87101747Y-65833555D03*
X122011747Y-91208555D03*
%TO.N,/SOC/FLASH_SPI_CLK*%
X111543100Y-90188555D03*
X91151747Y-65993555D03*
%TO.N,/NewDAC/I2S_LRCK*%
X110160000Y-88150000D03*
X135030000Y-94135900D03*
X91820959Y-76471537D03*
%TO.N,/NewDAC/I2S_BCLK*%
X136273997Y-92485338D03*
X89725481Y-76798038D03*
%TO.N,/NewDAC/I2S_DIN*%
X135780000Y-93220000D03*
X90611862Y-76798038D03*
%TO.N,/Power/IRQ*%
X143345000Y-49105900D03*
X143442322Y-53022870D03*
%TO.N,+1V8B*%
X100000000Y-67200000D03*
X98967745Y-60942861D03*
%TO.N,+0V9*%
X81260000Y-79920000D03*
X145800000Y-60100000D03*
X144600000Y-57600000D03*
X91255092Y-81637264D03*
X80884847Y-72793555D03*
X100050955Y-71605900D03*
X144662700Y-58613938D03*
%TO.N,/SOC/FLASH_SPI_MISO*%
X88061747Y-65903555D03*
X119331747Y-91148555D03*
%TO.N,/Power/PWR_KEY*%
X95866195Y-64657643D03*
D21*
X107190000Y-57500000D03*
D20*
%TO.N,Net-(C76-Pad2)*%
X80920000Y-87650555D03*
X87270000Y-88716555D03*
%TO.N,Net-(C60-Pad1)*%
X107321747Y-87798555D03*
X98899644Y-86090356D03*
%TO.N,/SOC/WIFI_SDIO_CMD*%
X90001747Y-87383555D03*
X80234638Y-69480871D03*
X99307816Y-89588936D03*
%TO.N,/SOC/WIFI_SDIO_D0*%
X92165183Y-88690119D03*
X79523906Y-68953025D03*
X99277281Y-88704160D03*
%TO.N,/SOC/WIFI_SDIO_CLK*%
X78791009Y-68347125D03*
X91817721Y-87485785D03*
%TO.N,/SOC/WIFI_SDIO_D1*%
X79513004Y-67426584D03*
X93051747Y-87543555D03*
X99287165Y-86963756D03*
%TO.N,/SOC/WIFI_SDIO_D2*%
X88391747Y-87063555D03*
X99206024Y-90468367D03*
X80260000Y-65920000D03*
%TO.N,/SOC/WIFI_SDIO_D3*%
X78584186Y-66744186D03*
X88261747Y-88143555D03*
X99191747Y-91353555D03*
%TO.N,Net-(L1-Pad1)*%
X95568398Y-86095896D03*
X107029180Y-86257655D03*
%TO.N,Net-(P1-Pad38)*%
X115254264Y-54575502D03*
X110372700Y-62283938D03*
%TO.N,Net-(R13-Pad2)*%
X160842700Y-56233938D03*
%TO.N,/SOC/WIFI_REG_ON*%
X83365698Y-84656655D03*
X84089420Y-66383555D03*
%TD*%
D22*
%TO.N,GND*%
X170300000Y-64300000D02*
X169150000Y-63150000D01*
D23*
X97300000Y-96480000D02*
X98823445Y-96480000D01*
D24*
X135803970Y-82800000D02*
X135878600Y-82725370D01*
X137750000Y-71400421D02*
X137750000Y-71420000D01*
D22*
X158796062Y-68303938D02*
X160300000Y-66800000D01*
X159032700Y-81553938D02*
X159032700Y-78303938D01*
X150300000Y-72936638D02*
X152869338Y-70367300D01*
X169150000Y-63150000D02*
X166500000Y-63150000D01*
X93720000Y-96480000D02*
X94280000Y-97040000D01*
X160300000Y-82821238D02*
X159032700Y-81553938D01*
D24*
X144725000Y-82800000D02*
X144800000Y-82875000D01*
D23*
X97300000Y-96480000D02*
X98465302Y-96480000D01*
D24*
X137750000Y-71420000D02*
X137840000Y-71510000D01*
X144715000Y-71480000D02*
X144685000Y-71450000D01*
X150475000Y-71400000D02*
X150455000Y-71420000D01*
D22*
X159032700Y-78303938D02*
X160300000Y-77036638D01*
D25*
X106900000Y-96552500D02*
X106900000Y-95190000D01*
D22*
X94280000Y-97040000D02*
X94280000Y-97540000D01*
X160300000Y-82900000D02*
X160300000Y-82821238D01*
D23*
X98823445Y-96480000D02*
X99020000Y-96676555D01*
D22*
X160300000Y-66800000D02*
X163303938Y-69803938D01*
X160300000Y-77036638D02*
X160300000Y-75600000D01*
X166500000Y-63150000D02*
X162950000Y-59600000D01*
X91600000Y-96480000D02*
X93720000Y-96480000D01*
X150300000Y-75600000D02*
X150300000Y-72936638D01*
X170300000Y-66800000D02*
X170300000Y-64300000D01*
X160100000Y-59600000D02*
X160100000Y-58291238D01*
D24*
X150455000Y-71420000D02*
X150335000Y-71420000D01*
X135750000Y-82800000D02*
X135803970Y-82800000D01*
D22*
X158796062Y-70367300D02*
X158796062Y-68303938D01*
X163303938Y-69803938D02*
X167296062Y-69803938D01*
X162950000Y-59600000D02*
X160100000Y-59600000D01*
X152869338Y-70367300D02*
X158796062Y-70367300D01*
X94280000Y-97540000D02*
X94420000Y-97680000D01*
D25*
X106900000Y-95190000D02*
X106830000Y-95120000D01*
D22*
X160100000Y-58291238D02*
X159582700Y-57773938D01*
D24*
X144800000Y-82875000D02*
X144875000Y-82800000D01*
D23*
X98465302Y-96480000D02*
X98741747Y-96203555D01*
D24*
X144685000Y-71450000D02*
X144625000Y-71450000D01*
D22*
X167296062Y-69803938D02*
X170300000Y-66800000D01*
D26*
%TO.N,+1V8A*%
X91090000Y-61540000D02*
X91140719Y-61590719D01*
X91140719Y-61590719D02*
X91140719Y-61659100D01*
D23*
%TO.N,Net-(C5-Pad2)*%
X87368762Y-63890000D02*
X88500000Y-63890000D01*
X89984089Y-65374089D02*
X91785557Y-65374089D01*
X91785557Y-65374089D02*
X92415579Y-66004111D01*
X88500000Y-63890000D02*
X89984089Y-65374089D01*
X84467800Y-60989038D02*
X87368762Y-63890000D01*
X84467800Y-60592797D02*
X84467800Y-60989038D01*
%TO.N,Net-(C6-Pad2)*%
X87641762Y-63563000D02*
X88635448Y-63563000D01*
X90120017Y-65047569D02*
X92682181Y-65047569D01*
X85057836Y-59932782D02*
X85882700Y-60757646D01*
X88635448Y-63563000D02*
X90120017Y-65047569D01*
X92682181Y-65047569D02*
X93160791Y-65526179D01*
X85882700Y-61803938D02*
X87641762Y-63563000D01*
X85882700Y-60757646D02*
X85882700Y-61803938D01*
X93160791Y-65526179D02*
X93164371Y-65526179D01*
X93164371Y-65526179D02*
X93201747Y-65563555D01*
D22*
%TO.N,Net-(C61-Pad1)*%
X144239222Y-52692783D02*
X144239222Y-53360778D01*
X143100000Y-54500000D02*
X141150000Y-54500000D01*
X144239222Y-53360778D02*
X143100000Y-54500000D01*
X143106209Y-51662961D02*
X143209400Y-51662961D01*
X143209400Y-51662961D02*
X144239222Y-52692783D01*
D23*
%TO.N,Net-(R53-Pad1)*%
X99400000Y-70200000D02*
X100846062Y-68753938D01*
X100846062Y-68753938D02*
X104972700Y-68753938D01*
%TO.N,/SOC/SDC_CLK*%
X91022700Y-56303938D02*
X91852700Y-56303938D01*
X89571747Y-59273555D02*
X87723083Y-59273555D01*
X91852700Y-56303938D02*
X91852700Y-56992602D01*
X87723083Y-59273555D02*
X87502700Y-59493938D01*
X91852700Y-56992602D02*
X89571747Y-59273555D01*
X87502700Y-59493938D02*
X87502700Y-60620236D01*
X87502700Y-60620236D02*
X87822731Y-60940267D01*
%TO.N,/SOC/SDC_CMD*%
X93036638Y-56250000D02*
X92179201Y-57107437D01*
X89686988Y-59600056D02*
X88856230Y-60430814D01*
X93830000Y-56250000D02*
X93036638Y-56250000D01*
X92179201Y-57127843D02*
X89706988Y-59600056D01*
X88856230Y-60430814D02*
X88856230Y-60965924D01*
X92179201Y-57107437D02*
X92179201Y-57127843D01*
X89706988Y-59600056D02*
X89686988Y-59600056D01*
%TO.N,/SOC/SDC_D3*%
X94460629Y-56476951D02*
X94685717Y-56476951D01*
X90018516Y-59750270D02*
X90018516Y-60660511D01*
X94023554Y-57263084D02*
X92505702Y-57263084D01*
X94685717Y-56476951D02*
X94685717Y-56600921D01*
X92505702Y-57263084D02*
X90018516Y-59750270D01*
X94685717Y-56600921D02*
X94023554Y-57263084D01*
X90018516Y-60660511D02*
X88777366Y-61901661D01*
%TO.N,/SOC/SDC_D2*%
X95687115Y-56621476D02*
X92404654Y-59903938D01*
X92404654Y-59903938D02*
X90832700Y-59903938D01*
X90482700Y-61053200D02*
X89907331Y-61628569D01*
X90832700Y-59903938D02*
X90482700Y-60253938D01*
X90482700Y-60253938D02*
X90482700Y-61053200D01*
D26*
%TO.N,Net-(D10-Pad2)*%
X158232700Y-92553938D02*
X156832700Y-93953938D01*
X156832700Y-93953938D02*
X155082700Y-93953938D01*
X158232700Y-87603938D02*
X158232700Y-92553938D01*
X158682700Y-87153938D02*
X158232700Y-87603938D01*
D22*
%TO.N,Net-(D12-Pad1)*%
X126780000Y-82171808D02*
X126780000Y-62196000D01*
X126771747Y-84243555D02*
X126771747Y-82180061D01*
X102386900Y-94233100D02*
X102760000Y-93860000D01*
X119898192Y-95610000D02*
X127025302Y-95610000D01*
X88709545Y-95170455D02*
X96769545Y-95170455D01*
X102801747Y-93893555D02*
X103198647Y-93496655D01*
X87400000Y-96480000D02*
X88709545Y-95170455D01*
X103198647Y-93496655D02*
X117784847Y-93496655D01*
X126780000Y-62196000D02*
X130556000Y-58420000D01*
X117784847Y-93496655D02*
X119898192Y-95610000D01*
X97706900Y-94233100D02*
X102386900Y-94233100D01*
X126771747Y-82180061D02*
X126780000Y-82171808D01*
X96769545Y-95170455D02*
X97706900Y-94233100D01*
D23*
%TO.N,/SOC/LCD_RS*%
X104390011Y-76969989D02*
X109570011Y-76969989D01*
X109570011Y-76969989D02*
X110353230Y-76186770D01*
X103603143Y-78948866D02*
X103603143Y-77756857D01*
X103603143Y-77756857D02*
X104390011Y-76969989D01*
%TO.N,/SOC/LCD_WR*%
X103826531Y-76643469D02*
X106079310Y-76643469D01*
X106079310Y-76643469D02*
X106463868Y-76258911D01*
X102610679Y-77859321D02*
X103826531Y-76643469D01*
%TO.N,/SOC/LCD_RD*%
X103410000Y-75040000D02*
X103460000Y-74990000D01*
X103460000Y-74990000D02*
X106530000Y-74990000D01*
%TO.N,/SOC/LCD_D3*%
X105736110Y-74384100D02*
X105720210Y-74400000D01*
X105720210Y-74400000D02*
X102070000Y-74400000D01*
X102070000Y-74400000D02*
X101991564Y-74478436D01*
%TO.N,/SOC/LCD_D4*%
X104450000Y-75590000D02*
X104090000Y-75950000D01*
X106279022Y-75595911D02*
X106273111Y-75590000D01*
X106273111Y-75590000D02*
X104450000Y-75590000D01*
X110193653Y-74876347D02*
X109474089Y-75595911D01*
X109474089Y-75595911D02*
X106279022Y-75595911D01*
X110193653Y-74382875D02*
X110193653Y-74876347D01*
%TO.N,/SOC/LCD_D5*%
X109876162Y-77450000D02*
X110909130Y-76417032D01*
X110909130Y-73849130D02*
X110860000Y-73800000D01*
X105470000Y-77575900D02*
X105595900Y-77450000D01*
X105595900Y-77450000D02*
X109876162Y-77450000D01*
X110909130Y-76417032D02*
X110909130Y-73849130D01*
%TO.N,/SOC/LCD_D6*%
X111465911Y-76894089D02*
X111465911Y-73155911D01*
X105523480Y-78380000D02*
X106126480Y-77777000D01*
X110583000Y-77777000D02*
X111465911Y-76894089D01*
X104530000Y-78380000D02*
X105523480Y-78380000D01*
X106126480Y-77777000D02*
X110583000Y-77777000D01*
X111465911Y-73155911D02*
X111140000Y-72830000D01*
%TO.N,/SOC/LCD_D7*%
X100150000Y-76170000D02*
X100150000Y-75463111D01*
X102242542Y-73872525D02*
X102260017Y-73890000D01*
X102260017Y-73890000D02*
X105373321Y-73890000D01*
X100150000Y-75463111D02*
X101740586Y-73872525D01*
X101740586Y-73872525D02*
X102242542Y-73872525D01*
X106313321Y-72950000D02*
X106440000Y-72950000D01*
X105373321Y-73890000D02*
X106313321Y-72950000D01*
%TO.N,/SOC/LCD_D10*%
X99544089Y-75605911D02*
X101603995Y-73546005D01*
X104987106Y-73546005D02*
X106510174Y-72022937D01*
X101603995Y-73546005D02*
X104987106Y-73546005D01*
X106510174Y-72022937D02*
X106640154Y-72022937D01*
X99544089Y-76420978D02*
X99544089Y-75605911D01*
X100038217Y-76915106D02*
X99544089Y-76420978D01*
X100038217Y-77048215D02*
X100038217Y-76915106D01*
%TO.N,/SOC/LCD_D11*%
X99160000Y-77160000D02*
X99160000Y-75528230D01*
X104150515Y-73219485D02*
X106240000Y-71130000D01*
X101468746Y-73219485D02*
X104150515Y-73219485D01*
X99160000Y-75528230D02*
X101468746Y-73219485D01*
%TO.N,/SOC/LCD_D12*%
X96391747Y-76213555D02*
X98012908Y-76213555D01*
X101333498Y-72892965D02*
X103620146Y-72892965D01*
X106216247Y-70296864D02*
X106539408Y-70296864D01*
X103620146Y-72892965D02*
X106216247Y-70296864D01*
X98012908Y-76213555D02*
X101333498Y-72892965D01*
D25*
%TO.N,Net-(P2-PadA7)*%
X166670000Y-56660000D02*
X166670000Y-55350000D01*
X166670000Y-55350000D02*
X167650000Y-54370000D01*
X167590000Y-57280000D02*
X167290000Y-57280000D01*
X167290000Y-57280000D02*
X166670000Y-56660000D01*
D23*
%TO.N,/SOC/LCD_PWM*%
X99430000Y-67950895D02*
X102135743Y-67950895D01*
X102682700Y-67403938D02*
X107796062Y-67403938D01*
X107796062Y-67403938D02*
X121100000Y-54100000D01*
X102135743Y-67950895D02*
X102682700Y-67403938D01*
D22*
%TO.N,/SOC/KEYS*%
X78800380Y-79212895D02*
X78800380Y-87970380D01*
X78497915Y-78910430D02*
X78800380Y-79212895D01*
D25*
X101500000Y-96480000D02*
X101500000Y-96089244D01*
X102645302Y-96480000D02*
X102901747Y-96223555D01*
X100560000Y-96480000D02*
X99110000Y-95030000D01*
X101500000Y-96480000D02*
X100560000Y-96480000D01*
X101500000Y-96480000D02*
X102645302Y-96480000D01*
D22*
X98160202Y-92026049D02*
X99517247Y-93383094D01*
X82856049Y-92026049D02*
X98160202Y-92026049D01*
D25*
X104573555Y-96223555D02*
X104630000Y-96280000D01*
X102901747Y-96223555D02*
X104573555Y-96223555D01*
D22*
X78800380Y-87970380D02*
X82856049Y-92026049D01*
D23*
%TO.N,/SOC/FLASH_SPI_CS*%
X118281747Y-91278555D02*
X118281747Y-90418253D01*
X117351747Y-90413555D02*
X118286445Y-90413555D01*
X118281747Y-90418253D02*
X118286445Y-90413555D01*
X106349507Y-90833555D02*
X116931747Y-90833555D01*
X116931747Y-90833555D02*
X117351747Y-90413555D01*
X122183555Y-90413555D02*
X123020000Y-91250000D01*
X86721747Y-73153555D02*
X84631747Y-75243555D01*
X86133107Y-83525555D02*
X99041507Y-83525555D01*
X84631747Y-82024195D02*
X86133107Y-83525555D01*
X84631747Y-75243555D02*
X84631747Y-82024195D01*
X90111747Y-67183555D02*
X89551747Y-67743555D01*
X123020000Y-93820302D02*
X122191747Y-94648555D01*
X90111747Y-65993555D02*
X90111747Y-67183555D01*
X89551747Y-67743555D02*
X87051747Y-67743555D01*
X87051747Y-67743555D02*
X86721747Y-68073555D01*
X86721747Y-68073555D02*
X86721747Y-73153555D01*
X118286445Y-90413555D02*
X122183555Y-90413555D01*
X123020000Y-91250000D02*
X123020000Y-93820302D01*
X99041507Y-83525555D02*
X106349507Y-90833555D01*
D22*
%TO.N,Net-(R7-Pad1)*%
X128805747Y-98695555D02*
X149633747Y-98695555D01*
X112803747Y-96917555D02*
X127027747Y-96917555D01*
X149633747Y-98695555D02*
X153951747Y-94377555D01*
X111100000Y-96552500D02*
X112438692Y-96552500D01*
X153951747Y-94377555D02*
X153951747Y-93107555D01*
X153951747Y-93107555D02*
X154205747Y-92853555D01*
X127027747Y-96917555D02*
X128805747Y-98695555D01*
X112438692Y-96552500D02*
X112803747Y-96917555D01*
X111100000Y-96229808D02*
X111100000Y-96552500D01*
%TO.N,Net-(R10-Pad1)*%
X152935747Y-84856985D02*
X152782700Y-84703938D01*
D27*
X152782700Y-84703938D02*
X152856062Y-84703938D01*
D22*
X152935747Y-88027555D02*
X152935747Y-84856985D01*
D27*
X154660000Y-82900000D02*
X156300000Y-82900000D01*
X155983938Y-91383938D02*
X156300000Y-91700000D01*
X152856062Y-84703938D02*
X154660000Y-82900000D01*
D22*
%TO.N,Net-(R10-Pad2)*%
X152459600Y-60640400D02*
X154915724Y-60640400D01*
X146300000Y-81521238D02*
X146300000Y-75600000D01*
X146300000Y-66800000D02*
X152459600Y-60640400D01*
X148742317Y-83963555D02*
X146300000Y-81521238D01*
D27*
X146300000Y-66236638D02*
X146300000Y-66800000D01*
D22*
X151411747Y-83963555D02*
X148742317Y-83963555D01*
%TO.N,Net-(R11-Pad2)*%
X156300000Y-66800000D02*
X157563266Y-65536734D01*
X157563266Y-65536734D02*
X157563266Y-57108938D01*
%TO.N,Net-(R12-Pad2)*%
X161631362Y-62032600D02*
X166300000Y-66701238D01*
X160188262Y-62032600D02*
X161631362Y-62032600D01*
X166300000Y-66701238D02*
X166300000Y-66800000D01*
X159720000Y-61564338D02*
X160188262Y-62032600D01*
D23*
%TO.N,/SOC/USB_DM*%
X83156520Y-59330118D02*
X88282700Y-54203938D01*
X129896062Y-44203938D02*
X128800000Y-45300000D01*
X168263000Y-52523000D02*
X167060000Y-51320000D01*
X160613938Y-44203938D02*
X129896062Y-44203938D01*
X97882700Y-55603938D02*
X97737250Y-55603938D01*
X167060000Y-51320000D02*
X167060000Y-50650000D01*
X96482700Y-54203938D02*
X97882700Y-55603938D01*
X83760000Y-70920000D02*
X83156520Y-70316520D01*
X83156520Y-70316520D02*
X83156520Y-59330118D01*
X88282700Y-54203938D02*
X96482700Y-54203938D01*
X166532700Y-58753938D02*
X166986062Y-58753938D01*
X166986062Y-58753938D02*
X168263000Y-57477000D01*
X168263000Y-57477000D02*
X168263000Y-52523000D01*
X167060000Y-50650000D02*
X160613938Y-44203938D01*
%TO.N,/SOC/USB_DP*%
X166733480Y-50785250D02*
X166733480Y-53466602D01*
X160479168Y-44530938D02*
X166733480Y-50785250D01*
X83888691Y-69238691D02*
X83483520Y-68833520D01*
X83483520Y-59465566D02*
X88418148Y-54530938D01*
X129667090Y-45478652D02*
X129946490Y-45199252D01*
X166733480Y-53466602D02*
X166596256Y-53603826D01*
X129946490Y-45199252D02*
X130053718Y-45199252D01*
X83483520Y-68833520D02*
X83483520Y-59465566D01*
X88418148Y-54530938D02*
X95924397Y-54530938D01*
X130722032Y-44530938D02*
X160479168Y-44530938D01*
X83888691Y-69420000D02*
X83888691Y-69238691D01*
X95924397Y-54530938D02*
X97882700Y-56489241D01*
X130053718Y-45199252D02*
X130722032Y-44530938D01*
D22*
%TO.N,Net-(C41-Pad1)*%
X130647130Y-68187206D02*
X130647130Y-68638368D01*
X130647130Y-68638368D02*
X139832700Y-77823938D01*
X139832700Y-77823938D02*
X139832700Y-82762700D01*
X143488000Y-86418000D02*
X143488000Y-92935276D01*
X143488000Y-92935276D02*
X142740400Y-93682876D01*
X139832700Y-82762700D02*
X143488000Y-86418000D01*
%TO.N,Net-(C42-Pad1)*%
X142780000Y-89400000D02*
X142780000Y-88722476D01*
X142780000Y-88722476D02*
X142340400Y-88282876D01*
X131950000Y-81400000D02*
X131950000Y-82082501D01*
X141410313Y-90079776D02*
X142100224Y-90079776D01*
X130350000Y-81400000D02*
X128350000Y-79400000D01*
X142100224Y-90079776D02*
X142780000Y-89400000D01*
X131950000Y-81400000D02*
X130350000Y-81400000D01*
X135948537Y-84618000D02*
X141410313Y-90079776D01*
X131950000Y-82082501D02*
X134485499Y-84618000D01*
X134485499Y-84618000D02*
X135948537Y-84618000D01*
%TO.N,Net-(C43-Pad1)*%
X136367524Y-83910000D02*
X141740400Y-89282876D01*
X133472700Y-77577138D02*
X133472700Y-82603938D01*
X133472700Y-82603938D02*
X134778762Y-83910000D01*
X134778762Y-83910000D02*
X136367524Y-83910000D01*
X133299500Y-77403938D02*
X133472700Y-77577138D01*
%TO.N,Net-(C44-Pad1)*%
X135546900Y-70343900D02*
X135546900Y-72536875D01*
X140540700Y-77530675D02*
X140540700Y-82230700D01*
X135546900Y-72536875D02*
X140540700Y-77530675D01*
D23*
X133291500Y-67400000D02*
X133150000Y-67258500D01*
D26*
X133150000Y-67258500D02*
X133150000Y-66000000D01*
D22*
X133291500Y-68088500D02*
X135546900Y-70343900D01*
X144310000Y-86000000D02*
X144310000Y-93513276D01*
X140540700Y-82230700D02*
X144310000Y-86000000D01*
D26*
X133150000Y-66000000D02*
X131750000Y-64600000D01*
D22*
X133291500Y-67400000D02*
X133291500Y-68088500D01*
X144310000Y-93513276D02*
X142790400Y-95032876D01*
%TO.N,Net-(C49-Pad2)*%
X143808191Y-64328447D02*
X143808191Y-67808191D01*
X144551764Y-68551764D02*
X154915456Y-68551764D01*
X143808191Y-67808191D02*
X144551764Y-68551764D01*
%TO.N,Net-(C51-Pad2)*%
X153000000Y-79000000D02*
X154800000Y-80800000D01*
X153000000Y-75000000D02*
X153000000Y-79000000D01*
D23*
%TO.N,/NewDAC/I2C_SCL*%
X122418104Y-88743000D02*
X127972104Y-94297000D01*
X135987700Y-94742300D02*
X136880397Y-93849603D01*
X127972104Y-94297000D02*
X134333520Y-94297000D01*
X126040000Y-85720000D02*
X133298762Y-85720000D01*
X124069069Y-56729083D02*
X123732700Y-57065452D01*
X135527231Y-89112769D02*
X135886062Y-88753938D01*
X123732700Y-57065452D02*
X123732700Y-83412700D01*
X135540000Y-90600000D02*
X135527231Y-90587231D01*
X124069069Y-56729083D02*
X124057286Y-56717300D01*
X123732700Y-83412700D02*
X126040000Y-85720000D01*
X134778820Y-94742300D02*
X135987700Y-94742300D01*
X137432700Y-45553938D02*
X137189927Y-45311165D01*
X135886062Y-88753938D02*
X136332700Y-88753938D01*
X137432700Y-48253938D02*
X137432700Y-45553938D01*
X136880397Y-92234158D02*
X135540000Y-90893761D01*
X87075258Y-77403938D02*
X94307234Y-77403938D01*
X136880397Y-93849603D02*
X136880397Y-92234158D01*
X133298762Y-85720000D02*
X136332700Y-88753938D01*
X134333520Y-94297000D02*
X134778820Y-94742300D01*
X135527231Y-90587231D02*
X135527231Y-89112769D01*
X94307234Y-77403938D02*
X105646296Y-88743000D01*
X135540000Y-90893761D02*
X135540000Y-90600000D01*
X86998311Y-77326991D02*
X87075258Y-77403938D01*
X105646296Y-88743000D02*
X122418104Y-88743000D01*
%TO.N,/NewDAC/I2C_SDIN*%
X136960000Y-89600000D02*
X136960000Y-91851313D01*
X136960000Y-91851313D02*
X137207397Y-92098710D01*
X122282656Y-89070000D02*
X127836656Y-94624000D01*
X86353728Y-77789990D02*
X87057293Y-78493555D01*
X127836656Y-94624000D02*
X134198072Y-94624000D01*
X134643372Y-95069300D02*
X136290700Y-95069300D01*
X126175448Y-85393000D02*
X133434210Y-85393000D01*
X136192430Y-89600000D02*
X136960000Y-89600000D01*
X134198072Y-94624000D02*
X134643372Y-95069300D01*
X135615605Y-87574395D02*
X136010737Y-87574395D01*
X136290700Y-95069300D02*
X136830000Y-94530000D01*
X124206000Y-83423552D02*
X126175448Y-85393000D01*
X94171786Y-77730938D02*
X105510848Y-89070000D01*
X124206000Y-57531624D02*
X124206000Y-83423552D01*
X136010737Y-87574395D02*
X136960000Y-88523658D01*
X137207397Y-94152603D02*
X136770000Y-94590000D01*
X105510848Y-89070000D02*
X122282656Y-89070000D01*
X86390691Y-76683129D02*
X86353728Y-76720092D01*
X133434210Y-85393000D02*
X135615605Y-87574395D01*
X90554364Y-77730938D02*
X94171786Y-77730938D01*
X86353728Y-76720092D02*
X86353728Y-77789990D01*
X89791747Y-78493555D02*
X90554364Y-77730938D01*
X136960000Y-88523658D02*
X136960000Y-89600000D01*
X137207397Y-92098710D02*
X137207397Y-94152603D01*
X124896874Y-56840750D02*
X124206000Y-57531624D01*
X136164573Y-89572143D02*
X136192430Y-89600000D01*
X87057293Y-78493555D02*
X89791747Y-78493555D01*
D22*
%TO.N,/Power/AUDIO_PWR_EN*%
X116586000Y-73406000D02*
X116586000Y-60452000D01*
X96928279Y-78130087D02*
X101353100Y-78130087D01*
X116586000Y-60452000D02*
X121666000Y-55372000D01*
X166651747Y-62119555D02*
X164365747Y-59833555D01*
X101353100Y-78130087D02*
X103276568Y-80053555D01*
X138314192Y-55372000D02*
X138430000Y-55372000D01*
X161825747Y-52975555D02*
X147855747Y-52975555D01*
X174200000Y-65603808D02*
X170715747Y-62119555D01*
X164365747Y-59833555D02*
X164365747Y-55515555D01*
X147855747Y-52975555D02*
X144299747Y-56531555D01*
X110081747Y-79993555D02*
X110081747Y-79910253D01*
X164365747Y-55515555D02*
X161825747Y-52975555D01*
X103276568Y-80053555D02*
X110021747Y-80053555D01*
X170715747Y-62119555D02*
X166651747Y-62119555D01*
X144299747Y-56531555D02*
X139473747Y-56531555D01*
X139473747Y-56531555D02*
X138314192Y-55372000D01*
X110021747Y-80053555D02*
X110081747Y-79993555D01*
X174200000Y-72800000D02*
X174200000Y-65603808D01*
X95361747Y-76563555D02*
X96928279Y-78130087D01*
X121666000Y-55372000D02*
X138314192Y-55372000D01*
X110081747Y-79910253D02*
X116586000Y-73406000D01*
D23*
%TO.N,DEBUG_UART_RX*%
X104929771Y-56538204D02*
X99880000Y-61587975D01*
X107953400Y-51659048D02*
X107953400Y-54996600D01*
X107953400Y-54996600D02*
X106411796Y-56538204D01*
X106411796Y-56538204D02*
X104929771Y-56538204D01*
X121400000Y-49459302D02*
X120659302Y-50200000D01*
X121400000Y-49000000D02*
X121400000Y-49459302D01*
X109412448Y-50200000D02*
X107953400Y-51659048D01*
X99880000Y-61587975D02*
X99880000Y-63540000D01*
X120659302Y-50200000D02*
X109412448Y-50200000D01*
%TO.N,DEBUG_UART_TX*%
X99274089Y-65249510D02*
X99569393Y-65544814D01*
X109550000Y-49600000D02*
X107626400Y-51523600D01*
X119800000Y-49000000D02*
X119800000Y-49196770D01*
X107626400Y-54861152D02*
X106276348Y-56211204D01*
X107626400Y-51523600D02*
X107626400Y-54861152D01*
X119800000Y-49196770D02*
X119396770Y-49600000D01*
X104794323Y-56211204D02*
X99274089Y-61731438D01*
X119396770Y-49600000D02*
X109550000Y-49600000D01*
X106276348Y-56211204D02*
X104794323Y-56211204D01*
X99274089Y-61731438D02*
X99274089Y-65249510D01*
%TO.N,/SOC/FLASH_SPI_MOSI*%
X84301747Y-75083555D02*
X84301747Y-82156643D01*
X86351747Y-73033555D02*
X84301747Y-75083555D01*
X86351747Y-67923555D02*
X86351747Y-73033555D01*
X84301747Y-82156643D02*
X85997659Y-83852555D01*
X111171747Y-91163555D02*
X111174747Y-91160555D01*
X89081747Y-66343555D02*
X88091747Y-67333555D01*
X114917847Y-91160555D02*
X115221747Y-91464455D01*
X86941747Y-67333555D02*
X86351747Y-67923555D01*
X85997659Y-83852555D02*
X98906059Y-83852555D01*
X106214059Y-91160555D02*
X111311747Y-91160555D01*
X111174747Y-91160555D02*
X114917847Y-91160555D01*
X88091747Y-67333555D02*
X86941747Y-67333555D01*
X89081747Y-65963555D02*
X89081747Y-66343555D01*
X98906059Y-83852555D02*
X106214059Y-91160555D01*
%TO.N,/NewDAC/I2S_MCLK*%
X112020000Y-86821808D02*
X112614192Y-87416000D01*
X122940896Y-87416000D02*
X127796460Y-92271564D01*
X127796460Y-92271564D02*
X134971564Y-92271564D01*
X112020000Y-86220000D02*
X112020000Y-86821808D01*
X112614192Y-87416000D02*
X122940896Y-87416000D01*
%TO.N,/SOC/FLASH_SPI_HOLD*%
X98499715Y-84833555D02*
X105807715Y-92141555D01*
X85337299Y-66288003D02*
X85337299Y-72660659D01*
X83320747Y-74677211D02*
X83320747Y-82562987D01*
X85821747Y-65803555D02*
X85337299Y-66288003D01*
X83320747Y-82562987D02*
X85591315Y-84833555D01*
X105807715Y-92141555D02*
X109877847Y-92141555D01*
X85337299Y-72660659D02*
X83320747Y-74677211D01*
X85591315Y-84833555D02*
X98499715Y-84833555D01*
X109877847Y-92141555D02*
X110181747Y-92445455D01*
%TO.N,/SOC/FLASH_SPI_WP*%
X110897851Y-91814555D02*
X105943163Y-91814555D01*
X120175302Y-91250000D02*
X119052447Y-92372855D01*
X121970302Y-91250000D02*
X120175302Y-91250000D01*
X83647747Y-74812659D02*
X85664299Y-72796107D01*
X85726763Y-84506555D02*
X83647747Y-82427539D01*
X111456151Y-92372855D02*
X110897851Y-91814555D01*
X87101747Y-66248659D02*
X87101747Y-65833555D01*
X85664299Y-67686107D02*
X87101747Y-66248659D01*
X119052447Y-92372855D02*
X111456151Y-92372855D01*
X122011747Y-91208555D02*
X121970302Y-91250000D01*
X105943163Y-91814555D02*
X98635163Y-84506555D01*
X83647747Y-82427539D02*
X83647747Y-74812659D01*
X85664299Y-72796107D02*
X85664299Y-67686107D01*
X98635163Y-84506555D02*
X85726763Y-84506555D01*
%TO.N,/SOC/FLASH_SPI_CLK*%
X87081747Y-68283555D02*
X87241747Y-68123555D01*
X89821747Y-68123555D02*
X91151747Y-66793555D01*
X99176955Y-83198555D02*
X86268555Y-83198555D01*
X86268555Y-83198555D02*
X84971747Y-81901747D01*
X87081747Y-73303555D02*
X87081747Y-68283555D01*
X84971747Y-75413555D02*
X87081747Y-73303555D01*
X106166955Y-90188555D02*
X99176955Y-83198555D01*
X87241747Y-68123555D02*
X89821747Y-68123555D01*
X111543100Y-90188555D02*
X106166955Y-90188555D01*
X91151747Y-66793555D02*
X91151747Y-65993555D01*
X84971747Y-81901747D02*
X84971747Y-75413555D01*
%TO.N,/NewDAC/I2S_LRCK*%
X128107552Y-93970000D02*
X134864100Y-93970000D01*
X110991648Y-88358352D02*
X111030296Y-88397000D01*
X134864100Y-93970000D02*
X135030000Y-94135900D01*
X111030296Y-88397000D02*
X122534552Y-88397000D01*
X122534552Y-88397000D02*
X128107552Y-93970000D01*
X110783296Y-88150000D02*
X110991648Y-88358352D01*
X110160000Y-88150000D02*
X110783296Y-88150000D01*
%TO.N,/NewDAC/I2S_BCLK*%
X128202448Y-93140000D02*
X122805448Y-87743000D01*
X103305347Y-85477155D02*
X94148147Y-76319955D01*
X94148147Y-76319955D02*
X92923259Y-76319955D01*
X134960000Y-93140000D02*
X128202448Y-93140000D01*
X109035347Y-85477155D02*
X103305347Y-85477155D01*
X135614662Y-92485338D02*
X134960000Y-93140000D01*
X92426859Y-75823555D02*
X90699964Y-75823555D01*
X136273997Y-92485338D02*
X135614662Y-92485338D01*
X92923259Y-76319955D02*
X92426859Y-75823555D01*
X109591747Y-86033555D02*
X109035347Y-85477155D01*
X111301192Y-87743000D02*
X112272302Y-87743000D01*
X112272302Y-87743000D02*
X112281747Y-87733555D01*
X112272302Y-87743000D02*
X112605448Y-87743000D01*
X90699964Y-75823555D02*
X89725481Y-76798038D01*
X122805448Y-87743000D02*
X112605448Y-87743000D01*
X109591747Y-86033555D02*
X111301192Y-87743000D01*
%TO.N,/NewDAC/I2S_DIN*%
X111165744Y-88070000D02*
X122670000Y-88070000D01*
X135470000Y-93530000D02*
X135780000Y-93220000D01*
X122670000Y-88070000D02*
X128130000Y-93530000D01*
X128130000Y-93530000D02*
X135470000Y-93530000D01*
X109959299Y-86863555D02*
X111165744Y-88070000D01*
X90611862Y-76798038D02*
X90891261Y-77077437D01*
X94443181Y-77077437D02*
X104229299Y-86863555D01*
X90891261Y-77077437D02*
X94443181Y-77077437D01*
X104229299Y-86863555D02*
X109959299Y-86863555D01*
%TO.N,/Power/IRQ*%
X141800000Y-52000000D02*
X141800000Y-50350000D01*
X142822870Y-53022870D02*
X141800000Y-52000000D01*
X143442322Y-53022870D02*
X142822870Y-53022870D01*
X141800000Y-50350000D02*
X143194550Y-48955450D01*
X143194550Y-48955450D02*
X143345000Y-49105900D01*
D26*
%TO.N,+1V8B*%
X98811069Y-61331069D02*
X98740000Y-61260000D01*
D23*
%TO.N,/SOC/FLASH_SPI_MISO*%
X106078611Y-91487555D02*
X111033299Y-91487555D01*
X111591599Y-92045855D02*
X118434447Y-92045855D01*
X83974747Y-74948107D02*
X83974747Y-82292091D01*
X98770611Y-84179555D02*
X106078611Y-91487555D01*
X86024747Y-72898107D02*
X83974747Y-74948107D01*
X85970000Y-84179555D02*
X98750000Y-84179555D01*
X118434447Y-92045855D02*
X119331747Y-91148555D01*
X111033299Y-91487555D02*
X111591599Y-92045855D01*
X83974747Y-82292091D02*
X85862211Y-84179555D01*
X86806299Y-67006555D02*
X86024747Y-67788107D01*
X87428747Y-67006555D02*
X86806299Y-67006555D01*
X88061747Y-66373555D02*
X87428747Y-67006555D01*
X88061747Y-65903555D02*
X88061747Y-66373555D01*
X85862211Y-84179555D02*
X85970000Y-84179555D01*
X86024747Y-67788107D02*
X86024747Y-72898107D01*
%TO.N,/Power/PWR_KEY*%
X101570000Y-62020000D02*
X106210000Y-57380000D01*
X101570000Y-64650000D02*
X101570000Y-62020000D01*
X107140000Y-57380000D02*
X107190000Y-57430000D01*
X107190000Y-57430000D02*
X107190000Y-57500000D01*
X100119275Y-66100725D02*
X101570000Y-64650000D01*
X106210000Y-57380000D02*
X107140000Y-57380000D01*
X95866195Y-64657643D02*
X97309277Y-66100725D01*
X97309277Y-66100725D02*
X100119275Y-66100725D01*
D25*
%TO.N,Net-(C76-Pad2)*%
X87270000Y-88620000D02*
X87270000Y-88716555D01*
X86660000Y-88620000D02*
X87270000Y-88620000D01*
X80920000Y-87650555D02*
X80920000Y-88750000D01*
X86430000Y-88850000D02*
X86660000Y-88620000D01*
X81020000Y-88850000D02*
X86430000Y-88850000D01*
X80920000Y-88750000D02*
X81020000Y-88850000D01*
D23*
%TO.N,/SOC/WIFI_SDIO_CMD*%
X91914711Y-89296519D02*
X99015399Y-89296519D01*
X81490747Y-70736980D02*
X81490747Y-75160443D01*
X79820440Y-85414144D02*
X80739851Y-86333555D01*
X79820440Y-76830750D02*
X79820440Y-85414144D01*
X99015399Y-89296519D02*
X99307816Y-89588936D01*
X81490747Y-75160443D02*
X79820440Y-76830750D01*
X88951747Y-86333555D02*
X90001747Y-87383555D01*
X80234638Y-69480871D02*
X81490747Y-70736980D01*
X80739851Y-86333555D02*
X88951747Y-86333555D01*
X90001747Y-87383555D02*
X91914711Y-89296519D01*
%TO.N,/SOC/WIFI_SDIO_D0*%
X90620000Y-87250000D02*
X92060119Y-88690119D01*
X80096960Y-77016678D02*
X80096960Y-85228216D01*
X81817747Y-75295891D02*
X80096960Y-77016678D01*
X79602460Y-68874471D02*
X80493233Y-68874471D01*
X92444583Y-88969519D02*
X99011922Y-88969519D01*
X80096960Y-85228216D02*
X80698800Y-85830056D01*
X90620000Y-86355380D02*
X90620000Y-87250000D01*
X80698800Y-85830056D02*
X90094676Y-85830056D01*
X92165183Y-88690119D02*
X92444583Y-88969519D01*
X81817747Y-70198985D02*
X81817747Y-75295891D01*
X79523906Y-68953025D02*
X79602460Y-68874471D01*
X92060119Y-88690119D02*
X92165183Y-88690119D01*
X80493233Y-68874471D02*
X81817747Y-70198985D01*
X99011922Y-88969519D02*
X99277281Y-88704160D01*
X90094676Y-85830056D02*
X90620000Y-86355380D01*
%TO.N,/SOC/WIFI_SDIO_CLK*%
X82144747Y-70063537D02*
X82144747Y-75431339D01*
X78791009Y-68347125D02*
X78804196Y-68333938D01*
X90230124Y-85503056D02*
X91817721Y-87090653D01*
X80373480Y-85042288D02*
X80834248Y-85503056D01*
X80373480Y-77202606D02*
X80373480Y-85042288D01*
X78804196Y-68333938D02*
X80415148Y-68333938D01*
X80834248Y-85503056D02*
X90230124Y-85503056D01*
X82144747Y-75431339D02*
X80373480Y-77202606D01*
X91817721Y-87090653D02*
X91817721Y-87485785D01*
X80415148Y-68333938D02*
X82144747Y-70063537D01*
%TO.N,/SOC/WIFI_SDIO_D1*%
X79513004Y-67426584D02*
X80355346Y-67426584D01*
X87363853Y-85189555D02*
X87377352Y-85176056D01*
X93051747Y-87543555D02*
X93823711Y-88315519D01*
X97935402Y-88315519D02*
X99287165Y-86963756D01*
X81077747Y-85189555D02*
X87363853Y-85189555D01*
X87377352Y-85176056D02*
X90365572Y-85176056D01*
X82471747Y-75566787D02*
X80650000Y-77388534D01*
X93823711Y-88315519D02*
X97935402Y-88315519D01*
X82471747Y-69542985D02*
X82471747Y-75566787D01*
X90365572Y-85176056D02*
X92733071Y-87543555D01*
X80650000Y-84761808D02*
X81077747Y-85189555D01*
X80650000Y-77388534D02*
X80650000Y-84761808D01*
X80355346Y-67426584D02*
X82471747Y-69542985D01*
X92733071Y-87543555D02*
X93051747Y-87543555D01*
%TO.N,/SOC/WIFI_SDIO_D2*%
X98463519Y-89623519D02*
X98483519Y-89623519D01*
X90068311Y-88600119D02*
X90115183Y-88600119D01*
X79543920Y-85600072D02*
X80604403Y-86660555D01*
X88578619Y-87063555D02*
X90115183Y-88600119D01*
X80604403Y-86660555D02*
X86028747Y-86660555D01*
X78184609Y-70063427D02*
X78801747Y-70680565D01*
X97280000Y-89623519D02*
X98463519Y-89623519D01*
X88391747Y-87063555D02*
X88578619Y-87063555D01*
X79543920Y-78064616D02*
X79543920Y-85600072D01*
X98463519Y-89623519D02*
X99206024Y-90366024D01*
X78801747Y-77322443D02*
X79543920Y-78064616D01*
X90115183Y-88600119D02*
X91138583Y-89623519D01*
X91138583Y-89623519D02*
X97280000Y-89623519D01*
X78184609Y-67897399D02*
X78184609Y-70063427D01*
X86028747Y-86660555D02*
X86431747Y-87063555D01*
X80162008Y-65920000D02*
X78184609Y-67897399D01*
X78801747Y-70680565D02*
X78801747Y-77322443D01*
X86431747Y-87063555D02*
X88391747Y-87063555D01*
X99206024Y-90366024D02*
X99206024Y-90468367D01*
X80260000Y-65920000D02*
X80162008Y-65920000D01*
%TO.N,/SOC/WIFI_SDIO_D3*%
X78584186Y-66744186D02*
X78584186Y-67035374D01*
X85145747Y-86987555D02*
X86211747Y-88053555D01*
X97788711Y-89950519D02*
X99191747Y-91353555D01*
X88261747Y-88143555D02*
X90068711Y-89950519D01*
X79267400Y-85786000D02*
X80468955Y-86987555D01*
X88171747Y-88053555D02*
X88261747Y-88143555D01*
X77857609Y-67761951D02*
X77857609Y-70198875D01*
X80468955Y-86987555D02*
X85145747Y-86987555D01*
X78525227Y-77436981D02*
X79267400Y-78179154D01*
X78584186Y-67035374D02*
X77857609Y-67761951D01*
X90068711Y-89950519D02*
X97788711Y-89950519D01*
X86211747Y-88053555D02*
X88171747Y-88053555D01*
X78525227Y-70866493D02*
X78525227Y-77436981D01*
X79267400Y-78179154D02*
X79267400Y-85786000D01*
X77857609Y-70198875D02*
X78525227Y-70866493D01*
D27*
%TO.N,unconnected-(SW1-Pad4)*%
X150300000Y-66800000D02*
X150300000Y-66200000D01*
D26*
%TO.N,Net-(P1-Pad38)*%
X115254264Y-54575502D02*
X115254264Y-58091038D01*
X111061364Y-62283938D02*
X110372700Y-62283938D01*
X115254264Y-58091038D02*
X111061364Y-62283938D01*
D22*
%TO.N,Net-(R13-Pad2)*%
X156552700Y-56233938D02*
X160842700Y-56233938D01*
X156100000Y-56686638D02*
X156552700Y-56233938D01*
X156100000Y-59600000D02*
X156100000Y-56686638D01*
D23*
%TO.N,/SOC/WIFI_REG_ON*%
X84622911Y-72482391D02*
X84622911Y-66917046D01*
X83365698Y-84656655D02*
X83365698Y-83905698D01*
X82993747Y-83533747D02*
X82993747Y-74111555D01*
X84622911Y-66917046D02*
X84089420Y-66383555D01*
X82993747Y-74111555D02*
X84622911Y-72482391D01*
X83365698Y-83905698D02*
X82993747Y-83533747D01*
%TD*%
M02*
