%TF.GenerationSoftware,KiCad,Pcbnew,7.0.2-6a45011f42~172~ubuntu22.04.1*%
%TF.CreationDate,2023-05-03T22:42:28+03:00*%
%TF.ProjectId,mp3_test_board,6d70335f-7465-4737-945f-626f6172642e,rev?*%
%TF.SameCoordinates,Original*%
%TF.FileFunction,Soldermask,Top*%
%TF.FilePolarity,Negative*%
%FSLAX46Y46*%
G04 Gerber Fmt 4.6, Leading zero omitted, Abs format (unit mm)*
G04 Created by KiCad (PCBNEW 7.0.2-6a45011f42~172~ubuntu22.04.1) date 2023-05-03 22:42:28*
%MOMM*%
%LPD*%
G01*
G04 APERTURE LIST*
%ADD10C,1.000000*%
%ADD11R,0.900000X1.200000*%
%ADD12R,1.500000X1.500000*%
%ADD13R,1.300000X1.800000*%
%ADD14C,0.800000*%
%ADD15C,5.000000*%
%ADD16O,2.000000X25.000000*%
%ADD17C,0.001000*%
%ADD18O,1.500000X2.500000*%
%ADD19O,2.500000X1.500000*%
%ADD20C,0.650000*%
%ADD21O,1.600000X1.000000*%
%ADD22O,2.100000X1.000000*%
%ADD23C,0.999997*%
G04 APERTURE END LIST*
D10*
%TO.C,SW7*%
X110150000Y-97852500D03*
X107850000Y-97852500D03*
D11*
X111100000Y-96552500D03*
X106900000Y-96552500D03*
D12*
X112400000Y-98392500D03*
X105600000Y-98392500D03*
%TD*%
D13*
%TO.C,SW1*%
X146300000Y-75600000D03*
X146300000Y-66800000D03*
X150300000Y-75600000D03*
X150300000Y-66800000D03*
%TD*%
D10*
%TO.C,SW6*%
X100550000Y-97780000D03*
X98250000Y-97780000D03*
D11*
X101500000Y-96480000D03*
X97300000Y-96480000D03*
D12*
X102800000Y-98320000D03*
X96000000Y-98320000D03*
%TD*%
D14*
%TO.C,H4*%
X170525000Y-46700000D03*
X171074175Y-45374175D03*
X171074175Y-48025825D03*
X172400000Y-44825000D03*
D15*
X172400000Y-46700000D03*
D14*
X172400000Y-48575000D03*
X173725825Y-45374175D03*
X173725825Y-48025825D03*
X174275000Y-46700000D03*
%TD*%
%TO.C,H2*%
X78025000Y-46700000D03*
X78574175Y-45374175D03*
X78574175Y-48025825D03*
X79900000Y-44825000D03*
D15*
X79900000Y-46700000D03*
D14*
X79900000Y-48575000D03*
X81225825Y-45374175D03*
X81225825Y-48025825D03*
X81775000Y-46700000D03*
%TD*%
D16*
%TO.C,P1*%
X120710000Y-71222533D03*
%TD*%
D14*
%TO.C,H1*%
X78025000Y-95700000D03*
X78574175Y-94374175D03*
X78574175Y-97025825D03*
X79900000Y-93825000D03*
D15*
X79900000Y-95700000D03*
D14*
X79900000Y-97575000D03*
X81225825Y-94374175D03*
X81225825Y-97025825D03*
X81775000Y-95700000D03*
%TD*%
D13*
%TO.C,SW3*%
X156300000Y-91700000D03*
X156300000Y-82900000D03*
X160300000Y-91700000D03*
X160300000Y-82900000D03*
%TD*%
%TO.C,SW2*%
X166300000Y-75600000D03*
X166300000Y-66800000D03*
X170300000Y-75600000D03*
X170300000Y-66800000D03*
%TD*%
D10*
%TO.C,SW8*%
X90650000Y-97780000D03*
X88350000Y-97780000D03*
D11*
X91600000Y-96480000D03*
X87400000Y-96480000D03*
D12*
X92900000Y-98320000D03*
X86100000Y-98320000D03*
%TD*%
D14*
%TO.C,H3*%
X170525000Y-95700000D03*
X171074175Y-94374175D03*
X171074175Y-97025825D03*
X172400000Y-93825000D03*
D15*
X172400000Y-95700000D03*
D14*
X172400000Y-97575000D03*
X173725825Y-94374175D03*
X173725825Y-97025825D03*
X174275000Y-95700000D03*
%TD*%
D13*
%TO.C,SW4*%
X156100000Y-59600000D03*
X156100000Y-50800000D03*
X160100000Y-59600000D03*
X160100000Y-50800000D03*
%TD*%
%TO.C,SW5*%
X156300000Y-75600000D03*
X156300000Y-66800000D03*
X160300000Y-75600000D03*
X160300000Y-66800000D03*
%TD*%
D17*
%TO.C,J2*%
X173795000Y-87100000D03*
X166795000Y-87100000D03*
D18*
X163395000Y-87100000D03*
D19*
X164295000Y-84450000D03*
X172295000Y-90300000D03*
X172295000Y-83900000D03*
X164295000Y-89750000D03*
%TD*%
D20*
%TO.C,P2*%
X170855000Y-52180000D03*
X170855000Y-57960000D03*
D21*
X174505000Y-50750000D03*
D22*
X170325000Y-50750000D03*
D21*
X174505000Y-59390000D03*
D22*
X170325000Y-59390000D03*
%TD*%
D23*
%TO.C,J1*%
X88918900Y-47448338D03*
X96894500Y-47448338D03*
%TD*%
M02*
